%
M48
M72
T01C0.0120
T02C0.0138
T03C0.0150
%
T01
X11178Y12247
X12364Y11266
X13609Y10362
X14908Y9537
X16257Y8795
X17650Y8140
X19081Y7573
X20545Y7098
X22035Y6715
X23547Y6427
X25074Y6234
X26610Y6137
X28150Y6137
X29686Y6234
X31213Y6427
X32725Y6715
X34215Y7098
X35679Y7573
X37110Y8140
X38503Y8795
X39852Y9537
X41151Y10362
X42396Y11266
X43582Y12247
X44704Y13301
X45758Y14423
X46739Y15609
X47643Y16854
X48468Y18153
X49210Y19502
X49865Y20895
X50432Y22326
X50907Y23790
X51290Y25280
X51515Y26730
X51753Y27542
X51455Y28325
X51896Y29069
X51480Y29875
X51130Y29875
X50680Y30125
X50655Y29475
X51943Y30630
X51868Y31395
X51971Y32206
X51805Y32950
X51578Y34458
X51290Y35970
X50907Y37460
X50432Y38924
X49865Y40355
X49210Y41748
X48468Y43097
X47643Y44396
X46739Y45641
X45758Y46827
X44704Y47949
X43582Y49003
X42396Y49984
X41151Y50888
X39852Y51713
X38503Y52455
X37110Y53110
X35679Y53677
X34215Y54152
X32725Y54535
X31213Y54823
X29686Y55016
X28150Y55113
X26610Y55113
X25074Y55016
X23547Y54823
X22035Y54535
X20545Y54152
X19081Y53677
X17650Y53110
X16257Y52455
X14908Y51713
X13609Y50888
X12364Y49984
X11178Y49003
X10056Y47949
X9002Y46827
X8021Y45641
X7117Y44396
X6292Y43097
X5550Y41748
X4895Y40355
X4328Y38924
X3853Y37460
X3470Y35970
X3182Y34458
X2989Y32931
X2892Y31395
X2892Y29855
X2989Y28319
X3182Y26792
X3470Y25280
X3853Y23790
X4328Y22326
X4895Y20895
X5550Y19502
X6292Y18153
X7117Y16854
X8021Y15609
X9002Y14423
X10056Y13301
X19660Y24049
X20798Y22982
X22045Y22007
X23470Y21221
X24973Y20768
X26536Y20460
X28144Y20404
X29714Y20649
X31265Y21140
X32676Y21989
X34006Y22880
X35148Y23938
X36048Y25235
X36480Y25600
X36884Y26615
X36580Y26750
X35855Y27075
X35230Y25850
X37337Y28193
X36480Y29500
X36830Y29950
X36530Y30175
X37355Y29825
X37695Y29806
X37531Y31419
X37455Y33025
X37101Y32979
X36740Y34475
X36041Y35901
X35125Y37171
X33997Y38313
X32715Y39273
X31290Y40004
X29812Y40507
X28199Y40765
X26601Y40771
X25021Y40501
X23495Y40060
X22109Y39336
X20804Y38370
X19682Y37207
X18757Y35910
X18051Y34535
X17548Y33007
X17240Y31444
X17259Y29856
X17504Y28291
X18020Y26765
X18719Y25329
X22796Y28389
X23711Y27082
X24986Y26122
X26494Y25602
X28090Y25575
X29590Y26075
X30923Y27006
X31230Y26875
X30355Y27675
X32073Y28231
X31430Y29725
X31555Y30050
X31905Y29900
X32280Y29850
X32603Y29789
X32580Y31460
X31889Y32986
X31130Y32525
X31049Y34168
X29774Y35128
X28266Y35648
X26670Y35675
X25144Y35209
X23837Y34294
X22877Y33019
X22357Y31511
X22330Y29915
T02
X50605Y28450
T03
X50235Y30400
X50235Y30630
X50235Y30850
X52425Y30865
X52425Y30645
X52425Y30415
X53100Y30405
X53100Y30635
X53100Y30855
X38070Y30855
X38070Y30635
X38070Y30405
X36140Y30405
X36140Y30635
X36140Y30855
X33065Y30855
X33065Y30635
X33065Y30405
X27605Y24935
X27375Y24935
X27155Y24935
X27150Y21865
X27370Y21865
X27600Y21865
X27605Y19930
X27375Y19930
X27155Y19930
X21680Y30400
X21680Y30630
X21680Y30850
X18615Y30850
X18615Y30630
X18615Y30400
X16680Y30405
X16680Y30635
X16680Y30855
X27150Y36320
X27370Y36320
X27600Y36320
X27605Y39385
X27375Y39385
X27155Y39385
X27155Y41325
X27375Y41325
X27605Y41325
X27605Y53480
X27375Y53480
X27155Y53480
X27155Y55670
X27375Y55670
X27605Y55670
X27600Y56355
X27370Y56355
X27150Y56355
X4480Y30825
X4480Y30605
X4480Y30375
X2375Y30405
X2375Y30635
X2375Y30855
X1665Y30845
X1665Y30625
X1665Y30395
X27145Y7765
X27365Y7765
X27595Y7765
X27605Y5580
X27375Y5580
X27155Y5580
X27155Y4925
X27375Y4925
X27605Y4925
M30
