G75*
%MOIN*%
%OFA0B0*%
%FSLAX25Y25*%
%IPPOS*%
%LPD*%
%AMOC8*
5,1,8,0,0,1.08239X$1,22.5*
%
%ADD10C,0.00600*%
%ADD11C,0.00000*%
D10*
X0001300Y0033750D02*
X0001300Y0578750D01*
X0546300Y0578750D01*
X0546300Y0033750D01*
X0001300Y0033750D01*
X0016300Y0123750D02*
X0091300Y0048750D01*
X0271300Y0048750D01*
X0271300Y0056250D01*
X0276300Y0056250D02*
X0276300Y0048750D01*
X0271300Y0048750D01*
X0276300Y0048750D02*
X0531300Y0048750D01*
X0531300Y0303750D01*
X0523800Y0303750D01*
X0523800Y0308750D02*
X0531300Y0308750D01*
X0531300Y0303750D01*
X0531300Y0308750D02*
X0531300Y0563750D01*
X0276300Y0563750D01*
X0276300Y0556250D01*
X0271300Y0556250D02*
X0271300Y0563750D01*
X0276300Y0563750D01*
X0271300Y0563750D02*
X0016300Y0563750D01*
X0016300Y0308750D01*
X0023800Y0308750D01*
X0023800Y0303750D02*
X0016300Y0303750D01*
X0016300Y0123750D01*
X0016300Y0303750D02*
X0016300Y0308750D01*
X0044800Y0308750D02*
X0167300Y0308750D01*
X0167300Y0303750D02*
X0044800Y0303750D01*
X0185800Y0303750D02*
X0217300Y0303750D01*
X0217300Y0308750D02*
X0185800Y0308750D01*
X0167300Y0308750D02*
X0167377Y0311329D01*
X0167516Y0313906D01*
X0167718Y0316479D01*
X0167983Y0319046D01*
X0168310Y0321606D01*
X0168700Y0324158D01*
X0169151Y0326699D01*
X0169665Y0329228D01*
X0170240Y0331744D01*
X0170876Y0334245D01*
X0171573Y0336730D01*
X0172330Y0339197D01*
X0173147Y0341645D01*
X0174024Y0344072D01*
X0174960Y0346478D01*
X0175954Y0348860D01*
X0177005Y0351216D01*
X0178114Y0353547D01*
X0179279Y0355850D01*
X0180500Y0358123D01*
X0181777Y0360366D01*
X0183107Y0362578D01*
X0184491Y0364756D01*
X0185928Y0366900D01*
X0187416Y0369009D01*
X0188956Y0371080D01*
X0190545Y0373113D01*
X0192184Y0375107D01*
X0193870Y0377061D01*
X0195604Y0378972D01*
X0197384Y0380841D01*
X0199209Y0382666D01*
X0201078Y0384446D01*
X0202989Y0386180D01*
X0204943Y0387866D01*
X0206937Y0389505D01*
X0208970Y0391094D01*
X0211041Y0392634D01*
X0213150Y0394122D01*
X0215294Y0395559D01*
X0217472Y0396943D01*
X0219684Y0398273D01*
X0221927Y0399550D01*
X0224200Y0400771D01*
X0226503Y0401936D01*
X0228834Y0403045D01*
X0231190Y0404096D01*
X0233572Y0405090D01*
X0235978Y0406026D01*
X0238405Y0406903D01*
X0240853Y0407720D01*
X0243320Y0408477D01*
X0245805Y0409174D01*
X0248306Y0409810D01*
X0250822Y0410385D01*
X0253351Y0410899D01*
X0255892Y0411350D01*
X0258444Y0411740D01*
X0261004Y0412067D01*
X0263571Y0412332D01*
X0266144Y0412534D01*
X0268721Y0412673D01*
X0271300Y0412750D01*
X0271300Y0535250D01*
X0276300Y0535250D02*
X0276300Y0412750D01*
X0276300Y0394250D02*
X0276300Y0362750D01*
X0271300Y0362750D02*
X0271300Y0394250D01*
X0330300Y0308750D02*
X0361800Y0308750D01*
X0361800Y0303750D02*
X0330300Y0303750D01*
X0380300Y0303750D02*
X0502800Y0303750D01*
X0502800Y0308750D02*
X0380300Y0308750D01*
X0380223Y0311329D01*
X0380084Y0313906D01*
X0379882Y0316479D01*
X0379617Y0319046D01*
X0379290Y0321606D01*
X0378900Y0324158D01*
X0378449Y0326699D01*
X0377935Y0329228D01*
X0377360Y0331744D01*
X0376724Y0334245D01*
X0376027Y0336730D01*
X0375270Y0339197D01*
X0374453Y0341645D01*
X0373576Y0344072D01*
X0372640Y0346478D01*
X0371646Y0348860D01*
X0370595Y0351216D01*
X0369486Y0353547D01*
X0368321Y0355850D01*
X0367100Y0358123D01*
X0365823Y0360366D01*
X0364493Y0362578D01*
X0363109Y0364756D01*
X0361672Y0366900D01*
X0360184Y0369009D01*
X0358644Y0371080D01*
X0357055Y0373113D01*
X0355416Y0375107D01*
X0353730Y0377061D01*
X0351996Y0378972D01*
X0350216Y0380841D01*
X0348391Y0382666D01*
X0346522Y0384446D01*
X0344611Y0386180D01*
X0342657Y0387866D01*
X0340663Y0389505D01*
X0338630Y0391094D01*
X0336559Y0392634D01*
X0334450Y0394122D01*
X0332306Y0395559D01*
X0330128Y0396943D01*
X0327916Y0398273D01*
X0325673Y0399550D01*
X0323400Y0400771D01*
X0321097Y0401936D01*
X0318766Y0403045D01*
X0316410Y0404096D01*
X0314028Y0405090D01*
X0311622Y0406026D01*
X0309195Y0406903D01*
X0306747Y0407720D01*
X0304280Y0408477D01*
X0301795Y0409174D01*
X0299294Y0409810D01*
X0296778Y0410385D01*
X0294249Y0410899D01*
X0291708Y0411350D01*
X0289156Y0411740D01*
X0286596Y0412067D01*
X0284029Y0412332D01*
X0281456Y0412534D01*
X0278879Y0412673D01*
X0276300Y0412750D01*
X0276300Y0362750D02*
X0277654Y0362686D01*
X0279006Y0362590D01*
X0280355Y0362461D01*
X0281701Y0362299D01*
X0283042Y0362105D01*
X0284378Y0361878D01*
X0285709Y0361619D01*
X0287033Y0361328D01*
X0288349Y0361005D01*
X0289657Y0360650D01*
X0290956Y0360263D01*
X0292246Y0359846D01*
X0293525Y0359397D01*
X0294792Y0358917D01*
X0296048Y0358407D01*
X0297291Y0357866D01*
X0298521Y0357296D01*
X0299736Y0356696D01*
X0300936Y0356067D01*
X0302121Y0355409D01*
X0303290Y0354722D01*
X0304442Y0354007D01*
X0305576Y0353265D01*
X0306691Y0352495D01*
X0307788Y0351699D01*
X0308865Y0350876D01*
X0309922Y0350028D01*
X0310958Y0349154D01*
X0311973Y0348255D01*
X0312966Y0347332D01*
X0313935Y0346385D01*
X0314882Y0345416D01*
X0315805Y0344423D01*
X0316704Y0343408D01*
X0317578Y0342372D01*
X0318426Y0341315D01*
X0319249Y0340238D01*
X0320045Y0339141D01*
X0320815Y0338026D01*
X0321557Y0336892D01*
X0322272Y0335740D01*
X0322959Y0334571D01*
X0323617Y0333386D01*
X0324246Y0332186D01*
X0324846Y0330971D01*
X0325416Y0329741D01*
X0325957Y0328498D01*
X0326467Y0327242D01*
X0326947Y0325975D01*
X0327396Y0324696D01*
X0327813Y0323406D01*
X0328200Y0322107D01*
X0328555Y0320799D01*
X0328878Y0319483D01*
X0329169Y0318159D01*
X0329428Y0316828D01*
X0329655Y0315492D01*
X0329849Y0314151D01*
X0330011Y0312805D01*
X0330140Y0311456D01*
X0330236Y0310104D01*
X0330300Y0308750D01*
X0380300Y0303750D02*
X0380223Y0301171D01*
X0380084Y0298594D01*
X0379882Y0296021D01*
X0379617Y0293454D01*
X0379290Y0290894D01*
X0378900Y0288342D01*
X0378449Y0285801D01*
X0377935Y0283272D01*
X0377360Y0280756D01*
X0376724Y0278255D01*
X0376027Y0275770D01*
X0375270Y0273303D01*
X0374453Y0270855D01*
X0373576Y0268428D01*
X0372640Y0266022D01*
X0371646Y0263640D01*
X0370595Y0261284D01*
X0369486Y0258953D01*
X0368321Y0256650D01*
X0367100Y0254377D01*
X0365823Y0252134D01*
X0364493Y0249922D01*
X0363109Y0247744D01*
X0361672Y0245600D01*
X0360184Y0243491D01*
X0358644Y0241420D01*
X0357055Y0239387D01*
X0355416Y0237393D01*
X0353730Y0235439D01*
X0351996Y0233528D01*
X0350216Y0231659D01*
X0348391Y0229834D01*
X0346522Y0228054D01*
X0344611Y0226320D01*
X0342657Y0224634D01*
X0340663Y0222995D01*
X0338630Y0221406D01*
X0336559Y0219866D01*
X0334450Y0218378D01*
X0332306Y0216941D01*
X0330128Y0215557D01*
X0327916Y0214227D01*
X0325673Y0212950D01*
X0323400Y0211729D01*
X0321097Y0210564D01*
X0318766Y0209455D01*
X0316410Y0208404D01*
X0314028Y0207410D01*
X0311622Y0206474D01*
X0309195Y0205597D01*
X0306747Y0204780D01*
X0304280Y0204023D01*
X0301795Y0203326D01*
X0299294Y0202690D01*
X0296778Y0202115D01*
X0294249Y0201601D01*
X0291708Y0201150D01*
X0289156Y0200760D01*
X0286596Y0200433D01*
X0284029Y0200168D01*
X0281456Y0199966D01*
X0278879Y0199827D01*
X0276300Y0199750D01*
X0276300Y0077250D01*
X0271300Y0077250D02*
X0271300Y0199750D01*
X0271300Y0218250D02*
X0271300Y0249750D01*
X0276300Y0249750D02*
X0276300Y0218250D01*
X0271300Y0199750D02*
X0268721Y0199827D01*
X0266144Y0199966D01*
X0263571Y0200168D01*
X0261004Y0200433D01*
X0258444Y0200760D01*
X0255892Y0201150D01*
X0253351Y0201601D01*
X0250822Y0202115D01*
X0248306Y0202690D01*
X0245805Y0203326D01*
X0243320Y0204023D01*
X0240853Y0204780D01*
X0238405Y0205597D01*
X0235978Y0206474D01*
X0233572Y0207410D01*
X0231190Y0208404D01*
X0228834Y0209455D01*
X0226503Y0210564D01*
X0224200Y0211729D01*
X0221927Y0212950D01*
X0219684Y0214227D01*
X0217472Y0215557D01*
X0215294Y0216941D01*
X0213150Y0218378D01*
X0211041Y0219866D01*
X0208970Y0221406D01*
X0206937Y0222995D01*
X0204943Y0224634D01*
X0202989Y0226320D01*
X0201078Y0228054D01*
X0199209Y0229834D01*
X0197384Y0231659D01*
X0195604Y0233528D01*
X0193870Y0235439D01*
X0192184Y0237393D01*
X0190545Y0239387D01*
X0188956Y0241420D01*
X0187416Y0243491D01*
X0185928Y0245600D01*
X0184491Y0247744D01*
X0183107Y0249922D01*
X0181777Y0252134D01*
X0180500Y0254377D01*
X0179279Y0256650D01*
X0178114Y0258953D01*
X0177005Y0261284D01*
X0175954Y0263640D01*
X0174960Y0266022D01*
X0174024Y0268428D01*
X0173147Y0270855D01*
X0172330Y0273303D01*
X0171573Y0275770D01*
X0170876Y0278255D01*
X0170240Y0280756D01*
X0169665Y0283272D01*
X0169151Y0285801D01*
X0168700Y0288342D01*
X0168310Y0290894D01*
X0167983Y0293454D01*
X0167718Y0296021D01*
X0167516Y0298594D01*
X0167377Y0301171D01*
X0167300Y0303750D01*
X0217300Y0303750D02*
X0217364Y0302396D01*
X0217460Y0301044D01*
X0217589Y0299695D01*
X0217751Y0298349D01*
X0217945Y0297008D01*
X0218172Y0295672D01*
X0218431Y0294341D01*
X0218722Y0293017D01*
X0219045Y0291701D01*
X0219400Y0290393D01*
X0219787Y0289094D01*
X0220204Y0287804D01*
X0220653Y0286525D01*
X0221133Y0285258D01*
X0221643Y0284002D01*
X0222184Y0282759D01*
X0222754Y0281529D01*
X0223354Y0280314D01*
X0223983Y0279114D01*
X0224641Y0277929D01*
X0225328Y0276760D01*
X0226043Y0275608D01*
X0226785Y0274474D01*
X0227555Y0273359D01*
X0228351Y0272262D01*
X0229174Y0271185D01*
X0230022Y0270128D01*
X0230896Y0269092D01*
X0231795Y0268077D01*
X0232718Y0267084D01*
X0233665Y0266115D01*
X0234634Y0265168D01*
X0235627Y0264245D01*
X0236642Y0263346D01*
X0237678Y0262472D01*
X0238735Y0261624D01*
X0239812Y0260801D01*
X0240909Y0260005D01*
X0242024Y0259235D01*
X0243158Y0258493D01*
X0244310Y0257778D01*
X0245479Y0257091D01*
X0246664Y0256433D01*
X0247864Y0255804D01*
X0249079Y0255204D01*
X0250309Y0254634D01*
X0251552Y0254093D01*
X0252808Y0253583D01*
X0254075Y0253103D01*
X0255354Y0252654D01*
X0256644Y0252237D01*
X0257943Y0251850D01*
X0259251Y0251495D01*
X0260567Y0251172D01*
X0261891Y0250881D01*
X0263222Y0250622D01*
X0264558Y0250395D01*
X0265899Y0250201D01*
X0267245Y0250039D01*
X0268594Y0249910D01*
X0269946Y0249814D01*
X0271300Y0249750D01*
X0271300Y0077250D02*
X0265755Y0077365D01*
X0260215Y0077616D01*
X0254683Y0078000D01*
X0249161Y0078519D01*
X0243654Y0079172D01*
X0238164Y0079958D01*
X0232695Y0080877D01*
X0227249Y0081928D01*
X0221831Y0083112D01*
X0216443Y0084426D01*
X0211089Y0085871D01*
X0205771Y0087445D01*
X0200494Y0089148D01*
X0195258Y0090979D01*
X0190069Y0092936D01*
X0184929Y0095018D01*
X0179841Y0097225D01*
X0174808Y0099554D01*
X0169834Y0102005D01*
X0164920Y0104576D01*
X0160069Y0107265D01*
X0155286Y0110072D01*
X0150572Y0112993D01*
X0145930Y0116028D01*
X0141364Y0119175D01*
X0136875Y0122432D01*
X0132466Y0125796D01*
X0128141Y0129267D01*
X0123901Y0132842D01*
X0119748Y0136518D01*
X0115687Y0140294D01*
X0111718Y0144168D01*
X0107844Y0148137D01*
X0104068Y0152198D01*
X0100392Y0156351D01*
X0096817Y0160591D01*
X0093346Y0164916D01*
X0089982Y0169325D01*
X0086725Y0173814D01*
X0083578Y0178380D01*
X0080543Y0183022D01*
X0077622Y0187736D01*
X0074815Y0192519D01*
X0072126Y0197370D01*
X0069555Y0202284D01*
X0067104Y0207258D01*
X0064775Y0212291D01*
X0062568Y0217379D01*
X0060486Y0222519D01*
X0058529Y0227708D01*
X0056698Y0232944D01*
X0054995Y0238221D01*
X0053421Y0243539D01*
X0051976Y0248893D01*
X0050662Y0254281D01*
X0049478Y0259699D01*
X0048427Y0265145D01*
X0047508Y0270614D01*
X0046722Y0276104D01*
X0046069Y0281611D01*
X0045550Y0287133D01*
X0045166Y0292665D01*
X0044915Y0298205D01*
X0044800Y0303750D01*
X0217300Y0308750D02*
X0217364Y0310104D01*
X0217460Y0311456D01*
X0217589Y0312805D01*
X0217751Y0314151D01*
X0217945Y0315492D01*
X0218172Y0316828D01*
X0218431Y0318159D01*
X0218722Y0319483D01*
X0219045Y0320799D01*
X0219400Y0322107D01*
X0219787Y0323406D01*
X0220204Y0324696D01*
X0220653Y0325975D01*
X0221133Y0327242D01*
X0221643Y0328498D01*
X0222184Y0329741D01*
X0222754Y0330971D01*
X0223354Y0332186D01*
X0223983Y0333386D01*
X0224641Y0334571D01*
X0225328Y0335740D01*
X0226043Y0336892D01*
X0226785Y0338026D01*
X0227555Y0339141D01*
X0228351Y0340238D01*
X0229174Y0341315D01*
X0230022Y0342372D01*
X0230896Y0343408D01*
X0231795Y0344423D01*
X0232718Y0345416D01*
X0233665Y0346385D01*
X0234634Y0347332D01*
X0235627Y0348255D01*
X0236642Y0349154D01*
X0237678Y0350028D01*
X0238735Y0350876D01*
X0239812Y0351699D01*
X0240909Y0352495D01*
X0242024Y0353265D01*
X0243158Y0354007D01*
X0244310Y0354722D01*
X0245479Y0355409D01*
X0246664Y0356067D01*
X0247864Y0356696D01*
X0249079Y0357296D01*
X0250309Y0357866D01*
X0251552Y0358407D01*
X0252808Y0358917D01*
X0254075Y0359397D01*
X0255354Y0359846D01*
X0256644Y0360263D01*
X0257943Y0360650D01*
X0259251Y0361005D01*
X0260567Y0361328D01*
X0261891Y0361619D01*
X0263222Y0361878D01*
X0264558Y0362105D01*
X0265899Y0362299D01*
X0267245Y0362461D01*
X0268594Y0362590D01*
X0269946Y0362686D01*
X0271300Y0362750D01*
X0271300Y0535250D02*
X0265755Y0535135D01*
X0260215Y0534884D01*
X0254683Y0534500D01*
X0249161Y0533981D01*
X0243654Y0533328D01*
X0238164Y0532542D01*
X0232695Y0531623D01*
X0227249Y0530572D01*
X0221831Y0529388D01*
X0216443Y0528074D01*
X0211089Y0526629D01*
X0205771Y0525055D01*
X0200494Y0523352D01*
X0195258Y0521521D01*
X0190069Y0519564D01*
X0184929Y0517482D01*
X0179841Y0515275D01*
X0174808Y0512946D01*
X0169834Y0510495D01*
X0164920Y0507924D01*
X0160069Y0505235D01*
X0155286Y0502428D01*
X0150572Y0499507D01*
X0145930Y0496472D01*
X0141364Y0493325D01*
X0136875Y0490068D01*
X0132466Y0486704D01*
X0128141Y0483233D01*
X0123901Y0479658D01*
X0119748Y0475982D01*
X0115687Y0472206D01*
X0111718Y0468332D01*
X0107844Y0464363D01*
X0104068Y0460302D01*
X0100392Y0456149D01*
X0096817Y0451909D01*
X0093346Y0447584D01*
X0089982Y0443175D01*
X0086725Y0438686D01*
X0083578Y0434120D01*
X0080543Y0429478D01*
X0077622Y0424764D01*
X0074815Y0419981D01*
X0072126Y0415130D01*
X0069555Y0410216D01*
X0067104Y0405242D01*
X0064775Y0400209D01*
X0062568Y0395121D01*
X0060486Y0389981D01*
X0058529Y0384792D01*
X0056698Y0379556D01*
X0054995Y0374279D01*
X0053421Y0368961D01*
X0051976Y0363607D01*
X0050662Y0358219D01*
X0049478Y0352801D01*
X0048427Y0347355D01*
X0047508Y0341886D01*
X0046722Y0336396D01*
X0046069Y0330889D01*
X0045550Y0325367D01*
X0045166Y0319835D01*
X0044915Y0314295D01*
X0044800Y0308750D01*
X0023801Y0308750D02*
X0023927Y0314809D01*
X0024200Y0320862D01*
X0024621Y0326908D01*
X0025187Y0332941D01*
X0025901Y0338959D01*
X0026759Y0344958D01*
X0027764Y0350934D01*
X0028913Y0356884D01*
X0030206Y0362805D01*
X0031642Y0368692D01*
X0033221Y0374543D01*
X0034941Y0380354D01*
X0036802Y0386121D01*
X0038802Y0391841D01*
X0040941Y0397511D01*
X0043216Y0403128D01*
X0045628Y0408688D01*
X0048173Y0414187D01*
X0050851Y0419624D01*
X0053660Y0424993D01*
X0056599Y0430293D01*
X0059665Y0435520D01*
X0062858Y0440671D01*
X0066174Y0445743D01*
X0069613Y0450733D01*
X0073171Y0455638D01*
X0076848Y0460455D01*
X0080640Y0465182D01*
X0084547Y0469815D01*
X0088564Y0474352D01*
X0092690Y0478790D01*
X0096923Y0483127D01*
X0101260Y0487360D01*
X0105698Y0491486D01*
X0110235Y0495503D01*
X0114868Y0499410D01*
X0119595Y0503202D01*
X0124412Y0506879D01*
X0129317Y0510437D01*
X0134307Y0513876D01*
X0139379Y0517192D01*
X0144530Y0520385D01*
X0149757Y0523451D01*
X0155057Y0526390D01*
X0160426Y0529199D01*
X0165863Y0531877D01*
X0171362Y0534422D01*
X0176922Y0536834D01*
X0182539Y0539109D01*
X0188209Y0541248D01*
X0193929Y0543248D01*
X0199696Y0545109D01*
X0205507Y0546829D01*
X0211358Y0548408D01*
X0217245Y0549844D01*
X0223166Y0551137D01*
X0229116Y0552286D01*
X0235092Y0553291D01*
X0241091Y0554149D01*
X0247109Y0554863D01*
X0253142Y0555429D01*
X0259188Y0555850D01*
X0265241Y0556123D01*
X0271300Y0556249D01*
X0276300Y0535250D02*
X0281845Y0535135D01*
X0287385Y0534884D01*
X0292917Y0534500D01*
X0298439Y0533981D01*
X0303946Y0533328D01*
X0309436Y0532542D01*
X0314905Y0531623D01*
X0320351Y0530572D01*
X0325769Y0529388D01*
X0331157Y0528074D01*
X0336511Y0526629D01*
X0341829Y0525055D01*
X0347106Y0523352D01*
X0352342Y0521521D01*
X0357531Y0519564D01*
X0362671Y0517482D01*
X0367759Y0515275D01*
X0372792Y0512946D01*
X0377766Y0510495D01*
X0382680Y0507924D01*
X0387531Y0505235D01*
X0392314Y0502428D01*
X0397028Y0499507D01*
X0401670Y0496472D01*
X0406236Y0493325D01*
X0410725Y0490068D01*
X0415134Y0486704D01*
X0419459Y0483233D01*
X0423699Y0479658D01*
X0427852Y0475982D01*
X0431913Y0472206D01*
X0435882Y0468332D01*
X0439756Y0464363D01*
X0443532Y0460302D01*
X0447208Y0456149D01*
X0450783Y0451909D01*
X0454254Y0447584D01*
X0457618Y0443175D01*
X0460875Y0438686D01*
X0464022Y0434120D01*
X0467057Y0429478D01*
X0469978Y0424764D01*
X0472785Y0419981D01*
X0475474Y0415130D01*
X0478045Y0410216D01*
X0480496Y0405242D01*
X0482825Y0400209D01*
X0485032Y0395121D01*
X0487114Y0389981D01*
X0489071Y0384792D01*
X0490902Y0379556D01*
X0492605Y0374279D01*
X0494179Y0368961D01*
X0495624Y0363607D01*
X0496938Y0358219D01*
X0498122Y0352801D01*
X0499173Y0347355D01*
X0500092Y0341886D01*
X0500878Y0336396D01*
X0501531Y0330889D01*
X0502050Y0325367D01*
X0502434Y0319835D01*
X0502685Y0314295D01*
X0502800Y0308750D01*
X0330300Y0303750D02*
X0330236Y0302396D01*
X0330140Y0301044D01*
X0330011Y0299695D01*
X0329849Y0298349D01*
X0329655Y0297008D01*
X0329428Y0295672D01*
X0329169Y0294341D01*
X0328878Y0293017D01*
X0328555Y0291701D01*
X0328200Y0290393D01*
X0327813Y0289094D01*
X0327396Y0287804D01*
X0326947Y0286525D01*
X0326467Y0285258D01*
X0325957Y0284002D01*
X0325416Y0282759D01*
X0324846Y0281529D01*
X0324246Y0280314D01*
X0323617Y0279114D01*
X0322959Y0277929D01*
X0322272Y0276760D01*
X0321557Y0275608D01*
X0320815Y0274474D01*
X0320045Y0273359D01*
X0319249Y0272262D01*
X0318426Y0271185D01*
X0317578Y0270128D01*
X0316704Y0269092D01*
X0315805Y0268077D01*
X0314882Y0267084D01*
X0313935Y0266115D01*
X0312966Y0265168D01*
X0311973Y0264245D01*
X0310958Y0263346D01*
X0309922Y0262472D01*
X0308865Y0261624D01*
X0307788Y0260801D01*
X0306691Y0260005D01*
X0305576Y0259235D01*
X0304442Y0258493D01*
X0303290Y0257778D01*
X0302121Y0257091D01*
X0300936Y0256433D01*
X0299736Y0255804D01*
X0298521Y0255204D01*
X0297291Y0254634D01*
X0296048Y0254093D01*
X0294792Y0253583D01*
X0293525Y0253103D01*
X0292246Y0252654D01*
X0290956Y0252237D01*
X0289657Y0251850D01*
X0288349Y0251495D01*
X0287033Y0251172D01*
X0285709Y0250881D01*
X0284378Y0250622D01*
X0283042Y0250395D01*
X0281701Y0250201D01*
X0280355Y0250039D01*
X0279006Y0249910D01*
X0277654Y0249814D01*
X0276300Y0249750D01*
X0276300Y0077250D02*
X0281845Y0077365D01*
X0287385Y0077616D01*
X0292917Y0078000D01*
X0298439Y0078519D01*
X0303946Y0079172D01*
X0309436Y0079958D01*
X0314905Y0080877D01*
X0320351Y0081928D01*
X0325769Y0083112D01*
X0331157Y0084426D01*
X0336511Y0085871D01*
X0341829Y0087445D01*
X0347106Y0089148D01*
X0352342Y0090979D01*
X0357531Y0092936D01*
X0362671Y0095018D01*
X0367759Y0097225D01*
X0372792Y0099554D01*
X0377766Y0102005D01*
X0382680Y0104576D01*
X0387531Y0107265D01*
X0392314Y0110072D01*
X0397028Y0112993D01*
X0401670Y0116028D01*
X0406236Y0119175D01*
X0410725Y0122432D01*
X0415134Y0125796D01*
X0419459Y0129267D01*
X0423699Y0132842D01*
X0427852Y0136518D01*
X0431913Y0140294D01*
X0435882Y0144168D01*
X0439756Y0148137D01*
X0443532Y0152198D01*
X0447208Y0156351D01*
X0450783Y0160591D01*
X0454254Y0164916D01*
X0457618Y0169325D01*
X0460875Y0173814D01*
X0464022Y0178380D01*
X0467057Y0183022D01*
X0469978Y0187736D01*
X0472785Y0192519D01*
X0475474Y0197370D01*
X0478045Y0202284D01*
X0480496Y0207258D01*
X0482825Y0212291D01*
X0485032Y0217379D01*
X0487114Y0222519D01*
X0489071Y0227708D01*
X0490902Y0232944D01*
X0492605Y0238221D01*
X0494179Y0243539D01*
X0495624Y0248893D01*
X0496938Y0254281D01*
X0498122Y0259699D01*
X0499173Y0265145D01*
X0500092Y0270614D01*
X0500878Y0276104D01*
X0501531Y0281611D01*
X0502050Y0287133D01*
X0502434Y0292665D01*
X0502685Y0298205D01*
X0502800Y0303750D01*
X0523799Y0303750D02*
X0523673Y0297691D01*
X0523400Y0291638D01*
X0522979Y0285592D01*
X0522413Y0279559D01*
X0521699Y0273541D01*
X0520841Y0267542D01*
X0519836Y0261566D01*
X0518687Y0255616D01*
X0517394Y0249695D01*
X0515958Y0243808D01*
X0514379Y0237957D01*
X0512659Y0232146D01*
X0510798Y0226379D01*
X0508798Y0220659D01*
X0506659Y0214989D01*
X0504384Y0209372D01*
X0501972Y0203812D01*
X0499427Y0198313D01*
X0496749Y0192876D01*
X0493940Y0187507D01*
X0491001Y0182207D01*
X0487935Y0176980D01*
X0484742Y0171829D01*
X0481426Y0166757D01*
X0477987Y0161767D01*
X0474429Y0156862D01*
X0470752Y0152045D01*
X0466960Y0147318D01*
X0463053Y0142685D01*
X0459036Y0138148D01*
X0454910Y0133710D01*
X0450677Y0129373D01*
X0446340Y0125140D01*
X0441902Y0121014D01*
X0437365Y0116997D01*
X0432732Y0113090D01*
X0428005Y0109298D01*
X0423188Y0105621D01*
X0418283Y0102063D01*
X0413293Y0098624D01*
X0408221Y0095308D01*
X0403070Y0092115D01*
X0397843Y0089049D01*
X0392543Y0086110D01*
X0387174Y0083301D01*
X0381737Y0080623D01*
X0376238Y0078078D01*
X0370678Y0075666D01*
X0365061Y0073391D01*
X0359391Y0071252D01*
X0353671Y0069252D01*
X0347904Y0067391D01*
X0342093Y0065671D01*
X0336242Y0064092D01*
X0330355Y0062656D01*
X0324434Y0061363D01*
X0318484Y0060214D01*
X0312508Y0059209D01*
X0306509Y0058351D01*
X0300491Y0057637D01*
X0294458Y0057071D01*
X0288412Y0056650D01*
X0282359Y0056377D01*
X0276300Y0056251D01*
X0271300Y0056251D02*
X0265241Y0056377D01*
X0259188Y0056650D01*
X0253142Y0057071D01*
X0247109Y0057637D01*
X0241091Y0058351D01*
X0235092Y0059209D01*
X0229116Y0060214D01*
X0223166Y0061363D01*
X0217245Y0062656D01*
X0211358Y0064092D01*
X0205507Y0065671D01*
X0199696Y0067391D01*
X0193929Y0069252D01*
X0188209Y0071252D01*
X0182539Y0073391D01*
X0176922Y0075666D01*
X0171362Y0078078D01*
X0165863Y0080623D01*
X0160426Y0083301D01*
X0155057Y0086110D01*
X0149757Y0089049D01*
X0144530Y0092115D01*
X0139379Y0095308D01*
X0134307Y0098624D01*
X0129317Y0102063D01*
X0124412Y0105621D01*
X0119595Y0109298D01*
X0114868Y0113090D01*
X0110235Y0116997D01*
X0105698Y0121014D01*
X0101260Y0125140D01*
X0096923Y0129373D01*
X0092690Y0133710D01*
X0088564Y0138148D01*
X0084547Y0142685D01*
X0080640Y0147318D01*
X0076848Y0152045D01*
X0073171Y0156862D01*
X0069613Y0161767D01*
X0066174Y0166757D01*
X0062858Y0171829D01*
X0059665Y0176980D01*
X0056599Y0182207D01*
X0053660Y0187507D01*
X0050851Y0192876D01*
X0048173Y0198313D01*
X0045628Y0203812D01*
X0043216Y0209372D01*
X0040941Y0214989D01*
X0038802Y0220659D01*
X0036802Y0226379D01*
X0034941Y0232146D01*
X0033221Y0237957D01*
X0031642Y0243808D01*
X0030206Y0249695D01*
X0028913Y0255616D01*
X0027764Y0261566D01*
X0026759Y0267542D01*
X0025901Y0273541D01*
X0025187Y0279559D01*
X0024621Y0285592D01*
X0024200Y0291638D01*
X0023927Y0297691D01*
X0023801Y0303750D01*
X0185800Y0303750D02*
X0185883Y0301601D01*
X0186018Y0299454D01*
X0186206Y0297311D01*
X0186446Y0295174D01*
X0186738Y0293043D01*
X0187083Y0290919D01*
X0187479Y0288805D01*
X0187927Y0286702D01*
X0188427Y0284609D01*
X0188978Y0282530D01*
X0189579Y0280465D01*
X0190231Y0278415D01*
X0190932Y0276382D01*
X0191684Y0274366D01*
X0192484Y0272370D01*
X0193333Y0270394D01*
X0194230Y0268439D01*
X0195175Y0266506D01*
X0196167Y0264598D01*
X0197205Y0262714D01*
X0198289Y0260856D01*
X0199419Y0259025D01*
X0200592Y0257223D01*
X0201810Y0255450D01*
X0203071Y0253707D01*
X0204374Y0251996D01*
X0205718Y0250317D01*
X0207103Y0248671D01*
X0208528Y0247060D01*
X0209992Y0245484D01*
X0211495Y0243945D01*
X0213034Y0242442D01*
X0214610Y0240978D01*
X0216221Y0239553D01*
X0217867Y0238168D01*
X0219546Y0236824D01*
X0221257Y0235521D01*
X0223000Y0234260D01*
X0224773Y0233042D01*
X0226575Y0231869D01*
X0228406Y0230739D01*
X0230264Y0229655D01*
X0232148Y0228617D01*
X0234056Y0227625D01*
X0235989Y0226680D01*
X0237944Y0225783D01*
X0239920Y0224934D01*
X0241916Y0224134D01*
X0243932Y0223382D01*
X0245965Y0222681D01*
X0248015Y0222029D01*
X0250080Y0221428D01*
X0252159Y0220877D01*
X0254252Y0220377D01*
X0256355Y0219929D01*
X0258469Y0219533D01*
X0260593Y0219188D01*
X0262724Y0218896D01*
X0264861Y0218656D01*
X0267004Y0218468D01*
X0269151Y0218333D01*
X0271300Y0218250D01*
X0276300Y0218250D02*
X0278449Y0218333D01*
X0280596Y0218468D01*
X0282739Y0218656D01*
X0284876Y0218896D01*
X0287007Y0219188D01*
X0289131Y0219533D01*
X0291245Y0219929D01*
X0293348Y0220377D01*
X0295441Y0220877D01*
X0297520Y0221428D01*
X0299585Y0222029D01*
X0301635Y0222681D01*
X0303668Y0223382D01*
X0305684Y0224134D01*
X0307680Y0224934D01*
X0309656Y0225783D01*
X0311611Y0226680D01*
X0313544Y0227625D01*
X0315452Y0228617D01*
X0317336Y0229655D01*
X0319194Y0230739D01*
X0321025Y0231869D01*
X0322827Y0233042D01*
X0324600Y0234260D01*
X0326343Y0235521D01*
X0328054Y0236824D01*
X0329733Y0238168D01*
X0331379Y0239553D01*
X0332990Y0240978D01*
X0334566Y0242442D01*
X0336105Y0243945D01*
X0337608Y0245484D01*
X0339072Y0247060D01*
X0340497Y0248671D01*
X0341882Y0250317D01*
X0343226Y0251996D01*
X0344529Y0253707D01*
X0345790Y0255450D01*
X0347008Y0257223D01*
X0348181Y0259025D01*
X0349311Y0260856D01*
X0350395Y0262714D01*
X0351433Y0264598D01*
X0352425Y0266506D01*
X0353370Y0268439D01*
X0354267Y0270394D01*
X0355116Y0272370D01*
X0355916Y0274366D01*
X0356668Y0276382D01*
X0357369Y0278415D01*
X0358021Y0280465D01*
X0358622Y0282530D01*
X0359173Y0284609D01*
X0359673Y0286702D01*
X0360121Y0288805D01*
X0360517Y0290919D01*
X0360862Y0293043D01*
X0361154Y0295174D01*
X0361394Y0297311D01*
X0361582Y0299454D01*
X0361717Y0301601D01*
X0361800Y0303750D01*
X0523799Y0308750D02*
X0523673Y0314809D01*
X0523400Y0320862D01*
X0522979Y0326908D01*
X0522413Y0332941D01*
X0521699Y0338959D01*
X0520841Y0344958D01*
X0519836Y0350934D01*
X0518687Y0356884D01*
X0517394Y0362805D01*
X0515958Y0368692D01*
X0514379Y0374543D01*
X0512659Y0380354D01*
X0510798Y0386121D01*
X0508798Y0391841D01*
X0506659Y0397511D01*
X0504384Y0403128D01*
X0501972Y0408688D01*
X0499427Y0414187D01*
X0496749Y0419624D01*
X0493940Y0424993D01*
X0491001Y0430293D01*
X0487935Y0435520D01*
X0484742Y0440671D01*
X0481426Y0445743D01*
X0477987Y0450733D01*
X0474429Y0455638D01*
X0470752Y0460455D01*
X0466960Y0465182D01*
X0463053Y0469815D01*
X0459036Y0474352D01*
X0454910Y0478790D01*
X0450677Y0483127D01*
X0446340Y0487360D01*
X0441902Y0491486D01*
X0437365Y0495503D01*
X0432732Y0499410D01*
X0428005Y0503202D01*
X0423188Y0506879D01*
X0418283Y0510437D01*
X0413293Y0513876D01*
X0408221Y0517192D01*
X0403070Y0520385D01*
X0397843Y0523451D01*
X0392543Y0526390D01*
X0387174Y0529199D01*
X0381737Y0531877D01*
X0376238Y0534422D01*
X0370678Y0536834D01*
X0365061Y0539109D01*
X0359391Y0541248D01*
X0353671Y0543248D01*
X0347904Y0545109D01*
X0342093Y0546829D01*
X0336242Y0548408D01*
X0330355Y0549844D01*
X0324434Y0551137D01*
X0318484Y0552286D01*
X0312508Y0553291D01*
X0306509Y0554149D01*
X0300491Y0554863D01*
X0294458Y0555429D01*
X0288412Y0555850D01*
X0282359Y0556123D01*
X0276300Y0556249D01*
X0276300Y0394250D02*
X0278449Y0394167D01*
X0280596Y0394032D01*
X0282739Y0393844D01*
X0284876Y0393604D01*
X0287007Y0393312D01*
X0289131Y0392967D01*
X0291245Y0392571D01*
X0293348Y0392123D01*
X0295441Y0391623D01*
X0297520Y0391072D01*
X0299585Y0390471D01*
X0301635Y0389819D01*
X0303668Y0389118D01*
X0305684Y0388366D01*
X0307680Y0387566D01*
X0309656Y0386717D01*
X0311611Y0385820D01*
X0313544Y0384875D01*
X0315452Y0383883D01*
X0317336Y0382845D01*
X0319194Y0381761D01*
X0321025Y0380631D01*
X0322827Y0379458D01*
X0324600Y0378240D01*
X0326343Y0376979D01*
X0328054Y0375676D01*
X0329733Y0374332D01*
X0331379Y0372947D01*
X0332990Y0371522D01*
X0334566Y0370058D01*
X0336105Y0368555D01*
X0337608Y0367016D01*
X0339072Y0365440D01*
X0340497Y0363829D01*
X0341882Y0362183D01*
X0343226Y0360504D01*
X0344529Y0358793D01*
X0345790Y0357050D01*
X0347008Y0355277D01*
X0348181Y0353475D01*
X0349311Y0351644D01*
X0350395Y0349786D01*
X0351433Y0347902D01*
X0352425Y0345994D01*
X0353370Y0344061D01*
X0354267Y0342106D01*
X0355116Y0340130D01*
X0355916Y0338134D01*
X0356668Y0336118D01*
X0357369Y0334085D01*
X0358021Y0332035D01*
X0358622Y0329970D01*
X0359173Y0327891D01*
X0359673Y0325798D01*
X0360121Y0323695D01*
X0360517Y0321581D01*
X0360862Y0319457D01*
X0361154Y0317326D01*
X0361394Y0315189D01*
X0361582Y0313046D01*
X0361717Y0310899D01*
X0361800Y0308750D01*
X0235800Y0306250D02*
X0235811Y0307183D01*
X0235846Y0308115D01*
X0235903Y0309045D01*
X0235983Y0309975D01*
X0236086Y0310902D01*
X0236211Y0311826D01*
X0236359Y0312747D01*
X0236530Y0313663D01*
X0236723Y0314576D01*
X0236939Y0315483D01*
X0237177Y0316385D01*
X0237436Y0317281D01*
X0237718Y0318170D01*
X0238021Y0319052D01*
X0238346Y0319926D01*
X0238693Y0320792D01*
X0239060Y0321649D01*
X0239448Y0322497D01*
X0239857Y0323335D01*
X0240287Y0324163D01*
X0240737Y0324980D01*
X0241206Y0325786D01*
X0241696Y0326580D01*
X0242204Y0327362D01*
X0242732Y0328131D01*
X0243278Y0328887D01*
X0243843Y0329629D01*
X0244426Y0330357D01*
X0245026Y0331071D01*
X0245644Y0331769D01*
X0246279Y0332453D01*
X0246930Y0333120D01*
X0247597Y0333771D01*
X0248281Y0334406D01*
X0248979Y0335024D01*
X0249693Y0335624D01*
X0250421Y0336207D01*
X0251163Y0336772D01*
X0251919Y0337318D01*
X0252688Y0337846D01*
X0253470Y0338354D01*
X0254264Y0338844D01*
X0255070Y0339313D01*
X0255887Y0339763D01*
X0256715Y0340193D01*
X0257553Y0340602D01*
X0258401Y0340990D01*
X0259258Y0341357D01*
X0260124Y0341704D01*
X0260998Y0342029D01*
X0261880Y0342332D01*
X0262769Y0342614D01*
X0263665Y0342873D01*
X0264567Y0343111D01*
X0265474Y0343327D01*
X0266387Y0343520D01*
X0267303Y0343691D01*
X0268224Y0343839D01*
X0269148Y0343964D01*
X0270075Y0344067D01*
X0271005Y0344147D01*
X0271935Y0344204D01*
X0272867Y0344239D01*
X0273800Y0344250D01*
X0274733Y0344239D01*
X0275665Y0344204D01*
X0276595Y0344147D01*
X0277525Y0344067D01*
X0278452Y0343964D01*
X0279376Y0343839D01*
X0280297Y0343691D01*
X0281213Y0343520D01*
X0282126Y0343327D01*
X0283033Y0343111D01*
X0283935Y0342873D01*
X0284831Y0342614D01*
X0285720Y0342332D01*
X0286602Y0342029D01*
X0287476Y0341704D01*
X0288342Y0341357D01*
X0289199Y0340990D01*
X0290047Y0340602D01*
X0290885Y0340193D01*
X0291713Y0339763D01*
X0292530Y0339313D01*
X0293336Y0338844D01*
X0294130Y0338354D01*
X0294912Y0337846D01*
X0295681Y0337318D01*
X0296437Y0336772D01*
X0297179Y0336207D01*
X0297907Y0335624D01*
X0298621Y0335024D01*
X0299319Y0334406D01*
X0300003Y0333771D01*
X0300670Y0333120D01*
X0301321Y0332453D01*
X0301956Y0331769D01*
X0302574Y0331071D01*
X0303174Y0330357D01*
X0303757Y0329629D01*
X0304322Y0328887D01*
X0304868Y0328131D01*
X0305396Y0327362D01*
X0305904Y0326580D01*
X0306394Y0325786D01*
X0306863Y0324980D01*
X0307313Y0324163D01*
X0307743Y0323335D01*
X0308152Y0322497D01*
X0308540Y0321649D01*
X0308907Y0320792D01*
X0309254Y0319926D01*
X0309579Y0319052D01*
X0309882Y0318170D01*
X0310164Y0317281D01*
X0310423Y0316385D01*
X0310661Y0315483D01*
X0310877Y0314576D01*
X0311070Y0313663D01*
X0311241Y0312747D01*
X0311389Y0311826D01*
X0311514Y0310902D01*
X0311617Y0309975D01*
X0311697Y0309045D01*
X0311754Y0308115D01*
X0311789Y0307183D01*
X0311800Y0306250D01*
X0311789Y0305317D01*
X0311754Y0304385D01*
X0311697Y0303455D01*
X0311617Y0302525D01*
X0311514Y0301598D01*
X0311389Y0300674D01*
X0311241Y0299753D01*
X0311070Y0298837D01*
X0310877Y0297924D01*
X0310661Y0297017D01*
X0310423Y0296115D01*
X0310164Y0295219D01*
X0309882Y0294330D01*
X0309579Y0293448D01*
X0309254Y0292574D01*
X0308907Y0291708D01*
X0308540Y0290851D01*
X0308152Y0290003D01*
X0307743Y0289165D01*
X0307313Y0288337D01*
X0306863Y0287520D01*
X0306394Y0286714D01*
X0305904Y0285920D01*
X0305396Y0285138D01*
X0304868Y0284369D01*
X0304322Y0283613D01*
X0303757Y0282871D01*
X0303174Y0282143D01*
X0302574Y0281429D01*
X0301956Y0280731D01*
X0301321Y0280047D01*
X0300670Y0279380D01*
X0300003Y0278729D01*
X0299319Y0278094D01*
X0298621Y0277476D01*
X0297907Y0276876D01*
X0297179Y0276293D01*
X0296437Y0275728D01*
X0295681Y0275182D01*
X0294912Y0274654D01*
X0294130Y0274146D01*
X0293336Y0273656D01*
X0292530Y0273187D01*
X0291713Y0272737D01*
X0290885Y0272307D01*
X0290047Y0271898D01*
X0289199Y0271510D01*
X0288342Y0271143D01*
X0287476Y0270796D01*
X0286602Y0270471D01*
X0285720Y0270168D01*
X0284831Y0269886D01*
X0283935Y0269627D01*
X0283033Y0269389D01*
X0282126Y0269173D01*
X0281213Y0268980D01*
X0280297Y0268809D01*
X0279376Y0268661D01*
X0278452Y0268536D01*
X0277525Y0268433D01*
X0276595Y0268353D01*
X0275665Y0268296D01*
X0274733Y0268261D01*
X0273800Y0268250D01*
X0272867Y0268261D01*
X0271935Y0268296D01*
X0271005Y0268353D01*
X0270075Y0268433D01*
X0269148Y0268536D01*
X0268224Y0268661D01*
X0267303Y0268809D01*
X0266387Y0268980D01*
X0265474Y0269173D01*
X0264567Y0269389D01*
X0263665Y0269627D01*
X0262769Y0269886D01*
X0261880Y0270168D01*
X0260998Y0270471D01*
X0260124Y0270796D01*
X0259258Y0271143D01*
X0258401Y0271510D01*
X0257553Y0271898D01*
X0256715Y0272307D01*
X0255887Y0272737D01*
X0255070Y0273187D01*
X0254264Y0273656D01*
X0253470Y0274146D01*
X0252688Y0274654D01*
X0251919Y0275182D01*
X0251163Y0275728D01*
X0250421Y0276293D01*
X0249693Y0276876D01*
X0248979Y0277476D01*
X0248281Y0278094D01*
X0247597Y0278729D01*
X0246930Y0279380D01*
X0246279Y0280047D01*
X0245644Y0280731D01*
X0245026Y0281429D01*
X0244426Y0282143D01*
X0243843Y0282871D01*
X0243278Y0283613D01*
X0242732Y0284369D01*
X0242204Y0285138D01*
X0241696Y0285920D01*
X0241206Y0286714D01*
X0240737Y0287520D01*
X0240287Y0288337D01*
X0239857Y0289165D01*
X0239448Y0290003D01*
X0239060Y0290851D01*
X0238693Y0291708D01*
X0238346Y0292574D01*
X0238021Y0293448D01*
X0237718Y0294330D01*
X0237436Y0295219D01*
X0237177Y0296115D01*
X0236939Y0297017D01*
X0236723Y0297924D01*
X0236530Y0298837D01*
X0236359Y0299753D01*
X0236211Y0300674D01*
X0236086Y0301598D01*
X0235983Y0302525D01*
X0235903Y0303455D01*
X0235846Y0304385D01*
X0235811Y0305317D01*
X0235800Y0306250D01*
X0185800Y0308750D02*
X0185883Y0310899D01*
X0186018Y0313046D01*
X0186206Y0315189D01*
X0186446Y0317326D01*
X0186738Y0319457D01*
X0187083Y0321581D01*
X0187479Y0323695D01*
X0187927Y0325798D01*
X0188427Y0327891D01*
X0188978Y0329970D01*
X0189579Y0332035D01*
X0190231Y0334085D01*
X0190932Y0336118D01*
X0191684Y0338134D01*
X0192484Y0340130D01*
X0193333Y0342106D01*
X0194230Y0344061D01*
X0195175Y0345994D01*
X0196167Y0347902D01*
X0197205Y0349786D01*
X0198289Y0351644D01*
X0199419Y0353475D01*
X0200592Y0355277D01*
X0201810Y0357050D01*
X0203071Y0358793D01*
X0204374Y0360504D01*
X0205718Y0362183D01*
X0207103Y0363829D01*
X0208528Y0365440D01*
X0209992Y0367016D01*
X0211495Y0368555D01*
X0213034Y0370058D01*
X0214610Y0371522D01*
X0216221Y0372947D01*
X0217867Y0374332D01*
X0219546Y0375676D01*
X0221257Y0376979D01*
X0223000Y0378240D01*
X0224773Y0379458D01*
X0226575Y0380631D01*
X0228406Y0381761D01*
X0230264Y0382845D01*
X0232148Y0383883D01*
X0234056Y0384875D01*
X0235989Y0385820D01*
X0237944Y0386717D01*
X0239920Y0387566D01*
X0241916Y0388366D01*
X0243932Y0389118D01*
X0245965Y0389819D01*
X0248015Y0390471D01*
X0250080Y0391072D01*
X0252159Y0391623D01*
X0254252Y0392123D01*
X0256355Y0392571D01*
X0258469Y0392967D01*
X0260593Y0393312D01*
X0262724Y0393604D01*
X0264861Y0393844D01*
X0267004Y0394032D01*
X0269151Y0394167D01*
X0271300Y0394250D01*
D11*
X0270800Y0393850D02*
X0270802Y0393904D01*
X0270808Y0393958D01*
X0270818Y0394011D01*
X0270831Y0394064D01*
X0270848Y0394115D01*
X0270869Y0394165D01*
X0270894Y0394213D01*
X0270922Y0394260D01*
X0270953Y0394304D01*
X0270987Y0394346D01*
X0271024Y0394385D01*
X0271064Y0394422D01*
X0271107Y0394455D01*
X0271152Y0394486D01*
X0271199Y0394513D01*
X0271247Y0394536D01*
X0271298Y0394556D01*
X0271349Y0394573D01*
X0271402Y0394585D01*
X0271455Y0394594D01*
X0271509Y0394599D01*
X0271564Y0394600D01*
X0271618Y0394597D01*
X0271671Y0394590D01*
X0271724Y0394579D01*
X0271777Y0394565D01*
X0271828Y0394547D01*
X0271877Y0394525D01*
X0271925Y0394500D01*
X0271971Y0394471D01*
X0272015Y0394439D01*
X0272056Y0394404D01*
X0272094Y0394366D01*
X0272130Y0394325D01*
X0272163Y0394282D01*
X0272193Y0394237D01*
X0272219Y0394189D01*
X0272242Y0394140D01*
X0272261Y0394089D01*
X0272276Y0394038D01*
X0272288Y0393985D01*
X0272296Y0393931D01*
X0272300Y0393877D01*
X0272300Y0393823D01*
X0272296Y0393769D01*
X0272288Y0393715D01*
X0272276Y0393662D01*
X0272261Y0393611D01*
X0272242Y0393560D01*
X0272219Y0393511D01*
X0272193Y0393463D01*
X0272163Y0393418D01*
X0272130Y0393375D01*
X0272094Y0393334D01*
X0272056Y0393296D01*
X0272015Y0393261D01*
X0271971Y0393229D01*
X0271925Y0393200D01*
X0271877Y0393175D01*
X0271828Y0393153D01*
X0271777Y0393135D01*
X0271724Y0393121D01*
X0271671Y0393110D01*
X0271618Y0393103D01*
X0271564Y0393100D01*
X0271509Y0393101D01*
X0271455Y0393106D01*
X0271402Y0393115D01*
X0271349Y0393127D01*
X0271298Y0393144D01*
X0271247Y0393164D01*
X0271199Y0393187D01*
X0271152Y0393214D01*
X0271107Y0393245D01*
X0271064Y0393278D01*
X0271024Y0393315D01*
X0270987Y0393354D01*
X0270953Y0393396D01*
X0270922Y0393440D01*
X0270894Y0393487D01*
X0270869Y0393535D01*
X0270848Y0393585D01*
X0270831Y0393636D01*
X0270818Y0393689D01*
X0270808Y0393742D01*
X0270802Y0393796D01*
X0270800Y0393850D01*
X0273000Y0393850D02*
X0273002Y0393904D01*
X0273008Y0393958D01*
X0273018Y0394011D01*
X0273031Y0394064D01*
X0273048Y0394115D01*
X0273069Y0394165D01*
X0273094Y0394213D01*
X0273122Y0394260D01*
X0273153Y0394304D01*
X0273187Y0394346D01*
X0273224Y0394385D01*
X0273264Y0394422D01*
X0273307Y0394455D01*
X0273352Y0394486D01*
X0273399Y0394513D01*
X0273447Y0394536D01*
X0273498Y0394556D01*
X0273549Y0394573D01*
X0273602Y0394585D01*
X0273655Y0394594D01*
X0273709Y0394599D01*
X0273764Y0394600D01*
X0273818Y0394597D01*
X0273871Y0394590D01*
X0273924Y0394579D01*
X0273977Y0394565D01*
X0274028Y0394547D01*
X0274077Y0394525D01*
X0274125Y0394500D01*
X0274171Y0394471D01*
X0274215Y0394439D01*
X0274256Y0394404D01*
X0274294Y0394366D01*
X0274330Y0394325D01*
X0274363Y0394282D01*
X0274393Y0394237D01*
X0274419Y0394189D01*
X0274442Y0394140D01*
X0274461Y0394089D01*
X0274476Y0394038D01*
X0274488Y0393985D01*
X0274496Y0393931D01*
X0274500Y0393877D01*
X0274500Y0393823D01*
X0274496Y0393769D01*
X0274488Y0393715D01*
X0274476Y0393662D01*
X0274461Y0393611D01*
X0274442Y0393560D01*
X0274419Y0393511D01*
X0274393Y0393463D01*
X0274363Y0393418D01*
X0274330Y0393375D01*
X0274294Y0393334D01*
X0274256Y0393296D01*
X0274215Y0393261D01*
X0274171Y0393229D01*
X0274125Y0393200D01*
X0274077Y0393175D01*
X0274028Y0393153D01*
X0273977Y0393135D01*
X0273924Y0393121D01*
X0273871Y0393110D01*
X0273818Y0393103D01*
X0273764Y0393100D01*
X0273709Y0393101D01*
X0273655Y0393106D01*
X0273602Y0393115D01*
X0273549Y0393127D01*
X0273498Y0393144D01*
X0273447Y0393164D01*
X0273399Y0393187D01*
X0273352Y0393214D01*
X0273307Y0393245D01*
X0273264Y0393278D01*
X0273224Y0393315D01*
X0273187Y0393354D01*
X0273153Y0393396D01*
X0273122Y0393440D01*
X0273094Y0393487D01*
X0273069Y0393535D01*
X0273048Y0393585D01*
X0273031Y0393636D01*
X0273018Y0393689D01*
X0273008Y0393742D01*
X0273002Y0393796D01*
X0273000Y0393850D01*
X0275300Y0393850D02*
X0275302Y0393904D01*
X0275308Y0393958D01*
X0275318Y0394011D01*
X0275331Y0394064D01*
X0275348Y0394115D01*
X0275369Y0394165D01*
X0275394Y0394213D01*
X0275422Y0394260D01*
X0275453Y0394304D01*
X0275487Y0394346D01*
X0275524Y0394385D01*
X0275564Y0394422D01*
X0275607Y0394455D01*
X0275652Y0394486D01*
X0275699Y0394513D01*
X0275747Y0394536D01*
X0275798Y0394556D01*
X0275849Y0394573D01*
X0275902Y0394585D01*
X0275955Y0394594D01*
X0276009Y0394599D01*
X0276064Y0394600D01*
X0276118Y0394597D01*
X0276171Y0394590D01*
X0276224Y0394579D01*
X0276277Y0394565D01*
X0276328Y0394547D01*
X0276377Y0394525D01*
X0276425Y0394500D01*
X0276471Y0394471D01*
X0276515Y0394439D01*
X0276556Y0394404D01*
X0276594Y0394366D01*
X0276630Y0394325D01*
X0276663Y0394282D01*
X0276693Y0394237D01*
X0276719Y0394189D01*
X0276742Y0394140D01*
X0276761Y0394089D01*
X0276776Y0394038D01*
X0276788Y0393985D01*
X0276796Y0393931D01*
X0276800Y0393877D01*
X0276800Y0393823D01*
X0276796Y0393769D01*
X0276788Y0393715D01*
X0276776Y0393662D01*
X0276761Y0393611D01*
X0276742Y0393560D01*
X0276719Y0393511D01*
X0276693Y0393463D01*
X0276663Y0393418D01*
X0276630Y0393375D01*
X0276594Y0393334D01*
X0276556Y0393296D01*
X0276515Y0393261D01*
X0276471Y0393229D01*
X0276425Y0393200D01*
X0276377Y0393175D01*
X0276328Y0393153D01*
X0276277Y0393135D01*
X0276224Y0393121D01*
X0276171Y0393110D01*
X0276118Y0393103D01*
X0276064Y0393100D01*
X0276009Y0393101D01*
X0275955Y0393106D01*
X0275902Y0393115D01*
X0275849Y0393127D01*
X0275798Y0393144D01*
X0275747Y0393164D01*
X0275699Y0393187D01*
X0275652Y0393214D01*
X0275607Y0393245D01*
X0275564Y0393278D01*
X0275524Y0393315D01*
X0275487Y0393354D01*
X0275453Y0393396D01*
X0275422Y0393440D01*
X0275394Y0393487D01*
X0275369Y0393535D01*
X0275348Y0393585D01*
X0275331Y0393636D01*
X0275318Y0393689D01*
X0275308Y0393742D01*
X0275302Y0393796D01*
X0275300Y0393850D01*
X0275300Y0413250D02*
X0275302Y0413304D01*
X0275308Y0413358D01*
X0275318Y0413411D01*
X0275331Y0413464D01*
X0275348Y0413515D01*
X0275369Y0413565D01*
X0275394Y0413613D01*
X0275422Y0413660D01*
X0275453Y0413704D01*
X0275487Y0413746D01*
X0275524Y0413785D01*
X0275564Y0413822D01*
X0275607Y0413855D01*
X0275652Y0413886D01*
X0275699Y0413913D01*
X0275747Y0413936D01*
X0275798Y0413956D01*
X0275849Y0413973D01*
X0275902Y0413985D01*
X0275955Y0413994D01*
X0276009Y0413999D01*
X0276064Y0414000D01*
X0276118Y0413997D01*
X0276171Y0413990D01*
X0276224Y0413979D01*
X0276277Y0413965D01*
X0276328Y0413947D01*
X0276377Y0413925D01*
X0276425Y0413900D01*
X0276471Y0413871D01*
X0276515Y0413839D01*
X0276556Y0413804D01*
X0276594Y0413766D01*
X0276630Y0413725D01*
X0276663Y0413682D01*
X0276693Y0413637D01*
X0276719Y0413589D01*
X0276742Y0413540D01*
X0276761Y0413489D01*
X0276776Y0413438D01*
X0276788Y0413385D01*
X0276796Y0413331D01*
X0276800Y0413277D01*
X0276800Y0413223D01*
X0276796Y0413169D01*
X0276788Y0413115D01*
X0276776Y0413062D01*
X0276761Y0413011D01*
X0276742Y0412960D01*
X0276719Y0412911D01*
X0276693Y0412863D01*
X0276663Y0412818D01*
X0276630Y0412775D01*
X0276594Y0412734D01*
X0276556Y0412696D01*
X0276515Y0412661D01*
X0276471Y0412629D01*
X0276425Y0412600D01*
X0276377Y0412575D01*
X0276328Y0412553D01*
X0276277Y0412535D01*
X0276224Y0412521D01*
X0276171Y0412510D01*
X0276118Y0412503D01*
X0276064Y0412500D01*
X0276009Y0412501D01*
X0275955Y0412506D01*
X0275902Y0412515D01*
X0275849Y0412527D01*
X0275798Y0412544D01*
X0275747Y0412564D01*
X0275699Y0412587D01*
X0275652Y0412614D01*
X0275607Y0412645D01*
X0275564Y0412678D01*
X0275524Y0412715D01*
X0275487Y0412754D01*
X0275453Y0412796D01*
X0275422Y0412840D01*
X0275394Y0412887D01*
X0275369Y0412935D01*
X0275348Y0412985D01*
X0275331Y0413036D01*
X0275318Y0413089D01*
X0275308Y0413142D01*
X0275302Y0413196D01*
X0275300Y0413250D01*
X0273000Y0413250D02*
X0273002Y0413304D01*
X0273008Y0413358D01*
X0273018Y0413411D01*
X0273031Y0413464D01*
X0273048Y0413515D01*
X0273069Y0413565D01*
X0273094Y0413613D01*
X0273122Y0413660D01*
X0273153Y0413704D01*
X0273187Y0413746D01*
X0273224Y0413785D01*
X0273264Y0413822D01*
X0273307Y0413855D01*
X0273352Y0413886D01*
X0273399Y0413913D01*
X0273447Y0413936D01*
X0273498Y0413956D01*
X0273549Y0413973D01*
X0273602Y0413985D01*
X0273655Y0413994D01*
X0273709Y0413999D01*
X0273764Y0414000D01*
X0273818Y0413997D01*
X0273871Y0413990D01*
X0273924Y0413979D01*
X0273977Y0413965D01*
X0274028Y0413947D01*
X0274077Y0413925D01*
X0274125Y0413900D01*
X0274171Y0413871D01*
X0274215Y0413839D01*
X0274256Y0413804D01*
X0274294Y0413766D01*
X0274330Y0413725D01*
X0274363Y0413682D01*
X0274393Y0413637D01*
X0274419Y0413589D01*
X0274442Y0413540D01*
X0274461Y0413489D01*
X0274476Y0413438D01*
X0274488Y0413385D01*
X0274496Y0413331D01*
X0274500Y0413277D01*
X0274500Y0413223D01*
X0274496Y0413169D01*
X0274488Y0413115D01*
X0274476Y0413062D01*
X0274461Y0413011D01*
X0274442Y0412960D01*
X0274419Y0412911D01*
X0274393Y0412863D01*
X0274363Y0412818D01*
X0274330Y0412775D01*
X0274294Y0412734D01*
X0274256Y0412696D01*
X0274215Y0412661D01*
X0274171Y0412629D01*
X0274125Y0412600D01*
X0274077Y0412575D01*
X0274028Y0412553D01*
X0273977Y0412535D01*
X0273924Y0412521D01*
X0273871Y0412510D01*
X0273818Y0412503D01*
X0273764Y0412500D01*
X0273709Y0412501D01*
X0273655Y0412506D01*
X0273602Y0412515D01*
X0273549Y0412527D01*
X0273498Y0412544D01*
X0273447Y0412564D01*
X0273399Y0412587D01*
X0273352Y0412614D01*
X0273307Y0412645D01*
X0273264Y0412678D01*
X0273224Y0412715D01*
X0273187Y0412754D01*
X0273153Y0412796D01*
X0273122Y0412840D01*
X0273094Y0412887D01*
X0273069Y0412935D01*
X0273048Y0412985D01*
X0273031Y0413036D01*
X0273018Y0413089D01*
X0273008Y0413142D01*
X0273002Y0413196D01*
X0273000Y0413250D01*
X0270800Y0413250D02*
X0270802Y0413304D01*
X0270808Y0413358D01*
X0270818Y0413411D01*
X0270831Y0413464D01*
X0270848Y0413515D01*
X0270869Y0413565D01*
X0270894Y0413613D01*
X0270922Y0413660D01*
X0270953Y0413704D01*
X0270987Y0413746D01*
X0271024Y0413785D01*
X0271064Y0413822D01*
X0271107Y0413855D01*
X0271152Y0413886D01*
X0271199Y0413913D01*
X0271247Y0413936D01*
X0271298Y0413956D01*
X0271349Y0413973D01*
X0271402Y0413985D01*
X0271455Y0413994D01*
X0271509Y0413999D01*
X0271564Y0414000D01*
X0271618Y0413997D01*
X0271671Y0413990D01*
X0271724Y0413979D01*
X0271777Y0413965D01*
X0271828Y0413947D01*
X0271877Y0413925D01*
X0271925Y0413900D01*
X0271971Y0413871D01*
X0272015Y0413839D01*
X0272056Y0413804D01*
X0272094Y0413766D01*
X0272130Y0413725D01*
X0272163Y0413682D01*
X0272193Y0413637D01*
X0272219Y0413589D01*
X0272242Y0413540D01*
X0272261Y0413489D01*
X0272276Y0413438D01*
X0272288Y0413385D01*
X0272296Y0413331D01*
X0272300Y0413277D01*
X0272300Y0413223D01*
X0272296Y0413169D01*
X0272288Y0413115D01*
X0272276Y0413062D01*
X0272261Y0413011D01*
X0272242Y0412960D01*
X0272219Y0412911D01*
X0272193Y0412863D01*
X0272163Y0412818D01*
X0272130Y0412775D01*
X0272094Y0412734D01*
X0272056Y0412696D01*
X0272015Y0412661D01*
X0271971Y0412629D01*
X0271925Y0412600D01*
X0271877Y0412575D01*
X0271828Y0412553D01*
X0271777Y0412535D01*
X0271724Y0412521D01*
X0271671Y0412510D01*
X0271618Y0412503D01*
X0271564Y0412500D01*
X0271509Y0412501D01*
X0271455Y0412506D01*
X0271402Y0412515D01*
X0271349Y0412527D01*
X0271298Y0412544D01*
X0271247Y0412564D01*
X0271199Y0412587D01*
X0271152Y0412614D01*
X0271107Y0412645D01*
X0271064Y0412678D01*
X0271024Y0412715D01*
X0270987Y0412754D01*
X0270953Y0412796D01*
X0270922Y0412840D01*
X0270894Y0412887D01*
X0270869Y0412935D01*
X0270848Y0412985D01*
X0270831Y0413036D01*
X0270818Y0413089D01*
X0270808Y0413142D01*
X0270802Y0413196D01*
X0270800Y0413250D01*
X0270750Y0363200D02*
X0270752Y0363254D01*
X0270758Y0363308D01*
X0270768Y0363361D01*
X0270781Y0363414D01*
X0270798Y0363465D01*
X0270819Y0363515D01*
X0270844Y0363563D01*
X0270872Y0363610D01*
X0270903Y0363654D01*
X0270937Y0363696D01*
X0270974Y0363735D01*
X0271014Y0363772D01*
X0271057Y0363805D01*
X0271102Y0363836D01*
X0271149Y0363863D01*
X0271197Y0363886D01*
X0271248Y0363906D01*
X0271299Y0363923D01*
X0271352Y0363935D01*
X0271405Y0363944D01*
X0271459Y0363949D01*
X0271514Y0363950D01*
X0271568Y0363947D01*
X0271621Y0363940D01*
X0271674Y0363929D01*
X0271727Y0363915D01*
X0271778Y0363897D01*
X0271827Y0363875D01*
X0271875Y0363850D01*
X0271921Y0363821D01*
X0271965Y0363789D01*
X0272006Y0363754D01*
X0272044Y0363716D01*
X0272080Y0363675D01*
X0272113Y0363632D01*
X0272143Y0363587D01*
X0272169Y0363539D01*
X0272192Y0363490D01*
X0272211Y0363439D01*
X0272226Y0363388D01*
X0272238Y0363335D01*
X0272246Y0363281D01*
X0272250Y0363227D01*
X0272250Y0363173D01*
X0272246Y0363119D01*
X0272238Y0363065D01*
X0272226Y0363012D01*
X0272211Y0362961D01*
X0272192Y0362910D01*
X0272169Y0362861D01*
X0272143Y0362813D01*
X0272113Y0362768D01*
X0272080Y0362725D01*
X0272044Y0362684D01*
X0272006Y0362646D01*
X0271965Y0362611D01*
X0271921Y0362579D01*
X0271875Y0362550D01*
X0271827Y0362525D01*
X0271778Y0362503D01*
X0271727Y0362485D01*
X0271674Y0362471D01*
X0271621Y0362460D01*
X0271568Y0362453D01*
X0271514Y0362450D01*
X0271459Y0362451D01*
X0271405Y0362456D01*
X0271352Y0362465D01*
X0271299Y0362477D01*
X0271248Y0362494D01*
X0271197Y0362514D01*
X0271149Y0362537D01*
X0271102Y0362564D01*
X0271057Y0362595D01*
X0271014Y0362628D01*
X0270974Y0362665D01*
X0270937Y0362704D01*
X0270903Y0362746D01*
X0270872Y0362790D01*
X0270844Y0362837D01*
X0270819Y0362885D01*
X0270798Y0362935D01*
X0270781Y0362986D01*
X0270768Y0363039D01*
X0270758Y0363092D01*
X0270752Y0363146D01*
X0270750Y0363200D01*
X0272950Y0363200D02*
X0272952Y0363254D01*
X0272958Y0363308D01*
X0272968Y0363361D01*
X0272981Y0363414D01*
X0272998Y0363465D01*
X0273019Y0363515D01*
X0273044Y0363563D01*
X0273072Y0363610D01*
X0273103Y0363654D01*
X0273137Y0363696D01*
X0273174Y0363735D01*
X0273214Y0363772D01*
X0273257Y0363805D01*
X0273302Y0363836D01*
X0273349Y0363863D01*
X0273397Y0363886D01*
X0273448Y0363906D01*
X0273499Y0363923D01*
X0273552Y0363935D01*
X0273605Y0363944D01*
X0273659Y0363949D01*
X0273714Y0363950D01*
X0273768Y0363947D01*
X0273821Y0363940D01*
X0273874Y0363929D01*
X0273927Y0363915D01*
X0273978Y0363897D01*
X0274027Y0363875D01*
X0274075Y0363850D01*
X0274121Y0363821D01*
X0274165Y0363789D01*
X0274206Y0363754D01*
X0274244Y0363716D01*
X0274280Y0363675D01*
X0274313Y0363632D01*
X0274343Y0363587D01*
X0274369Y0363539D01*
X0274392Y0363490D01*
X0274411Y0363439D01*
X0274426Y0363388D01*
X0274438Y0363335D01*
X0274446Y0363281D01*
X0274450Y0363227D01*
X0274450Y0363173D01*
X0274446Y0363119D01*
X0274438Y0363065D01*
X0274426Y0363012D01*
X0274411Y0362961D01*
X0274392Y0362910D01*
X0274369Y0362861D01*
X0274343Y0362813D01*
X0274313Y0362768D01*
X0274280Y0362725D01*
X0274244Y0362684D01*
X0274206Y0362646D01*
X0274165Y0362611D01*
X0274121Y0362579D01*
X0274075Y0362550D01*
X0274027Y0362525D01*
X0273978Y0362503D01*
X0273927Y0362485D01*
X0273874Y0362471D01*
X0273821Y0362460D01*
X0273768Y0362453D01*
X0273714Y0362450D01*
X0273659Y0362451D01*
X0273605Y0362456D01*
X0273552Y0362465D01*
X0273499Y0362477D01*
X0273448Y0362494D01*
X0273397Y0362514D01*
X0273349Y0362537D01*
X0273302Y0362564D01*
X0273257Y0362595D01*
X0273214Y0362628D01*
X0273174Y0362665D01*
X0273137Y0362704D01*
X0273103Y0362746D01*
X0273072Y0362790D01*
X0273044Y0362837D01*
X0273019Y0362885D01*
X0272998Y0362935D01*
X0272981Y0362986D01*
X0272968Y0363039D01*
X0272958Y0363092D01*
X0272952Y0363146D01*
X0272950Y0363200D01*
X0275250Y0363200D02*
X0275252Y0363254D01*
X0275258Y0363308D01*
X0275268Y0363361D01*
X0275281Y0363414D01*
X0275298Y0363465D01*
X0275319Y0363515D01*
X0275344Y0363563D01*
X0275372Y0363610D01*
X0275403Y0363654D01*
X0275437Y0363696D01*
X0275474Y0363735D01*
X0275514Y0363772D01*
X0275557Y0363805D01*
X0275602Y0363836D01*
X0275649Y0363863D01*
X0275697Y0363886D01*
X0275748Y0363906D01*
X0275799Y0363923D01*
X0275852Y0363935D01*
X0275905Y0363944D01*
X0275959Y0363949D01*
X0276014Y0363950D01*
X0276068Y0363947D01*
X0276121Y0363940D01*
X0276174Y0363929D01*
X0276227Y0363915D01*
X0276278Y0363897D01*
X0276327Y0363875D01*
X0276375Y0363850D01*
X0276421Y0363821D01*
X0276465Y0363789D01*
X0276506Y0363754D01*
X0276544Y0363716D01*
X0276580Y0363675D01*
X0276613Y0363632D01*
X0276643Y0363587D01*
X0276669Y0363539D01*
X0276692Y0363490D01*
X0276711Y0363439D01*
X0276726Y0363388D01*
X0276738Y0363335D01*
X0276746Y0363281D01*
X0276750Y0363227D01*
X0276750Y0363173D01*
X0276746Y0363119D01*
X0276738Y0363065D01*
X0276726Y0363012D01*
X0276711Y0362961D01*
X0276692Y0362910D01*
X0276669Y0362861D01*
X0276643Y0362813D01*
X0276613Y0362768D01*
X0276580Y0362725D01*
X0276544Y0362684D01*
X0276506Y0362646D01*
X0276465Y0362611D01*
X0276421Y0362579D01*
X0276375Y0362550D01*
X0276327Y0362525D01*
X0276278Y0362503D01*
X0276227Y0362485D01*
X0276174Y0362471D01*
X0276121Y0362460D01*
X0276068Y0362453D01*
X0276014Y0362450D01*
X0275959Y0362451D01*
X0275905Y0362456D01*
X0275852Y0362465D01*
X0275799Y0362477D01*
X0275748Y0362494D01*
X0275697Y0362514D01*
X0275649Y0362537D01*
X0275602Y0362564D01*
X0275557Y0362595D01*
X0275514Y0362628D01*
X0275474Y0362665D01*
X0275437Y0362704D01*
X0275403Y0362746D01*
X0275372Y0362790D01*
X0275344Y0362837D01*
X0275319Y0362885D01*
X0275298Y0362935D01*
X0275281Y0362986D01*
X0275268Y0363039D01*
X0275258Y0363092D01*
X0275252Y0363146D01*
X0275250Y0363200D01*
X0329900Y0308550D02*
X0329902Y0308604D01*
X0329908Y0308658D01*
X0329918Y0308711D01*
X0329931Y0308764D01*
X0329948Y0308815D01*
X0329969Y0308865D01*
X0329994Y0308913D01*
X0330022Y0308960D01*
X0330053Y0309004D01*
X0330087Y0309046D01*
X0330124Y0309085D01*
X0330164Y0309122D01*
X0330207Y0309155D01*
X0330252Y0309186D01*
X0330299Y0309213D01*
X0330347Y0309236D01*
X0330398Y0309256D01*
X0330449Y0309273D01*
X0330502Y0309285D01*
X0330555Y0309294D01*
X0330609Y0309299D01*
X0330664Y0309300D01*
X0330718Y0309297D01*
X0330771Y0309290D01*
X0330824Y0309279D01*
X0330877Y0309265D01*
X0330928Y0309247D01*
X0330977Y0309225D01*
X0331025Y0309200D01*
X0331071Y0309171D01*
X0331115Y0309139D01*
X0331156Y0309104D01*
X0331194Y0309066D01*
X0331230Y0309025D01*
X0331263Y0308982D01*
X0331293Y0308937D01*
X0331319Y0308889D01*
X0331342Y0308840D01*
X0331361Y0308789D01*
X0331376Y0308738D01*
X0331388Y0308685D01*
X0331396Y0308631D01*
X0331400Y0308577D01*
X0331400Y0308523D01*
X0331396Y0308469D01*
X0331388Y0308415D01*
X0331376Y0308362D01*
X0331361Y0308311D01*
X0331342Y0308260D01*
X0331319Y0308211D01*
X0331293Y0308163D01*
X0331263Y0308118D01*
X0331230Y0308075D01*
X0331194Y0308034D01*
X0331156Y0307996D01*
X0331115Y0307961D01*
X0331071Y0307929D01*
X0331025Y0307900D01*
X0330977Y0307875D01*
X0330928Y0307853D01*
X0330877Y0307835D01*
X0330824Y0307821D01*
X0330771Y0307810D01*
X0330718Y0307803D01*
X0330664Y0307800D01*
X0330609Y0307801D01*
X0330555Y0307806D01*
X0330502Y0307815D01*
X0330449Y0307827D01*
X0330398Y0307844D01*
X0330347Y0307864D01*
X0330299Y0307887D01*
X0330252Y0307914D01*
X0330207Y0307945D01*
X0330164Y0307978D01*
X0330124Y0308015D01*
X0330087Y0308054D01*
X0330053Y0308096D01*
X0330022Y0308140D01*
X0329994Y0308187D01*
X0329969Y0308235D01*
X0329948Y0308285D01*
X0329931Y0308336D01*
X0329918Y0308389D01*
X0329908Y0308442D01*
X0329902Y0308496D01*
X0329900Y0308550D01*
X0329900Y0306350D02*
X0329902Y0306404D01*
X0329908Y0306458D01*
X0329918Y0306511D01*
X0329931Y0306564D01*
X0329948Y0306615D01*
X0329969Y0306665D01*
X0329994Y0306713D01*
X0330022Y0306760D01*
X0330053Y0306804D01*
X0330087Y0306846D01*
X0330124Y0306885D01*
X0330164Y0306922D01*
X0330207Y0306955D01*
X0330252Y0306986D01*
X0330299Y0307013D01*
X0330347Y0307036D01*
X0330398Y0307056D01*
X0330449Y0307073D01*
X0330502Y0307085D01*
X0330555Y0307094D01*
X0330609Y0307099D01*
X0330664Y0307100D01*
X0330718Y0307097D01*
X0330771Y0307090D01*
X0330824Y0307079D01*
X0330877Y0307065D01*
X0330928Y0307047D01*
X0330977Y0307025D01*
X0331025Y0307000D01*
X0331071Y0306971D01*
X0331115Y0306939D01*
X0331156Y0306904D01*
X0331194Y0306866D01*
X0331230Y0306825D01*
X0331263Y0306782D01*
X0331293Y0306737D01*
X0331319Y0306689D01*
X0331342Y0306640D01*
X0331361Y0306589D01*
X0331376Y0306538D01*
X0331388Y0306485D01*
X0331396Y0306431D01*
X0331400Y0306377D01*
X0331400Y0306323D01*
X0331396Y0306269D01*
X0331388Y0306215D01*
X0331376Y0306162D01*
X0331361Y0306111D01*
X0331342Y0306060D01*
X0331319Y0306011D01*
X0331293Y0305963D01*
X0331263Y0305918D01*
X0331230Y0305875D01*
X0331194Y0305834D01*
X0331156Y0305796D01*
X0331115Y0305761D01*
X0331071Y0305729D01*
X0331025Y0305700D01*
X0330977Y0305675D01*
X0330928Y0305653D01*
X0330877Y0305635D01*
X0330824Y0305621D01*
X0330771Y0305610D01*
X0330718Y0305603D01*
X0330664Y0305600D01*
X0330609Y0305601D01*
X0330555Y0305606D01*
X0330502Y0305615D01*
X0330449Y0305627D01*
X0330398Y0305644D01*
X0330347Y0305664D01*
X0330299Y0305687D01*
X0330252Y0305714D01*
X0330207Y0305745D01*
X0330164Y0305778D01*
X0330124Y0305815D01*
X0330087Y0305854D01*
X0330053Y0305896D01*
X0330022Y0305940D01*
X0329994Y0305987D01*
X0329969Y0306035D01*
X0329948Y0306085D01*
X0329931Y0306136D01*
X0329918Y0306189D01*
X0329908Y0306242D01*
X0329902Y0306296D01*
X0329900Y0306350D01*
X0329900Y0304050D02*
X0329902Y0304104D01*
X0329908Y0304158D01*
X0329918Y0304211D01*
X0329931Y0304264D01*
X0329948Y0304315D01*
X0329969Y0304365D01*
X0329994Y0304413D01*
X0330022Y0304460D01*
X0330053Y0304504D01*
X0330087Y0304546D01*
X0330124Y0304585D01*
X0330164Y0304622D01*
X0330207Y0304655D01*
X0330252Y0304686D01*
X0330299Y0304713D01*
X0330347Y0304736D01*
X0330398Y0304756D01*
X0330449Y0304773D01*
X0330502Y0304785D01*
X0330555Y0304794D01*
X0330609Y0304799D01*
X0330664Y0304800D01*
X0330718Y0304797D01*
X0330771Y0304790D01*
X0330824Y0304779D01*
X0330877Y0304765D01*
X0330928Y0304747D01*
X0330977Y0304725D01*
X0331025Y0304700D01*
X0331071Y0304671D01*
X0331115Y0304639D01*
X0331156Y0304604D01*
X0331194Y0304566D01*
X0331230Y0304525D01*
X0331263Y0304482D01*
X0331293Y0304437D01*
X0331319Y0304389D01*
X0331342Y0304340D01*
X0331361Y0304289D01*
X0331376Y0304238D01*
X0331388Y0304185D01*
X0331396Y0304131D01*
X0331400Y0304077D01*
X0331400Y0304023D01*
X0331396Y0303969D01*
X0331388Y0303915D01*
X0331376Y0303862D01*
X0331361Y0303811D01*
X0331342Y0303760D01*
X0331319Y0303711D01*
X0331293Y0303663D01*
X0331263Y0303618D01*
X0331230Y0303575D01*
X0331194Y0303534D01*
X0331156Y0303496D01*
X0331115Y0303461D01*
X0331071Y0303429D01*
X0331025Y0303400D01*
X0330977Y0303375D01*
X0330928Y0303353D01*
X0330877Y0303335D01*
X0330824Y0303321D01*
X0330771Y0303310D01*
X0330718Y0303303D01*
X0330664Y0303300D01*
X0330609Y0303301D01*
X0330555Y0303306D01*
X0330502Y0303315D01*
X0330449Y0303327D01*
X0330398Y0303344D01*
X0330347Y0303364D01*
X0330299Y0303387D01*
X0330252Y0303414D01*
X0330207Y0303445D01*
X0330164Y0303478D01*
X0330124Y0303515D01*
X0330087Y0303554D01*
X0330053Y0303596D01*
X0330022Y0303640D01*
X0329994Y0303687D01*
X0329969Y0303735D01*
X0329948Y0303785D01*
X0329931Y0303836D01*
X0329918Y0303889D01*
X0329908Y0303942D01*
X0329902Y0303996D01*
X0329900Y0304050D01*
X0360650Y0304050D02*
X0360652Y0304104D01*
X0360658Y0304158D01*
X0360668Y0304211D01*
X0360681Y0304264D01*
X0360698Y0304315D01*
X0360719Y0304365D01*
X0360744Y0304413D01*
X0360772Y0304460D01*
X0360803Y0304504D01*
X0360837Y0304546D01*
X0360874Y0304585D01*
X0360914Y0304622D01*
X0360957Y0304655D01*
X0361002Y0304686D01*
X0361049Y0304713D01*
X0361097Y0304736D01*
X0361148Y0304756D01*
X0361199Y0304773D01*
X0361252Y0304785D01*
X0361305Y0304794D01*
X0361359Y0304799D01*
X0361414Y0304800D01*
X0361468Y0304797D01*
X0361521Y0304790D01*
X0361574Y0304779D01*
X0361627Y0304765D01*
X0361678Y0304747D01*
X0361727Y0304725D01*
X0361775Y0304700D01*
X0361821Y0304671D01*
X0361865Y0304639D01*
X0361906Y0304604D01*
X0361944Y0304566D01*
X0361980Y0304525D01*
X0362013Y0304482D01*
X0362043Y0304437D01*
X0362069Y0304389D01*
X0362092Y0304340D01*
X0362111Y0304289D01*
X0362126Y0304238D01*
X0362138Y0304185D01*
X0362146Y0304131D01*
X0362150Y0304077D01*
X0362150Y0304023D01*
X0362146Y0303969D01*
X0362138Y0303915D01*
X0362126Y0303862D01*
X0362111Y0303811D01*
X0362092Y0303760D01*
X0362069Y0303711D01*
X0362043Y0303663D01*
X0362013Y0303618D01*
X0361980Y0303575D01*
X0361944Y0303534D01*
X0361906Y0303496D01*
X0361865Y0303461D01*
X0361821Y0303429D01*
X0361775Y0303400D01*
X0361727Y0303375D01*
X0361678Y0303353D01*
X0361627Y0303335D01*
X0361574Y0303321D01*
X0361521Y0303310D01*
X0361468Y0303303D01*
X0361414Y0303300D01*
X0361359Y0303301D01*
X0361305Y0303306D01*
X0361252Y0303315D01*
X0361199Y0303327D01*
X0361148Y0303344D01*
X0361097Y0303364D01*
X0361049Y0303387D01*
X0361002Y0303414D01*
X0360957Y0303445D01*
X0360914Y0303478D01*
X0360874Y0303515D01*
X0360837Y0303554D01*
X0360803Y0303596D01*
X0360772Y0303640D01*
X0360744Y0303687D01*
X0360719Y0303735D01*
X0360698Y0303785D01*
X0360681Y0303836D01*
X0360668Y0303889D01*
X0360658Y0303942D01*
X0360652Y0303996D01*
X0360650Y0304050D01*
X0360650Y0306350D02*
X0360652Y0306404D01*
X0360658Y0306458D01*
X0360668Y0306511D01*
X0360681Y0306564D01*
X0360698Y0306615D01*
X0360719Y0306665D01*
X0360744Y0306713D01*
X0360772Y0306760D01*
X0360803Y0306804D01*
X0360837Y0306846D01*
X0360874Y0306885D01*
X0360914Y0306922D01*
X0360957Y0306955D01*
X0361002Y0306986D01*
X0361049Y0307013D01*
X0361097Y0307036D01*
X0361148Y0307056D01*
X0361199Y0307073D01*
X0361252Y0307085D01*
X0361305Y0307094D01*
X0361359Y0307099D01*
X0361414Y0307100D01*
X0361468Y0307097D01*
X0361521Y0307090D01*
X0361574Y0307079D01*
X0361627Y0307065D01*
X0361678Y0307047D01*
X0361727Y0307025D01*
X0361775Y0307000D01*
X0361821Y0306971D01*
X0361865Y0306939D01*
X0361906Y0306904D01*
X0361944Y0306866D01*
X0361980Y0306825D01*
X0362013Y0306782D01*
X0362043Y0306737D01*
X0362069Y0306689D01*
X0362092Y0306640D01*
X0362111Y0306589D01*
X0362126Y0306538D01*
X0362138Y0306485D01*
X0362146Y0306431D01*
X0362150Y0306377D01*
X0362150Y0306323D01*
X0362146Y0306269D01*
X0362138Y0306215D01*
X0362126Y0306162D01*
X0362111Y0306111D01*
X0362092Y0306060D01*
X0362069Y0306011D01*
X0362043Y0305963D01*
X0362013Y0305918D01*
X0361980Y0305875D01*
X0361944Y0305834D01*
X0361906Y0305796D01*
X0361865Y0305761D01*
X0361821Y0305729D01*
X0361775Y0305700D01*
X0361727Y0305675D01*
X0361678Y0305653D01*
X0361627Y0305635D01*
X0361574Y0305621D01*
X0361521Y0305610D01*
X0361468Y0305603D01*
X0361414Y0305600D01*
X0361359Y0305601D01*
X0361305Y0305606D01*
X0361252Y0305615D01*
X0361199Y0305627D01*
X0361148Y0305644D01*
X0361097Y0305664D01*
X0361049Y0305687D01*
X0361002Y0305714D01*
X0360957Y0305745D01*
X0360914Y0305778D01*
X0360874Y0305815D01*
X0360837Y0305854D01*
X0360803Y0305896D01*
X0360772Y0305940D01*
X0360744Y0305987D01*
X0360719Y0306035D01*
X0360698Y0306085D01*
X0360681Y0306136D01*
X0360668Y0306189D01*
X0360658Y0306242D01*
X0360652Y0306296D01*
X0360650Y0306350D01*
X0360650Y0308550D02*
X0360652Y0308604D01*
X0360658Y0308658D01*
X0360668Y0308711D01*
X0360681Y0308764D01*
X0360698Y0308815D01*
X0360719Y0308865D01*
X0360744Y0308913D01*
X0360772Y0308960D01*
X0360803Y0309004D01*
X0360837Y0309046D01*
X0360874Y0309085D01*
X0360914Y0309122D01*
X0360957Y0309155D01*
X0361002Y0309186D01*
X0361049Y0309213D01*
X0361097Y0309236D01*
X0361148Y0309256D01*
X0361199Y0309273D01*
X0361252Y0309285D01*
X0361305Y0309294D01*
X0361359Y0309299D01*
X0361414Y0309300D01*
X0361468Y0309297D01*
X0361521Y0309290D01*
X0361574Y0309279D01*
X0361627Y0309265D01*
X0361678Y0309247D01*
X0361727Y0309225D01*
X0361775Y0309200D01*
X0361821Y0309171D01*
X0361865Y0309139D01*
X0361906Y0309104D01*
X0361944Y0309066D01*
X0361980Y0309025D01*
X0362013Y0308982D01*
X0362043Y0308937D01*
X0362069Y0308889D01*
X0362092Y0308840D01*
X0362111Y0308789D01*
X0362126Y0308738D01*
X0362138Y0308685D01*
X0362146Y0308631D01*
X0362150Y0308577D01*
X0362150Y0308523D01*
X0362146Y0308469D01*
X0362138Y0308415D01*
X0362126Y0308362D01*
X0362111Y0308311D01*
X0362092Y0308260D01*
X0362069Y0308211D01*
X0362043Y0308163D01*
X0362013Y0308118D01*
X0361980Y0308075D01*
X0361944Y0308034D01*
X0361906Y0307996D01*
X0361865Y0307961D01*
X0361821Y0307929D01*
X0361775Y0307900D01*
X0361727Y0307875D01*
X0361678Y0307853D01*
X0361627Y0307835D01*
X0361574Y0307821D01*
X0361521Y0307810D01*
X0361468Y0307803D01*
X0361414Y0307800D01*
X0361359Y0307801D01*
X0361305Y0307806D01*
X0361252Y0307815D01*
X0361199Y0307827D01*
X0361148Y0307844D01*
X0361097Y0307864D01*
X0361049Y0307887D01*
X0361002Y0307914D01*
X0360957Y0307945D01*
X0360914Y0307978D01*
X0360874Y0308015D01*
X0360837Y0308054D01*
X0360803Y0308096D01*
X0360772Y0308140D01*
X0360744Y0308187D01*
X0360719Y0308235D01*
X0360698Y0308285D01*
X0360681Y0308336D01*
X0360668Y0308389D01*
X0360658Y0308442D01*
X0360652Y0308496D01*
X0360650Y0308550D01*
X0379950Y0308550D02*
X0379952Y0308604D01*
X0379958Y0308658D01*
X0379968Y0308711D01*
X0379981Y0308764D01*
X0379998Y0308815D01*
X0380019Y0308865D01*
X0380044Y0308913D01*
X0380072Y0308960D01*
X0380103Y0309004D01*
X0380137Y0309046D01*
X0380174Y0309085D01*
X0380214Y0309122D01*
X0380257Y0309155D01*
X0380302Y0309186D01*
X0380349Y0309213D01*
X0380397Y0309236D01*
X0380448Y0309256D01*
X0380499Y0309273D01*
X0380552Y0309285D01*
X0380605Y0309294D01*
X0380659Y0309299D01*
X0380714Y0309300D01*
X0380768Y0309297D01*
X0380821Y0309290D01*
X0380874Y0309279D01*
X0380927Y0309265D01*
X0380978Y0309247D01*
X0381027Y0309225D01*
X0381075Y0309200D01*
X0381121Y0309171D01*
X0381165Y0309139D01*
X0381206Y0309104D01*
X0381244Y0309066D01*
X0381280Y0309025D01*
X0381313Y0308982D01*
X0381343Y0308937D01*
X0381369Y0308889D01*
X0381392Y0308840D01*
X0381411Y0308789D01*
X0381426Y0308738D01*
X0381438Y0308685D01*
X0381446Y0308631D01*
X0381450Y0308577D01*
X0381450Y0308523D01*
X0381446Y0308469D01*
X0381438Y0308415D01*
X0381426Y0308362D01*
X0381411Y0308311D01*
X0381392Y0308260D01*
X0381369Y0308211D01*
X0381343Y0308163D01*
X0381313Y0308118D01*
X0381280Y0308075D01*
X0381244Y0308034D01*
X0381206Y0307996D01*
X0381165Y0307961D01*
X0381121Y0307929D01*
X0381075Y0307900D01*
X0381027Y0307875D01*
X0380978Y0307853D01*
X0380927Y0307835D01*
X0380874Y0307821D01*
X0380821Y0307810D01*
X0380768Y0307803D01*
X0380714Y0307800D01*
X0380659Y0307801D01*
X0380605Y0307806D01*
X0380552Y0307815D01*
X0380499Y0307827D01*
X0380448Y0307844D01*
X0380397Y0307864D01*
X0380349Y0307887D01*
X0380302Y0307914D01*
X0380257Y0307945D01*
X0380214Y0307978D01*
X0380174Y0308015D01*
X0380137Y0308054D01*
X0380103Y0308096D01*
X0380072Y0308140D01*
X0380044Y0308187D01*
X0380019Y0308235D01*
X0379998Y0308285D01*
X0379981Y0308336D01*
X0379968Y0308389D01*
X0379958Y0308442D01*
X0379952Y0308496D01*
X0379950Y0308550D01*
X0379950Y0306350D02*
X0379952Y0306404D01*
X0379958Y0306458D01*
X0379968Y0306511D01*
X0379981Y0306564D01*
X0379998Y0306615D01*
X0380019Y0306665D01*
X0380044Y0306713D01*
X0380072Y0306760D01*
X0380103Y0306804D01*
X0380137Y0306846D01*
X0380174Y0306885D01*
X0380214Y0306922D01*
X0380257Y0306955D01*
X0380302Y0306986D01*
X0380349Y0307013D01*
X0380397Y0307036D01*
X0380448Y0307056D01*
X0380499Y0307073D01*
X0380552Y0307085D01*
X0380605Y0307094D01*
X0380659Y0307099D01*
X0380714Y0307100D01*
X0380768Y0307097D01*
X0380821Y0307090D01*
X0380874Y0307079D01*
X0380927Y0307065D01*
X0380978Y0307047D01*
X0381027Y0307025D01*
X0381075Y0307000D01*
X0381121Y0306971D01*
X0381165Y0306939D01*
X0381206Y0306904D01*
X0381244Y0306866D01*
X0381280Y0306825D01*
X0381313Y0306782D01*
X0381343Y0306737D01*
X0381369Y0306689D01*
X0381392Y0306640D01*
X0381411Y0306589D01*
X0381426Y0306538D01*
X0381438Y0306485D01*
X0381446Y0306431D01*
X0381450Y0306377D01*
X0381450Y0306323D01*
X0381446Y0306269D01*
X0381438Y0306215D01*
X0381426Y0306162D01*
X0381411Y0306111D01*
X0381392Y0306060D01*
X0381369Y0306011D01*
X0381343Y0305963D01*
X0381313Y0305918D01*
X0381280Y0305875D01*
X0381244Y0305834D01*
X0381206Y0305796D01*
X0381165Y0305761D01*
X0381121Y0305729D01*
X0381075Y0305700D01*
X0381027Y0305675D01*
X0380978Y0305653D01*
X0380927Y0305635D01*
X0380874Y0305621D01*
X0380821Y0305610D01*
X0380768Y0305603D01*
X0380714Y0305600D01*
X0380659Y0305601D01*
X0380605Y0305606D01*
X0380552Y0305615D01*
X0380499Y0305627D01*
X0380448Y0305644D01*
X0380397Y0305664D01*
X0380349Y0305687D01*
X0380302Y0305714D01*
X0380257Y0305745D01*
X0380214Y0305778D01*
X0380174Y0305815D01*
X0380137Y0305854D01*
X0380103Y0305896D01*
X0380072Y0305940D01*
X0380044Y0305987D01*
X0380019Y0306035D01*
X0379998Y0306085D01*
X0379981Y0306136D01*
X0379968Y0306189D01*
X0379958Y0306242D01*
X0379952Y0306296D01*
X0379950Y0306350D01*
X0379950Y0304050D02*
X0379952Y0304104D01*
X0379958Y0304158D01*
X0379968Y0304211D01*
X0379981Y0304264D01*
X0379998Y0304315D01*
X0380019Y0304365D01*
X0380044Y0304413D01*
X0380072Y0304460D01*
X0380103Y0304504D01*
X0380137Y0304546D01*
X0380174Y0304585D01*
X0380214Y0304622D01*
X0380257Y0304655D01*
X0380302Y0304686D01*
X0380349Y0304713D01*
X0380397Y0304736D01*
X0380448Y0304756D01*
X0380499Y0304773D01*
X0380552Y0304785D01*
X0380605Y0304794D01*
X0380659Y0304799D01*
X0380714Y0304800D01*
X0380768Y0304797D01*
X0380821Y0304790D01*
X0380874Y0304779D01*
X0380927Y0304765D01*
X0380978Y0304747D01*
X0381027Y0304725D01*
X0381075Y0304700D01*
X0381121Y0304671D01*
X0381165Y0304639D01*
X0381206Y0304604D01*
X0381244Y0304566D01*
X0381280Y0304525D01*
X0381313Y0304482D01*
X0381343Y0304437D01*
X0381369Y0304389D01*
X0381392Y0304340D01*
X0381411Y0304289D01*
X0381426Y0304238D01*
X0381438Y0304185D01*
X0381446Y0304131D01*
X0381450Y0304077D01*
X0381450Y0304023D01*
X0381446Y0303969D01*
X0381438Y0303915D01*
X0381426Y0303862D01*
X0381411Y0303811D01*
X0381392Y0303760D01*
X0381369Y0303711D01*
X0381343Y0303663D01*
X0381313Y0303618D01*
X0381280Y0303575D01*
X0381244Y0303534D01*
X0381206Y0303496D01*
X0381165Y0303461D01*
X0381121Y0303429D01*
X0381075Y0303400D01*
X0381027Y0303375D01*
X0380978Y0303353D01*
X0380927Y0303335D01*
X0380874Y0303321D01*
X0380821Y0303310D01*
X0380768Y0303303D01*
X0380714Y0303300D01*
X0380659Y0303301D01*
X0380605Y0303306D01*
X0380552Y0303315D01*
X0380499Y0303327D01*
X0380448Y0303344D01*
X0380397Y0303364D01*
X0380349Y0303387D01*
X0380302Y0303414D01*
X0380257Y0303445D01*
X0380214Y0303478D01*
X0380174Y0303515D01*
X0380137Y0303554D01*
X0380103Y0303596D01*
X0380072Y0303640D01*
X0380044Y0303687D01*
X0380019Y0303735D01*
X0379998Y0303785D01*
X0379981Y0303836D01*
X0379968Y0303889D01*
X0379958Y0303942D01*
X0379952Y0303996D01*
X0379950Y0304050D01*
X0275300Y0249350D02*
X0275302Y0249404D01*
X0275308Y0249458D01*
X0275318Y0249511D01*
X0275331Y0249564D01*
X0275348Y0249615D01*
X0275369Y0249665D01*
X0275394Y0249713D01*
X0275422Y0249760D01*
X0275453Y0249804D01*
X0275487Y0249846D01*
X0275524Y0249885D01*
X0275564Y0249922D01*
X0275607Y0249955D01*
X0275652Y0249986D01*
X0275699Y0250013D01*
X0275747Y0250036D01*
X0275798Y0250056D01*
X0275849Y0250073D01*
X0275902Y0250085D01*
X0275955Y0250094D01*
X0276009Y0250099D01*
X0276064Y0250100D01*
X0276118Y0250097D01*
X0276171Y0250090D01*
X0276224Y0250079D01*
X0276277Y0250065D01*
X0276328Y0250047D01*
X0276377Y0250025D01*
X0276425Y0250000D01*
X0276471Y0249971D01*
X0276515Y0249939D01*
X0276556Y0249904D01*
X0276594Y0249866D01*
X0276630Y0249825D01*
X0276663Y0249782D01*
X0276693Y0249737D01*
X0276719Y0249689D01*
X0276742Y0249640D01*
X0276761Y0249589D01*
X0276776Y0249538D01*
X0276788Y0249485D01*
X0276796Y0249431D01*
X0276800Y0249377D01*
X0276800Y0249323D01*
X0276796Y0249269D01*
X0276788Y0249215D01*
X0276776Y0249162D01*
X0276761Y0249111D01*
X0276742Y0249060D01*
X0276719Y0249011D01*
X0276693Y0248963D01*
X0276663Y0248918D01*
X0276630Y0248875D01*
X0276594Y0248834D01*
X0276556Y0248796D01*
X0276515Y0248761D01*
X0276471Y0248729D01*
X0276425Y0248700D01*
X0276377Y0248675D01*
X0276328Y0248653D01*
X0276277Y0248635D01*
X0276224Y0248621D01*
X0276171Y0248610D01*
X0276118Y0248603D01*
X0276064Y0248600D01*
X0276009Y0248601D01*
X0275955Y0248606D01*
X0275902Y0248615D01*
X0275849Y0248627D01*
X0275798Y0248644D01*
X0275747Y0248664D01*
X0275699Y0248687D01*
X0275652Y0248714D01*
X0275607Y0248745D01*
X0275564Y0248778D01*
X0275524Y0248815D01*
X0275487Y0248854D01*
X0275453Y0248896D01*
X0275422Y0248940D01*
X0275394Y0248987D01*
X0275369Y0249035D01*
X0275348Y0249085D01*
X0275331Y0249136D01*
X0275318Y0249189D01*
X0275308Y0249242D01*
X0275302Y0249296D01*
X0275300Y0249350D01*
X0273000Y0249350D02*
X0273002Y0249404D01*
X0273008Y0249458D01*
X0273018Y0249511D01*
X0273031Y0249564D01*
X0273048Y0249615D01*
X0273069Y0249665D01*
X0273094Y0249713D01*
X0273122Y0249760D01*
X0273153Y0249804D01*
X0273187Y0249846D01*
X0273224Y0249885D01*
X0273264Y0249922D01*
X0273307Y0249955D01*
X0273352Y0249986D01*
X0273399Y0250013D01*
X0273447Y0250036D01*
X0273498Y0250056D01*
X0273549Y0250073D01*
X0273602Y0250085D01*
X0273655Y0250094D01*
X0273709Y0250099D01*
X0273764Y0250100D01*
X0273818Y0250097D01*
X0273871Y0250090D01*
X0273924Y0250079D01*
X0273977Y0250065D01*
X0274028Y0250047D01*
X0274077Y0250025D01*
X0274125Y0250000D01*
X0274171Y0249971D01*
X0274215Y0249939D01*
X0274256Y0249904D01*
X0274294Y0249866D01*
X0274330Y0249825D01*
X0274363Y0249782D01*
X0274393Y0249737D01*
X0274419Y0249689D01*
X0274442Y0249640D01*
X0274461Y0249589D01*
X0274476Y0249538D01*
X0274488Y0249485D01*
X0274496Y0249431D01*
X0274500Y0249377D01*
X0274500Y0249323D01*
X0274496Y0249269D01*
X0274488Y0249215D01*
X0274476Y0249162D01*
X0274461Y0249111D01*
X0274442Y0249060D01*
X0274419Y0249011D01*
X0274393Y0248963D01*
X0274363Y0248918D01*
X0274330Y0248875D01*
X0274294Y0248834D01*
X0274256Y0248796D01*
X0274215Y0248761D01*
X0274171Y0248729D01*
X0274125Y0248700D01*
X0274077Y0248675D01*
X0274028Y0248653D01*
X0273977Y0248635D01*
X0273924Y0248621D01*
X0273871Y0248610D01*
X0273818Y0248603D01*
X0273764Y0248600D01*
X0273709Y0248601D01*
X0273655Y0248606D01*
X0273602Y0248615D01*
X0273549Y0248627D01*
X0273498Y0248644D01*
X0273447Y0248664D01*
X0273399Y0248687D01*
X0273352Y0248714D01*
X0273307Y0248745D01*
X0273264Y0248778D01*
X0273224Y0248815D01*
X0273187Y0248854D01*
X0273153Y0248896D01*
X0273122Y0248940D01*
X0273094Y0248987D01*
X0273069Y0249035D01*
X0273048Y0249085D01*
X0273031Y0249136D01*
X0273018Y0249189D01*
X0273008Y0249242D01*
X0273002Y0249296D01*
X0273000Y0249350D01*
X0270800Y0249350D02*
X0270802Y0249404D01*
X0270808Y0249458D01*
X0270818Y0249511D01*
X0270831Y0249564D01*
X0270848Y0249615D01*
X0270869Y0249665D01*
X0270894Y0249713D01*
X0270922Y0249760D01*
X0270953Y0249804D01*
X0270987Y0249846D01*
X0271024Y0249885D01*
X0271064Y0249922D01*
X0271107Y0249955D01*
X0271152Y0249986D01*
X0271199Y0250013D01*
X0271247Y0250036D01*
X0271298Y0250056D01*
X0271349Y0250073D01*
X0271402Y0250085D01*
X0271455Y0250094D01*
X0271509Y0250099D01*
X0271564Y0250100D01*
X0271618Y0250097D01*
X0271671Y0250090D01*
X0271724Y0250079D01*
X0271777Y0250065D01*
X0271828Y0250047D01*
X0271877Y0250025D01*
X0271925Y0250000D01*
X0271971Y0249971D01*
X0272015Y0249939D01*
X0272056Y0249904D01*
X0272094Y0249866D01*
X0272130Y0249825D01*
X0272163Y0249782D01*
X0272193Y0249737D01*
X0272219Y0249689D01*
X0272242Y0249640D01*
X0272261Y0249589D01*
X0272276Y0249538D01*
X0272288Y0249485D01*
X0272296Y0249431D01*
X0272300Y0249377D01*
X0272300Y0249323D01*
X0272296Y0249269D01*
X0272288Y0249215D01*
X0272276Y0249162D01*
X0272261Y0249111D01*
X0272242Y0249060D01*
X0272219Y0249011D01*
X0272193Y0248963D01*
X0272163Y0248918D01*
X0272130Y0248875D01*
X0272094Y0248834D01*
X0272056Y0248796D01*
X0272015Y0248761D01*
X0271971Y0248729D01*
X0271925Y0248700D01*
X0271877Y0248675D01*
X0271828Y0248653D01*
X0271777Y0248635D01*
X0271724Y0248621D01*
X0271671Y0248610D01*
X0271618Y0248603D01*
X0271564Y0248600D01*
X0271509Y0248601D01*
X0271455Y0248606D01*
X0271402Y0248615D01*
X0271349Y0248627D01*
X0271298Y0248644D01*
X0271247Y0248664D01*
X0271199Y0248687D01*
X0271152Y0248714D01*
X0271107Y0248745D01*
X0271064Y0248778D01*
X0271024Y0248815D01*
X0270987Y0248854D01*
X0270953Y0248896D01*
X0270922Y0248940D01*
X0270894Y0248987D01*
X0270869Y0249035D01*
X0270848Y0249085D01*
X0270831Y0249136D01*
X0270818Y0249189D01*
X0270808Y0249242D01*
X0270802Y0249296D01*
X0270800Y0249350D01*
X0270750Y0218650D02*
X0270752Y0218704D01*
X0270758Y0218758D01*
X0270768Y0218811D01*
X0270781Y0218864D01*
X0270798Y0218915D01*
X0270819Y0218965D01*
X0270844Y0219013D01*
X0270872Y0219060D01*
X0270903Y0219104D01*
X0270937Y0219146D01*
X0270974Y0219185D01*
X0271014Y0219222D01*
X0271057Y0219255D01*
X0271102Y0219286D01*
X0271149Y0219313D01*
X0271197Y0219336D01*
X0271248Y0219356D01*
X0271299Y0219373D01*
X0271352Y0219385D01*
X0271405Y0219394D01*
X0271459Y0219399D01*
X0271514Y0219400D01*
X0271568Y0219397D01*
X0271621Y0219390D01*
X0271674Y0219379D01*
X0271727Y0219365D01*
X0271778Y0219347D01*
X0271827Y0219325D01*
X0271875Y0219300D01*
X0271921Y0219271D01*
X0271965Y0219239D01*
X0272006Y0219204D01*
X0272044Y0219166D01*
X0272080Y0219125D01*
X0272113Y0219082D01*
X0272143Y0219037D01*
X0272169Y0218989D01*
X0272192Y0218940D01*
X0272211Y0218889D01*
X0272226Y0218838D01*
X0272238Y0218785D01*
X0272246Y0218731D01*
X0272250Y0218677D01*
X0272250Y0218623D01*
X0272246Y0218569D01*
X0272238Y0218515D01*
X0272226Y0218462D01*
X0272211Y0218411D01*
X0272192Y0218360D01*
X0272169Y0218311D01*
X0272143Y0218263D01*
X0272113Y0218218D01*
X0272080Y0218175D01*
X0272044Y0218134D01*
X0272006Y0218096D01*
X0271965Y0218061D01*
X0271921Y0218029D01*
X0271875Y0218000D01*
X0271827Y0217975D01*
X0271778Y0217953D01*
X0271727Y0217935D01*
X0271674Y0217921D01*
X0271621Y0217910D01*
X0271568Y0217903D01*
X0271514Y0217900D01*
X0271459Y0217901D01*
X0271405Y0217906D01*
X0271352Y0217915D01*
X0271299Y0217927D01*
X0271248Y0217944D01*
X0271197Y0217964D01*
X0271149Y0217987D01*
X0271102Y0218014D01*
X0271057Y0218045D01*
X0271014Y0218078D01*
X0270974Y0218115D01*
X0270937Y0218154D01*
X0270903Y0218196D01*
X0270872Y0218240D01*
X0270844Y0218287D01*
X0270819Y0218335D01*
X0270798Y0218385D01*
X0270781Y0218436D01*
X0270768Y0218489D01*
X0270758Y0218542D01*
X0270752Y0218596D01*
X0270750Y0218650D01*
X0272950Y0218650D02*
X0272952Y0218704D01*
X0272958Y0218758D01*
X0272968Y0218811D01*
X0272981Y0218864D01*
X0272998Y0218915D01*
X0273019Y0218965D01*
X0273044Y0219013D01*
X0273072Y0219060D01*
X0273103Y0219104D01*
X0273137Y0219146D01*
X0273174Y0219185D01*
X0273214Y0219222D01*
X0273257Y0219255D01*
X0273302Y0219286D01*
X0273349Y0219313D01*
X0273397Y0219336D01*
X0273448Y0219356D01*
X0273499Y0219373D01*
X0273552Y0219385D01*
X0273605Y0219394D01*
X0273659Y0219399D01*
X0273714Y0219400D01*
X0273768Y0219397D01*
X0273821Y0219390D01*
X0273874Y0219379D01*
X0273927Y0219365D01*
X0273978Y0219347D01*
X0274027Y0219325D01*
X0274075Y0219300D01*
X0274121Y0219271D01*
X0274165Y0219239D01*
X0274206Y0219204D01*
X0274244Y0219166D01*
X0274280Y0219125D01*
X0274313Y0219082D01*
X0274343Y0219037D01*
X0274369Y0218989D01*
X0274392Y0218940D01*
X0274411Y0218889D01*
X0274426Y0218838D01*
X0274438Y0218785D01*
X0274446Y0218731D01*
X0274450Y0218677D01*
X0274450Y0218623D01*
X0274446Y0218569D01*
X0274438Y0218515D01*
X0274426Y0218462D01*
X0274411Y0218411D01*
X0274392Y0218360D01*
X0274369Y0218311D01*
X0274343Y0218263D01*
X0274313Y0218218D01*
X0274280Y0218175D01*
X0274244Y0218134D01*
X0274206Y0218096D01*
X0274165Y0218061D01*
X0274121Y0218029D01*
X0274075Y0218000D01*
X0274027Y0217975D01*
X0273978Y0217953D01*
X0273927Y0217935D01*
X0273874Y0217921D01*
X0273821Y0217910D01*
X0273768Y0217903D01*
X0273714Y0217900D01*
X0273659Y0217901D01*
X0273605Y0217906D01*
X0273552Y0217915D01*
X0273499Y0217927D01*
X0273448Y0217944D01*
X0273397Y0217964D01*
X0273349Y0217987D01*
X0273302Y0218014D01*
X0273257Y0218045D01*
X0273214Y0218078D01*
X0273174Y0218115D01*
X0273137Y0218154D01*
X0273103Y0218196D01*
X0273072Y0218240D01*
X0273044Y0218287D01*
X0273019Y0218335D01*
X0272998Y0218385D01*
X0272981Y0218436D01*
X0272968Y0218489D01*
X0272958Y0218542D01*
X0272952Y0218596D01*
X0272950Y0218650D01*
X0275250Y0218650D02*
X0275252Y0218704D01*
X0275258Y0218758D01*
X0275268Y0218811D01*
X0275281Y0218864D01*
X0275298Y0218915D01*
X0275319Y0218965D01*
X0275344Y0219013D01*
X0275372Y0219060D01*
X0275403Y0219104D01*
X0275437Y0219146D01*
X0275474Y0219185D01*
X0275514Y0219222D01*
X0275557Y0219255D01*
X0275602Y0219286D01*
X0275649Y0219313D01*
X0275697Y0219336D01*
X0275748Y0219356D01*
X0275799Y0219373D01*
X0275852Y0219385D01*
X0275905Y0219394D01*
X0275959Y0219399D01*
X0276014Y0219400D01*
X0276068Y0219397D01*
X0276121Y0219390D01*
X0276174Y0219379D01*
X0276227Y0219365D01*
X0276278Y0219347D01*
X0276327Y0219325D01*
X0276375Y0219300D01*
X0276421Y0219271D01*
X0276465Y0219239D01*
X0276506Y0219204D01*
X0276544Y0219166D01*
X0276580Y0219125D01*
X0276613Y0219082D01*
X0276643Y0219037D01*
X0276669Y0218989D01*
X0276692Y0218940D01*
X0276711Y0218889D01*
X0276726Y0218838D01*
X0276738Y0218785D01*
X0276746Y0218731D01*
X0276750Y0218677D01*
X0276750Y0218623D01*
X0276746Y0218569D01*
X0276738Y0218515D01*
X0276726Y0218462D01*
X0276711Y0218411D01*
X0276692Y0218360D01*
X0276669Y0218311D01*
X0276643Y0218263D01*
X0276613Y0218218D01*
X0276580Y0218175D01*
X0276544Y0218134D01*
X0276506Y0218096D01*
X0276465Y0218061D01*
X0276421Y0218029D01*
X0276375Y0218000D01*
X0276327Y0217975D01*
X0276278Y0217953D01*
X0276227Y0217935D01*
X0276174Y0217921D01*
X0276121Y0217910D01*
X0276068Y0217903D01*
X0276014Y0217900D01*
X0275959Y0217901D01*
X0275905Y0217906D01*
X0275852Y0217915D01*
X0275799Y0217927D01*
X0275748Y0217944D01*
X0275697Y0217964D01*
X0275649Y0217987D01*
X0275602Y0218014D01*
X0275557Y0218045D01*
X0275514Y0218078D01*
X0275474Y0218115D01*
X0275437Y0218154D01*
X0275403Y0218196D01*
X0275372Y0218240D01*
X0275344Y0218287D01*
X0275319Y0218335D01*
X0275298Y0218385D01*
X0275281Y0218436D01*
X0275268Y0218489D01*
X0275258Y0218542D01*
X0275252Y0218596D01*
X0275250Y0218650D01*
X0275300Y0199300D02*
X0275302Y0199354D01*
X0275308Y0199408D01*
X0275318Y0199461D01*
X0275331Y0199514D01*
X0275348Y0199565D01*
X0275369Y0199615D01*
X0275394Y0199663D01*
X0275422Y0199710D01*
X0275453Y0199754D01*
X0275487Y0199796D01*
X0275524Y0199835D01*
X0275564Y0199872D01*
X0275607Y0199905D01*
X0275652Y0199936D01*
X0275699Y0199963D01*
X0275747Y0199986D01*
X0275798Y0200006D01*
X0275849Y0200023D01*
X0275902Y0200035D01*
X0275955Y0200044D01*
X0276009Y0200049D01*
X0276064Y0200050D01*
X0276118Y0200047D01*
X0276171Y0200040D01*
X0276224Y0200029D01*
X0276277Y0200015D01*
X0276328Y0199997D01*
X0276377Y0199975D01*
X0276425Y0199950D01*
X0276471Y0199921D01*
X0276515Y0199889D01*
X0276556Y0199854D01*
X0276594Y0199816D01*
X0276630Y0199775D01*
X0276663Y0199732D01*
X0276693Y0199687D01*
X0276719Y0199639D01*
X0276742Y0199590D01*
X0276761Y0199539D01*
X0276776Y0199488D01*
X0276788Y0199435D01*
X0276796Y0199381D01*
X0276800Y0199327D01*
X0276800Y0199273D01*
X0276796Y0199219D01*
X0276788Y0199165D01*
X0276776Y0199112D01*
X0276761Y0199061D01*
X0276742Y0199010D01*
X0276719Y0198961D01*
X0276693Y0198913D01*
X0276663Y0198868D01*
X0276630Y0198825D01*
X0276594Y0198784D01*
X0276556Y0198746D01*
X0276515Y0198711D01*
X0276471Y0198679D01*
X0276425Y0198650D01*
X0276377Y0198625D01*
X0276328Y0198603D01*
X0276277Y0198585D01*
X0276224Y0198571D01*
X0276171Y0198560D01*
X0276118Y0198553D01*
X0276064Y0198550D01*
X0276009Y0198551D01*
X0275955Y0198556D01*
X0275902Y0198565D01*
X0275849Y0198577D01*
X0275798Y0198594D01*
X0275747Y0198614D01*
X0275699Y0198637D01*
X0275652Y0198664D01*
X0275607Y0198695D01*
X0275564Y0198728D01*
X0275524Y0198765D01*
X0275487Y0198804D01*
X0275453Y0198846D01*
X0275422Y0198890D01*
X0275394Y0198937D01*
X0275369Y0198985D01*
X0275348Y0199035D01*
X0275331Y0199086D01*
X0275318Y0199139D01*
X0275308Y0199192D01*
X0275302Y0199246D01*
X0275300Y0199300D01*
X0273000Y0199300D02*
X0273002Y0199354D01*
X0273008Y0199408D01*
X0273018Y0199461D01*
X0273031Y0199514D01*
X0273048Y0199565D01*
X0273069Y0199615D01*
X0273094Y0199663D01*
X0273122Y0199710D01*
X0273153Y0199754D01*
X0273187Y0199796D01*
X0273224Y0199835D01*
X0273264Y0199872D01*
X0273307Y0199905D01*
X0273352Y0199936D01*
X0273399Y0199963D01*
X0273447Y0199986D01*
X0273498Y0200006D01*
X0273549Y0200023D01*
X0273602Y0200035D01*
X0273655Y0200044D01*
X0273709Y0200049D01*
X0273764Y0200050D01*
X0273818Y0200047D01*
X0273871Y0200040D01*
X0273924Y0200029D01*
X0273977Y0200015D01*
X0274028Y0199997D01*
X0274077Y0199975D01*
X0274125Y0199950D01*
X0274171Y0199921D01*
X0274215Y0199889D01*
X0274256Y0199854D01*
X0274294Y0199816D01*
X0274330Y0199775D01*
X0274363Y0199732D01*
X0274393Y0199687D01*
X0274419Y0199639D01*
X0274442Y0199590D01*
X0274461Y0199539D01*
X0274476Y0199488D01*
X0274488Y0199435D01*
X0274496Y0199381D01*
X0274500Y0199327D01*
X0274500Y0199273D01*
X0274496Y0199219D01*
X0274488Y0199165D01*
X0274476Y0199112D01*
X0274461Y0199061D01*
X0274442Y0199010D01*
X0274419Y0198961D01*
X0274393Y0198913D01*
X0274363Y0198868D01*
X0274330Y0198825D01*
X0274294Y0198784D01*
X0274256Y0198746D01*
X0274215Y0198711D01*
X0274171Y0198679D01*
X0274125Y0198650D01*
X0274077Y0198625D01*
X0274028Y0198603D01*
X0273977Y0198585D01*
X0273924Y0198571D01*
X0273871Y0198560D01*
X0273818Y0198553D01*
X0273764Y0198550D01*
X0273709Y0198551D01*
X0273655Y0198556D01*
X0273602Y0198565D01*
X0273549Y0198577D01*
X0273498Y0198594D01*
X0273447Y0198614D01*
X0273399Y0198637D01*
X0273352Y0198664D01*
X0273307Y0198695D01*
X0273264Y0198728D01*
X0273224Y0198765D01*
X0273187Y0198804D01*
X0273153Y0198846D01*
X0273122Y0198890D01*
X0273094Y0198937D01*
X0273069Y0198985D01*
X0273048Y0199035D01*
X0273031Y0199086D01*
X0273018Y0199139D01*
X0273008Y0199192D01*
X0273002Y0199246D01*
X0273000Y0199300D01*
X0270800Y0199300D02*
X0270802Y0199354D01*
X0270808Y0199408D01*
X0270818Y0199461D01*
X0270831Y0199514D01*
X0270848Y0199565D01*
X0270869Y0199615D01*
X0270894Y0199663D01*
X0270922Y0199710D01*
X0270953Y0199754D01*
X0270987Y0199796D01*
X0271024Y0199835D01*
X0271064Y0199872D01*
X0271107Y0199905D01*
X0271152Y0199936D01*
X0271199Y0199963D01*
X0271247Y0199986D01*
X0271298Y0200006D01*
X0271349Y0200023D01*
X0271402Y0200035D01*
X0271455Y0200044D01*
X0271509Y0200049D01*
X0271564Y0200050D01*
X0271618Y0200047D01*
X0271671Y0200040D01*
X0271724Y0200029D01*
X0271777Y0200015D01*
X0271828Y0199997D01*
X0271877Y0199975D01*
X0271925Y0199950D01*
X0271971Y0199921D01*
X0272015Y0199889D01*
X0272056Y0199854D01*
X0272094Y0199816D01*
X0272130Y0199775D01*
X0272163Y0199732D01*
X0272193Y0199687D01*
X0272219Y0199639D01*
X0272242Y0199590D01*
X0272261Y0199539D01*
X0272276Y0199488D01*
X0272288Y0199435D01*
X0272296Y0199381D01*
X0272300Y0199327D01*
X0272300Y0199273D01*
X0272296Y0199219D01*
X0272288Y0199165D01*
X0272276Y0199112D01*
X0272261Y0199061D01*
X0272242Y0199010D01*
X0272219Y0198961D01*
X0272193Y0198913D01*
X0272163Y0198868D01*
X0272130Y0198825D01*
X0272094Y0198784D01*
X0272056Y0198746D01*
X0272015Y0198711D01*
X0271971Y0198679D01*
X0271925Y0198650D01*
X0271877Y0198625D01*
X0271828Y0198603D01*
X0271777Y0198585D01*
X0271724Y0198571D01*
X0271671Y0198560D01*
X0271618Y0198553D01*
X0271564Y0198550D01*
X0271509Y0198551D01*
X0271455Y0198556D01*
X0271402Y0198565D01*
X0271349Y0198577D01*
X0271298Y0198594D01*
X0271247Y0198614D01*
X0271199Y0198637D01*
X0271152Y0198664D01*
X0271107Y0198695D01*
X0271064Y0198728D01*
X0271024Y0198765D01*
X0270987Y0198804D01*
X0270953Y0198846D01*
X0270922Y0198890D01*
X0270894Y0198937D01*
X0270869Y0198985D01*
X0270848Y0199035D01*
X0270831Y0199086D01*
X0270818Y0199139D01*
X0270808Y0199192D01*
X0270802Y0199246D01*
X0270800Y0199300D01*
X0216050Y0304000D02*
X0216052Y0304054D01*
X0216058Y0304108D01*
X0216068Y0304161D01*
X0216081Y0304214D01*
X0216098Y0304265D01*
X0216119Y0304315D01*
X0216144Y0304363D01*
X0216172Y0304410D01*
X0216203Y0304454D01*
X0216237Y0304496D01*
X0216274Y0304535D01*
X0216314Y0304572D01*
X0216357Y0304605D01*
X0216402Y0304636D01*
X0216449Y0304663D01*
X0216497Y0304686D01*
X0216548Y0304706D01*
X0216599Y0304723D01*
X0216652Y0304735D01*
X0216705Y0304744D01*
X0216759Y0304749D01*
X0216814Y0304750D01*
X0216868Y0304747D01*
X0216921Y0304740D01*
X0216974Y0304729D01*
X0217027Y0304715D01*
X0217078Y0304697D01*
X0217127Y0304675D01*
X0217175Y0304650D01*
X0217221Y0304621D01*
X0217265Y0304589D01*
X0217306Y0304554D01*
X0217344Y0304516D01*
X0217380Y0304475D01*
X0217413Y0304432D01*
X0217443Y0304387D01*
X0217469Y0304339D01*
X0217492Y0304290D01*
X0217511Y0304239D01*
X0217526Y0304188D01*
X0217538Y0304135D01*
X0217546Y0304081D01*
X0217550Y0304027D01*
X0217550Y0303973D01*
X0217546Y0303919D01*
X0217538Y0303865D01*
X0217526Y0303812D01*
X0217511Y0303761D01*
X0217492Y0303710D01*
X0217469Y0303661D01*
X0217443Y0303613D01*
X0217413Y0303568D01*
X0217380Y0303525D01*
X0217344Y0303484D01*
X0217306Y0303446D01*
X0217265Y0303411D01*
X0217221Y0303379D01*
X0217175Y0303350D01*
X0217127Y0303325D01*
X0217078Y0303303D01*
X0217027Y0303285D01*
X0216974Y0303271D01*
X0216921Y0303260D01*
X0216868Y0303253D01*
X0216814Y0303250D01*
X0216759Y0303251D01*
X0216705Y0303256D01*
X0216652Y0303265D01*
X0216599Y0303277D01*
X0216548Y0303294D01*
X0216497Y0303314D01*
X0216449Y0303337D01*
X0216402Y0303364D01*
X0216357Y0303395D01*
X0216314Y0303428D01*
X0216274Y0303465D01*
X0216237Y0303504D01*
X0216203Y0303546D01*
X0216172Y0303590D01*
X0216144Y0303637D01*
X0216119Y0303685D01*
X0216098Y0303735D01*
X0216081Y0303786D01*
X0216068Y0303839D01*
X0216058Y0303892D01*
X0216052Y0303946D01*
X0216050Y0304000D01*
X0216050Y0306300D02*
X0216052Y0306354D01*
X0216058Y0306408D01*
X0216068Y0306461D01*
X0216081Y0306514D01*
X0216098Y0306565D01*
X0216119Y0306615D01*
X0216144Y0306663D01*
X0216172Y0306710D01*
X0216203Y0306754D01*
X0216237Y0306796D01*
X0216274Y0306835D01*
X0216314Y0306872D01*
X0216357Y0306905D01*
X0216402Y0306936D01*
X0216449Y0306963D01*
X0216497Y0306986D01*
X0216548Y0307006D01*
X0216599Y0307023D01*
X0216652Y0307035D01*
X0216705Y0307044D01*
X0216759Y0307049D01*
X0216814Y0307050D01*
X0216868Y0307047D01*
X0216921Y0307040D01*
X0216974Y0307029D01*
X0217027Y0307015D01*
X0217078Y0306997D01*
X0217127Y0306975D01*
X0217175Y0306950D01*
X0217221Y0306921D01*
X0217265Y0306889D01*
X0217306Y0306854D01*
X0217344Y0306816D01*
X0217380Y0306775D01*
X0217413Y0306732D01*
X0217443Y0306687D01*
X0217469Y0306639D01*
X0217492Y0306590D01*
X0217511Y0306539D01*
X0217526Y0306488D01*
X0217538Y0306435D01*
X0217546Y0306381D01*
X0217550Y0306327D01*
X0217550Y0306273D01*
X0217546Y0306219D01*
X0217538Y0306165D01*
X0217526Y0306112D01*
X0217511Y0306061D01*
X0217492Y0306010D01*
X0217469Y0305961D01*
X0217443Y0305913D01*
X0217413Y0305868D01*
X0217380Y0305825D01*
X0217344Y0305784D01*
X0217306Y0305746D01*
X0217265Y0305711D01*
X0217221Y0305679D01*
X0217175Y0305650D01*
X0217127Y0305625D01*
X0217078Y0305603D01*
X0217027Y0305585D01*
X0216974Y0305571D01*
X0216921Y0305560D01*
X0216868Y0305553D01*
X0216814Y0305550D01*
X0216759Y0305551D01*
X0216705Y0305556D01*
X0216652Y0305565D01*
X0216599Y0305577D01*
X0216548Y0305594D01*
X0216497Y0305614D01*
X0216449Y0305637D01*
X0216402Y0305664D01*
X0216357Y0305695D01*
X0216314Y0305728D01*
X0216274Y0305765D01*
X0216237Y0305804D01*
X0216203Y0305846D01*
X0216172Y0305890D01*
X0216144Y0305937D01*
X0216119Y0305985D01*
X0216098Y0306035D01*
X0216081Y0306086D01*
X0216068Y0306139D01*
X0216058Y0306192D01*
X0216052Y0306246D01*
X0216050Y0306300D01*
X0216050Y0308500D02*
X0216052Y0308554D01*
X0216058Y0308608D01*
X0216068Y0308661D01*
X0216081Y0308714D01*
X0216098Y0308765D01*
X0216119Y0308815D01*
X0216144Y0308863D01*
X0216172Y0308910D01*
X0216203Y0308954D01*
X0216237Y0308996D01*
X0216274Y0309035D01*
X0216314Y0309072D01*
X0216357Y0309105D01*
X0216402Y0309136D01*
X0216449Y0309163D01*
X0216497Y0309186D01*
X0216548Y0309206D01*
X0216599Y0309223D01*
X0216652Y0309235D01*
X0216705Y0309244D01*
X0216759Y0309249D01*
X0216814Y0309250D01*
X0216868Y0309247D01*
X0216921Y0309240D01*
X0216974Y0309229D01*
X0217027Y0309215D01*
X0217078Y0309197D01*
X0217127Y0309175D01*
X0217175Y0309150D01*
X0217221Y0309121D01*
X0217265Y0309089D01*
X0217306Y0309054D01*
X0217344Y0309016D01*
X0217380Y0308975D01*
X0217413Y0308932D01*
X0217443Y0308887D01*
X0217469Y0308839D01*
X0217492Y0308790D01*
X0217511Y0308739D01*
X0217526Y0308688D01*
X0217538Y0308635D01*
X0217546Y0308581D01*
X0217550Y0308527D01*
X0217550Y0308473D01*
X0217546Y0308419D01*
X0217538Y0308365D01*
X0217526Y0308312D01*
X0217511Y0308261D01*
X0217492Y0308210D01*
X0217469Y0308161D01*
X0217443Y0308113D01*
X0217413Y0308068D01*
X0217380Y0308025D01*
X0217344Y0307984D01*
X0217306Y0307946D01*
X0217265Y0307911D01*
X0217221Y0307879D01*
X0217175Y0307850D01*
X0217127Y0307825D01*
X0217078Y0307803D01*
X0217027Y0307785D01*
X0216974Y0307771D01*
X0216921Y0307760D01*
X0216868Y0307753D01*
X0216814Y0307750D01*
X0216759Y0307751D01*
X0216705Y0307756D01*
X0216652Y0307765D01*
X0216599Y0307777D01*
X0216548Y0307794D01*
X0216497Y0307814D01*
X0216449Y0307837D01*
X0216402Y0307864D01*
X0216357Y0307895D01*
X0216314Y0307928D01*
X0216274Y0307965D01*
X0216237Y0308004D01*
X0216203Y0308046D01*
X0216172Y0308090D01*
X0216144Y0308137D01*
X0216119Y0308185D01*
X0216098Y0308235D01*
X0216081Y0308286D01*
X0216068Y0308339D01*
X0216058Y0308392D01*
X0216052Y0308446D01*
X0216050Y0308500D01*
X0185400Y0308500D02*
X0185402Y0308554D01*
X0185408Y0308608D01*
X0185418Y0308661D01*
X0185431Y0308714D01*
X0185448Y0308765D01*
X0185469Y0308815D01*
X0185494Y0308863D01*
X0185522Y0308910D01*
X0185553Y0308954D01*
X0185587Y0308996D01*
X0185624Y0309035D01*
X0185664Y0309072D01*
X0185707Y0309105D01*
X0185752Y0309136D01*
X0185799Y0309163D01*
X0185847Y0309186D01*
X0185898Y0309206D01*
X0185949Y0309223D01*
X0186002Y0309235D01*
X0186055Y0309244D01*
X0186109Y0309249D01*
X0186164Y0309250D01*
X0186218Y0309247D01*
X0186271Y0309240D01*
X0186324Y0309229D01*
X0186377Y0309215D01*
X0186428Y0309197D01*
X0186477Y0309175D01*
X0186525Y0309150D01*
X0186571Y0309121D01*
X0186615Y0309089D01*
X0186656Y0309054D01*
X0186694Y0309016D01*
X0186730Y0308975D01*
X0186763Y0308932D01*
X0186793Y0308887D01*
X0186819Y0308839D01*
X0186842Y0308790D01*
X0186861Y0308739D01*
X0186876Y0308688D01*
X0186888Y0308635D01*
X0186896Y0308581D01*
X0186900Y0308527D01*
X0186900Y0308473D01*
X0186896Y0308419D01*
X0186888Y0308365D01*
X0186876Y0308312D01*
X0186861Y0308261D01*
X0186842Y0308210D01*
X0186819Y0308161D01*
X0186793Y0308113D01*
X0186763Y0308068D01*
X0186730Y0308025D01*
X0186694Y0307984D01*
X0186656Y0307946D01*
X0186615Y0307911D01*
X0186571Y0307879D01*
X0186525Y0307850D01*
X0186477Y0307825D01*
X0186428Y0307803D01*
X0186377Y0307785D01*
X0186324Y0307771D01*
X0186271Y0307760D01*
X0186218Y0307753D01*
X0186164Y0307750D01*
X0186109Y0307751D01*
X0186055Y0307756D01*
X0186002Y0307765D01*
X0185949Y0307777D01*
X0185898Y0307794D01*
X0185847Y0307814D01*
X0185799Y0307837D01*
X0185752Y0307864D01*
X0185707Y0307895D01*
X0185664Y0307928D01*
X0185624Y0307965D01*
X0185587Y0308004D01*
X0185553Y0308046D01*
X0185522Y0308090D01*
X0185494Y0308137D01*
X0185469Y0308185D01*
X0185448Y0308235D01*
X0185431Y0308286D01*
X0185418Y0308339D01*
X0185408Y0308392D01*
X0185402Y0308446D01*
X0185400Y0308500D01*
X0185400Y0306300D02*
X0185402Y0306354D01*
X0185408Y0306408D01*
X0185418Y0306461D01*
X0185431Y0306514D01*
X0185448Y0306565D01*
X0185469Y0306615D01*
X0185494Y0306663D01*
X0185522Y0306710D01*
X0185553Y0306754D01*
X0185587Y0306796D01*
X0185624Y0306835D01*
X0185664Y0306872D01*
X0185707Y0306905D01*
X0185752Y0306936D01*
X0185799Y0306963D01*
X0185847Y0306986D01*
X0185898Y0307006D01*
X0185949Y0307023D01*
X0186002Y0307035D01*
X0186055Y0307044D01*
X0186109Y0307049D01*
X0186164Y0307050D01*
X0186218Y0307047D01*
X0186271Y0307040D01*
X0186324Y0307029D01*
X0186377Y0307015D01*
X0186428Y0306997D01*
X0186477Y0306975D01*
X0186525Y0306950D01*
X0186571Y0306921D01*
X0186615Y0306889D01*
X0186656Y0306854D01*
X0186694Y0306816D01*
X0186730Y0306775D01*
X0186763Y0306732D01*
X0186793Y0306687D01*
X0186819Y0306639D01*
X0186842Y0306590D01*
X0186861Y0306539D01*
X0186876Y0306488D01*
X0186888Y0306435D01*
X0186896Y0306381D01*
X0186900Y0306327D01*
X0186900Y0306273D01*
X0186896Y0306219D01*
X0186888Y0306165D01*
X0186876Y0306112D01*
X0186861Y0306061D01*
X0186842Y0306010D01*
X0186819Y0305961D01*
X0186793Y0305913D01*
X0186763Y0305868D01*
X0186730Y0305825D01*
X0186694Y0305784D01*
X0186656Y0305746D01*
X0186615Y0305711D01*
X0186571Y0305679D01*
X0186525Y0305650D01*
X0186477Y0305625D01*
X0186428Y0305603D01*
X0186377Y0305585D01*
X0186324Y0305571D01*
X0186271Y0305560D01*
X0186218Y0305553D01*
X0186164Y0305550D01*
X0186109Y0305551D01*
X0186055Y0305556D01*
X0186002Y0305565D01*
X0185949Y0305577D01*
X0185898Y0305594D01*
X0185847Y0305614D01*
X0185799Y0305637D01*
X0185752Y0305664D01*
X0185707Y0305695D01*
X0185664Y0305728D01*
X0185624Y0305765D01*
X0185587Y0305804D01*
X0185553Y0305846D01*
X0185522Y0305890D01*
X0185494Y0305937D01*
X0185469Y0305985D01*
X0185448Y0306035D01*
X0185431Y0306086D01*
X0185418Y0306139D01*
X0185408Y0306192D01*
X0185402Y0306246D01*
X0185400Y0306300D01*
X0185400Y0304000D02*
X0185402Y0304054D01*
X0185408Y0304108D01*
X0185418Y0304161D01*
X0185431Y0304214D01*
X0185448Y0304265D01*
X0185469Y0304315D01*
X0185494Y0304363D01*
X0185522Y0304410D01*
X0185553Y0304454D01*
X0185587Y0304496D01*
X0185624Y0304535D01*
X0185664Y0304572D01*
X0185707Y0304605D01*
X0185752Y0304636D01*
X0185799Y0304663D01*
X0185847Y0304686D01*
X0185898Y0304706D01*
X0185949Y0304723D01*
X0186002Y0304735D01*
X0186055Y0304744D01*
X0186109Y0304749D01*
X0186164Y0304750D01*
X0186218Y0304747D01*
X0186271Y0304740D01*
X0186324Y0304729D01*
X0186377Y0304715D01*
X0186428Y0304697D01*
X0186477Y0304675D01*
X0186525Y0304650D01*
X0186571Y0304621D01*
X0186615Y0304589D01*
X0186656Y0304554D01*
X0186694Y0304516D01*
X0186730Y0304475D01*
X0186763Y0304432D01*
X0186793Y0304387D01*
X0186819Y0304339D01*
X0186842Y0304290D01*
X0186861Y0304239D01*
X0186876Y0304188D01*
X0186888Y0304135D01*
X0186896Y0304081D01*
X0186900Y0304027D01*
X0186900Y0303973D01*
X0186896Y0303919D01*
X0186888Y0303865D01*
X0186876Y0303812D01*
X0186861Y0303761D01*
X0186842Y0303710D01*
X0186819Y0303661D01*
X0186793Y0303613D01*
X0186763Y0303568D01*
X0186730Y0303525D01*
X0186694Y0303484D01*
X0186656Y0303446D01*
X0186615Y0303411D01*
X0186571Y0303379D01*
X0186525Y0303350D01*
X0186477Y0303325D01*
X0186428Y0303303D01*
X0186377Y0303285D01*
X0186324Y0303271D01*
X0186271Y0303260D01*
X0186218Y0303253D01*
X0186164Y0303250D01*
X0186109Y0303251D01*
X0186055Y0303256D01*
X0186002Y0303265D01*
X0185949Y0303277D01*
X0185898Y0303294D01*
X0185847Y0303314D01*
X0185799Y0303337D01*
X0185752Y0303364D01*
X0185707Y0303395D01*
X0185664Y0303428D01*
X0185624Y0303465D01*
X0185587Y0303504D01*
X0185553Y0303546D01*
X0185522Y0303590D01*
X0185494Y0303637D01*
X0185469Y0303685D01*
X0185448Y0303735D01*
X0185431Y0303786D01*
X0185418Y0303839D01*
X0185408Y0303892D01*
X0185402Y0303946D01*
X0185400Y0304000D01*
X0166050Y0304050D02*
X0166052Y0304104D01*
X0166058Y0304158D01*
X0166068Y0304211D01*
X0166081Y0304264D01*
X0166098Y0304315D01*
X0166119Y0304365D01*
X0166144Y0304413D01*
X0166172Y0304460D01*
X0166203Y0304504D01*
X0166237Y0304546D01*
X0166274Y0304585D01*
X0166314Y0304622D01*
X0166357Y0304655D01*
X0166402Y0304686D01*
X0166449Y0304713D01*
X0166497Y0304736D01*
X0166548Y0304756D01*
X0166599Y0304773D01*
X0166652Y0304785D01*
X0166705Y0304794D01*
X0166759Y0304799D01*
X0166814Y0304800D01*
X0166868Y0304797D01*
X0166921Y0304790D01*
X0166974Y0304779D01*
X0167027Y0304765D01*
X0167078Y0304747D01*
X0167127Y0304725D01*
X0167175Y0304700D01*
X0167221Y0304671D01*
X0167265Y0304639D01*
X0167306Y0304604D01*
X0167344Y0304566D01*
X0167380Y0304525D01*
X0167413Y0304482D01*
X0167443Y0304437D01*
X0167469Y0304389D01*
X0167492Y0304340D01*
X0167511Y0304289D01*
X0167526Y0304238D01*
X0167538Y0304185D01*
X0167546Y0304131D01*
X0167550Y0304077D01*
X0167550Y0304023D01*
X0167546Y0303969D01*
X0167538Y0303915D01*
X0167526Y0303862D01*
X0167511Y0303811D01*
X0167492Y0303760D01*
X0167469Y0303711D01*
X0167443Y0303663D01*
X0167413Y0303618D01*
X0167380Y0303575D01*
X0167344Y0303534D01*
X0167306Y0303496D01*
X0167265Y0303461D01*
X0167221Y0303429D01*
X0167175Y0303400D01*
X0167127Y0303375D01*
X0167078Y0303353D01*
X0167027Y0303335D01*
X0166974Y0303321D01*
X0166921Y0303310D01*
X0166868Y0303303D01*
X0166814Y0303300D01*
X0166759Y0303301D01*
X0166705Y0303306D01*
X0166652Y0303315D01*
X0166599Y0303327D01*
X0166548Y0303344D01*
X0166497Y0303364D01*
X0166449Y0303387D01*
X0166402Y0303414D01*
X0166357Y0303445D01*
X0166314Y0303478D01*
X0166274Y0303515D01*
X0166237Y0303554D01*
X0166203Y0303596D01*
X0166172Y0303640D01*
X0166144Y0303687D01*
X0166119Y0303735D01*
X0166098Y0303785D01*
X0166081Y0303836D01*
X0166068Y0303889D01*
X0166058Y0303942D01*
X0166052Y0303996D01*
X0166050Y0304050D01*
X0166050Y0306350D02*
X0166052Y0306404D01*
X0166058Y0306458D01*
X0166068Y0306511D01*
X0166081Y0306564D01*
X0166098Y0306615D01*
X0166119Y0306665D01*
X0166144Y0306713D01*
X0166172Y0306760D01*
X0166203Y0306804D01*
X0166237Y0306846D01*
X0166274Y0306885D01*
X0166314Y0306922D01*
X0166357Y0306955D01*
X0166402Y0306986D01*
X0166449Y0307013D01*
X0166497Y0307036D01*
X0166548Y0307056D01*
X0166599Y0307073D01*
X0166652Y0307085D01*
X0166705Y0307094D01*
X0166759Y0307099D01*
X0166814Y0307100D01*
X0166868Y0307097D01*
X0166921Y0307090D01*
X0166974Y0307079D01*
X0167027Y0307065D01*
X0167078Y0307047D01*
X0167127Y0307025D01*
X0167175Y0307000D01*
X0167221Y0306971D01*
X0167265Y0306939D01*
X0167306Y0306904D01*
X0167344Y0306866D01*
X0167380Y0306825D01*
X0167413Y0306782D01*
X0167443Y0306737D01*
X0167469Y0306689D01*
X0167492Y0306640D01*
X0167511Y0306589D01*
X0167526Y0306538D01*
X0167538Y0306485D01*
X0167546Y0306431D01*
X0167550Y0306377D01*
X0167550Y0306323D01*
X0167546Y0306269D01*
X0167538Y0306215D01*
X0167526Y0306162D01*
X0167511Y0306111D01*
X0167492Y0306060D01*
X0167469Y0306011D01*
X0167443Y0305963D01*
X0167413Y0305918D01*
X0167380Y0305875D01*
X0167344Y0305834D01*
X0167306Y0305796D01*
X0167265Y0305761D01*
X0167221Y0305729D01*
X0167175Y0305700D01*
X0167127Y0305675D01*
X0167078Y0305653D01*
X0167027Y0305635D01*
X0166974Y0305621D01*
X0166921Y0305610D01*
X0166868Y0305603D01*
X0166814Y0305600D01*
X0166759Y0305601D01*
X0166705Y0305606D01*
X0166652Y0305615D01*
X0166599Y0305627D01*
X0166548Y0305644D01*
X0166497Y0305664D01*
X0166449Y0305687D01*
X0166402Y0305714D01*
X0166357Y0305745D01*
X0166314Y0305778D01*
X0166274Y0305815D01*
X0166237Y0305854D01*
X0166203Y0305896D01*
X0166172Y0305940D01*
X0166144Y0305987D01*
X0166119Y0306035D01*
X0166098Y0306085D01*
X0166081Y0306136D01*
X0166068Y0306189D01*
X0166058Y0306242D01*
X0166052Y0306296D01*
X0166050Y0306350D01*
X0166050Y0308550D02*
X0166052Y0308604D01*
X0166058Y0308658D01*
X0166068Y0308711D01*
X0166081Y0308764D01*
X0166098Y0308815D01*
X0166119Y0308865D01*
X0166144Y0308913D01*
X0166172Y0308960D01*
X0166203Y0309004D01*
X0166237Y0309046D01*
X0166274Y0309085D01*
X0166314Y0309122D01*
X0166357Y0309155D01*
X0166402Y0309186D01*
X0166449Y0309213D01*
X0166497Y0309236D01*
X0166548Y0309256D01*
X0166599Y0309273D01*
X0166652Y0309285D01*
X0166705Y0309294D01*
X0166759Y0309299D01*
X0166814Y0309300D01*
X0166868Y0309297D01*
X0166921Y0309290D01*
X0166974Y0309279D01*
X0167027Y0309265D01*
X0167078Y0309247D01*
X0167127Y0309225D01*
X0167175Y0309200D01*
X0167221Y0309171D01*
X0167265Y0309139D01*
X0167306Y0309104D01*
X0167344Y0309066D01*
X0167380Y0309025D01*
X0167413Y0308982D01*
X0167443Y0308937D01*
X0167469Y0308889D01*
X0167492Y0308840D01*
X0167511Y0308789D01*
X0167526Y0308738D01*
X0167538Y0308685D01*
X0167546Y0308631D01*
X0167550Y0308577D01*
X0167550Y0308523D01*
X0167546Y0308469D01*
X0167538Y0308415D01*
X0167526Y0308362D01*
X0167511Y0308311D01*
X0167492Y0308260D01*
X0167469Y0308211D01*
X0167443Y0308163D01*
X0167413Y0308118D01*
X0167380Y0308075D01*
X0167344Y0308034D01*
X0167306Y0307996D01*
X0167265Y0307961D01*
X0167221Y0307929D01*
X0167175Y0307900D01*
X0167127Y0307875D01*
X0167078Y0307853D01*
X0167027Y0307835D01*
X0166974Y0307821D01*
X0166921Y0307810D01*
X0166868Y0307803D01*
X0166814Y0307800D01*
X0166759Y0307801D01*
X0166705Y0307806D01*
X0166652Y0307815D01*
X0166599Y0307827D01*
X0166548Y0307844D01*
X0166497Y0307864D01*
X0166449Y0307887D01*
X0166402Y0307914D01*
X0166357Y0307945D01*
X0166314Y0307978D01*
X0166274Y0308015D01*
X0166237Y0308054D01*
X0166203Y0308096D01*
X0166172Y0308140D01*
X0166144Y0308187D01*
X0166119Y0308235D01*
X0166098Y0308285D01*
X0166081Y0308336D01*
X0166068Y0308389D01*
X0166058Y0308442D01*
X0166052Y0308496D01*
X0166050Y0308550D01*
X0044050Y0308250D02*
X0044052Y0308304D01*
X0044058Y0308358D01*
X0044068Y0308411D01*
X0044081Y0308464D01*
X0044098Y0308515D01*
X0044119Y0308565D01*
X0044144Y0308613D01*
X0044172Y0308660D01*
X0044203Y0308704D01*
X0044237Y0308746D01*
X0044274Y0308785D01*
X0044314Y0308822D01*
X0044357Y0308855D01*
X0044402Y0308886D01*
X0044449Y0308913D01*
X0044497Y0308936D01*
X0044548Y0308956D01*
X0044599Y0308973D01*
X0044652Y0308985D01*
X0044705Y0308994D01*
X0044759Y0308999D01*
X0044814Y0309000D01*
X0044868Y0308997D01*
X0044921Y0308990D01*
X0044974Y0308979D01*
X0045027Y0308965D01*
X0045078Y0308947D01*
X0045127Y0308925D01*
X0045175Y0308900D01*
X0045221Y0308871D01*
X0045265Y0308839D01*
X0045306Y0308804D01*
X0045344Y0308766D01*
X0045380Y0308725D01*
X0045413Y0308682D01*
X0045443Y0308637D01*
X0045469Y0308589D01*
X0045492Y0308540D01*
X0045511Y0308489D01*
X0045526Y0308438D01*
X0045538Y0308385D01*
X0045546Y0308331D01*
X0045550Y0308277D01*
X0045550Y0308223D01*
X0045546Y0308169D01*
X0045538Y0308115D01*
X0045526Y0308062D01*
X0045511Y0308011D01*
X0045492Y0307960D01*
X0045469Y0307911D01*
X0045443Y0307863D01*
X0045413Y0307818D01*
X0045380Y0307775D01*
X0045344Y0307734D01*
X0045306Y0307696D01*
X0045265Y0307661D01*
X0045221Y0307629D01*
X0045175Y0307600D01*
X0045127Y0307575D01*
X0045078Y0307553D01*
X0045027Y0307535D01*
X0044974Y0307521D01*
X0044921Y0307510D01*
X0044868Y0307503D01*
X0044814Y0307500D01*
X0044759Y0307501D01*
X0044705Y0307506D01*
X0044652Y0307515D01*
X0044599Y0307527D01*
X0044548Y0307544D01*
X0044497Y0307564D01*
X0044449Y0307587D01*
X0044402Y0307614D01*
X0044357Y0307645D01*
X0044314Y0307678D01*
X0044274Y0307715D01*
X0044237Y0307754D01*
X0044203Y0307796D01*
X0044172Y0307840D01*
X0044144Y0307887D01*
X0044119Y0307935D01*
X0044098Y0307985D01*
X0044081Y0308036D01*
X0044068Y0308089D01*
X0044058Y0308142D01*
X0044052Y0308196D01*
X0044050Y0308250D01*
X0044050Y0306050D02*
X0044052Y0306104D01*
X0044058Y0306158D01*
X0044068Y0306211D01*
X0044081Y0306264D01*
X0044098Y0306315D01*
X0044119Y0306365D01*
X0044144Y0306413D01*
X0044172Y0306460D01*
X0044203Y0306504D01*
X0044237Y0306546D01*
X0044274Y0306585D01*
X0044314Y0306622D01*
X0044357Y0306655D01*
X0044402Y0306686D01*
X0044449Y0306713D01*
X0044497Y0306736D01*
X0044548Y0306756D01*
X0044599Y0306773D01*
X0044652Y0306785D01*
X0044705Y0306794D01*
X0044759Y0306799D01*
X0044814Y0306800D01*
X0044868Y0306797D01*
X0044921Y0306790D01*
X0044974Y0306779D01*
X0045027Y0306765D01*
X0045078Y0306747D01*
X0045127Y0306725D01*
X0045175Y0306700D01*
X0045221Y0306671D01*
X0045265Y0306639D01*
X0045306Y0306604D01*
X0045344Y0306566D01*
X0045380Y0306525D01*
X0045413Y0306482D01*
X0045443Y0306437D01*
X0045469Y0306389D01*
X0045492Y0306340D01*
X0045511Y0306289D01*
X0045526Y0306238D01*
X0045538Y0306185D01*
X0045546Y0306131D01*
X0045550Y0306077D01*
X0045550Y0306023D01*
X0045546Y0305969D01*
X0045538Y0305915D01*
X0045526Y0305862D01*
X0045511Y0305811D01*
X0045492Y0305760D01*
X0045469Y0305711D01*
X0045443Y0305663D01*
X0045413Y0305618D01*
X0045380Y0305575D01*
X0045344Y0305534D01*
X0045306Y0305496D01*
X0045265Y0305461D01*
X0045221Y0305429D01*
X0045175Y0305400D01*
X0045127Y0305375D01*
X0045078Y0305353D01*
X0045027Y0305335D01*
X0044974Y0305321D01*
X0044921Y0305310D01*
X0044868Y0305303D01*
X0044814Y0305300D01*
X0044759Y0305301D01*
X0044705Y0305306D01*
X0044652Y0305315D01*
X0044599Y0305327D01*
X0044548Y0305344D01*
X0044497Y0305364D01*
X0044449Y0305387D01*
X0044402Y0305414D01*
X0044357Y0305445D01*
X0044314Y0305478D01*
X0044274Y0305515D01*
X0044237Y0305554D01*
X0044203Y0305596D01*
X0044172Y0305640D01*
X0044144Y0305687D01*
X0044119Y0305735D01*
X0044098Y0305785D01*
X0044081Y0305836D01*
X0044068Y0305889D01*
X0044058Y0305942D01*
X0044052Y0305996D01*
X0044050Y0306050D01*
X0044050Y0303750D02*
X0044052Y0303804D01*
X0044058Y0303858D01*
X0044068Y0303911D01*
X0044081Y0303964D01*
X0044098Y0304015D01*
X0044119Y0304065D01*
X0044144Y0304113D01*
X0044172Y0304160D01*
X0044203Y0304204D01*
X0044237Y0304246D01*
X0044274Y0304285D01*
X0044314Y0304322D01*
X0044357Y0304355D01*
X0044402Y0304386D01*
X0044449Y0304413D01*
X0044497Y0304436D01*
X0044548Y0304456D01*
X0044599Y0304473D01*
X0044652Y0304485D01*
X0044705Y0304494D01*
X0044759Y0304499D01*
X0044814Y0304500D01*
X0044868Y0304497D01*
X0044921Y0304490D01*
X0044974Y0304479D01*
X0045027Y0304465D01*
X0045078Y0304447D01*
X0045127Y0304425D01*
X0045175Y0304400D01*
X0045221Y0304371D01*
X0045265Y0304339D01*
X0045306Y0304304D01*
X0045344Y0304266D01*
X0045380Y0304225D01*
X0045413Y0304182D01*
X0045443Y0304137D01*
X0045469Y0304089D01*
X0045492Y0304040D01*
X0045511Y0303989D01*
X0045526Y0303938D01*
X0045538Y0303885D01*
X0045546Y0303831D01*
X0045550Y0303777D01*
X0045550Y0303723D01*
X0045546Y0303669D01*
X0045538Y0303615D01*
X0045526Y0303562D01*
X0045511Y0303511D01*
X0045492Y0303460D01*
X0045469Y0303411D01*
X0045443Y0303363D01*
X0045413Y0303318D01*
X0045380Y0303275D01*
X0045344Y0303234D01*
X0045306Y0303196D01*
X0045265Y0303161D01*
X0045221Y0303129D01*
X0045175Y0303100D01*
X0045127Y0303075D01*
X0045078Y0303053D01*
X0045027Y0303035D01*
X0044974Y0303021D01*
X0044921Y0303010D01*
X0044868Y0303003D01*
X0044814Y0303000D01*
X0044759Y0303001D01*
X0044705Y0303006D01*
X0044652Y0303015D01*
X0044599Y0303027D01*
X0044548Y0303044D01*
X0044497Y0303064D01*
X0044449Y0303087D01*
X0044402Y0303114D01*
X0044357Y0303145D01*
X0044314Y0303178D01*
X0044274Y0303215D01*
X0044237Y0303254D01*
X0044203Y0303296D01*
X0044172Y0303340D01*
X0044144Y0303387D01*
X0044119Y0303435D01*
X0044098Y0303485D01*
X0044081Y0303536D01*
X0044068Y0303589D01*
X0044058Y0303642D01*
X0044052Y0303696D01*
X0044050Y0303750D01*
X0023000Y0304050D02*
X0023002Y0304104D01*
X0023008Y0304158D01*
X0023018Y0304211D01*
X0023031Y0304264D01*
X0023048Y0304315D01*
X0023069Y0304365D01*
X0023094Y0304413D01*
X0023122Y0304460D01*
X0023153Y0304504D01*
X0023187Y0304546D01*
X0023224Y0304585D01*
X0023264Y0304622D01*
X0023307Y0304655D01*
X0023352Y0304686D01*
X0023399Y0304713D01*
X0023447Y0304736D01*
X0023498Y0304756D01*
X0023549Y0304773D01*
X0023602Y0304785D01*
X0023655Y0304794D01*
X0023709Y0304799D01*
X0023764Y0304800D01*
X0023818Y0304797D01*
X0023871Y0304790D01*
X0023924Y0304779D01*
X0023977Y0304765D01*
X0024028Y0304747D01*
X0024077Y0304725D01*
X0024125Y0304700D01*
X0024171Y0304671D01*
X0024215Y0304639D01*
X0024256Y0304604D01*
X0024294Y0304566D01*
X0024330Y0304525D01*
X0024363Y0304482D01*
X0024393Y0304437D01*
X0024419Y0304389D01*
X0024442Y0304340D01*
X0024461Y0304289D01*
X0024476Y0304238D01*
X0024488Y0304185D01*
X0024496Y0304131D01*
X0024500Y0304077D01*
X0024500Y0304023D01*
X0024496Y0303969D01*
X0024488Y0303915D01*
X0024476Y0303862D01*
X0024461Y0303811D01*
X0024442Y0303760D01*
X0024419Y0303711D01*
X0024393Y0303663D01*
X0024363Y0303618D01*
X0024330Y0303575D01*
X0024294Y0303534D01*
X0024256Y0303496D01*
X0024215Y0303461D01*
X0024171Y0303429D01*
X0024125Y0303400D01*
X0024077Y0303375D01*
X0024028Y0303353D01*
X0023977Y0303335D01*
X0023924Y0303321D01*
X0023871Y0303310D01*
X0023818Y0303303D01*
X0023764Y0303300D01*
X0023709Y0303301D01*
X0023655Y0303306D01*
X0023602Y0303315D01*
X0023549Y0303327D01*
X0023498Y0303344D01*
X0023447Y0303364D01*
X0023399Y0303387D01*
X0023352Y0303414D01*
X0023307Y0303445D01*
X0023264Y0303478D01*
X0023224Y0303515D01*
X0023187Y0303554D01*
X0023153Y0303596D01*
X0023122Y0303640D01*
X0023094Y0303687D01*
X0023069Y0303735D01*
X0023048Y0303785D01*
X0023031Y0303836D01*
X0023018Y0303889D01*
X0023008Y0303942D01*
X0023002Y0303996D01*
X0023000Y0304050D01*
X0023000Y0306350D02*
X0023002Y0306404D01*
X0023008Y0306458D01*
X0023018Y0306511D01*
X0023031Y0306564D01*
X0023048Y0306615D01*
X0023069Y0306665D01*
X0023094Y0306713D01*
X0023122Y0306760D01*
X0023153Y0306804D01*
X0023187Y0306846D01*
X0023224Y0306885D01*
X0023264Y0306922D01*
X0023307Y0306955D01*
X0023352Y0306986D01*
X0023399Y0307013D01*
X0023447Y0307036D01*
X0023498Y0307056D01*
X0023549Y0307073D01*
X0023602Y0307085D01*
X0023655Y0307094D01*
X0023709Y0307099D01*
X0023764Y0307100D01*
X0023818Y0307097D01*
X0023871Y0307090D01*
X0023924Y0307079D01*
X0023977Y0307065D01*
X0024028Y0307047D01*
X0024077Y0307025D01*
X0024125Y0307000D01*
X0024171Y0306971D01*
X0024215Y0306939D01*
X0024256Y0306904D01*
X0024294Y0306866D01*
X0024330Y0306825D01*
X0024363Y0306782D01*
X0024393Y0306737D01*
X0024419Y0306689D01*
X0024442Y0306640D01*
X0024461Y0306589D01*
X0024476Y0306538D01*
X0024488Y0306485D01*
X0024496Y0306431D01*
X0024500Y0306377D01*
X0024500Y0306323D01*
X0024496Y0306269D01*
X0024488Y0306215D01*
X0024476Y0306162D01*
X0024461Y0306111D01*
X0024442Y0306060D01*
X0024419Y0306011D01*
X0024393Y0305963D01*
X0024363Y0305918D01*
X0024330Y0305875D01*
X0024294Y0305834D01*
X0024256Y0305796D01*
X0024215Y0305761D01*
X0024171Y0305729D01*
X0024125Y0305700D01*
X0024077Y0305675D01*
X0024028Y0305653D01*
X0023977Y0305635D01*
X0023924Y0305621D01*
X0023871Y0305610D01*
X0023818Y0305603D01*
X0023764Y0305600D01*
X0023709Y0305601D01*
X0023655Y0305606D01*
X0023602Y0305615D01*
X0023549Y0305627D01*
X0023498Y0305644D01*
X0023447Y0305664D01*
X0023399Y0305687D01*
X0023352Y0305714D01*
X0023307Y0305745D01*
X0023264Y0305778D01*
X0023224Y0305815D01*
X0023187Y0305854D01*
X0023153Y0305896D01*
X0023122Y0305940D01*
X0023094Y0305987D01*
X0023069Y0306035D01*
X0023048Y0306085D01*
X0023031Y0306136D01*
X0023018Y0306189D01*
X0023008Y0306242D01*
X0023002Y0306296D01*
X0023000Y0306350D01*
X0023000Y0308550D02*
X0023002Y0308604D01*
X0023008Y0308658D01*
X0023018Y0308711D01*
X0023031Y0308764D01*
X0023048Y0308815D01*
X0023069Y0308865D01*
X0023094Y0308913D01*
X0023122Y0308960D01*
X0023153Y0309004D01*
X0023187Y0309046D01*
X0023224Y0309085D01*
X0023264Y0309122D01*
X0023307Y0309155D01*
X0023352Y0309186D01*
X0023399Y0309213D01*
X0023447Y0309236D01*
X0023498Y0309256D01*
X0023549Y0309273D01*
X0023602Y0309285D01*
X0023655Y0309294D01*
X0023709Y0309299D01*
X0023764Y0309300D01*
X0023818Y0309297D01*
X0023871Y0309290D01*
X0023924Y0309279D01*
X0023977Y0309265D01*
X0024028Y0309247D01*
X0024077Y0309225D01*
X0024125Y0309200D01*
X0024171Y0309171D01*
X0024215Y0309139D01*
X0024256Y0309104D01*
X0024294Y0309066D01*
X0024330Y0309025D01*
X0024363Y0308982D01*
X0024393Y0308937D01*
X0024419Y0308889D01*
X0024442Y0308840D01*
X0024461Y0308789D01*
X0024476Y0308738D01*
X0024488Y0308685D01*
X0024496Y0308631D01*
X0024500Y0308577D01*
X0024500Y0308523D01*
X0024496Y0308469D01*
X0024488Y0308415D01*
X0024476Y0308362D01*
X0024461Y0308311D01*
X0024442Y0308260D01*
X0024419Y0308211D01*
X0024393Y0308163D01*
X0024363Y0308118D01*
X0024330Y0308075D01*
X0024294Y0308034D01*
X0024256Y0307996D01*
X0024215Y0307961D01*
X0024171Y0307929D01*
X0024125Y0307900D01*
X0024077Y0307875D01*
X0024028Y0307853D01*
X0023977Y0307835D01*
X0023924Y0307821D01*
X0023871Y0307810D01*
X0023818Y0307803D01*
X0023764Y0307800D01*
X0023709Y0307801D01*
X0023655Y0307806D01*
X0023602Y0307815D01*
X0023549Y0307827D01*
X0023498Y0307844D01*
X0023447Y0307864D01*
X0023399Y0307887D01*
X0023352Y0307914D01*
X0023307Y0307945D01*
X0023264Y0307978D01*
X0023224Y0308015D01*
X0023187Y0308054D01*
X0023153Y0308096D01*
X0023122Y0308140D01*
X0023094Y0308187D01*
X0023069Y0308235D01*
X0023048Y0308285D01*
X0023031Y0308336D01*
X0023018Y0308389D01*
X0023008Y0308442D01*
X0023002Y0308496D01*
X0023000Y0308550D01*
X0015900Y0308450D02*
X0015902Y0308504D01*
X0015908Y0308558D01*
X0015918Y0308611D01*
X0015931Y0308664D01*
X0015948Y0308715D01*
X0015969Y0308765D01*
X0015994Y0308813D01*
X0016022Y0308860D01*
X0016053Y0308904D01*
X0016087Y0308946D01*
X0016124Y0308985D01*
X0016164Y0309022D01*
X0016207Y0309055D01*
X0016252Y0309086D01*
X0016299Y0309113D01*
X0016347Y0309136D01*
X0016398Y0309156D01*
X0016449Y0309173D01*
X0016502Y0309185D01*
X0016555Y0309194D01*
X0016609Y0309199D01*
X0016664Y0309200D01*
X0016718Y0309197D01*
X0016771Y0309190D01*
X0016824Y0309179D01*
X0016877Y0309165D01*
X0016928Y0309147D01*
X0016977Y0309125D01*
X0017025Y0309100D01*
X0017071Y0309071D01*
X0017115Y0309039D01*
X0017156Y0309004D01*
X0017194Y0308966D01*
X0017230Y0308925D01*
X0017263Y0308882D01*
X0017293Y0308837D01*
X0017319Y0308789D01*
X0017342Y0308740D01*
X0017361Y0308689D01*
X0017376Y0308638D01*
X0017388Y0308585D01*
X0017396Y0308531D01*
X0017400Y0308477D01*
X0017400Y0308423D01*
X0017396Y0308369D01*
X0017388Y0308315D01*
X0017376Y0308262D01*
X0017361Y0308211D01*
X0017342Y0308160D01*
X0017319Y0308111D01*
X0017293Y0308063D01*
X0017263Y0308018D01*
X0017230Y0307975D01*
X0017194Y0307934D01*
X0017156Y0307896D01*
X0017115Y0307861D01*
X0017071Y0307829D01*
X0017025Y0307800D01*
X0016977Y0307775D01*
X0016928Y0307753D01*
X0016877Y0307735D01*
X0016824Y0307721D01*
X0016771Y0307710D01*
X0016718Y0307703D01*
X0016664Y0307700D01*
X0016609Y0307701D01*
X0016555Y0307706D01*
X0016502Y0307715D01*
X0016449Y0307727D01*
X0016398Y0307744D01*
X0016347Y0307764D01*
X0016299Y0307787D01*
X0016252Y0307814D01*
X0016207Y0307845D01*
X0016164Y0307878D01*
X0016124Y0307915D01*
X0016087Y0307954D01*
X0016053Y0307996D01*
X0016022Y0308040D01*
X0015994Y0308087D01*
X0015969Y0308135D01*
X0015948Y0308185D01*
X0015931Y0308236D01*
X0015918Y0308289D01*
X0015908Y0308342D01*
X0015902Y0308396D01*
X0015900Y0308450D01*
X0015900Y0306250D02*
X0015902Y0306304D01*
X0015908Y0306358D01*
X0015918Y0306411D01*
X0015931Y0306464D01*
X0015948Y0306515D01*
X0015969Y0306565D01*
X0015994Y0306613D01*
X0016022Y0306660D01*
X0016053Y0306704D01*
X0016087Y0306746D01*
X0016124Y0306785D01*
X0016164Y0306822D01*
X0016207Y0306855D01*
X0016252Y0306886D01*
X0016299Y0306913D01*
X0016347Y0306936D01*
X0016398Y0306956D01*
X0016449Y0306973D01*
X0016502Y0306985D01*
X0016555Y0306994D01*
X0016609Y0306999D01*
X0016664Y0307000D01*
X0016718Y0306997D01*
X0016771Y0306990D01*
X0016824Y0306979D01*
X0016877Y0306965D01*
X0016928Y0306947D01*
X0016977Y0306925D01*
X0017025Y0306900D01*
X0017071Y0306871D01*
X0017115Y0306839D01*
X0017156Y0306804D01*
X0017194Y0306766D01*
X0017230Y0306725D01*
X0017263Y0306682D01*
X0017293Y0306637D01*
X0017319Y0306589D01*
X0017342Y0306540D01*
X0017361Y0306489D01*
X0017376Y0306438D01*
X0017388Y0306385D01*
X0017396Y0306331D01*
X0017400Y0306277D01*
X0017400Y0306223D01*
X0017396Y0306169D01*
X0017388Y0306115D01*
X0017376Y0306062D01*
X0017361Y0306011D01*
X0017342Y0305960D01*
X0017319Y0305911D01*
X0017293Y0305863D01*
X0017263Y0305818D01*
X0017230Y0305775D01*
X0017194Y0305734D01*
X0017156Y0305696D01*
X0017115Y0305661D01*
X0017071Y0305629D01*
X0017025Y0305600D01*
X0016977Y0305575D01*
X0016928Y0305553D01*
X0016877Y0305535D01*
X0016824Y0305521D01*
X0016771Y0305510D01*
X0016718Y0305503D01*
X0016664Y0305500D01*
X0016609Y0305501D01*
X0016555Y0305506D01*
X0016502Y0305515D01*
X0016449Y0305527D01*
X0016398Y0305544D01*
X0016347Y0305564D01*
X0016299Y0305587D01*
X0016252Y0305614D01*
X0016207Y0305645D01*
X0016164Y0305678D01*
X0016124Y0305715D01*
X0016087Y0305754D01*
X0016053Y0305796D01*
X0016022Y0305840D01*
X0015994Y0305887D01*
X0015969Y0305935D01*
X0015948Y0305985D01*
X0015931Y0306036D01*
X0015918Y0306089D01*
X0015908Y0306142D01*
X0015902Y0306196D01*
X0015900Y0306250D01*
X0015900Y0303950D02*
X0015902Y0304004D01*
X0015908Y0304058D01*
X0015918Y0304111D01*
X0015931Y0304164D01*
X0015948Y0304215D01*
X0015969Y0304265D01*
X0015994Y0304313D01*
X0016022Y0304360D01*
X0016053Y0304404D01*
X0016087Y0304446D01*
X0016124Y0304485D01*
X0016164Y0304522D01*
X0016207Y0304555D01*
X0016252Y0304586D01*
X0016299Y0304613D01*
X0016347Y0304636D01*
X0016398Y0304656D01*
X0016449Y0304673D01*
X0016502Y0304685D01*
X0016555Y0304694D01*
X0016609Y0304699D01*
X0016664Y0304700D01*
X0016718Y0304697D01*
X0016771Y0304690D01*
X0016824Y0304679D01*
X0016877Y0304665D01*
X0016928Y0304647D01*
X0016977Y0304625D01*
X0017025Y0304600D01*
X0017071Y0304571D01*
X0017115Y0304539D01*
X0017156Y0304504D01*
X0017194Y0304466D01*
X0017230Y0304425D01*
X0017263Y0304382D01*
X0017293Y0304337D01*
X0017319Y0304289D01*
X0017342Y0304240D01*
X0017361Y0304189D01*
X0017376Y0304138D01*
X0017388Y0304085D01*
X0017396Y0304031D01*
X0017400Y0303977D01*
X0017400Y0303923D01*
X0017396Y0303869D01*
X0017388Y0303815D01*
X0017376Y0303762D01*
X0017361Y0303711D01*
X0017342Y0303660D01*
X0017319Y0303611D01*
X0017293Y0303563D01*
X0017263Y0303518D01*
X0017230Y0303475D01*
X0017194Y0303434D01*
X0017156Y0303396D01*
X0017115Y0303361D01*
X0017071Y0303329D01*
X0017025Y0303300D01*
X0016977Y0303275D01*
X0016928Y0303253D01*
X0016877Y0303235D01*
X0016824Y0303221D01*
X0016771Y0303210D01*
X0016718Y0303203D01*
X0016664Y0303200D01*
X0016609Y0303201D01*
X0016555Y0303206D01*
X0016502Y0303215D01*
X0016449Y0303227D01*
X0016398Y0303244D01*
X0016347Y0303264D01*
X0016299Y0303287D01*
X0016252Y0303314D01*
X0016207Y0303345D01*
X0016164Y0303378D01*
X0016124Y0303415D01*
X0016087Y0303454D01*
X0016053Y0303496D01*
X0016022Y0303540D01*
X0015994Y0303587D01*
X0015969Y0303635D01*
X0015948Y0303685D01*
X0015931Y0303736D01*
X0015918Y0303789D01*
X0015908Y0303842D01*
X0015902Y0303896D01*
X0015900Y0303950D01*
X0270700Y0077650D02*
X0270702Y0077704D01*
X0270708Y0077758D01*
X0270718Y0077811D01*
X0270731Y0077864D01*
X0270748Y0077915D01*
X0270769Y0077965D01*
X0270794Y0078013D01*
X0270822Y0078060D01*
X0270853Y0078104D01*
X0270887Y0078146D01*
X0270924Y0078185D01*
X0270964Y0078222D01*
X0271007Y0078255D01*
X0271052Y0078286D01*
X0271099Y0078313D01*
X0271147Y0078336D01*
X0271198Y0078356D01*
X0271249Y0078373D01*
X0271302Y0078385D01*
X0271355Y0078394D01*
X0271409Y0078399D01*
X0271464Y0078400D01*
X0271518Y0078397D01*
X0271571Y0078390D01*
X0271624Y0078379D01*
X0271677Y0078365D01*
X0271728Y0078347D01*
X0271777Y0078325D01*
X0271825Y0078300D01*
X0271871Y0078271D01*
X0271915Y0078239D01*
X0271956Y0078204D01*
X0271994Y0078166D01*
X0272030Y0078125D01*
X0272063Y0078082D01*
X0272093Y0078037D01*
X0272119Y0077989D01*
X0272142Y0077940D01*
X0272161Y0077889D01*
X0272176Y0077838D01*
X0272188Y0077785D01*
X0272196Y0077731D01*
X0272200Y0077677D01*
X0272200Y0077623D01*
X0272196Y0077569D01*
X0272188Y0077515D01*
X0272176Y0077462D01*
X0272161Y0077411D01*
X0272142Y0077360D01*
X0272119Y0077311D01*
X0272093Y0077263D01*
X0272063Y0077218D01*
X0272030Y0077175D01*
X0271994Y0077134D01*
X0271956Y0077096D01*
X0271915Y0077061D01*
X0271871Y0077029D01*
X0271825Y0077000D01*
X0271777Y0076975D01*
X0271728Y0076953D01*
X0271677Y0076935D01*
X0271624Y0076921D01*
X0271571Y0076910D01*
X0271518Y0076903D01*
X0271464Y0076900D01*
X0271409Y0076901D01*
X0271355Y0076906D01*
X0271302Y0076915D01*
X0271249Y0076927D01*
X0271198Y0076944D01*
X0271147Y0076964D01*
X0271099Y0076987D01*
X0271052Y0077014D01*
X0271007Y0077045D01*
X0270964Y0077078D01*
X0270924Y0077115D01*
X0270887Y0077154D01*
X0270853Y0077196D01*
X0270822Y0077240D01*
X0270794Y0077287D01*
X0270769Y0077335D01*
X0270748Y0077385D01*
X0270731Y0077436D01*
X0270718Y0077489D01*
X0270708Y0077542D01*
X0270702Y0077596D01*
X0270700Y0077650D01*
X0272900Y0077650D02*
X0272902Y0077704D01*
X0272908Y0077758D01*
X0272918Y0077811D01*
X0272931Y0077864D01*
X0272948Y0077915D01*
X0272969Y0077965D01*
X0272994Y0078013D01*
X0273022Y0078060D01*
X0273053Y0078104D01*
X0273087Y0078146D01*
X0273124Y0078185D01*
X0273164Y0078222D01*
X0273207Y0078255D01*
X0273252Y0078286D01*
X0273299Y0078313D01*
X0273347Y0078336D01*
X0273398Y0078356D01*
X0273449Y0078373D01*
X0273502Y0078385D01*
X0273555Y0078394D01*
X0273609Y0078399D01*
X0273664Y0078400D01*
X0273718Y0078397D01*
X0273771Y0078390D01*
X0273824Y0078379D01*
X0273877Y0078365D01*
X0273928Y0078347D01*
X0273977Y0078325D01*
X0274025Y0078300D01*
X0274071Y0078271D01*
X0274115Y0078239D01*
X0274156Y0078204D01*
X0274194Y0078166D01*
X0274230Y0078125D01*
X0274263Y0078082D01*
X0274293Y0078037D01*
X0274319Y0077989D01*
X0274342Y0077940D01*
X0274361Y0077889D01*
X0274376Y0077838D01*
X0274388Y0077785D01*
X0274396Y0077731D01*
X0274400Y0077677D01*
X0274400Y0077623D01*
X0274396Y0077569D01*
X0274388Y0077515D01*
X0274376Y0077462D01*
X0274361Y0077411D01*
X0274342Y0077360D01*
X0274319Y0077311D01*
X0274293Y0077263D01*
X0274263Y0077218D01*
X0274230Y0077175D01*
X0274194Y0077134D01*
X0274156Y0077096D01*
X0274115Y0077061D01*
X0274071Y0077029D01*
X0274025Y0077000D01*
X0273977Y0076975D01*
X0273928Y0076953D01*
X0273877Y0076935D01*
X0273824Y0076921D01*
X0273771Y0076910D01*
X0273718Y0076903D01*
X0273664Y0076900D01*
X0273609Y0076901D01*
X0273555Y0076906D01*
X0273502Y0076915D01*
X0273449Y0076927D01*
X0273398Y0076944D01*
X0273347Y0076964D01*
X0273299Y0076987D01*
X0273252Y0077014D01*
X0273207Y0077045D01*
X0273164Y0077078D01*
X0273124Y0077115D01*
X0273087Y0077154D01*
X0273053Y0077196D01*
X0273022Y0077240D01*
X0272994Y0077287D01*
X0272969Y0077335D01*
X0272948Y0077385D01*
X0272931Y0077436D01*
X0272918Y0077489D01*
X0272908Y0077542D01*
X0272902Y0077596D01*
X0272900Y0077650D01*
X0275200Y0077650D02*
X0275202Y0077704D01*
X0275208Y0077758D01*
X0275218Y0077811D01*
X0275231Y0077864D01*
X0275248Y0077915D01*
X0275269Y0077965D01*
X0275294Y0078013D01*
X0275322Y0078060D01*
X0275353Y0078104D01*
X0275387Y0078146D01*
X0275424Y0078185D01*
X0275464Y0078222D01*
X0275507Y0078255D01*
X0275552Y0078286D01*
X0275599Y0078313D01*
X0275647Y0078336D01*
X0275698Y0078356D01*
X0275749Y0078373D01*
X0275802Y0078385D01*
X0275855Y0078394D01*
X0275909Y0078399D01*
X0275964Y0078400D01*
X0276018Y0078397D01*
X0276071Y0078390D01*
X0276124Y0078379D01*
X0276177Y0078365D01*
X0276228Y0078347D01*
X0276277Y0078325D01*
X0276325Y0078300D01*
X0276371Y0078271D01*
X0276415Y0078239D01*
X0276456Y0078204D01*
X0276494Y0078166D01*
X0276530Y0078125D01*
X0276563Y0078082D01*
X0276593Y0078037D01*
X0276619Y0077989D01*
X0276642Y0077940D01*
X0276661Y0077889D01*
X0276676Y0077838D01*
X0276688Y0077785D01*
X0276696Y0077731D01*
X0276700Y0077677D01*
X0276700Y0077623D01*
X0276696Y0077569D01*
X0276688Y0077515D01*
X0276676Y0077462D01*
X0276661Y0077411D01*
X0276642Y0077360D01*
X0276619Y0077311D01*
X0276593Y0077263D01*
X0276563Y0077218D01*
X0276530Y0077175D01*
X0276494Y0077134D01*
X0276456Y0077096D01*
X0276415Y0077061D01*
X0276371Y0077029D01*
X0276325Y0077000D01*
X0276277Y0076975D01*
X0276228Y0076953D01*
X0276177Y0076935D01*
X0276124Y0076921D01*
X0276071Y0076910D01*
X0276018Y0076903D01*
X0275964Y0076900D01*
X0275909Y0076901D01*
X0275855Y0076906D01*
X0275802Y0076915D01*
X0275749Y0076927D01*
X0275698Y0076944D01*
X0275647Y0076964D01*
X0275599Y0076987D01*
X0275552Y0077014D01*
X0275507Y0077045D01*
X0275464Y0077078D01*
X0275424Y0077115D01*
X0275387Y0077154D01*
X0275353Y0077196D01*
X0275322Y0077240D01*
X0275294Y0077287D01*
X0275269Y0077335D01*
X0275248Y0077385D01*
X0275231Y0077436D01*
X0275218Y0077489D01*
X0275208Y0077542D01*
X0275202Y0077596D01*
X0275200Y0077650D01*
X0275300Y0055800D02*
X0275302Y0055854D01*
X0275308Y0055908D01*
X0275318Y0055961D01*
X0275331Y0056014D01*
X0275348Y0056065D01*
X0275369Y0056115D01*
X0275394Y0056163D01*
X0275422Y0056210D01*
X0275453Y0056254D01*
X0275487Y0056296D01*
X0275524Y0056335D01*
X0275564Y0056372D01*
X0275607Y0056405D01*
X0275652Y0056436D01*
X0275699Y0056463D01*
X0275747Y0056486D01*
X0275798Y0056506D01*
X0275849Y0056523D01*
X0275902Y0056535D01*
X0275955Y0056544D01*
X0276009Y0056549D01*
X0276064Y0056550D01*
X0276118Y0056547D01*
X0276171Y0056540D01*
X0276224Y0056529D01*
X0276277Y0056515D01*
X0276328Y0056497D01*
X0276377Y0056475D01*
X0276425Y0056450D01*
X0276471Y0056421D01*
X0276515Y0056389D01*
X0276556Y0056354D01*
X0276594Y0056316D01*
X0276630Y0056275D01*
X0276663Y0056232D01*
X0276693Y0056187D01*
X0276719Y0056139D01*
X0276742Y0056090D01*
X0276761Y0056039D01*
X0276776Y0055988D01*
X0276788Y0055935D01*
X0276796Y0055881D01*
X0276800Y0055827D01*
X0276800Y0055773D01*
X0276796Y0055719D01*
X0276788Y0055665D01*
X0276776Y0055612D01*
X0276761Y0055561D01*
X0276742Y0055510D01*
X0276719Y0055461D01*
X0276693Y0055413D01*
X0276663Y0055368D01*
X0276630Y0055325D01*
X0276594Y0055284D01*
X0276556Y0055246D01*
X0276515Y0055211D01*
X0276471Y0055179D01*
X0276425Y0055150D01*
X0276377Y0055125D01*
X0276328Y0055103D01*
X0276277Y0055085D01*
X0276224Y0055071D01*
X0276171Y0055060D01*
X0276118Y0055053D01*
X0276064Y0055050D01*
X0276009Y0055051D01*
X0275955Y0055056D01*
X0275902Y0055065D01*
X0275849Y0055077D01*
X0275798Y0055094D01*
X0275747Y0055114D01*
X0275699Y0055137D01*
X0275652Y0055164D01*
X0275607Y0055195D01*
X0275564Y0055228D01*
X0275524Y0055265D01*
X0275487Y0055304D01*
X0275453Y0055346D01*
X0275422Y0055390D01*
X0275394Y0055437D01*
X0275369Y0055485D01*
X0275348Y0055535D01*
X0275331Y0055586D01*
X0275318Y0055639D01*
X0275308Y0055692D01*
X0275302Y0055746D01*
X0275300Y0055800D01*
X0273000Y0055800D02*
X0273002Y0055854D01*
X0273008Y0055908D01*
X0273018Y0055961D01*
X0273031Y0056014D01*
X0273048Y0056065D01*
X0273069Y0056115D01*
X0273094Y0056163D01*
X0273122Y0056210D01*
X0273153Y0056254D01*
X0273187Y0056296D01*
X0273224Y0056335D01*
X0273264Y0056372D01*
X0273307Y0056405D01*
X0273352Y0056436D01*
X0273399Y0056463D01*
X0273447Y0056486D01*
X0273498Y0056506D01*
X0273549Y0056523D01*
X0273602Y0056535D01*
X0273655Y0056544D01*
X0273709Y0056549D01*
X0273764Y0056550D01*
X0273818Y0056547D01*
X0273871Y0056540D01*
X0273924Y0056529D01*
X0273977Y0056515D01*
X0274028Y0056497D01*
X0274077Y0056475D01*
X0274125Y0056450D01*
X0274171Y0056421D01*
X0274215Y0056389D01*
X0274256Y0056354D01*
X0274294Y0056316D01*
X0274330Y0056275D01*
X0274363Y0056232D01*
X0274393Y0056187D01*
X0274419Y0056139D01*
X0274442Y0056090D01*
X0274461Y0056039D01*
X0274476Y0055988D01*
X0274488Y0055935D01*
X0274496Y0055881D01*
X0274500Y0055827D01*
X0274500Y0055773D01*
X0274496Y0055719D01*
X0274488Y0055665D01*
X0274476Y0055612D01*
X0274461Y0055561D01*
X0274442Y0055510D01*
X0274419Y0055461D01*
X0274393Y0055413D01*
X0274363Y0055368D01*
X0274330Y0055325D01*
X0274294Y0055284D01*
X0274256Y0055246D01*
X0274215Y0055211D01*
X0274171Y0055179D01*
X0274125Y0055150D01*
X0274077Y0055125D01*
X0274028Y0055103D01*
X0273977Y0055085D01*
X0273924Y0055071D01*
X0273871Y0055060D01*
X0273818Y0055053D01*
X0273764Y0055050D01*
X0273709Y0055051D01*
X0273655Y0055056D01*
X0273602Y0055065D01*
X0273549Y0055077D01*
X0273498Y0055094D01*
X0273447Y0055114D01*
X0273399Y0055137D01*
X0273352Y0055164D01*
X0273307Y0055195D01*
X0273264Y0055228D01*
X0273224Y0055265D01*
X0273187Y0055304D01*
X0273153Y0055346D01*
X0273122Y0055390D01*
X0273094Y0055437D01*
X0273069Y0055485D01*
X0273048Y0055535D01*
X0273031Y0055586D01*
X0273018Y0055639D01*
X0273008Y0055692D01*
X0273002Y0055746D01*
X0273000Y0055800D01*
X0270800Y0055800D02*
X0270802Y0055854D01*
X0270808Y0055908D01*
X0270818Y0055961D01*
X0270831Y0056014D01*
X0270848Y0056065D01*
X0270869Y0056115D01*
X0270894Y0056163D01*
X0270922Y0056210D01*
X0270953Y0056254D01*
X0270987Y0056296D01*
X0271024Y0056335D01*
X0271064Y0056372D01*
X0271107Y0056405D01*
X0271152Y0056436D01*
X0271199Y0056463D01*
X0271247Y0056486D01*
X0271298Y0056506D01*
X0271349Y0056523D01*
X0271402Y0056535D01*
X0271455Y0056544D01*
X0271509Y0056549D01*
X0271564Y0056550D01*
X0271618Y0056547D01*
X0271671Y0056540D01*
X0271724Y0056529D01*
X0271777Y0056515D01*
X0271828Y0056497D01*
X0271877Y0056475D01*
X0271925Y0056450D01*
X0271971Y0056421D01*
X0272015Y0056389D01*
X0272056Y0056354D01*
X0272094Y0056316D01*
X0272130Y0056275D01*
X0272163Y0056232D01*
X0272193Y0056187D01*
X0272219Y0056139D01*
X0272242Y0056090D01*
X0272261Y0056039D01*
X0272276Y0055988D01*
X0272288Y0055935D01*
X0272296Y0055881D01*
X0272300Y0055827D01*
X0272300Y0055773D01*
X0272296Y0055719D01*
X0272288Y0055665D01*
X0272276Y0055612D01*
X0272261Y0055561D01*
X0272242Y0055510D01*
X0272219Y0055461D01*
X0272193Y0055413D01*
X0272163Y0055368D01*
X0272130Y0055325D01*
X0272094Y0055284D01*
X0272056Y0055246D01*
X0272015Y0055211D01*
X0271971Y0055179D01*
X0271925Y0055150D01*
X0271877Y0055125D01*
X0271828Y0055103D01*
X0271777Y0055085D01*
X0271724Y0055071D01*
X0271671Y0055060D01*
X0271618Y0055053D01*
X0271564Y0055050D01*
X0271509Y0055051D01*
X0271455Y0055056D01*
X0271402Y0055065D01*
X0271349Y0055077D01*
X0271298Y0055094D01*
X0271247Y0055114D01*
X0271199Y0055137D01*
X0271152Y0055164D01*
X0271107Y0055195D01*
X0271064Y0055228D01*
X0271024Y0055265D01*
X0270987Y0055304D01*
X0270953Y0055346D01*
X0270922Y0055390D01*
X0270894Y0055437D01*
X0270869Y0055485D01*
X0270848Y0055535D01*
X0270831Y0055586D01*
X0270818Y0055639D01*
X0270808Y0055692D01*
X0270802Y0055746D01*
X0270800Y0055800D01*
X0270800Y0049250D02*
X0270802Y0049304D01*
X0270808Y0049358D01*
X0270818Y0049411D01*
X0270831Y0049464D01*
X0270848Y0049515D01*
X0270869Y0049565D01*
X0270894Y0049613D01*
X0270922Y0049660D01*
X0270953Y0049704D01*
X0270987Y0049746D01*
X0271024Y0049785D01*
X0271064Y0049822D01*
X0271107Y0049855D01*
X0271152Y0049886D01*
X0271199Y0049913D01*
X0271247Y0049936D01*
X0271298Y0049956D01*
X0271349Y0049973D01*
X0271402Y0049985D01*
X0271455Y0049994D01*
X0271509Y0049999D01*
X0271564Y0050000D01*
X0271618Y0049997D01*
X0271671Y0049990D01*
X0271724Y0049979D01*
X0271777Y0049965D01*
X0271828Y0049947D01*
X0271877Y0049925D01*
X0271925Y0049900D01*
X0271971Y0049871D01*
X0272015Y0049839D01*
X0272056Y0049804D01*
X0272094Y0049766D01*
X0272130Y0049725D01*
X0272163Y0049682D01*
X0272193Y0049637D01*
X0272219Y0049589D01*
X0272242Y0049540D01*
X0272261Y0049489D01*
X0272276Y0049438D01*
X0272288Y0049385D01*
X0272296Y0049331D01*
X0272300Y0049277D01*
X0272300Y0049223D01*
X0272296Y0049169D01*
X0272288Y0049115D01*
X0272276Y0049062D01*
X0272261Y0049011D01*
X0272242Y0048960D01*
X0272219Y0048911D01*
X0272193Y0048863D01*
X0272163Y0048818D01*
X0272130Y0048775D01*
X0272094Y0048734D01*
X0272056Y0048696D01*
X0272015Y0048661D01*
X0271971Y0048629D01*
X0271925Y0048600D01*
X0271877Y0048575D01*
X0271828Y0048553D01*
X0271777Y0048535D01*
X0271724Y0048521D01*
X0271671Y0048510D01*
X0271618Y0048503D01*
X0271564Y0048500D01*
X0271509Y0048501D01*
X0271455Y0048506D01*
X0271402Y0048515D01*
X0271349Y0048527D01*
X0271298Y0048544D01*
X0271247Y0048564D01*
X0271199Y0048587D01*
X0271152Y0048614D01*
X0271107Y0048645D01*
X0271064Y0048678D01*
X0271024Y0048715D01*
X0270987Y0048754D01*
X0270953Y0048796D01*
X0270922Y0048840D01*
X0270894Y0048887D01*
X0270869Y0048935D01*
X0270848Y0048985D01*
X0270831Y0049036D01*
X0270818Y0049089D01*
X0270808Y0049142D01*
X0270802Y0049196D01*
X0270800Y0049250D01*
X0273000Y0049250D02*
X0273002Y0049304D01*
X0273008Y0049358D01*
X0273018Y0049411D01*
X0273031Y0049464D01*
X0273048Y0049515D01*
X0273069Y0049565D01*
X0273094Y0049613D01*
X0273122Y0049660D01*
X0273153Y0049704D01*
X0273187Y0049746D01*
X0273224Y0049785D01*
X0273264Y0049822D01*
X0273307Y0049855D01*
X0273352Y0049886D01*
X0273399Y0049913D01*
X0273447Y0049936D01*
X0273498Y0049956D01*
X0273549Y0049973D01*
X0273602Y0049985D01*
X0273655Y0049994D01*
X0273709Y0049999D01*
X0273764Y0050000D01*
X0273818Y0049997D01*
X0273871Y0049990D01*
X0273924Y0049979D01*
X0273977Y0049965D01*
X0274028Y0049947D01*
X0274077Y0049925D01*
X0274125Y0049900D01*
X0274171Y0049871D01*
X0274215Y0049839D01*
X0274256Y0049804D01*
X0274294Y0049766D01*
X0274330Y0049725D01*
X0274363Y0049682D01*
X0274393Y0049637D01*
X0274419Y0049589D01*
X0274442Y0049540D01*
X0274461Y0049489D01*
X0274476Y0049438D01*
X0274488Y0049385D01*
X0274496Y0049331D01*
X0274500Y0049277D01*
X0274500Y0049223D01*
X0274496Y0049169D01*
X0274488Y0049115D01*
X0274476Y0049062D01*
X0274461Y0049011D01*
X0274442Y0048960D01*
X0274419Y0048911D01*
X0274393Y0048863D01*
X0274363Y0048818D01*
X0274330Y0048775D01*
X0274294Y0048734D01*
X0274256Y0048696D01*
X0274215Y0048661D01*
X0274171Y0048629D01*
X0274125Y0048600D01*
X0274077Y0048575D01*
X0274028Y0048553D01*
X0273977Y0048535D01*
X0273924Y0048521D01*
X0273871Y0048510D01*
X0273818Y0048503D01*
X0273764Y0048500D01*
X0273709Y0048501D01*
X0273655Y0048506D01*
X0273602Y0048515D01*
X0273549Y0048527D01*
X0273498Y0048544D01*
X0273447Y0048564D01*
X0273399Y0048587D01*
X0273352Y0048614D01*
X0273307Y0048645D01*
X0273264Y0048678D01*
X0273224Y0048715D01*
X0273187Y0048754D01*
X0273153Y0048796D01*
X0273122Y0048840D01*
X0273094Y0048887D01*
X0273069Y0048935D01*
X0273048Y0048985D01*
X0273031Y0049036D01*
X0273018Y0049089D01*
X0273008Y0049142D01*
X0273002Y0049196D01*
X0273000Y0049250D01*
X0275300Y0049250D02*
X0275302Y0049304D01*
X0275308Y0049358D01*
X0275318Y0049411D01*
X0275331Y0049464D01*
X0275348Y0049515D01*
X0275369Y0049565D01*
X0275394Y0049613D01*
X0275422Y0049660D01*
X0275453Y0049704D01*
X0275487Y0049746D01*
X0275524Y0049785D01*
X0275564Y0049822D01*
X0275607Y0049855D01*
X0275652Y0049886D01*
X0275699Y0049913D01*
X0275747Y0049936D01*
X0275798Y0049956D01*
X0275849Y0049973D01*
X0275902Y0049985D01*
X0275955Y0049994D01*
X0276009Y0049999D01*
X0276064Y0050000D01*
X0276118Y0049997D01*
X0276171Y0049990D01*
X0276224Y0049979D01*
X0276277Y0049965D01*
X0276328Y0049947D01*
X0276377Y0049925D01*
X0276425Y0049900D01*
X0276471Y0049871D01*
X0276515Y0049839D01*
X0276556Y0049804D01*
X0276594Y0049766D01*
X0276630Y0049725D01*
X0276663Y0049682D01*
X0276693Y0049637D01*
X0276719Y0049589D01*
X0276742Y0049540D01*
X0276761Y0049489D01*
X0276776Y0049438D01*
X0276788Y0049385D01*
X0276796Y0049331D01*
X0276800Y0049277D01*
X0276800Y0049223D01*
X0276796Y0049169D01*
X0276788Y0049115D01*
X0276776Y0049062D01*
X0276761Y0049011D01*
X0276742Y0048960D01*
X0276719Y0048911D01*
X0276693Y0048863D01*
X0276663Y0048818D01*
X0276630Y0048775D01*
X0276594Y0048734D01*
X0276556Y0048696D01*
X0276515Y0048661D01*
X0276471Y0048629D01*
X0276425Y0048600D01*
X0276377Y0048575D01*
X0276328Y0048553D01*
X0276277Y0048535D01*
X0276224Y0048521D01*
X0276171Y0048510D01*
X0276118Y0048503D01*
X0276064Y0048500D01*
X0276009Y0048501D01*
X0275955Y0048506D01*
X0275902Y0048515D01*
X0275849Y0048527D01*
X0275798Y0048544D01*
X0275747Y0048564D01*
X0275699Y0048587D01*
X0275652Y0048614D01*
X0275607Y0048645D01*
X0275564Y0048678D01*
X0275524Y0048715D01*
X0275487Y0048754D01*
X0275453Y0048796D01*
X0275422Y0048840D01*
X0275394Y0048887D01*
X0275369Y0048935D01*
X0275348Y0048985D01*
X0275331Y0049036D01*
X0275318Y0049089D01*
X0275308Y0049142D01*
X0275302Y0049196D01*
X0275300Y0049250D01*
X0501600Y0304000D02*
X0501602Y0304054D01*
X0501608Y0304108D01*
X0501618Y0304161D01*
X0501631Y0304214D01*
X0501648Y0304265D01*
X0501669Y0304315D01*
X0501694Y0304363D01*
X0501722Y0304410D01*
X0501753Y0304454D01*
X0501787Y0304496D01*
X0501824Y0304535D01*
X0501864Y0304572D01*
X0501907Y0304605D01*
X0501952Y0304636D01*
X0501999Y0304663D01*
X0502047Y0304686D01*
X0502098Y0304706D01*
X0502149Y0304723D01*
X0502202Y0304735D01*
X0502255Y0304744D01*
X0502309Y0304749D01*
X0502364Y0304750D01*
X0502418Y0304747D01*
X0502471Y0304740D01*
X0502524Y0304729D01*
X0502577Y0304715D01*
X0502628Y0304697D01*
X0502677Y0304675D01*
X0502725Y0304650D01*
X0502771Y0304621D01*
X0502815Y0304589D01*
X0502856Y0304554D01*
X0502894Y0304516D01*
X0502930Y0304475D01*
X0502963Y0304432D01*
X0502993Y0304387D01*
X0503019Y0304339D01*
X0503042Y0304290D01*
X0503061Y0304239D01*
X0503076Y0304188D01*
X0503088Y0304135D01*
X0503096Y0304081D01*
X0503100Y0304027D01*
X0503100Y0303973D01*
X0503096Y0303919D01*
X0503088Y0303865D01*
X0503076Y0303812D01*
X0503061Y0303761D01*
X0503042Y0303710D01*
X0503019Y0303661D01*
X0502993Y0303613D01*
X0502963Y0303568D01*
X0502930Y0303525D01*
X0502894Y0303484D01*
X0502856Y0303446D01*
X0502815Y0303411D01*
X0502771Y0303379D01*
X0502725Y0303350D01*
X0502677Y0303325D01*
X0502628Y0303303D01*
X0502577Y0303285D01*
X0502524Y0303271D01*
X0502471Y0303260D01*
X0502418Y0303253D01*
X0502364Y0303250D01*
X0502309Y0303251D01*
X0502255Y0303256D01*
X0502202Y0303265D01*
X0502149Y0303277D01*
X0502098Y0303294D01*
X0502047Y0303314D01*
X0501999Y0303337D01*
X0501952Y0303364D01*
X0501907Y0303395D01*
X0501864Y0303428D01*
X0501824Y0303465D01*
X0501787Y0303504D01*
X0501753Y0303546D01*
X0501722Y0303590D01*
X0501694Y0303637D01*
X0501669Y0303685D01*
X0501648Y0303735D01*
X0501631Y0303786D01*
X0501618Y0303839D01*
X0501608Y0303892D01*
X0501602Y0303946D01*
X0501600Y0304000D01*
X0501600Y0306300D02*
X0501602Y0306354D01*
X0501608Y0306408D01*
X0501618Y0306461D01*
X0501631Y0306514D01*
X0501648Y0306565D01*
X0501669Y0306615D01*
X0501694Y0306663D01*
X0501722Y0306710D01*
X0501753Y0306754D01*
X0501787Y0306796D01*
X0501824Y0306835D01*
X0501864Y0306872D01*
X0501907Y0306905D01*
X0501952Y0306936D01*
X0501999Y0306963D01*
X0502047Y0306986D01*
X0502098Y0307006D01*
X0502149Y0307023D01*
X0502202Y0307035D01*
X0502255Y0307044D01*
X0502309Y0307049D01*
X0502364Y0307050D01*
X0502418Y0307047D01*
X0502471Y0307040D01*
X0502524Y0307029D01*
X0502577Y0307015D01*
X0502628Y0306997D01*
X0502677Y0306975D01*
X0502725Y0306950D01*
X0502771Y0306921D01*
X0502815Y0306889D01*
X0502856Y0306854D01*
X0502894Y0306816D01*
X0502930Y0306775D01*
X0502963Y0306732D01*
X0502993Y0306687D01*
X0503019Y0306639D01*
X0503042Y0306590D01*
X0503061Y0306539D01*
X0503076Y0306488D01*
X0503088Y0306435D01*
X0503096Y0306381D01*
X0503100Y0306327D01*
X0503100Y0306273D01*
X0503096Y0306219D01*
X0503088Y0306165D01*
X0503076Y0306112D01*
X0503061Y0306061D01*
X0503042Y0306010D01*
X0503019Y0305961D01*
X0502993Y0305913D01*
X0502963Y0305868D01*
X0502930Y0305825D01*
X0502894Y0305784D01*
X0502856Y0305746D01*
X0502815Y0305711D01*
X0502771Y0305679D01*
X0502725Y0305650D01*
X0502677Y0305625D01*
X0502628Y0305603D01*
X0502577Y0305585D01*
X0502524Y0305571D01*
X0502471Y0305560D01*
X0502418Y0305553D01*
X0502364Y0305550D01*
X0502309Y0305551D01*
X0502255Y0305556D01*
X0502202Y0305565D01*
X0502149Y0305577D01*
X0502098Y0305594D01*
X0502047Y0305614D01*
X0501999Y0305637D01*
X0501952Y0305664D01*
X0501907Y0305695D01*
X0501864Y0305728D01*
X0501824Y0305765D01*
X0501787Y0305804D01*
X0501753Y0305846D01*
X0501722Y0305890D01*
X0501694Y0305937D01*
X0501669Y0305985D01*
X0501648Y0306035D01*
X0501631Y0306086D01*
X0501618Y0306139D01*
X0501608Y0306192D01*
X0501602Y0306246D01*
X0501600Y0306300D01*
X0501600Y0308500D02*
X0501602Y0308554D01*
X0501608Y0308608D01*
X0501618Y0308661D01*
X0501631Y0308714D01*
X0501648Y0308765D01*
X0501669Y0308815D01*
X0501694Y0308863D01*
X0501722Y0308910D01*
X0501753Y0308954D01*
X0501787Y0308996D01*
X0501824Y0309035D01*
X0501864Y0309072D01*
X0501907Y0309105D01*
X0501952Y0309136D01*
X0501999Y0309163D01*
X0502047Y0309186D01*
X0502098Y0309206D01*
X0502149Y0309223D01*
X0502202Y0309235D01*
X0502255Y0309244D01*
X0502309Y0309249D01*
X0502364Y0309250D01*
X0502418Y0309247D01*
X0502471Y0309240D01*
X0502524Y0309229D01*
X0502577Y0309215D01*
X0502628Y0309197D01*
X0502677Y0309175D01*
X0502725Y0309150D01*
X0502771Y0309121D01*
X0502815Y0309089D01*
X0502856Y0309054D01*
X0502894Y0309016D01*
X0502930Y0308975D01*
X0502963Y0308932D01*
X0502993Y0308887D01*
X0503019Y0308839D01*
X0503042Y0308790D01*
X0503061Y0308739D01*
X0503076Y0308688D01*
X0503088Y0308635D01*
X0503096Y0308581D01*
X0503100Y0308527D01*
X0503100Y0308473D01*
X0503096Y0308419D01*
X0503088Y0308365D01*
X0503076Y0308312D01*
X0503061Y0308261D01*
X0503042Y0308210D01*
X0503019Y0308161D01*
X0502993Y0308113D01*
X0502963Y0308068D01*
X0502930Y0308025D01*
X0502894Y0307984D01*
X0502856Y0307946D01*
X0502815Y0307911D01*
X0502771Y0307879D01*
X0502725Y0307850D01*
X0502677Y0307825D01*
X0502628Y0307803D01*
X0502577Y0307785D01*
X0502524Y0307771D01*
X0502471Y0307760D01*
X0502418Y0307753D01*
X0502364Y0307750D01*
X0502309Y0307751D01*
X0502255Y0307756D01*
X0502202Y0307765D01*
X0502149Y0307777D01*
X0502098Y0307794D01*
X0502047Y0307814D01*
X0501999Y0307837D01*
X0501952Y0307864D01*
X0501907Y0307895D01*
X0501864Y0307928D01*
X0501824Y0307965D01*
X0501787Y0308004D01*
X0501753Y0308046D01*
X0501722Y0308090D01*
X0501694Y0308137D01*
X0501669Y0308185D01*
X0501648Y0308235D01*
X0501631Y0308286D01*
X0501618Y0308339D01*
X0501608Y0308392D01*
X0501602Y0308446D01*
X0501600Y0308500D01*
X0523500Y0308650D02*
X0523502Y0308704D01*
X0523508Y0308758D01*
X0523518Y0308811D01*
X0523531Y0308864D01*
X0523548Y0308915D01*
X0523569Y0308965D01*
X0523594Y0309013D01*
X0523622Y0309060D01*
X0523653Y0309104D01*
X0523687Y0309146D01*
X0523724Y0309185D01*
X0523764Y0309222D01*
X0523807Y0309255D01*
X0523852Y0309286D01*
X0523899Y0309313D01*
X0523947Y0309336D01*
X0523998Y0309356D01*
X0524049Y0309373D01*
X0524102Y0309385D01*
X0524155Y0309394D01*
X0524209Y0309399D01*
X0524264Y0309400D01*
X0524318Y0309397D01*
X0524371Y0309390D01*
X0524424Y0309379D01*
X0524477Y0309365D01*
X0524528Y0309347D01*
X0524577Y0309325D01*
X0524625Y0309300D01*
X0524671Y0309271D01*
X0524715Y0309239D01*
X0524756Y0309204D01*
X0524794Y0309166D01*
X0524830Y0309125D01*
X0524863Y0309082D01*
X0524893Y0309037D01*
X0524919Y0308989D01*
X0524942Y0308940D01*
X0524961Y0308889D01*
X0524976Y0308838D01*
X0524988Y0308785D01*
X0524996Y0308731D01*
X0525000Y0308677D01*
X0525000Y0308623D01*
X0524996Y0308569D01*
X0524988Y0308515D01*
X0524976Y0308462D01*
X0524961Y0308411D01*
X0524942Y0308360D01*
X0524919Y0308311D01*
X0524893Y0308263D01*
X0524863Y0308218D01*
X0524830Y0308175D01*
X0524794Y0308134D01*
X0524756Y0308096D01*
X0524715Y0308061D01*
X0524671Y0308029D01*
X0524625Y0308000D01*
X0524577Y0307975D01*
X0524528Y0307953D01*
X0524477Y0307935D01*
X0524424Y0307921D01*
X0524371Y0307910D01*
X0524318Y0307903D01*
X0524264Y0307900D01*
X0524209Y0307901D01*
X0524155Y0307906D01*
X0524102Y0307915D01*
X0524049Y0307927D01*
X0523998Y0307944D01*
X0523947Y0307964D01*
X0523899Y0307987D01*
X0523852Y0308014D01*
X0523807Y0308045D01*
X0523764Y0308078D01*
X0523724Y0308115D01*
X0523687Y0308154D01*
X0523653Y0308196D01*
X0523622Y0308240D01*
X0523594Y0308287D01*
X0523569Y0308335D01*
X0523548Y0308385D01*
X0523531Y0308436D01*
X0523518Y0308489D01*
X0523508Y0308542D01*
X0523502Y0308596D01*
X0523500Y0308650D01*
X0523500Y0306450D02*
X0523502Y0306504D01*
X0523508Y0306558D01*
X0523518Y0306611D01*
X0523531Y0306664D01*
X0523548Y0306715D01*
X0523569Y0306765D01*
X0523594Y0306813D01*
X0523622Y0306860D01*
X0523653Y0306904D01*
X0523687Y0306946D01*
X0523724Y0306985D01*
X0523764Y0307022D01*
X0523807Y0307055D01*
X0523852Y0307086D01*
X0523899Y0307113D01*
X0523947Y0307136D01*
X0523998Y0307156D01*
X0524049Y0307173D01*
X0524102Y0307185D01*
X0524155Y0307194D01*
X0524209Y0307199D01*
X0524264Y0307200D01*
X0524318Y0307197D01*
X0524371Y0307190D01*
X0524424Y0307179D01*
X0524477Y0307165D01*
X0524528Y0307147D01*
X0524577Y0307125D01*
X0524625Y0307100D01*
X0524671Y0307071D01*
X0524715Y0307039D01*
X0524756Y0307004D01*
X0524794Y0306966D01*
X0524830Y0306925D01*
X0524863Y0306882D01*
X0524893Y0306837D01*
X0524919Y0306789D01*
X0524942Y0306740D01*
X0524961Y0306689D01*
X0524976Y0306638D01*
X0524988Y0306585D01*
X0524996Y0306531D01*
X0525000Y0306477D01*
X0525000Y0306423D01*
X0524996Y0306369D01*
X0524988Y0306315D01*
X0524976Y0306262D01*
X0524961Y0306211D01*
X0524942Y0306160D01*
X0524919Y0306111D01*
X0524893Y0306063D01*
X0524863Y0306018D01*
X0524830Y0305975D01*
X0524794Y0305934D01*
X0524756Y0305896D01*
X0524715Y0305861D01*
X0524671Y0305829D01*
X0524625Y0305800D01*
X0524577Y0305775D01*
X0524528Y0305753D01*
X0524477Y0305735D01*
X0524424Y0305721D01*
X0524371Y0305710D01*
X0524318Y0305703D01*
X0524264Y0305700D01*
X0524209Y0305701D01*
X0524155Y0305706D01*
X0524102Y0305715D01*
X0524049Y0305727D01*
X0523998Y0305744D01*
X0523947Y0305764D01*
X0523899Y0305787D01*
X0523852Y0305814D01*
X0523807Y0305845D01*
X0523764Y0305878D01*
X0523724Y0305915D01*
X0523687Y0305954D01*
X0523653Y0305996D01*
X0523622Y0306040D01*
X0523594Y0306087D01*
X0523569Y0306135D01*
X0523548Y0306185D01*
X0523531Y0306236D01*
X0523518Y0306289D01*
X0523508Y0306342D01*
X0523502Y0306396D01*
X0523500Y0306450D01*
X0523500Y0304150D02*
X0523502Y0304204D01*
X0523508Y0304258D01*
X0523518Y0304311D01*
X0523531Y0304364D01*
X0523548Y0304415D01*
X0523569Y0304465D01*
X0523594Y0304513D01*
X0523622Y0304560D01*
X0523653Y0304604D01*
X0523687Y0304646D01*
X0523724Y0304685D01*
X0523764Y0304722D01*
X0523807Y0304755D01*
X0523852Y0304786D01*
X0523899Y0304813D01*
X0523947Y0304836D01*
X0523998Y0304856D01*
X0524049Y0304873D01*
X0524102Y0304885D01*
X0524155Y0304894D01*
X0524209Y0304899D01*
X0524264Y0304900D01*
X0524318Y0304897D01*
X0524371Y0304890D01*
X0524424Y0304879D01*
X0524477Y0304865D01*
X0524528Y0304847D01*
X0524577Y0304825D01*
X0524625Y0304800D01*
X0524671Y0304771D01*
X0524715Y0304739D01*
X0524756Y0304704D01*
X0524794Y0304666D01*
X0524830Y0304625D01*
X0524863Y0304582D01*
X0524893Y0304537D01*
X0524919Y0304489D01*
X0524942Y0304440D01*
X0524961Y0304389D01*
X0524976Y0304338D01*
X0524988Y0304285D01*
X0524996Y0304231D01*
X0525000Y0304177D01*
X0525000Y0304123D01*
X0524996Y0304069D01*
X0524988Y0304015D01*
X0524976Y0303962D01*
X0524961Y0303911D01*
X0524942Y0303860D01*
X0524919Y0303811D01*
X0524893Y0303763D01*
X0524863Y0303718D01*
X0524830Y0303675D01*
X0524794Y0303634D01*
X0524756Y0303596D01*
X0524715Y0303561D01*
X0524671Y0303529D01*
X0524625Y0303500D01*
X0524577Y0303475D01*
X0524528Y0303453D01*
X0524477Y0303435D01*
X0524424Y0303421D01*
X0524371Y0303410D01*
X0524318Y0303403D01*
X0524264Y0303400D01*
X0524209Y0303401D01*
X0524155Y0303406D01*
X0524102Y0303415D01*
X0524049Y0303427D01*
X0523998Y0303444D01*
X0523947Y0303464D01*
X0523899Y0303487D01*
X0523852Y0303514D01*
X0523807Y0303545D01*
X0523764Y0303578D01*
X0523724Y0303615D01*
X0523687Y0303654D01*
X0523653Y0303696D01*
X0523622Y0303740D01*
X0523594Y0303787D01*
X0523569Y0303835D01*
X0523548Y0303885D01*
X0523531Y0303936D01*
X0523518Y0303989D01*
X0523508Y0304042D01*
X0523502Y0304096D01*
X0523500Y0304150D01*
X0530250Y0304050D02*
X0530252Y0304104D01*
X0530258Y0304158D01*
X0530268Y0304211D01*
X0530281Y0304264D01*
X0530298Y0304315D01*
X0530319Y0304365D01*
X0530344Y0304413D01*
X0530372Y0304460D01*
X0530403Y0304504D01*
X0530437Y0304546D01*
X0530474Y0304585D01*
X0530514Y0304622D01*
X0530557Y0304655D01*
X0530602Y0304686D01*
X0530649Y0304713D01*
X0530697Y0304736D01*
X0530748Y0304756D01*
X0530799Y0304773D01*
X0530852Y0304785D01*
X0530905Y0304794D01*
X0530959Y0304799D01*
X0531014Y0304800D01*
X0531068Y0304797D01*
X0531121Y0304790D01*
X0531174Y0304779D01*
X0531227Y0304765D01*
X0531278Y0304747D01*
X0531327Y0304725D01*
X0531375Y0304700D01*
X0531421Y0304671D01*
X0531465Y0304639D01*
X0531506Y0304604D01*
X0531544Y0304566D01*
X0531580Y0304525D01*
X0531613Y0304482D01*
X0531643Y0304437D01*
X0531669Y0304389D01*
X0531692Y0304340D01*
X0531711Y0304289D01*
X0531726Y0304238D01*
X0531738Y0304185D01*
X0531746Y0304131D01*
X0531750Y0304077D01*
X0531750Y0304023D01*
X0531746Y0303969D01*
X0531738Y0303915D01*
X0531726Y0303862D01*
X0531711Y0303811D01*
X0531692Y0303760D01*
X0531669Y0303711D01*
X0531643Y0303663D01*
X0531613Y0303618D01*
X0531580Y0303575D01*
X0531544Y0303534D01*
X0531506Y0303496D01*
X0531465Y0303461D01*
X0531421Y0303429D01*
X0531375Y0303400D01*
X0531327Y0303375D01*
X0531278Y0303353D01*
X0531227Y0303335D01*
X0531174Y0303321D01*
X0531121Y0303310D01*
X0531068Y0303303D01*
X0531014Y0303300D01*
X0530959Y0303301D01*
X0530905Y0303306D01*
X0530852Y0303315D01*
X0530799Y0303327D01*
X0530748Y0303344D01*
X0530697Y0303364D01*
X0530649Y0303387D01*
X0530602Y0303414D01*
X0530557Y0303445D01*
X0530514Y0303478D01*
X0530474Y0303515D01*
X0530437Y0303554D01*
X0530403Y0303596D01*
X0530372Y0303640D01*
X0530344Y0303687D01*
X0530319Y0303735D01*
X0530298Y0303785D01*
X0530281Y0303836D01*
X0530268Y0303889D01*
X0530258Y0303942D01*
X0530252Y0303996D01*
X0530250Y0304050D01*
X0530250Y0306350D02*
X0530252Y0306404D01*
X0530258Y0306458D01*
X0530268Y0306511D01*
X0530281Y0306564D01*
X0530298Y0306615D01*
X0530319Y0306665D01*
X0530344Y0306713D01*
X0530372Y0306760D01*
X0530403Y0306804D01*
X0530437Y0306846D01*
X0530474Y0306885D01*
X0530514Y0306922D01*
X0530557Y0306955D01*
X0530602Y0306986D01*
X0530649Y0307013D01*
X0530697Y0307036D01*
X0530748Y0307056D01*
X0530799Y0307073D01*
X0530852Y0307085D01*
X0530905Y0307094D01*
X0530959Y0307099D01*
X0531014Y0307100D01*
X0531068Y0307097D01*
X0531121Y0307090D01*
X0531174Y0307079D01*
X0531227Y0307065D01*
X0531278Y0307047D01*
X0531327Y0307025D01*
X0531375Y0307000D01*
X0531421Y0306971D01*
X0531465Y0306939D01*
X0531506Y0306904D01*
X0531544Y0306866D01*
X0531580Y0306825D01*
X0531613Y0306782D01*
X0531643Y0306737D01*
X0531669Y0306689D01*
X0531692Y0306640D01*
X0531711Y0306589D01*
X0531726Y0306538D01*
X0531738Y0306485D01*
X0531746Y0306431D01*
X0531750Y0306377D01*
X0531750Y0306323D01*
X0531746Y0306269D01*
X0531738Y0306215D01*
X0531726Y0306162D01*
X0531711Y0306111D01*
X0531692Y0306060D01*
X0531669Y0306011D01*
X0531643Y0305963D01*
X0531613Y0305918D01*
X0531580Y0305875D01*
X0531544Y0305834D01*
X0531506Y0305796D01*
X0531465Y0305761D01*
X0531421Y0305729D01*
X0531375Y0305700D01*
X0531327Y0305675D01*
X0531278Y0305653D01*
X0531227Y0305635D01*
X0531174Y0305621D01*
X0531121Y0305610D01*
X0531068Y0305603D01*
X0531014Y0305600D01*
X0530959Y0305601D01*
X0530905Y0305606D01*
X0530852Y0305615D01*
X0530799Y0305627D01*
X0530748Y0305644D01*
X0530697Y0305664D01*
X0530649Y0305687D01*
X0530602Y0305714D01*
X0530557Y0305745D01*
X0530514Y0305778D01*
X0530474Y0305815D01*
X0530437Y0305854D01*
X0530403Y0305896D01*
X0530372Y0305940D01*
X0530344Y0305987D01*
X0530319Y0306035D01*
X0530298Y0306085D01*
X0530281Y0306136D01*
X0530268Y0306189D01*
X0530258Y0306242D01*
X0530252Y0306296D01*
X0530250Y0306350D01*
X0530250Y0308550D02*
X0530252Y0308604D01*
X0530258Y0308658D01*
X0530268Y0308711D01*
X0530281Y0308764D01*
X0530298Y0308815D01*
X0530319Y0308865D01*
X0530344Y0308913D01*
X0530372Y0308960D01*
X0530403Y0309004D01*
X0530437Y0309046D01*
X0530474Y0309085D01*
X0530514Y0309122D01*
X0530557Y0309155D01*
X0530602Y0309186D01*
X0530649Y0309213D01*
X0530697Y0309236D01*
X0530748Y0309256D01*
X0530799Y0309273D01*
X0530852Y0309285D01*
X0530905Y0309294D01*
X0530959Y0309299D01*
X0531014Y0309300D01*
X0531068Y0309297D01*
X0531121Y0309290D01*
X0531174Y0309279D01*
X0531227Y0309265D01*
X0531278Y0309247D01*
X0531327Y0309225D01*
X0531375Y0309200D01*
X0531421Y0309171D01*
X0531465Y0309139D01*
X0531506Y0309104D01*
X0531544Y0309066D01*
X0531580Y0309025D01*
X0531613Y0308982D01*
X0531643Y0308937D01*
X0531669Y0308889D01*
X0531692Y0308840D01*
X0531711Y0308789D01*
X0531726Y0308738D01*
X0531738Y0308685D01*
X0531746Y0308631D01*
X0531750Y0308577D01*
X0531750Y0308523D01*
X0531746Y0308469D01*
X0531738Y0308415D01*
X0531726Y0308362D01*
X0531711Y0308311D01*
X0531692Y0308260D01*
X0531669Y0308211D01*
X0531643Y0308163D01*
X0531613Y0308118D01*
X0531580Y0308075D01*
X0531544Y0308034D01*
X0531506Y0307996D01*
X0531465Y0307961D01*
X0531421Y0307929D01*
X0531375Y0307900D01*
X0531327Y0307875D01*
X0531278Y0307853D01*
X0531227Y0307835D01*
X0531174Y0307821D01*
X0531121Y0307810D01*
X0531068Y0307803D01*
X0531014Y0307800D01*
X0530959Y0307801D01*
X0530905Y0307806D01*
X0530852Y0307815D01*
X0530799Y0307827D01*
X0530748Y0307844D01*
X0530697Y0307864D01*
X0530649Y0307887D01*
X0530602Y0307914D01*
X0530557Y0307945D01*
X0530514Y0307978D01*
X0530474Y0308015D01*
X0530437Y0308054D01*
X0530403Y0308096D01*
X0530372Y0308140D01*
X0530344Y0308187D01*
X0530319Y0308235D01*
X0530298Y0308285D01*
X0530281Y0308336D01*
X0530268Y0308389D01*
X0530258Y0308442D01*
X0530252Y0308496D01*
X0530250Y0308550D01*
X0275300Y0534800D02*
X0275302Y0534854D01*
X0275308Y0534908D01*
X0275318Y0534961D01*
X0275331Y0535014D01*
X0275348Y0535065D01*
X0275369Y0535115D01*
X0275394Y0535163D01*
X0275422Y0535210D01*
X0275453Y0535254D01*
X0275487Y0535296D01*
X0275524Y0535335D01*
X0275564Y0535372D01*
X0275607Y0535405D01*
X0275652Y0535436D01*
X0275699Y0535463D01*
X0275747Y0535486D01*
X0275798Y0535506D01*
X0275849Y0535523D01*
X0275902Y0535535D01*
X0275955Y0535544D01*
X0276009Y0535549D01*
X0276064Y0535550D01*
X0276118Y0535547D01*
X0276171Y0535540D01*
X0276224Y0535529D01*
X0276277Y0535515D01*
X0276328Y0535497D01*
X0276377Y0535475D01*
X0276425Y0535450D01*
X0276471Y0535421D01*
X0276515Y0535389D01*
X0276556Y0535354D01*
X0276594Y0535316D01*
X0276630Y0535275D01*
X0276663Y0535232D01*
X0276693Y0535187D01*
X0276719Y0535139D01*
X0276742Y0535090D01*
X0276761Y0535039D01*
X0276776Y0534988D01*
X0276788Y0534935D01*
X0276796Y0534881D01*
X0276800Y0534827D01*
X0276800Y0534773D01*
X0276796Y0534719D01*
X0276788Y0534665D01*
X0276776Y0534612D01*
X0276761Y0534561D01*
X0276742Y0534510D01*
X0276719Y0534461D01*
X0276693Y0534413D01*
X0276663Y0534368D01*
X0276630Y0534325D01*
X0276594Y0534284D01*
X0276556Y0534246D01*
X0276515Y0534211D01*
X0276471Y0534179D01*
X0276425Y0534150D01*
X0276377Y0534125D01*
X0276328Y0534103D01*
X0276277Y0534085D01*
X0276224Y0534071D01*
X0276171Y0534060D01*
X0276118Y0534053D01*
X0276064Y0534050D01*
X0276009Y0534051D01*
X0275955Y0534056D01*
X0275902Y0534065D01*
X0275849Y0534077D01*
X0275798Y0534094D01*
X0275747Y0534114D01*
X0275699Y0534137D01*
X0275652Y0534164D01*
X0275607Y0534195D01*
X0275564Y0534228D01*
X0275524Y0534265D01*
X0275487Y0534304D01*
X0275453Y0534346D01*
X0275422Y0534390D01*
X0275394Y0534437D01*
X0275369Y0534485D01*
X0275348Y0534535D01*
X0275331Y0534586D01*
X0275318Y0534639D01*
X0275308Y0534692D01*
X0275302Y0534746D01*
X0275300Y0534800D01*
X0273000Y0534800D02*
X0273002Y0534854D01*
X0273008Y0534908D01*
X0273018Y0534961D01*
X0273031Y0535014D01*
X0273048Y0535065D01*
X0273069Y0535115D01*
X0273094Y0535163D01*
X0273122Y0535210D01*
X0273153Y0535254D01*
X0273187Y0535296D01*
X0273224Y0535335D01*
X0273264Y0535372D01*
X0273307Y0535405D01*
X0273352Y0535436D01*
X0273399Y0535463D01*
X0273447Y0535486D01*
X0273498Y0535506D01*
X0273549Y0535523D01*
X0273602Y0535535D01*
X0273655Y0535544D01*
X0273709Y0535549D01*
X0273764Y0535550D01*
X0273818Y0535547D01*
X0273871Y0535540D01*
X0273924Y0535529D01*
X0273977Y0535515D01*
X0274028Y0535497D01*
X0274077Y0535475D01*
X0274125Y0535450D01*
X0274171Y0535421D01*
X0274215Y0535389D01*
X0274256Y0535354D01*
X0274294Y0535316D01*
X0274330Y0535275D01*
X0274363Y0535232D01*
X0274393Y0535187D01*
X0274419Y0535139D01*
X0274442Y0535090D01*
X0274461Y0535039D01*
X0274476Y0534988D01*
X0274488Y0534935D01*
X0274496Y0534881D01*
X0274500Y0534827D01*
X0274500Y0534773D01*
X0274496Y0534719D01*
X0274488Y0534665D01*
X0274476Y0534612D01*
X0274461Y0534561D01*
X0274442Y0534510D01*
X0274419Y0534461D01*
X0274393Y0534413D01*
X0274363Y0534368D01*
X0274330Y0534325D01*
X0274294Y0534284D01*
X0274256Y0534246D01*
X0274215Y0534211D01*
X0274171Y0534179D01*
X0274125Y0534150D01*
X0274077Y0534125D01*
X0274028Y0534103D01*
X0273977Y0534085D01*
X0273924Y0534071D01*
X0273871Y0534060D01*
X0273818Y0534053D01*
X0273764Y0534050D01*
X0273709Y0534051D01*
X0273655Y0534056D01*
X0273602Y0534065D01*
X0273549Y0534077D01*
X0273498Y0534094D01*
X0273447Y0534114D01*
X0273399Y0534137D01*
X0273352Y0534164D01*
X0273307Y0534195D01*
X0273264Y0534228D01*
X0273224Y0534265D01*
X0273187Y0534304D01*
X0273153Y0534346D01*
X0273122Y0534390D01*
X0273094Y0534437D01*
X0273069Y0534485D01*
X0273048Y0534535D01*
X0273031Y0534586D01*
X0273018Y0534639D01*
X0273008Y0534692D01*
X0273002Y0534746D01*
X0273000Y0534800D01*
X0270800Y0534800D02*
X0270802Y0534854D01*
X0270808Y0534908D01*
X0270818Y0534961D01*
X0270831Y0535014D01*
X0270848Y0535065D01*
X0270869Y0535115D01*
X0270894Y0535163D01*
X0270922Y0535210D01*
X0270953Y0535254D01*
X0270987Y0535296D01*
X0271024Y0535335D01*
X0271064Y0535372D01*
X0271107Y0535405D01*
X0271152Y0535436D01*
X0271199Y0535463D01*
X0271247Y0535486D01*
X0271298Y0535506D01*
X0271349Y0535523D01*
X0271402Y0535535D01*
X0271455Y0535544D01*
X0271509Y0535549D01*
X0271564Y0535550D01*
X0271618Y0535547D01*
X0271671Y0535540D01*
X0271724Y0535529D01*
X0271777Y0535515D01*
X0271828Y0535497D01*
X0271877Y0535475D01*
X0271925Y0535450D01*
X0271971Y0535421D01*
X0272015Y0535389D01*
X0272056Y0535354D01*
X0272094Y0535316D01*
X0272130Y0535275D01*
X0272163Y0535232D01*
X0272193Y0535187D01*
X0272219Y0535139D01*
X0272242Y0535090D01*
X0272261Y0535039D01*
X0272276Y0534988D01*
X0272288Y0534935D01*
X0272296Y0534881D01*
X0272300Y0534827D01*
X0272300Y0534773D01*
X0272296Y0534719D01*
X0272288Y0534665D01*
X0272276Y0534612D01*
X0272261Y0534561D01*
X0272242Y0534510D01*
X0272219Y0534461D01*
X0272193Y0534413D01*
X0272163Y0534368D01*
X0272130Y0534325D01*
X0272094Y0534284D01*
X0272056Y0534246D01*
X0272015Y0534211D01*
X0271971Y0534179D01*
X0271925Y0534150D01*
X0271877Y0534125D01*
X0271828Y0534103D01*
X0271777Y0534085D01*
X0271724Y0534071D01*
X0271671Y0534060D01*
X0271618Y0534053D01*
X0271564Y0534050D01*
X0271509Y0534051D01*
X0271455Y0534056D01*
X0271402Y0534065D01*
X0271349Y0534077D01*
X0271298Y0534094D01*
X0271247Y0534114D01*
X0271199Y0534137D01*
X0271152Y0534164D01*
X0271107Y0534195D01*
X0271064Y0534228D01*
X0271024Y0534265D01*
X0270987Y0534304D01*
X0270953Y0534346D01*
X0270922Y0534390D01*
X0270894Y0534437D01*
X0270869Y0534485D01*
X0270848Y0534535D01*
X0270831Y0534586D01*
X0270818Y0534639D01*
X0270808Y0534692D01*
X0270802Y0534746D01*
X0270800Y0534800D01*
X0270800Y0556700D02*
X0270802Y0556754D01*
X0270808Y0556808D01*
X0270818Y0556861D01*
X0270831Y0556914D01*
X0270848Y0556965D01*
X0270869Y0557015D01*
X0270894Y0557063D01*
X0270922Y0557110D01*
X0270953Y0557154D01*
X0270987Y0557196D01*
X0271024Y0557235D01*
X0271064Y0557272D01*
X0271107Y0557305D01*
X0271152Y0557336D01*
X0271199Y0557363D01*
X0271247Y0557386D01*
X0271298Y0557406D01*
X0271349Y0557423D01*
X0271402Y0557435D01*
X0271455Y0557444D01*
X0271509Y0557449D01*
X0271564Y0557450D01*
X0271618Y0557447D01*
X0271671Y0557440D01*
X0271724Y0557429D01*
X0271777Y0557415D01*
X0271828Y0557397D01*
X0271877Y0557375D01*
X0271925Y0557350D01*
X0271971Y0557321D01*
X0272015Y0557289D01*
X0272056Y0557254D01*
X0272094Y0557216D01*
X0272130Y0557175D01*
X0272163Y0557132D01*
X0272193Y0557087D01*
X0272219Y0557039D01*
X0272242Y0556990D01*
X0272261Y0556939D01*
X0272276Y0556888D01*
X0272288Y0556835D01*
X0272296Y0556781D01*
X0272300Y0556727D01*
X0272300Y0556673D01*
X0272296Y0556619D01*
X0272288Y0556565D01*
X0272276Y0556512D01*
X0272261Y0556461D01*
X0272242Y0556410D01*
X0272219Y0556361D01*
X0272193Y0556313D01*
X0272163Y0556268D01*
X0272130Y0556225D01*
X0272094Y0556184D01*
X0272056Y0556146D01*
X0272015Y0556111D01*
X0271971Y0556079D01*
X0271925Y0556050D01*
X0271877Y0556025D01*
X0271828Y0556003D01*
X0271777Y0555985D01*
X0271724Y0555971D01*
X0271671Y0555960D01*
X0271618Y0555953D01*
X0271564Y0555950D01*
X0271509Y0555951D01*
X0271455Y0555956D01*
X0271402Y0555965D01*
X0271349Y0555977D01*
X0271298Y0555994D01*
X0271247Y0556014D01*
X0271199Y0556037D01*
X0271152Y0556064D01*
X0271107Y0556095D01*
X0271064Y0556128D01*
X0271024Y0556165D01*
X0270987Y0556204D01*
X0270953Y0556246D01*
X0270922Y0556290D01*
X0270894Y0556337D01*
X0270869Y0556385D01*
X0270848Y0556435D01*
X0270831Y0556486D01*
X0270818Y0556539D01*
X0270808Y0556592D01*
X0270802Y0556646D01*
X0270800Y0556700D01*
X0273000Y0556700D02*
X0273002Y0556754D01*
X0273008Y0556808D01*
X0273018Y0556861D01*
X0273031Y0556914D01*
X0273048Y0556965D01*
X0273069Y0557015D01*
X0273094Y0557063D01*
X0273122Y0557110D01*
X0273153Y0557154D01*
X0273187Y0557196D01*
X0273224Y0557235D01*
X0273264Y0557272D01*
X0273307Y0557305D01*
X0273352Y0557336D01*
X0273399Y0557363D01*
X0273447Y0557386D01*
X0273498Y0557406D01*
X0273549Y0557423D01*
X0273602Y0557435D01*
X0273655Y0557444D01*
X0273709Y0557449D01*
X0273764Y0557450D01*
X0273818Y0557447D01*
X0273871Y0557440D01*
X0273924Y0557429D01*
X0273977Y0557415D01*
X0274028Y0557397D01*
X0274077Y0557375D01*
X0274125Y0557350D01*
X0274171Y0557321D01*
X0274215Y0557289D01*
X0274256Y0557254D01*
X0274294Y0557216D01*
X0274330Y0557175D01*
X0274363Y0557132D01*
X0274393Y0557087D01*
X0274419Y0557039D01*
X0274442Y0556990D01*
X0274461Y0556939D01*
X0274476Y0556888D01*
X0274488Y0556835D01*
X0274496Y0556781D01*
X0274500Y0556727D01*
X0274500Y0556673D01*
X0274496Y0556619D01*
X0274488Y0556565D01*
X0274476Y0556512D01*
X0274461Y0556461D01*
X0274442Y0556410D01*
X0274419Y0556361D01*
X0274393Y0556313D01*
X0274363Y0556268D01*
X0274330Y0556225D01*
X0274294Y0556184D01*
X0274256Y0556146D01*
X0274215Y0556111D01*
X0274171Y0556079D01*
X0274125Y0556050D01*
X0274077Y0556025D01*
X0274028Y0556003D01*
X0273977Y0555985D01*
X0273924Y0555971D01*
X0273871Y0555960D01*
X0273818Y0555953D01*
X0273764Y0555950D01*
X0273709Y0555951D01*
X0273655Y0555956D01*
X0273602Y0555965D01*
X0273549Y0555977D01*
X0273498Y0555994D01*
X0273447Y0556014D01*
X0273399Y0556037D01*
X0273352Y0556064D01*
X0273307Y0556095D01*
X0273264Y0556128D01*
X0273224Y0556165D01*
X0273187Y0556204D01*
X0273153Y0556246D01*
X0273122Y0556290D01*
X0273094Y0556337D01*
X0273069Y0556385D01*
X0273048Y0556435D01*
X0273031Y0556486D01*
X0273018Y0556539D01*
X0273008Y0556592D01*
X0273002Y0556646D01*
X0273000Y0556700D01*
X0275300Y0556700D02*
X0275302Y0556754D01*
X0275308Y0556808D01*
X0275318Y0556861D01*
X0275331Y0556914D01*
X0275348Y0556965D01*
X0275369Y0557015D01*
X0275394Y0557063D01*
X0275422Y0557110D01*
X0275453Y0557154D01*
X0275487Y0557196D01*
X0275524Y0557235D01*
X0275564Y0557272D01*
X0275607Y0557305D01*
X0275652Y0557336D01*
X0275699Y0557363D01*
X0275747Y0557386D01*
X0275798Y0557406D01*
X0275849Y0557423D01*
X0275902Y0557435D01*
X0275955Y0557444D01*
X0276009Y0557449D01*
X0276064Y0557450D01*
X0276118Y0557447D01*
X0276171Y0557440D01*
X0276224Y0557429D01*
X0276277Y0557415D01*
X0276328Y0557397D01*
X0276377Y0557375D01*
X0276425Y0557350D01*
X0276471Y0557321D01*
X0276515Y0557289D01*
X0276556Y0557254D01*
X0276594Y0557216D01*
X0276630Y0557175D01*
X0276663Y0557132D01*
X0276693Y0557087D01*
X0276719Y0557039D01*
X0276742Y0556990D01*
X0276761Y0556939D01*
X0276776Y0556888D01*
X0276788Y0556835D01*
X0276796Y0556781D01*
X0276800Y0556727D01*
X0276800Y0556673D01*
X0276796Y0556619D01*
X0276788Y0556565D01*
X0276776Y0556512D01*
X0276761Y0556461D01*
X0276742Y0556410D01*
X0276719Y0556361D01*
X0276693Y0556313D01*
X0276663Y0556268D01*
X0276630Y0556225D01*
X0276594Y0556184D01*
X0276556Y0556146D01*
X0276515Y0556111D01*
X0276471Y0556079D01*
X0276425Y0556050D01*
X0276377Y0556025D01*
X0276328Y0556003D01*
X0276277Y0555985D01*
X0276224Y0555971D01*
X0276171Y0555960D01*
X0276118Y0555953D01*
X0276064Y0555950D01*
X0276009Y0555951D01*
X0275955Y0555956D01*
X0275902Y0555965D01*
X0275849Y0555977D01*
X0275798Y0555994D01*
X0275747Y0556014D01*
X0275699Y0556037D01*
X0275652Y0556064D01*
X0275607Y0556095D01*
X0275564Y0556128D01*
X0275524Y0556165D01*
X0275487Y0556204D01*
X0275453Y0556246D01*
X0275422Y0556290D01*
X0275394Y0556337D01*
X0275369Y0556385D01*
X0275348Y0556435D01*
X0275331Y0556486D01*
X0275318Y0556539D01*
X0275308Y0556592D01*
X0275302Y0556646D01*
X0275300Y0556700D01*
X0275250Y0563550D02*
X0275252Y0563604D01*
X0275258Y0563658D01*
X0275268Y0563711D01*
X0275281Y0563764D01*
X0275298Y0563815D01*
X0275319Y0563865D01*
X0275344Y0563913D01*
X0275372Y0563960D01*
X0275403Y0564004D01*
X0275437Y0564046D01*
X0275474Y0564085D01*
X0275514Y0564122D01*
X0275557Y0564155D01*
X0275602Y0564186D01*
X0275649Y0564213D01*
X0275697Y0564236D01*
X0275748Y0564256D01*
X0275799Y0564273D01*
X0275852Y0564285D01*
X0275905Y0564294D01*
X0275959Y0564299D01*
X0276014Y0564300D01*
X0276068Y0564297D01*
X0276121Y0564290D01*
X0276174Y0564279D01*
X0276227Y0564265D01*
X0276278Y0564247D01*
X0276327Y0564225D01*
X0276375Y0564200D01*
X0276421Y0564171D01*
X0276465Y0564139D01*
X0276506Y0564104D01*
X0276544Y0564066D01*
X0276580Y0564025D01*
X0276613Y0563982D01*
X0276643Y0563937D01*
X0276669Y0563889D01*
X0276692Y0563840D01*
X0276711Y0563789D01*
X0276726Y0563738D01*
X0276738Y0563685D01*
X0276746Y0563631D01*
X0276750Y0563577D01*
X0276750Y0563523D01*
X0276746Y0563469D01*
X0276738Y0563415D01*
X0276726Y0563362D01*
X0276711Y0563311D01*
X0276692Y0563260D01*
X0276669Y0563211D01*
X0276643Y0563163D01*
X0276613Y0563118D01*
X0276580Y0563075D01*
X0276544Y0563034D01*
X0276506Y0562996D01*
X0276465Y0562961D01*
X0276421Y0562929D01*
X0276375Y0562900D01*
X0276327Y0562875D01*
X0276278Y0562853D01*
X0276227Y0562835D01*
X0276174Y0562821D01*
X0276121Y0562810D01*
X0276068Y0562803D01*
X0276014Y0562800D01*
X0275959Y0562801D01*
X0275905Y0562806D01*
X0275852Y0562815D01*
X0275799Y0562827D01*
X0275748Y0562844D01*
X0275697Y0562864D01*
X0275649Y0562887D01*
X0275602Y0562914D01*
X0275557Y0562945D01*
X0275514Y0562978D01*
X0275474Y0563015D01*
X0275437Y0563054D01*
X0275403Y0563096D01*
X0275372Y0563140D01*
X0275344Y0563187D01*
X0275319Y0563235D01*
X0275298Y0563285D01*
X0275281Y0563336D01*
X0275268Y0563389D01*
X0275258Y0563442D01*
X0275252Y0563496D01*
X0275250Y0563550D01*
X0272950Y0563550D02*
X0272952Y0563604D01*
X0272958Y0563658D01*
X0272968Y0563711D01*
X0272981Y0563764D01*
X0272998Y0563815D01*
X0273019Y0563865D01*
X0273044Y0563913D01*
X0273072Y0563960D01*
X0273103Y0564004D01*
X0273137Y0564046D01*
X0273174Y0564085D01*
X0273214Y0564122D01*
X0273257Y0564155D01*
X0273302Y0564186D01*
X0273349Y0564213D01*
X0273397Y0564236D01*
X0273448Y0564256D01*
X0273499Y0564273D01*
X0273552Y0564285D01*
X0273605Y0564294D01*
X0273659Y0564299D01*
X0273714Y0564300D01*
X0273768Y0564297D01*
X0273821Y0564290D01*
X0273874Y0564279D01*
X0273927Y0564265D01*
X0273978Y0564247D01*
X0274027Y0564225D01*
X0274075Y0564200D01*
X0274121Y0564171D01*
X0274165Y0564139D01*
X0274206Y0564104D01*
X0274244Y0564066D01*
X0274280Y0564025D01*
X0274313Y0563982D01*
X0274343Y0563937D01*
X0274369Y0563889D01*
X0274392Y0563840D01*
X0274411Y0563789D01*
X0274426Y0563738D01*
X0274438Y0563685D01*
X0274446Y0563631D01*
X0274450Y0563577D01*
X0274450Y0563523D01*
X0274446Y0563469D01*
X0274438Y0563415D01*
X0274426Y0563362D01*
X0274411Y0563311D01*
X0274392Y0563260D01*
X0274369Y0563211D01*
X0274343Y0563163D01*
X0274313Y0563118D01*
X0274280Y0563075D01*
X0274244Y0563034D01*
X0274206Y0562996D01*
X0274165Y0562961D01*
X0274121Y0562929D01*
X0274075Y0562900D01*
X0274027Y0562875D01*
X0273978Y0562853D01*
X0273927Y0562835D01*
X0273874Y0562821D01*
X0273821Y0562810D01*
X0273768Y0562803D01*
X0273714Y0562800D01*
X0273659Y0562801D01*
X0273605Y0562806D01*
X0273552Y0562815D01*
X0273499Y0562827D01*
X0273448Y0562844D01*
X0273397Y0562864D01*
X0273349Y0562887D01*
X0273302Y0562914D01*
X0273257Y0562945D01*
X0273214Y0562978D01*
X0273174Y0563015D01*
X0273137Y0563054D01*
X0273103Y0563096D01*
X0273072Y0563140D01*
X0273044Y0563187D01*
X0273019Y0563235D01*
X0272998Y0563285D01*
X0272981Y0563336D01*
X0272968Y0563389D01*
X0272958Y0563442D01*
X0272952Y0563496D01*
X0272950Y0563550D01*
X0270750Y0563550D02*
X0270752Y0563604D01*
X0270758Y0563658D01*
X0270768Y0563711D01*
X0270781Y0563764D01*
X0270798Y0563815D01*
X0270819Y0563865D01*
X0270844Y0563913D01*
X0270872Y0563960D01*
X0270903Y0564004D01*
X0270937Y0564046D01*
X0270974Y0564085D01*
X0271014Y0564122D01*
X0271057Y0564155D01*
X0271102Y0564186D01*
X0271149Y0564213D01*
X0271197Y0564236D01*
X0271248Y0564256D01*
X0271299Y0564273D01*
X0271352Y0564285D01*
X0271405Y0564294D01*
X0271459Y0564299D01*
X0271514Y0564300D01*
X0271568Y0564297D01*
X0271621Y0564290D01*
X0271674Y0564279D01*
X0271727Y0564265D01*
X0271778Y0564247D01*
X0271827Y0564225D01*
X0271875Y0564200D01*
X0271921Y0564171D01*
X0271965Y0564139D01*
X0272006Y0564104D01*
X0272044Y0564066D01*
X0272080Y0564025D01*
X0272113Y0563982D01*
X0272143Y0563937D01*
X0272169Y0563889D01*
X0272192Y0563840D01*
X0272211Y0563789D01*
X0272226Y0563738D01*
X0272238Y0563685D01*
X0272246Y0563631D01*
X0272250Y0563577D01*
X0272250Y0563523D01*
X0272246Y0563469D01*
X0272238Y0563415D01*
X0272226Y0563362D01*
X0272211Y0563311D01*
X0272192Y0563260D01*
X0272169Y0563211D01*
X0272143Y0563163D01*
X0272113Y0563118D01*
X0272080Y0563075D01*
X0272044Y0563034D01*
X0272006Y0562996D01*
X0271965Y0562961D01*
X0271921Y0562929D01*
X0271875Y0562900D01*
X0271827Y0562875D01*
X0271778Y0562853D01*
X0271727Y0562835D01*
X0271674Y0562821D01*
X0271621Y0562810D01*
X0271568Y0562803D01*
X0271514Y0562800D01*
X0271459Y0562801D01*
X0271405Y0562806D01*
X0271352Y0562815D01*
X0271299Y0562827D01*
X0271248Y0562844D01*
X0271197Y0562864D01*
X0271149Y0562887D01*
X0271102Y0562914D01*
X0271057Y0562945D01*
X0271014Y0562978D01*
X0270974Y0563015D01*
X0270937Y0563054D01*
X0270903Y0563096D01*
X0270872Y0563140D01*
X0270844Y0563187D01*
X0270819Y0563235D01*
X0270798Y0563285D01*
X0270781Y0563336D01*
X0270768Y0563389D01*
X0270758Y0563442D01*
X0270752Y0563496D01*
X0270750Y0563550D01*
M02*
