G75*
%MOIN*%
%OFA0B0*%
%FSLAX25Y25*%
%IPPOS*%
%LPD*%
%AMOC8*
5,1,8,0,0,1.08239X$1,22.5*
%
%ADD10R,0.00630X0.00118*%
%ADD11R,0.00866X0.00118*%
%ADD12R,0.01024X0.00118*%
%ADD13R,0.01535X0.00118*%
%ADD14R,0.01772X0.00118*%
%ADD15R,0.00236X0.00118*%
%ADD16R,0.01890X0.00118*%
%ADD17R,0.02126X0.00118*%
%ADD18R,0.00748X0.00118*%
%ADD19R,0.02244X0.00157*%
%ADD20R,0.00866X0.00157*%
%ADD21R,0.02402X0.00157*%
%ADD22R,0.02402X0.00118*%
%ADD23R,0.02520X0.00118*%
%ADD24R,0.02638X0.00118*%
%ADD25R,0.01142X0.00118*%
%ADD26R,0.01260X0.00118*%
%ADD27R,0.00984X0.00157*%
%ADD28R,0.00276X0.00157*%
%ADD29R,0.00630X0.00157*%
%ADD30R,0.00748X0.00157*%
%ADD31R,0.01142X0.00157*%
%ADD32R,0.01654X0.00157*%
%ADD33R,0.02008X0.00118*%
%ADD34R,0.01496X0.00118*%
%ADD35R,0.00787X0.00118*%
%ADD36R,0.00984X0.00118*%
%ADD37R,0.01732X0.00118*%
%ADD38R,0.03425X0.00118*%
%ADD39R,0.02244X0.00118*%
%ADD40R,0.02047X0.00118*%
%ADD41R,0.02283X0.00118*%
%ADD42R,0.03543X0.00118*%
%ADD43R,0.02362X0.00157*%
%ADD44R,0.01772X0.00157*%
%ADD45R,0.02283X0.00157*%
%ADD46R,0.03543X0.00157*%
%ADD47R,0.00906X0.00157*%
%ADD48R,0.01890X0.00157*%
%ADD49R,0.02362X0.00118*%
%ADD50R,0.00276X0.00118*%
%ADD51R,0.00906X0.00118*%
%ADD52R,0.00394X0.00118*%
%ADD53R,0.02756X0.00118*%
%ADD54R,0.01378X0.00118*%
%ADD55R,0.02047X0.00157*%
%ADD56R,0.02008X0.00157*%
%ADD57R,0.01260X0.00157*%
%ADD58R,0.01654X0.00118*%
%ADD59R,0.00118X0.00118*%
%ADD60R,0.01614X0.00118*%
%ADD61R,0.01732X0.00157*%
%ADD62R,0.01024X0.00157*%
%ADD63R,0.02638X0.00157*%
%ADD64R,0.02165X0.00118*%
%ADD65R,0.01417X0.00118*%
%ADD66R,0.00157X0.00118*%
%ADD67R,0.01496X0.00157*%
%ADD68R,0.01102X0.00157*%
%ADD69R,0.00512X0.00118*%
%ADD70R,0.00354X0.00118*%
%ADD71R,0.02520X0.00157*%
%ADD72R,0.00787X0.00157*%
%ADD73R,0.02126X0.00157*%
%ADD74R,0.01535X0.00157*%
%ADD75R,0.02756X0.00157*%
%ADD76R,0.02913X0.00118*%
%ADD77R,0.03031X0.00118*%
%ADD78R,0.03150X0.00118*%
%ADD79R,0.02677X0.00118*%
%ADD80R,0.02677X0.00157*%
%ADD81R,0.00472X0.00118*%
%ADD82R,0.00157X0.00157*%
%ADD83R,0.02795X0.00118*%
%ADD84R,0.02165X0.00157*%
%ADD85R,0.00394X0.00157*%
%ADD86R,0.01102X0.00118*%
%ADD87R,0.00315X0.00157*%
%ADD88R,0.00945X0.00157*%
%ADD89R,0.00157X0.00157*%
%ADD90R,0.01417X0.00157*%
%ADD91R,0.01575X0.00157*%
%ADD92R,0.03150X0.00157*%
%ADD93R,0.02835X0.00157*%
%ADD94R,0.03307X0.00157*%
%ADD95R,0.02992X0.00157*%
%ADD96R,0.02205X0.00157*%
%ADD97R,0.00472X0.00157*%
%ADD98R,0.03465X0.00157*%
%ADD99R,0.03622X0.00157*%
%ADD100R,0.03780X0.00157*%
%ADD101R,0.03937X0.00157*%
D10*
G36*
X0306700Y0278750D02*
X0307209Y0278381D01*
X0307140Y0278286D01*
X0306631Y0278655D01*
X0306700Y0278750D01*
G37*
G36*
X0311807Y0283216D02*
X0312316Y0282847D01*
X0312247Y0282752D01*
X0311738Y0283121D01*
X0311807Y0283216D01*
G37*
G36*
X0310975Y0286156D02*
X0311484Y0285787D01*
X0311415Y0285692D01*
X0310906Y0286061D01*
X0310975Y0286156D01*
G37*
G36*
X0308937Y0287637D02*
X0309446Y0287268D01*
X0309377Y0287173D01*
X0308868Y0287542D01*
X0308937Y0287637D01*
G37*
X0315804Y0300866D03*
X0316946Y0303268D03*
X0317576Y0304134D03*
X0315936Y0308616D03*
G36*
X0317054Y0315783D02*
X0317652Y0315977D01*
X0317688Y0315865D01*
X0317090Y0315671D01*
X0317054Y0315783D01*
G37*
G36*
X0314186Y0316838D02*
X0314784Y0317032D01*
X0314820Y0316920D01*
X0314222Y0316726D01*
X0314186Y0316838D01*
G37*
G36*
X0311789Y0316059D02*
X0312387Y0316253D01*
X0312423Y0316141D01*
X0311825Y0315947D01*
X0311789Y0316059D01*
G37*
G36*
X0312903Y0324035D02*
X0313501Y0324229D01*
X0313537Y0324117D01*
X0312939Y0323923D01*
X0312903Y0324035D01*
G37*
X0291454Y0348888D03*
X0283658Y0350266D03*
X0282554Y0351366D03*
X0280940Y0351366D03*
X0279798Y0351366D03*
X0277595Y0350266D03*
X0275113Y0351366D03*
X0274564Y0350266D03*
X0273735Y0351366D03*
X0272475Y0351366D03*
X0272674Y0350384D03*
X0270784Y0348888D03*
X0269719Y0351366D03*
X0278855Y0347116D03*
X0281257Y0347116D03*
X0282398Y0347116D03*
X0283696Y0353768D03*
X0284326Y0354634D03*
X0282554Y0354752D03*
X0258186Y0350266D03*
X0258186Y0349242D03*
X0257320Y0347746D03*
X0269719Y0401366D03*
X0272475Y0401366D03*
X0273735Y0401366D03*
X0275113Y0401366D03*
X0279798Y0401366D03*
X0280940Y0401366D03*
X0282554Y0401366D03*
X0283696Y0403768D03*
X0284326Y0404634D03*
X0282554Y0404752D03*
G36*
X0365821Y0325779D02*
X0366444Y0325867D01*
X0366461Y0325751D01*
X0365838Y0325663D01*
X0365821Y0325779D01*
G37*
G36*
X0366210Y0318699D02*
X0366833Y0318787D01*
X0366850Y0318671D01*
X0366227Y0318583D01*
X0366210Y0318699D01*
G37*
G36*
X0363715Y0318348D02*
X0364338Y0318436D01*
X0364355Y0318320D01*
X0363732Y0318232D01*
X0363715Y0318348D01*
G37*
G36*
X0368851Y0317161D02*
X0369474Y0317249D01*
X0369491Y0317133D01*
X0368868Y0317045D01*
X0368851Y0317161D01*
G37*
X0366686Y0308616D03*
X0368976Y0303784D03*
X0368346Y0302918D03*
X0367204Y0300516D03*
G36*
X0368455Y0296941D02*
X0369076Y0296842D01*
X0369057Y0296727D01*
X0368436Y0296826D01*
X0368455Y0296941D01*
G37*
G36*
X0367581Y0296203D02*
X0368202Y0296104D01*
X0368183Y0295989D01*
X0367562Y0296088D01*
X0367581Y0296203D01*
G37*
G36*
X0364914Y0281538D02*
X0365512Y0281344D01*
X0365476Y0281232D01*
X0364878Y0281426D01*
X0364914Y0281538D01*
G37*
G36*
X0361908Y0275157D02*
X0362506Y0274963D01*
X0362470Y0274851D01*
X0361872Y0275045D01*
X0361908Y0275157D01*
G37*
G36*
X0359512Y0275936D02*
X0360110Y0275742D01*
X0360074Y0275630D01*
X0359476Y0275824D01*
X0359512Y0275936D01*
G37*
G36*
X0363608Y0272618D02*
X0364206Y0272424D01*
X0364170Y0272312D01*
X0363572Y0272506D01*
X0363608Y0272618D01*
G37*
G36*
X0505865Y0274653D02*
X0506489Y0274574D01*
X0506475Y0274457D01*
X0505851Y0274536D01*
X0505865Y0274653D01*
G37*
G36*
X0508365Y0274337D02*
X0508989Y0274258D01*
X0508975Y0274141D01*
X0508351Y0274220D01*
X0508365Y0274337D01*
G37*
G36*
X0510511Y0272161D02*
X0511135Y0272082D01*
X0511121Y0271965D01*
X0510497Y0272044D01*
X0510511Y0272161D01*
G37*
G36*
X0510029Y0281281D02*
X0510653Y0281202D01*
X0510639Y0281085D01*
X0510015Y0281164D01*
X0510029Y0281281D01*
G37*
G36*
X0511194Y0296180D02*
X0511822Y0296141D01*
X0511814Y0296024D01*
X0511186Y0296063D01*
X0511194Y0296180D01*
G37*
G36*
X0511995Y0296998D02*
X0512623Y0296959D01*
X0512615Y0296842D01*
X0511987Y0296881D01*
X0511995Y0296998D01*
G37*
X0510204Y0300266D03*
X0511346Y0302668D03*
X0511976Y0303534D03*
X0510186Y0308366D03*
G36*
X0512298Y0316948D02*
X0512926Y0316987D01*
X0512934Y0316870D01*
X0512306Y0316831D01*
X0512298Y0316948D01*
G37*
G36*
X0509782Y0318683D02*
X0510410Y0318722D01*
X0510418Y0318605D01*
X0509790Y0318566D01*
X0509782Y0318683D01*
G37*
G36*
X0507268Y0318525D02*
X0507896Y0318564D01*
X0507904Y0318447D01*
X0507276Y0318408D01*
X0507268Y0318525D01*
G37*
G36*
X0510090Y0325969D02*
X0510718Y0326008D01*
X0510726Y0325891D01*
X0510098Y0325852D01*
X0510090Y0325969D01*
G37*
X0281304Y0546116D03*
X0279690Y0546116D03*
X0278548Y0546116D03*
X0281304Y0549502D03*
X0282446Y0548518D03*
X0283076Y0549384D03*
X0273863Y0546116D03*
X0272485Y0546116D03*
X0271225Y0546116D03*
X0268469Y0546116D03*
D11*
X0268469Y0547258D03*
X0268469Y0547376D03*
X0267328Y0547376D03*
X0267328Y0547494D03*
X0267328Y0547612D03*
X0267328Y0547888D03*
X0267328Y0548006D03*
X0267328Y0548124D03*
X0267328Y0548242D03*
X0267328Y0548518D03*
X0267328Y0547258D03*
X0267328Y0546982D03*
X0265320Y0547258D03*
X0265320Y0547376D03*
X0265320Y0548006D03*
X0265320Y0548124D03*
X0264178Y0547494D03*
X0264178Y0547376D03*
X0264178Y0547258D03*
X0264178Y0546982D03*
X0261146Y0546982D03*
X0261146Y0546864D03*
X0261146Y0547258D03*
X0261146Y0547376D03*
X0261146Y0547494D03*
X0261146Y0548518D03*
X0261146Y0548636D03*
X0261146Y0548754D03*
X0261146Y0548872D03*
X0271225Y0547494D03*
X0271225Y0547376D03*
X0271225Y0547258D03*
X0271225Y0546982D03*
X0271225Y0546864D03*
X0271225Y0546746D03*
X0271225Y0546628D03*
X0272485Y0546628D03*
X0272485Y0546746D03*
X0272485Y0546864D03*
X0272485Y0546982D03*
X0272485Y0547258D03*
X0272485Y0547376D03*
X0272485Y0546352D03*
X0275005Y0546982D03*
X0275005Y0547258D03*
X0275005Y0547376D03*
X0275005Y0547494D03*
X0276658Y0547494D03*
X0276658Y0547376D03*
X0276658Y0547258D03*
X0276658Y0546982D03*
X0278548Y0546982D03*
X0278548Y0546864D03*
X0278548Y0546746D03*
X0278548Y0546628D03*
X0278548Y0546352D03*
X0278548Y0546234D03*
X0278548Y0547258D03*
X0278548Y0547376D03*
X0278548Y0547494D03*
X0279808Y0547494D03*
X0281304Y0547376D03*
X0281304Y0547258D03*
X0281304Y0546982D03*
X0281304Y0546864D03*
X0281304Y0546746D03*
X0281304Y0546628D03*
X0281304Y0546352D03*
X0281304Y0546234D03*
X0281304Y0548518D03*
X0281304Y0548636D03*
X0281304Y0548754D03*
X0281304Y0548872D03*
X0281304Y0549148D03*
X0281304Y0549266D03*
X0281304Y0549384D03*
X0284335Y0548242D03*
X0284335Y0548124D03*
X0284454Y0548006D03*
X0284454Y0547888D03*
X0284454Y0547612D03*
X0284454Y0547494D03*
X0284335Y0547258D03*
X0282554Y0404634D03*
X0282554Y0404516D03*
X0282554Y0404398D03*
X0282554Y0404122D03*
X0282554Y0404004D03*
X0282554Y0403886D03*
X0282554Y0403768D03*
X0282554Y0402626D03*
X0282554Y0402508D03*
X0282554Y0402232D03*
X0282554Y0402114D03*
X0282554Y0401996D03*
X0282554Y0401878D03*
X0282554Y0401602D03*
X0282554Y0401484D03*
X0281058Y0402744D03*
X0279798Y0402744D03*
X0279798Y0402626D03*
X0279798Y0402508D03*
X0279798Y0402232D03*
X0279798Y0402114D03*
X0279798Y0401996D03*
X0279798Y0401878D03*
X0279798Y0401602D03*
X0279798Y0401484D03*
X0277908Y0402232D03*
X0277908Y0402508D03*
X0277908Y0402626D03*
X0277908Y0402744D03*
X0276255Y0402744D03*
X0276255Y0402626D03*
X0276255Y0402508D03*
X0276255Y0402232D03*
X0273735Y0402232D03*
X0273735Y0402114D03*
X0273735Y0401996D03*
X0273735Y0401878D03*
X0273735Y0401602D03*
X0273735Y0402508D03*
X0273735Y0402626D03*
X0272475Y0402626D03*
X0272475Y0402744D03*
X0272475Y0402508D03*
X0272475Y0402232D03*
X0272475Y0402114D03*
X0272475Y0401996D03*
X0272475Y0401878D03*
X0269719Y0402508D03*
X0269719Y0402626D03*
X0268578Y0402626D03*
X0268578Y0402744D03*
X0268578Y0402862D03*
X0268578Y0403138D03*
X0268578Y0403256D03*
X0268578Y0403374D03*
X0268578Y0403492D03*
X0268578Y0403768D03*
X0268578Y0402508D03*
X0268578Y0402232D03*
X0266570Y0402508D03*
X0266570Y0402626D03*
X0266570Y0403256D03*
X0266570Y0403374D03*
X0265428Y0402744D03*
X0265428Y0402626D03*
X0265428Y0402508D03*
X0265428Y0402232D03*
X0262396Y0402232D03*
X0262396Y0402114D03*
X0262396Y0402508D03*
X0262396Y0402626D03*
X0262396Y0402744D03*
X0262396Y0403768D03*
X0262396Y0403886D03*
X0262396Y0404004D03*
X0262396Y0404122D03*
X0285585Y0403492D03*
X0285585Y0403374D03*
X0285704Y0403256D03*
X0285704Y0403138D03*
X0285704Y0402862D03*
X0285704Y0402744D03*
X0285585Y0402508D03*
X0282554Y0354634D03*
X0282554Y0354516D03*
X0282554Y0354398D03*
X0282554Y0354122D03*
X0282554Y0354004D03*
X0282554Y0353886D03*
X0282554Y0353768D03*
X0282554Y0352626D03*
X0282554Y0352508D03*
X0282554Y0352232D03*
X0282554Y0352114D03*
X0282554Y0351996D03*
X0282554Y0351878D03*
X0282554Y0351602D03*
X0282554Y0351484D03*
X0281058Y0352744D03*
X0279798Y0352744D03*
X0279798Y0352626D03*
X0279798Y0352508D03*
X0279798Y0352232D03*
X0279798Y0352114D03*
X0279798Y0351996D03*
X0279798Y0351878D03*
X0279798Y0351602D03*
X0279798Y0351484D03*
X0277908Y0352232D03*
X0277908Y0352508D03*
X0277908Y0352626D03*
X0277908Y0352744D03*
X0276255Y0352744D03*
X0276255Y0352626D03*
X0276255Y0352508D03*
X0276255Y0352232D03*
X0273735Y0352232D03*
X0273735Y0352114D03*
X0273735Y0351996D03*
X0273735Y0351878D03*
X0273735Y0351602D03*
X0273735Y0352508D03*
X0273735Y0352626D03*
X0272475Y0352626D03*
X0272475Y0352744D03*
X0272475Y0352508D03*
X0272475Y0352232D03*
X0272475Y0352114D03*
X0272475Y0351996D03*
X0272475Y0351878D03*
X0271926Y0349242D03*
X0271808Y0349006D03*
X0271808Y0348888D03*
X0271808Y0348612D03*
X0271808Y0348494D03*
X0271808Y0348376D03*
X0271926Y0347982D03*
X0273580Y0348258D03*
X0273580Y0348376D03*
X0273580Y0348494D03*
X0273580Y0348612D03*
X0273580Y0348888D03*
X0273580Y0349006D03*
X0273580Y0349124D03*
X0270666Y0349518D03*
X0269170Y0349242D03*
X0269170Y0349124D03*
X0269170Y0349006D03*
X0266769Y0349006D03*
X0266769Y0349124D03*
X0266769Y0349242D03*
X0266769Y0349518D03*
X0266769Y0349636D03*
X0266769Y0349754D03*
X0266769Y0349872D03*
X0266769Y0348888D03*
X0266769Y0348612D03*
X0266769Y0348494D03*
X0266769Y0348376D03*
X0266769Y0348258D03*
X0266769Y0347982D03*
X0266769Y0347864D03*
X0264131Y0347982D03*
X0264131Y0348258D03*
X0264131Y0349242D03*
X0264131Y0349518D03*
X0261217Y0349518D03*
X0261217Y0349242D03*
X0261217Y0349124D03*
X0261217Y0349006D03*
X0261217Y0348888D03*
X0261217Y0348612D03*
X0261217Y0348494D03*
X0261217Y0348376D03*
X0261217Y0348258D03*
X0261217Y0347982D03*
X0259209Y0348258D03*
X0259209Y0348376D03*
X0259209Y0349006D03*
X0259209Y0349124D03*
X0257202Y0348612D03*
X0262396Y0352114D03*
X0262396Y0352232D03*
X0262396Y0352508D03*
X0262396Y0352626D03*
X0262396Y0352744D03*
X0262396Y0353768D03*
X0262396Y0353886D03*
X0262396Y0354004D03*
X0262396Y0354122D03*
X0265428Y0352744D03*
X0265428Y0352626D03*
X0265428Y0352508D03*
X0265428Y0352232D03*
X0266570Y0352508D03*
X0266570Y0352626D03*
X0266570Y0353256D03*
X0266570Y0353374D03*
X0268578Y0353374D03*
X0268578Y0353256D03*
X0268578Y0353138D03*
X0268578Y0352862D03*
X0268578Y0352744D03*
X0268578Y0352626D03*
X0268578Y0352508D03*
X0268578Y0352232D03*
X0269719Y0352508D03*
X0269719Y0352626D03*
X0268578Y0353492D03*
X0268578Y0353768D03*
X0276965Y0348612D03*
X0276335Y0347352D03*
X0278737Y0347628D03*
X0278855Y0347352D03*
X0279485Y0349006D03*
X0279485Y0349124D03*
X0279485Y0349242D03*
X0281257Y0349242D03*
X0281257Y0349124D03*
X0281257Y0349006D03*
X0281257Y0348888D03*
X0281257Y0349518D03*
X0281257Y0347864D03*
X0281257Y0347746D03*
X0281257Y0347628D03*
X0281257Y0347352D03*
X0281257Y0347234D03*
X0282398Y0347352D03*
X0284288Y0348612D03*
X0284918Y0347352D03*
X0287044Y0348258D03*
X0287044Y0348376D03*
X0287044Y0348494D03*
X0287044Y0348612D03*
X0287044Y0348888D03*
X0287044Y0349006D03*
X0287044Y0349124D03*
X0287044Y0349242D03*
X0288698Y0349242D03*
X0288698Y0349124D03*
X0288698Y0349006D03*
X0288698Y0348888D03*
X0288698Y0348612D03*
X0288698Y0348494D03*
X0288698Y0348376D03*
X0288698Y0348258D03*
X0288698Y0347982D03*
X0291454Y0349006D03*
X0291454Y0349124D03*
X0291454Y0349242D03*
X0285585Y0352508D03*
X0285704Y0352744D03*
X0285704Y0352862D03*
X0285704Y0353138D03*
X0285704Y0353256D03*
X0285585Y0353374D03*
X0285585Y0353492D03*
G36*
X0313122Y0325017D02*
X0313945Y0325283D01*
X0313982Y0325171D01*
X0313159Y0324905D01*
X0313122Y0325017D01*
G37*
G36*
X0314709Y0324208D02*
X0315532Y0324474D01*
X0315569Y0324362D01*
X0314746Y0324096D01*
X0314709Y0324208D01*
G37*
G36*
X0314746Y0324096D02*
X0315569Y0324362D01*
X0315606Y0324250D01*
X0314783Y0323984D01*
X0314746Y0324096D01*
G37*
G36*
X0314904Y0323609D02*
X0315727Y0323875D01*
X0315764Y0323763D01*
X0314941Y0323497D01*
X0314904Y0323609D01*
G37*
G36*
X0314941Y0323497D02*
X0315764Y0323763D01*
X0315801Y0323651D01*
X0314978Y0323385D01*
X0314941Y0323497D01*
G37*
G36*
X0314977Y0323384D02*
X0315800Y0323650D01*
X0315837Y0323538D01*
X0315014Y0323272D01*
X0314977Y0323384D01*
G37*
G36*
X0313067Y0322764D02*
X0313890Y0323030D01*
X0313927Y0322918D01*
X0313104Y0322652D01*
X0313067Y0322764D01*
G37*
G36*
X0313153Y0322502D02*
X0313976Y0322768D01*
X0314013Y0322656D01*
X0313190Y0322390D01*
X0313153Y0322502D01*
G37*
G36*
X0313189Y0322389D02*
X0314012Y0322655D01*
X0314049Y0322543D01*
X0313226Y0322277D01*
X0313189Y0322389D01*
G37*
G36*
X0314194Y0316427D02*
X0315017Y0316693D01*
X0315054Y0316581D01*
X0314231Y0316315D01*
X0314194Y0316427D01*
G37*
G36*
X0314155Y0316166D02*
X0314978Y0316432D01*
X0315015Y0316320D01*
X0314192Y0316054D01*
X0314155Y0316166D01*
G37*
G36*
X0314191Y0316054D02*
X0315014Y0316320D01*
X0315051Y0316208D01*
X0314228Y0315942D01*
X0314191Y0316054D01*
G37*
G36*
X0314164Y0315755D02*
X0314987Y0316021D01*
X0315024Y0315909D01*
X0314201Y0315643D01*
X0314164Y0315755D01*
G37*
G36*
X0313984Y0315035D02*
X0314807Y0315301D01*
X0314844Y0315189D01*
X0314021Y0314923D01*
X0313984Y0315035D01*
G37*
G36*
X0314021Y0314922D02*
X0314844Y0315188D01*
X0314881Y0315076D01*
X0314058Y0314810D01*
X0314021Y0314922D01*
G37*
G36*
X0312786Y0314645D02*
X0313609Y0314911D01*
X0313646Y0314799D01*
X0312823Y0314533D01*
X0312786Y0314645D01*
G37*
G36*
X0312589Y0314871D02*
X0313412Y0315137D01*
X0313449Y0315025D01*
X0312626Y0314759D01*
X0312589Y0314871D01*
G37*
G36*
X0312367Y0315171D02*
X0313190Y0315437D01*
X0313227Y0315325D01*
X0312404Y0315059D01*
X0312367Y0315171D01*
G37*
G36*
X0312552Y0314983D02*
X0313375Y0315249D01*
X0313412Y0315137D01*
X0312589Y0314871D01*
X0312552Y0314983D01*
G37*
G36*
X0311713Y0315911D02*
X0312536Y0316177D01*
X0312573Y0316065D01*
X0311750Y0315799D01*
X0311713Y0315911D01*
G37*
G36*
X0314231Y0316315D02*
X0315054Y0316581D01*
X0315091Y0316469D01*
X0314268Y0316203D01*
X0314231Y0316315D01*
G37*
G36*
X0315779Y0315245D02*
X0316602Y0315511D01*
X0316639Y0315399D01*
X0315816Y0315133D01*
X0315779Y0315245D01*
G37*
G36*
X0315864Y0314983D02*
X0316687Y0315249D01*
X0316724Y0315137D01*
X0315901Y0314871D01*
X0315864Y0314983D01*
G37*
X0315936Y0311372D03*
X0315936Y0311254D03*
X0315936Y0311136D03*
X0315936Y0311018D03*
X0315936Y0310742D03*
X0315936Y0310624D03*
X0315936Y0310506D03*
X0315936Y0310388D03*
X0315936Y0310112D03*
X0315936Y0309994D03*
X0315936Y0309876D03*
X0315936Y0309758D03*
X0315936Y0309482D03*
X0315936Y0309364D03*
X0315936Y0309246D03*
X0315936Y0309128D03*
X0315936Y0308852D03*
X0317078Y0309876D03*
X0317078Y0309994D03*
X0317078Y0310112D03*
X0317078Y0310388D03*
X0317078Y0310506D03*
X0317196Y0310742D03*
X0317196Y0309758D03*
X0315804Y0303898D03*
X0315804Y0303622D03*
X0315804Y0303504D03*
X0315804Y0303386D03*
X0315804Y0303268D03*
X0315804Y0302992D03*
X0315804Y0302874D03*
X0315804Y0302756D03*
X0315804Y0302638D03*
X0315804Y0302362D03*
X0315804Y0302244D03*
X0315804Y0302126D03*
X0315804Y0302008D03*
X0315804Y0301732D03*
X0315804Y0301614D03*
X0315804Y0301496D03*
X0315804Y0301378D03*
X0315804Y0301102D03*
X0315804Y0300984D03*
X0318835Y0302008D03*
X0318835Y0302126D03*
X0318835Y0302756D03*
X0318835Y0302874D03*
G36*
X0308772Y0287612D02*
X0309471Y0287104D01*
X0309402Y0287008D01*
X0308703Y0287516D01*
X0308772Y0287612D01*
G37*
G36*
X0308558Y0286648D02*
X0309257Y0286140D01*
X0309188Y0286044D01*
X0308489Y0286552D01*
X0308558Y0286648D01*
G37*
G36*
X0308515Y0286387D02*
X0309214Y0285879D01*
X0309145Y0285783D01*
X0308446Y0286291D01*
X0308515Y0286387D01*
G37*
G36*
X0308446Y0286292D02*
X0309145Y0285784D01*
X0309076Y0285688D01*
X0308377Y0286196D01*
X0308446Y0286292D01*
G37*
G36*
X0308379Y0285999D02*
X0309078Y0285491D01*
X0309009Y0285395D01*
X0308310Y0285903D01*
X0308379Y0285999D01*
G37*
G36*
X0309399Y0285259D02*
X0310098Y0284751D01*
X0310029Y0284655D01*
X0309330Y0285163D01*
X0309399Y0285259D01*
G37*
G36*
X0309329Y0285163D02*
X0310028Y0284655D01*
X0309959Y0284559D01*
X0309260Y0285067D01*
X0309329Y0285163D01*
G37*
G36*
X0310087Y0285537D02*
X0310786Y0285029D01*
X0310717Y0284933D01*
X0310018Y0285441D01*
X0310087Y0285537D01*
G37*
G36*
X0310345Y0285691D02*
X0311044Y0285183D01*
X0310975Y0285087D01*
X0310276Y0285595D01*
X0310345Y0285691D01*
G37*
G36*
X0310414Y0285786D02*
X0311113Y0285278D01*
X0311044Y0285182D01*
X0310345Y0285690D01*
X0310414Y0285786D01*
G37*
G36*
X0310579Y0285812D02*
X0311278Y0285304D01*
X0311209Y0285208D01*
X0310510Y0285716D01*
X0310579Y0285812D01*
G37*
G36*
X0310649Y0285908D02*
X0311348Y0285400D01*
X0311279Y0285304D01*
X0310580Y0285812D01*
X0310649Y0285908D01*
G37*
G36*
X0310624Y0283931D02*
X0311323Y0283423D01*
X0311254Y0283327D01*
X0310555Y0283835D01*
X0310624Y0283931D01*
G37*
G36*
X0310462Y0283708D02*
X0311161Y0283200D01*
X0311092Y0283104D01*
X0310393Y0283612D01*
X0310462Y0283708D01*
G37*
G36*
X0307623Y0279151D02*
X0308322Y0278643D01*
X0308253Y0278547D01*
X0307554Y0279055D01*
X0307623Y0279151D01*
G37*
G36*
X0307902Y0277391D02*
X0308601Y0276883D01*
X0308532Y0276787D01*
X0307833Y0277295D01*
X0307902Y0277391D01*
G37*
G36*
X0307833Y0277295D02*
X0308532Y0276787D01*
X0308463Y0276691D01*
X0307764Y0277199D01*
X0307833Y0277295D01*
G37*
G36*
X0307532Y0276881D02*
X0308231Y0276373D01*
X0308162Y0276277D01*
X0307463Y0276785D01*
X0307532Y0276881D01*
G37*
G36*
X0307462Y0276786D02*
X0308161Y0276278D01*
X0308092Y0276182D01*
X0307393Y0276690D01*
X0307462Y0276786D01*
G37*
G36*
X0307393Y0276690D02*
X0308092Y0276182D01*
X0308023Y0276086D01*
X0307324Y0276594D01*
X0307393Y0276690D01*
G37*
G36*
X0305768Y0277870D02*
X0306467Y0277362D01*
X0306398Y0277266D01*
X0305699Y0277774D01*
X0305768Y0277870D01*
G37*
G36*
X0305606Y0277648D02*
X0306305Y0277140D01*
X0306236Y0277044D01*
X0305537Y0277552D01*
X0305606Y0277648D01*
G37*
G36*
X0305537Y0277552D02*
X0306236Y0277044D01*
X0306167Y0276948D01*
X0305468Y0277456D01*
X0305537Y0277552D01*
G37*
G36*
X0359364Y0275860D02*
X0360187Y0275594D01*
X0360150Y0275482D01*
X0359327Y0275748D01*
X0359364Y0275860D01*
G37*
G36*
X0359458Y0274877D02*
X0360281Y0274611D01*
X0360244Y0274499D01*
X0359421Y0274765D01*
X0359458Y0274877D01*
G37*
G36*
X0359497Y0274616D02*
X0360320Y0274350D01*
X0360283Y0274238D01*
X0359460Y0274504D01*
X0359497Y0274616D01*
G37*
G36*
X0359461Y0274503D02*
X0360284Y0274237D01*
X0360247Y0274125D01*
X0359424Y0274391D01*
X0359461Y0274503D01*
G37*
G36*
X0359488Y0274205D02*
X0360311Y0273939D01*
X0360274Y0273827D01*
X0359451Y0274093D01*
X0359488Y0274205D01*
G37*
G36*
X0360686Y0273815D02*
X0361509Y0273549D01*
X0361472Y0273437D01*
X0360649Y0273703D01*
X0360686Y0273815D01*
G37*
G36*
X0360650Y0273703D02*
X0361473Y0273437D01*
X0361436Y0273325D01*
X0360613Y0273591D01*
X0360650Y0273703D01*
G37*
G36*
X0361255Y0274293D02*
X0362078Y0274027D01*
X0362041Y0273915D01*
X0361218Y0274181D01*
X0361255Y0274293D01*
G37*
G36*
X0361453Y0274518D02*
X0362276Y0274252D01*
X0362239Y0274140D01*
X0361416Y0274406D01*
X0361453Y0274518D01*
G37*
G36*
X0361489Y0274631D02*
X0362312Y0274365D01*
X0362275Y0274253D01*
X0361452Y0274519D01*
X0361489Y0274631D01*
G37*
G36*
X0361638Y0274707D02*
X0362461Y0274441D01*
X0362424Y0274329D01*
X0361601Y0274595D01*
X0361638Y0274707D01*
G37*
G36*
X0361675Y0274819D02*
X0362498Y0274553D01*
X0362461Y0274441D01*
X0361638Y0274707D01*
X0361675Y0274819D01*
G37*
G36*
X0362262Y0272931D02*
X0363085Y0272665D01*
X0363048Y0272553D01*
X0362225Y0272819D01*
X0362262Y0272931D01*
G37*
G36*
X0362177Y0272669D02*
X0363000Y0272403D01*
X0362963Y0272291D01*
X0362140Y0272557D01*
X0362177Y0272669D01*
G37*
G36*
X0364179Y0280038D02*
X0365002Y0279772D01*
X0364965Y0279660D01*
X0364142Y0279926D01*
X0364179Y0280038D01*
G37*
G36*
X0364215Y0280150D02*
X0365038Y0279884D01*
X0365001Y0279772D01*
X0364178Y0280038D01*
X0364215Y0280150D01*
G37*
G36*
X0364300Y0280412D02*
X0365123Y0280146D01*
X0365086Y0280034D01*
X0364263Y0280300D01*
X0364300Y0280412D01*
G37*
G36*
X0365669Y0282203D02*
X0366492Y0281937D01*
X0366455Y0281825D01*
X0365632Y0282091D01*
X0365669Y0282203D01*
G37*
G36*
X0366478Y0280615D02*
X0367301Y0280349D01*
X0367264Y0280237D01*
X0366441Y0280503D01*
X0366478Y0280615D01*
G37*
G36*
X0366441Y0280503D02*
X0367264Y0280237D01*
X0367227Y0280125D01*
X0366404Y0280391D01*
X0366441Y0280503D01*
G37*
G36*
X0366283Y0280016D02*
X0367106Y0279750D01*
X0367069Y0279638D01*
X0366246Y0279904D01*
X0366283Y0280016D01*
G37*
G36*
X0366246Y0279904D02*
X0367069Y0279638D01*
X0367032Y0279526D01*
X0366209Y0279792D01*
X0366246Y0279904D01*
G37*
G36*
X0366210Y0279792D02*
X0367033Y0279526D01*
X0366996Y0279414D01*
X0366173Y0279680D01*
X0366210Y0279792D01*
G37*
G36*
X0367840Y0286660D02*
X0368694Y0286525D01*
X0368676Y0286408D01*
X0367822Y0286543D01*
X0367840Y0286660D01*
G37*
G36*
X0367883Y0286932D02*
X0368737Y0286797D01*
X0368719Y0286680D01*
X0367865Y0286815D01*
X0367883Y0286932D01*
G37*
G36*
X0367902Y0287049D02*
X0368756Y0286914D01*
X0368738Y0286797D01*
X0367884Y0286932D01*
X0367902Y0287049D01*
G37*
G36*
X0367920Y0287165D02*
X0368774Y0287030D01*
X0368756Y0286913D01*
X0367902Y0287048D01*
X0367920Y0287165D01*
G37*
G36*
X0367939Y0287282D02*
X0368793Y0287147D01*
X0368775Y0287030D01*
X0367921Y0287165D01*
X0367939Y0287282D01*
G37*
G36*
X0367982Y0287554D02*
X0368836Y0287419D01*
X0368818Y0287302D01*
X0367964Y0287437D01*
X0367982Y0287554D01*
G37*
G36*
X0368000Y0287671D02*
X0368854Y0287536D01*
X0368836Y0287419D01*
X0367982Y0287554D01*
X0368000Y0287671D01*
G37*
G36*
X0368019Y0287787D02*
X0368873Y0287652D01*
X0368855Y0287535D01*
X0368001Y0287670D01*
X0368019Y0287787D01*
G37*
G36*
X0368037Y0287904D02*
X0368891Y0287769D01*
X0368873Y0287652D01*
X0368019Y0287787D01*
X0368037Y0287904D01*
G37*
G36*
X0368080Y0288176D02*
X0368934Y0288041D01*
X0368916Y0287924D01*
X0368062Y0288059D01*
X0368080Y0288176D01*
G37*
G36*
X0366035Y0288101D02*
X0366889Y0287966D01*
X0366871Y0287849D01*
X0366017Y0287984D01*
X0366035Y0288101D01*
G37*
G36*
X0364908Y0288280D02*
X0365762Y0288145D01*
X0365744Y0288028D01*
X0364890Y0288163D01*
X0364908Y0288280D01*
G37*
G36*
X0364810Y0288415D02*
X0365664Y0288280D01*
X0365646Y0288163D01*
X0364792Y0288298D01*
X0364810Y0288415D01*
G37*
G36*
X0364889Y0288163D02*
X0365743Y0288028D01*
X0365725Y0287911D01*
X0364871Y0288046D01*
X0364889Y0288163D01*
G37*
G36*
X0364871Y0288047D02*
X0365725Y0287912D01*
X0365707Y0287795D01*
X0364853Y0287930D01*
X0364871Y0288047D01*
G37*
G36*
X0364828Y0287775D02*
X0365682Y0287640D01*
X0365664Y0287523D01*
X0364810Y0287658D01*
X0364828Y0287775D01*
G37*
G36*
X0364809Y0287658D02*
X0365663Y0287523D01*
X0365645Y0287406D01*
X0364791Y0287541D01*
X0364809Y0287658D01*
G37*
G36*
X0364791Y0287541D02*
X0365645Y0287406D01*
X0365627Y0287289D01*
X0364773Y0287424D01*
X0364791Y0287541D01*
G37*
G36*
X0365918Y0287363D02*
X0366772Y0287228D01*
X0366754Y0287111D01*
X0365900Y0287246D01*
X0365918Y0287363D01*
G37*
G36*
X0365900Y0287246D02*
X0366754Y0287111D01*
X0366736Y0286994D01*
X0365882Y0287129D01*
X0365900Y0287246D01*
G37*
G36*
X0362400Y0287800D02*
X0363254Y0287665D01*
X0363236Y0287548D01*
X0362382Y0287683D01*
X0362400Y0287800D01*
G37*
G36*
X0362339Y0288169D02*
X0363193Y0288034D01*
X0363175Y0287917D01*
X0362321Y0288052D01*
X0362339Y0288169D01*
G37*
G36*
X0362382Y0288441D02*
X0363236Y0288306D01*
X0363218Y0288189D01*
X0362364Y0288324D01*
X0362382Y0288441D01*
G37*
G36*
X0362517Y0288539D02*
X0363371Y0288404D01*
X0363353Y0288287D01*
X0362499Y0288422D01*
X0362517Y0288539D01*
G37*
G36*
X0362536Y0288656D02*
X0363390Y0288521D01*
X0363372Y0288404D01*
X0362518Y0288539D01*
X0362536Y0288656D01*
G37*
G36*
X0362419Y0287917D02*
X0363273Y0287782D01*
X0363255Y0287665D01*
X0362401Y0287800D01*
X0362419Y0287917D01*
G37*
G36*
X0366139Y0295156D02*
X0366993Y0295021D01*
X0366975Y0294904D01*
X0366121Y0295039D01*
X0366139Y0295156D01*
G37*
G36*
X0366157Y0295273D02*
X0367011Y0295138D01*
X0366993Y0295021D01*
X0366139Y0295156D01*
X0366157Y0295273D01*
G37*
G36*
X0366256Y0295895D02*
X0367110Y0295760D01*
X0367092Y0295643D01*
X0366238Y0295778D01*
X0366256Y0295895D01*
G37*
G36*
X0366274Y0296012D02*
X0367128Y0295877D01*
X0367110Y0295760D01*
X0366256Y0295895D01*
X0366274Y0296012D01*
G37*
G36*
X0369287Y0295654D02*
X0370141Y0295519D01*
X0370123Y0295402D01*
X0369269Y0295537D01*
X0369287Y0295654D01*
G37*
G36*
X0369367Y0295402D02*
X0370221Y0295267D01*
X0370203Y0295150D01*
X0369349Y0295285D01*
X0369367Y0295402D01*
G37*
G36*
X0369348Y0295286D02*
X0370202Y0295151D01*
X0370184Y0295034D01*
X0369330Y0295169D01*
X0369348Y0295286D01*
G37*
G36*
X0369305Y0295013D02*
X0370159Y0294878D01*
X0370141Y0294761D01*
X0369287Y0294896D01*
X0369305Y0295013D01*
G37*
G36*
X0369287Y0294897D02*
X0370141Y0294762D01*
X0370123Y0294645D01*
X0369269Y0294780D01*
X0369287Y0294897D01*
G37*
G36*
X0369133Y0294682D02*
X0369987Y0294547D01*
X0369969Y0294430D01*
X0369115Y0294565D01*
X0369133Y0294682D01*
G37*
G36*
X0369268Y0294780D02*
X0370122Y0294645D01*
X0370104Y0294528D01*
X0369250Y0294663D01*
X0369268Y0294780D01*
G37*
X0367204Y0300634D03*
X0367204Y0300752D03*
X0367204Y0301028D03*
X0367204Y0301146D03*
X0367204Y0301264D03*
X0367204Y0301382D03*
X0367204Y0301658D03*
X0367204Y0301776D03*
X0367204Y0301894D03*
X0367204Y0302012D03*
X0367204Y0302288D03*
X0367204Y0302406D03*
X0367204Y0302524D03*
X0367204Y0302642D03*
X0367204Y0302918D03*
X0367204Y0303036D03*
X0367204Y0303154D03*
X0367204Y0303272D03*
X0367204Y0303548D03*
X0370235Y0302524D03*
X0370235Y0302406D03*
X0370235Y0301776D03*
X0370235Y0301658D03*
X0366686Y0308852D03*
X0366686Y0309128D03*
X0366686Y0309246D03*
X0366686Y0309364D03*
X0366686Y0309482D03*
X0366686Y0309758D03*
X0366686Y0309876D03*
X0366686Y0309994D03*
X0366686Y0310112D03*
X0366686Y0310388D03*
X0366686Y0310506D03*
X0366686Y0310624D03*
X0366686Y0310742D03*
X0366686Y0311018D03*
X0366686Y0311136D03*
X0366686Y0311254D03*
X0366686Y0311372D03*
X0367946Y0310742D03*
X0367828Y0310506D03*
X0367828Y0310388D03*
X0367828Y0310112D03*
X0367828Y0309994D03*
X0367828Y0309876D03*
X0367946Y0309758D03*
G36*
X0367542Y0316581D02*
X0368398Y0316700D01*
X0368414Y0316583D01*
X0367558Y0316464D01*
X0367542Y0316581D01*
G37*
G36*
X0367504Y0316854D02*
X0368360Y0316973D01*
X0368376Y0316856D01*
X0367520Y0316737D01*
X0367504Y0316854D01*
G37*
G36*
X0366003Y0317637D02*
X0366859Y0317756D01*
X0366875Y0317639D01*
X0366019Y0317520D01*
X0366003Y0317637D01*
G37*
G36*
X0366081Y0317926D02*
X0366937Y0318045D01*
X0366953Y0317928D01*
X0366097Y0317809D01*
X0366081Y0317926D01*
G37*
G36*
X0366065Y0318043D02*
X0366921Y0318162D01*
X0366937Y0318045D01*
X0366081Y0317926D01*
X0366065Y0318043D01*
G37*
G36*
X0366165Y0318177D02*
X0367021Y0318296D01*
X0367037Y0318179D01*
X0366181Y0318060D01*
X0366165Y0318177D01*
G37*
G36*
X0366149Y0318294D02*
X0367005Y0318413D01*
X0367021Y0318296D01*
X0366165Y0318177D01*
X0366149Y0318294D01*
G37*
G36*
X0365700Y0316958D02*
X0366556Y0317077D01*
X0366572Y0316960D01*
X0365716Y0316841D01*
X0365700Y0316958D01*
G37*
G36*
X0365717Y0316842D02*
X0366573Y0316961D01*
X0366589Y0316844D01*
X0365733Y0316725D01*
X0365717Y0316842D01*
G37*
G36*
X0364453Y0316783D02*
X0365309Y0316902D01*
X0365325Y0316785D01*
X0364469Y0316666D01*
X0364453Y0316783D01*
G37*
G36*
X0364297Y0317040D02*
X0365153Y0317159D01*
X0365169Y0317042D01*
X0364313Y0316923D01*
X0364297Y0317040D01*
G37*
G36*
X0364131Y0317374D02*
X0364987Y0317493D01*
X0365003Y0317376D01*
X0364147Y0317257D01*
X0364131Y0317374D01*
G37*
G36*
X0364281Y0317157D02*
X0365137Y0317276D01*
X0365153Y0317159D01*
X0364297Y0317040D01*
X0364281Y0317157D01*
G37*
G36*
X0363615Y0318216D02*
X0364471Y0318335D01*
X0364487Y0318218D01*
X0363631Y0318099D01*
X0363615Y0318216D01*
G37*
G36*
X0365818Y0324110D02*
X0366674Y0324229D01*
X0366690Y0324112D01*
X0365834Y0323993D01*
X0365818Y0324110D01*
G37*
G36*
X0365802Y0324227D02*
X0366658Y0324346D01*
X0366674Y0324229D01*
X0365818Y0324110D01*
X0365802Y0324227D01*
G37*
G36*
X0365763Y0324500D02*
X0366619Y0324619D01*
X0366635Y0324502D01*
X0365779Y0324383D01*
X0365763Y0324500D01*
G37*
G36*
X0366208Y0326709D02*
X0367064Y0326828D01*
X0367080Y0326711D01*
X0366224Y0326592D01*
X0366208Y0326709D01*
G37*
G36*
X0367631Y0325637D02*
X0368487Y0325756D01*
X0368503Y0325639D01*
X0367647Y0325520D01*
X0367631Y0325637D01*
G37*
G36*
X0367648Y0325520D02*
X0368504Y0325639D01*
X0368520Y0325522D01*
X0367664Y0325403D01*
X0367648Y0325520D01*
G37*
G36*
X0367719Y0325013D02*
X0368575Y0325132D01*
X0368591Y0325015D01*
X0367735Y0324896D01*
X0367719Y0325013D01*
G37*
G36*
X0367735Y0324896D02*
X0368591Y0325015D01*
X0368607Y0324898D01*
X0367751Y0324779D01*
X0367735Y0324896D01*
G37*
G36*
X0367752Y0324779D02*
X0368608Y0324898D01*
X0368624Y0324781D01*
X0367768Y0324662D01*
X0367752Y0324779D01*
G37*
G36*
X0507158Y0318399D02*
X0508021Y0318454D01*
X0508028Y0318337D01*
X0507165Y0318282D01*
X0507158Y0318399D01*
G37*
G36*
X0507608Y0317520D02*
X0508471Y0317575D01*
X0508478Y0317458D01*
X0507615Y0317403D01*
X0507608Y0317520D01*
G37*
G36*
X0507740Y0317292D02*
X0508603Y0317347D01*
X0508610Y0317230D01*
X0507747Y0317175D01*
X0507740Y0317292D01*
G37*
G36*
X0507748Y0317174D02*
X0508611Y0317229D01*
X0508618Y0317112D01*
X0507755Y0317057D01*
X0507748Y0317174D01*
G37*
G36*
X0507883Y0316906D02*
X0508746Y0316961D01*
X0508753Y0316844D01*
X0507890Y0316789D01*
X0507883Y0316906D01*
G37*
G36*
X0509140Y0316986D02*
X0510003Y0317041D01*
X0510010Y0316924D01*
X0509147Y0316869D01*
X0509140Y0316986D01*
G37*
G36*
X0509148Y0316868D02*
X0510011Y0316923D01*
X0510018Y0316806D01*
X0509155Y0316751D01*
X0509148Y0316868D01*
G37*
G36*
X0509494Y0317639D02*
X0510357Y0317694D01*
X0510364Y0317577D01*
X0509501Y0317522D01*
X0509494Y0317639D01*
G37*
G36*
X0509594Y0317921D02*
X0510457Y0317976D01*
X0510464Y0317859D01*
X0509601Y0317804D01*
X0509594Y0317921D01*
G37*
G36*
X0509587Y0318039D02*
X0510450Y0318094D01*
X0510457Y0317977D01*
X0509594Y0317922D01*
X0509587Y0318039D01*
G37*
G36*
X0509697Y0318165D02*
X0510560Y0318220D01*
X0510567Y0318103D01*
X0509704Y0318048D01*
X0509697Y0318165D01*
G37*
G36*
X0509690Y0318282D02*
X0510553Y0318337D01*
X0510560Y0318220D01*
X0509697Y0318165D01*
X0509690Y0318282D01*
G37*
G36*
X0510931Y0316743D02*
X0511794Y0316798D01*
X0511801Y0316681D01*
X0510938Y0316626D01*
X0510931Y0316743D01*
G37*
G36*
X0510948Y0316468D02*
X0511811Y0316523D01*
X0511818Y0316406D01*
X0510955Y0316351D01*
X0510948Y0316468D01*
G37*
X0510186Y0311122D03*
X0510186Y0311004D03*
X0510186Y0310886D03*
X0510186Y0310768D03*
X0510186Y0310492D03*
X0510186Y0310374D03*
X0510186Y0310256D03*
X0510186Y0310138D03*
X0510186Y0309862D03*
X0510186Y0309744D03*
X0510186Y0309626D03*
X0510186Y0309508D03*
X0510186Y0309232D03*
X0510186Y0309114D03*
X0510186Y0308996D03*
X0510186Y0308878D03*
X0510186Y0308602D03*
X0511328Y0309626D03*
X0511328Y0309744D03*
X0511328Y0309862D03*
X0511328Y0310138D03*
X0511328Y0310256D03*
X0511446Y0310492D03*
X0511446Y0309508D03*
X0510204Y0303298D03*
X0510204Y0303022D03*
X0510204Y0302904D03*
X0510204Y0302786D03*
X0510204Y0302668D03*
X0510204Y0302392D03*
X0510204Y0302274D03*
X0510204Y0302156D03*
X0510204Y0302038D03*
X0510204Y0301762D03*
X0510204Y0301644D03*
X0510204Y0301526D03*
X0510204Y0301408D03*
X0510204Y0301132D03*
X0510204Y0301014D03*
X0510204Y0300896D03*
X0510204Y0300778D03*
X0510204Y0300502D03*
X0510204Y0300384D03*
X0513235Y0301408D03*
X0513235Y0301526D03*
X0513235Y0302156D03*
X0513235Y0302274D03*
G36*
X0512945Y0295795D02*
X0513808Y0295740D01*
X0513801Y0295623D01*
X0512938Y0295678D01*
X0512945Y0295795D01*
G37*
G36*
X0513048Y0295552D02*
X0513911Y0295497D01*
X0513904Y0295380D01*
X0513041Y0295435D01*
X0513048Y0295552D01*
G37*
G36*
X0513041Y0295434D02*
X0513904Y0295379D01*
X0513897Y0295262D01*
X0513034Y0295317D01*
X0513041Y0295434D01*
G37*
G36*
X0513024Y0295159D02*
X0513887Y0295104D01*
X0513880Y0294987D01*
X0513017Y0295042D01*
X0513024Y0295159D01*
G37*
G36*
X0513016Y0295041D02*
X0513879Y0294986D01*
X0513872Y0294869D01*
X0513009Y0294924D01*
X0513016Y0295041D01*
G37*
G36*
X0512883Y0294812D02*
X0513746Y0294757D01*
X0513739Y0294640D01*
X0512876Y0294695D01*
X0512883Y0294812D01*
G37*
G36*
X0513009Y0294923D02*
X0513872Y0294868D01*
X0513865Y0294751D01*
X0513002Y0294806D01*
X0513009Y0294923D01*
G37*
G36*
X0509865Y0295121D02*
X0510728Y0295066D01*
X0510721Y0294949D01*
X0509858Y0295004D01*
X0509865Y0295121D01*
G37*
G36*
X0509858Y0295003D02*
X0510721Y0294948D01*
X0510714Y0294831D01*
X0509851Y0294886D01*
X0509858Y0295003D01*
G37*
G36*
X0509905Y0295749D02*
X0510768Y0295694D01*
X0510761Y0295577D01*
X0509898Y0295632D01*
X0509905Y0295749D01*
G37*
G36*
X0509912Y0295867D02*
X0510775Y0295812D01*
X0510768Y0295695D01*
X0509905Y0295750D01*
X0509912Y0295867D01*
G37*
G36*
X0509184Y0288000D02*
X0510047Y0287945D01*
X0510040Y0287828D01*
X0509177Y0287883D01*
X0509184Y0288000D01*
G37*
G36*
X0509294Y0287875D02*
X0510157Y0287820D01*
X0510150Y0287703D01*
X0509287Y0287758D01*
X0509294Y0287875D01*
G37*
G36*
X0509287Y0287757D02*
X0510150Y0287702D01*
X0510143Y0287585D01*
X0509280Y0287640D01*
X0509287Y0287757D01*
G37*
G36*
X0509280Y0287639D02*
X0510143Y0287584D01*
X0510136Y0287467D01*
X0509273Y0287522D01*
X0509280Y0287639D01*
G37*
G36*
X0509262Y0287364D02*
X0510125Y0287309D01*
X0510118Y0287192D01*
X0509255Y0287247D01*
X0509262Y0287364D01*
G37*
G36*
X0509255Y0287246D02*
X0510118Y0287191D01*
X0510111Y0287074D01*
X0509248Y0287129D01*
X0509255Y0287246D01*
G37*
G36*
X0509247Y0287128D02*
X0510110Y0287073D01*
X0510103Y0286956D01*
X0509240Y0287011D01*
X0509247Y0287128D01*
G37*
G36*
X0510387Y0287056D02*
X0511250Y0287001D01*
X0511243Y0286884D01*
X0510380Y0286939D01*
X0510387Y0287056D01*
G37*
G36*
X0510379Y0286938D02*
X0511242Y0286883D01*
X0511235Y0286766D01*
X0510372Y0286821D01*
X0510379Y0286938D01*
G37*
G36*
X0510434Y0287803D02*
X0511297Y0287748D01*
X0511290Y0287631D01*
X0510427Y0287686D01*
X0510434Y0287803D01*
G37*
G36*
X0512438Y0287677D02*
X0513301Y0287622D01*
X0513294Y0287505D01*
X0512431Y0287560D01*
X0512438Y0287677D01*
G37*
G36*
X0512445Y0287795D02*
X0513308Y0287740D01*
X0513301Y0287623D01*
X0512438Y0287678D01*
X0512445Y0287795D01*
G37*
G36*
X0512462Y0288070D02*
X0513325Y0288015D01*
X0513318Y0287898D01*
X0512455Y0287953D01*
X0512462Y0288070D01*
G37*
G36*
X0512430Y0287559D02*
X0513293Y0287504D01*
X0513286Y0287387D01*
X0512423Y0287442D01*
X0512430Y0287559D01*
G37*
G36*
X0512423Y0287441D02*
X0513286Y0287386D01*
X0513279Y0287269D01*
X0512416Y0287324D01*
X0512423Y0287441D01*
G37*
G36*
X0512406Y0287166D02*
X0513269Y0287111D01*
X0513262Y0286994D01*
X0512399Y0287049D01*
X0512406Y0287166D01*
G37*
G36*
X0512398Y0287048D02*
X0513261Y0286993D01*
X0513254Y0286876D01*
X0512391Y0286931D01*
X0512398Y0287048D01*
G37*
G36*
X0512391Y0286930D02*
X0513254Y0286875D01*
X0513247Y0286758D01*
X0512384Y0286813D01*
X0512391Y0286930D01*
G37*
G36*
X0512383Y0286812D02*
X0513246Y0286757D01*
X0513239Y0286640D01*
X0512376Y0286695D01*
X0512383Y0286812D01*
G37*
G36*
X0512366Y0286537D02*
X0513229Y0286482D01*
X0513222Y0286365D01*
X0512359Y0286420D01*
X0512366Y0286537D01*
G37*
G36*
X0510646Y0282075D02*
X0511504Y0281967D01*
X0511490Y0281851D01*
X0510632Y0281959D01*
X0510646Y0282075D01*
G37*
G36*
X0511738Y0280667D02*
X0512596Y0280559D01*
X0512582Y0280443D01*
X0511724Y0280551D01*
X0511738Y0280667D01*
G37*
G36*
X0511723Y0280550D02*
X0512581Y0280442D01*
X0512567Y0280326D01*
X0511709Y0280434D01*
X0511723Y0280550D01*
G37*
G36*
X0511659Y0280042D02*
X0512517Y0279934D01*
X0512503Y0279818D01*
X0511645Y0279926D01*
X0511659Y0280042D01*
G37*
G36*
X0511644Y0279925D02*
X0512502Y0279817D01*
X0512488Y0279701D01*
X0511630Y0279809D01*
X0511644Y0279925D01*
G37*
G36*
X0511629Y0279808D02*
X0512487Y0279700D01*
X0512473Y0279584D01*
X0511615Y0279692D01*
X0511629Y0279808D01*
G37*
G36*
X0509637Y0280060D02*
X0510495Y0279952D01*
X0510481Y0279836D01*
X0509623Y0279944D01*
X0509637Y0280060D01*
G37*
G36*
X0509602Y0279786D02*
X0510460Y0279678D01*
X0510446Y0279562D01*
X0509588Y0279670D01*
X0509602Y0279786D01*
G37*
G36*
X0509588Y0279669D02*
X0510446Y0279561D01*
X0510432Y0279445D01*
X0509574Y0279553D01*
X0509588Y0279669D01*
G37*
G36*
X0508199Y0273960D02*
X0509057Y0273852D01*
X0509043Y0273736D01*
X0508185Y0273844D01*
X0508199Y0273960D01*
G37*
G36*
X0508052Y0273741D02*
X0508910Y0273633D01*
X0508896Y0273517D01*
X0508038Y0273625D01*
X0508052Y0273741D01*
G37*
G36*
X0508037Y0273624D02*
X0508895Y0273516D01*
X0508881Y0273400D01*
X0508023Y0273508D01*
X0508037Y0273624D01*
G37*
G36*
X0507885Y0273365D02*
X0508743Y0273257D01*
X0508729Y0273141D01*
X0507871Y0273249D01*
X0507885Y0273365D01*
G37*
G36*
X0507416Y0272789D02*
X0508274Y0272681D01*
X0508260Y0272565D01*
X0507402Y0272673D01*
X0507416Y0272789D01*
G37*
G36*
X0507401Y0272672D02*
X0508259Y0272564D01*
X0508245Y0272448D01*
X0507387Y0272556D01*
X0507401Y0272672D01*
G37*
G36*
X0506166Y0272947D02*
X0507024Y0272839D01*
X0507010Y0272723D01*
X0506152Y0272831D01*
X0506166Y0272947D01*
G37*
G36*
X0506083Y0273236D02*
X0506941Y0273128D01*
X0506927Y0273012D01*
X0506069Y0273120D01*
X0506083Y0273236D01*
G37*
G36*
X0506011Y0273602D02*
X0506869Y0273494D01*
X0506855Y0273378D01*
X0505997Y0273486D01*
X0506011Y0273602D01*
G37*
G36*
X0506098Y0273353D02*
X0506956Y0273245D01*
X0506942Y0273129D01*
X0506084Y0273237D01*
X0506098Y0273353D01*
G37*
G36*
X0505733Y0274550D02*
X0506591Y0274442D01*
X0506577Y0274326D01*
X0505719Y0274434D01*
X0505733Y0274550D01*
G37*
G36*
X0508184Y0273843D02*
X0509042Y0273735D01*
X0509028Y0273619D01*
X0508170Y0273727D01*
X0508184Y0273843D01*
G37*
G36*
X0509129Y0272216D02*
X0509987Y0272108D01*
X0509973Y0271992D01*
X0509115Y0272100D01*
X0509129Y0272216D01*
G37*
G36*
X0509095Y0271942D02*
X0509953Y0271834D01*
X0509939Y0271718D01*
X0509081Y0271826D01*
X0509095Y0271942D01*
G37*
G36*
X0506843Y0287161D02*
X0507706Y0287106D01*
X0507699Y0286989D01*
X0506836Y0287044D01*
X0506843Y0287161D01*
G37*
G36*
X0506748Y0287522D02*
X0507611Y0287467D01*
X0507604Y0287350D01*
X0506741Y0287405D01*
X0506748Y0287522D01*
G37*
G36*
X0506765Y0287797D02*
X0507628Y0287742D01*
X0507621Y0287625D01*
X0506758Y0287680D01*
X0506765Y0287797D01*
G37*
G36*
X0506890Y0287907D02*
X0507753Y0287852D01*
X0507746Y0287735D01*
X0506883Y0287790D01*
X0506890Y0287907D01*
G37*
G36*
X0506898Y0288025D02*
X0507761Y0287970D01*
X0507754Y0287853D01*
X0506891Y0287908D01*
X0506898Y0288025D01*
G37*
G36*
X0506851Y0287279D02*
X0507714Y0287224D01*
X0507707Y0287107D01*
X0506844Y0287162D01*
X0506851Y0287279D01*
G37*
G36*
X0509959Y0324303D02*
X0510822Y0324358D01*
X0510829Y0324241D01*
X0509966Y0324186D01*
X0509959Y0324303D01*
G37*
G36*
X0509952Y0324421D02*
X0510815Y0324476D01*
X0510822Y0324359D01*
X0509959Y0324304D01*
X0509952Y0324421D01*
G37*
G36*
X0509934Y0324696D02*
X0510797Y0324751D01*
X0510804Y0324634D01*
X0509941Y0324579D01*
X0509934Y0324696D01*
G37*
G36*
X0510547Y0326865D02*
X0511410Y0326920D01*
X0511417Y0326803D01*
X0510554Y0326748D01*
X0510547Y0326865D01*
G37*
G36*
X0511884Y0325687D02*
X0512747Y0325742D01*
X0512754Y0325625D01*
X0511891Y0325570D01*
X0511884Y0325687D01*
G37*
G36*
X0511891Y0325569D02*
X0512754Y0325624D01*
X0512761Y0325507D01*
X0511898Y0325452D01*
X0511891Y0325569D01*
G37*
G36*
X0511923Y0325058D02*
X0512786Y0325113D01*
X0512793Y0324996D01*
X0511930Y0324941D01*
X0511923Y0325058D01*
G37*
G36*
X0511931Y0324940D02*
X0512794Y0324995D01*
X0512801Y0324878D01*
X0511938Y0324823D01*
X0511931Y0324940D01*
G37*
G36*
X0511938Y0324822D02*
X0512801Y0324877D01*
X0512808Y0324760D01*
X0511945Y0324705D01*
X0511938Y0324822D01*
G37*
D12*
G36*
X0511680Y0324530D02*
X0512701Y0324595D01*
X0512708Y0324478D01*
X0511687Y0324413D01*
X0511680Y0324530D01*
G37*
G36*
X0507175Y0318124D02*
X0508196Y0318189D01*
X0508203Y0318072D01*
X0507182Y0318007D01*
X0507175Y0318124D01*
G37*
G36*
X0507308Y0317896D02*
X0508329Y0317961D01*
X0508336Y0317844D01*
X0507315Y0317779D01*
X0507308Y0317896D01*
G37*
G36*
X0508590Y0315689D02*
X0509611Y0315754D01*
X0509618Y0315637D01*
X0508597Y0315572D01*
X0508590Y0315689D01*
G37*
X0513039Y0301132D03*
G36*
X0507461Y0295154D02*
X0508482Y0295089D01*
X0508475Y0294972D01*
X0507454Y0295037D01*
X0507461Y0295154D01*
G37*
G36*
X0507561Y0294871D02*
X0508582Y0294806D01*
X0508575Y0294689D01*
X0507554Y0294754D01*
X0507561Y0294871D01*
G37*
G36*
X0506905Y0288143D02*
X0507926Y0288078D01*
X0507919Y0287961D01*
X0506898Y0288026D01*
X0506905Y0288143D01*
G37*
G36*
X0506943Y0286879D02*
X0507964Y0286814D01*
X0507957Y0286697D01*
X0506936Y0286762D01*
X0506943Y0286879D01*
G37*
G36*
X0508947Y0286752D02*
X0509968Y0286687D01*
X0509961Y0286570D01*
X0508940Y0286635D01*
X0508947Y0286752D01*
G37*
G36*
X0508926Y0288292D02*
X0509947Y0288227D01*
X0509940Y0288110D01*
X0508919Y0288175D01*
X0508926Y0288292D01*
G37*
G36*
X0512006Y0288966D02*
X0513027Y0288901D01*
X0513020Y0288784D01*
X0511999Y0288849D01*
X0512006Y0288966D01*
G37*
G36*
X0511321Y0279569D02*
X0512336Y0279442D01*
X0512321Y0279325D01*
X0511306Y0279452D01*
X0511321Y0279569D01*
G37*
G36*
X0505699Y0274276D02*
X0506714Y0274149D01*
X0506699Y0274032D01*
X0505684Y0274159D01*
X0505699Y0274276D01*
G37*
G36*
X0505787Y0274027D02*
X0506802Y0273900D01*
X0506787Y0273783D01*
X0505772Y0273910D01*
X0505787Y0274027D01*
G37*
G36*
X0506633Y0271619D02*
X0507648Y0271492D01*
X0507633Y0271375D01*
X0506618Y0271502D01*
X0506633Y0271619D01*
G37*
G36*
X0367710Y0289111D02*
X0368720Y0288952D01*
X0368702Y0288835D01*
X0367692Y0288994D01*
X0367710Y0289111D01*
G37*
G36*
X0364580Y0288730D02*
X0365590Y0288571D01*
X0365572Y0288454D01*
X0364562Y0288613D01*
X0364580Y0288730D01*
G37*
G36*
X0362554Y0288772D02*
X0363564Y0288613D01*
X0363546Y0288496D01*
X0362536Y0288655D01*
X0362554Y0288772D01*
G37*
G36*
X0362474Y0287509D02*
X0363484Y0287350D01*
X0363466Y0287233D01*
X0362456Y0287392D01*
X0362474Y0287509D01*
G37*
G36*
X0364457Y0287195D02*
X0365467Y0287036D01*
X0365449Y0286919D01*
X0364439Y0287078D01*
X0364457Y0287195D01*
G37*
G36*
X0363840Y0295241D02*
X0364850Y0295082D01*
X0364832Y0294965D01*
X0363822Y0295124D01*
X0363840Y0295241D01*
G37*
G36*
X0363767Y0295532D02*
X0364777Y0295373D01*
X0364759Y0295256D01*
X0363749Y0295415D01*
X0363767Y0295532D01*
G37*
X0370039Y0301382D03*
G36*
X0365251Y0315623D02*
X0366264Y0315764D01*
X0366281Y0315647D01*
X0365268Y0315506D01*
X0365251Y0315623D01*
G37*
G36*
X0363802Y0317726D02*
X0364815Y0317867D01*
X0364832Y0317750D01*
X0363819Y0317609D01*
X0363802Y0317726D01*
G37*
G36*
X0363653Y0317943D02*
X0364666Y0318084D01*
X0364683Y0317967D01*
X0363670Y0317826D01*
X0363653Y0317943D01*
G37*
G36*
X0367516Y0324468D02*
X0368529Y0324609D01*
X0368546Y0324492D01*
X0367533Y0324351D01*
X0367516Y0324468D01*
G37*
G36*
X0365863Y0279615D02*
X0366836Y0279299D01*
X0366799Y0279187D01*
X0365826Y0279503D01*
X0365863Y0279615D01*
G37*
G36*
X0359278Y0275598D02*
X0360251Y0275282D01*
X0360214Y0275170D01*
X0359241Y0275486D01*
X0359278Y0275598D01*
G37*
G36*
X0359318Y0275337D02*
X0360291Y0275021D01*
X0360254Y0274909D01*
X0359281Y0275225D01*
X0359318Y0275337D01*
G37*
G36*
X0359698Y0272812D02*
X0360671Y0272496D01*
X0360634Y0272384D01*
X0359661Y0272700D01*
X0359698Y0272812D01*
G37*
X0318639Y0301732D03*
G36*
X0313775Y0313641D02*
X0314748Y0313957D01*
X0314785Y0313845D01*
X0313812Y0313529D01*
X0313775Y0313641D01*
G37*
G36*
X0311983Y0315460D02*
X0312956Y0315776D01*
X0312993Y0315664D01*
X0312020Y0315348D01*
X0311983Y0315460D01*
G37*
G36*
X0311798Y0315648D02*
X0312771Y0315964D01*
X0312808Y0315852D01*
X0311835Y0315536D01*
X0311798Y0315648D01*
G37*
G36*
X0314800Y0323036D02*
X0315773Y0323352D01*
X0315810Y0323240D01*
X0314837Y0322924D01*
X0314800Y0323036D01*
G37*
X0289879Y0348888D03*
X0289879Y0349518D03*
X0287123Y0347982D03*
X0283580Y0349872D03*
X0282950Y0348612D03*
X0279564Y0348888D03*
X0279564Y0349518D03*
X0278304Y0348612D03*
X0277674Y0349872D03*
X0277081Y0351366D03*
X0277711Y0352114D03*
X0277830Y0352862D03*
X0276333Y0352862D03*
X0276333Y0352114D03*
X0273814Y0352744D03*
X0271294Y0352744D03*
X0271294Y0352232D03*
X0272005Y0349518D03*
X0273383Y0349518D03*
X0273383Y0347864D03*
X0272005Y0347864D03*
X0265231Y0352114D03*
X0264601Y0351366D03*
X0263853Y0352114D03*
X0263853Y0352862D03*
X0262475Y0352862D03*
X0260784Y0350384D03*
X0259406Y0347982D03*
X0256257Y0347864D03*
X0268144Y0354634D03*
X0279719Y0352862D03*
X0277081Y0401366D03*
X0277711Y0402114D03*
X0277830Y0402862D03*
X0276333Y0402862D03*
X0276333Y0402114D03*
X0273814Y0402744D03*
X0271294Y0402744D03*
X0271294Y0402232D03*
X0268144Y0404634D03*
X0265231Y0402114D03*
X0264601Y0401366D03*
X0263853Y0402114D03*
X0263853Y0402862D03*
X0262475Y0402862D03*
X0279719Y0402862D03*
G36*
X0308610Y0287389D02*
X0309437Y0286788D01*
X0309368Y0286693D01*
X0308541Y0287294D01*
X0308610Y0287389D01*
G37*
G36*
X0308567Y0287128D02*
X0309394Y0286527D01*
X0309325Y0286432D01*
X0308498Y0287033D01*
X0308567Y0287128D01*
G37*
G36*
X0308148Y0284610D02*
X0308975Y0284009D01*
X0308906Y0283914D01*
X0308079Y0284515D01*
X0308148Y0284610D01*
G37*
G36*
X0307008Y0276629D02*
X0307835Y0276028D01*
X0307766Y0275933D01*
X0306939Y0276534D01*
X0307008Y0276629D01*
G37*
X0275831Y0546116D03*
X0276461Y0546864D03*
X0276580Y0547612D03*
X0275083Y0547612D03*
X0275083Y0546864D03*
X0272564Y0547494D03*
X0270044Y0547494D03*
X0270044Y0546982D03*
X0266894Y0549384D03*
X0263981Y0546864D03*
X0263351Y0546116D03*
X0262603Y0546864D03*
X0262603Y0547612D03*
X0261225Y0547612D03*
X0278469Y0547612D03*
D13*
X0283135Y0549266D03*
X0284385Y0404516D03*
X0284385Y0354516D03*
X0275017Y0349518D03*
X0275017Y0349124D03*
X0290646Y0348258D03*
G36*
X0312898Y0324820D02*
X0314356Y0325293D01*
X0314392Y0325180D01*
X0312934Y0324707D01*
X0312898Y0324820D01*
G37*
G36*
X0307332Y0279216D02*
X0308572Y0278315D01*
X0308502Y0278220D01*
X0307262Y0279121D01*
X0307332Y0279216D01*
G37*
G36*
X0365370Y0282176D02*
X0366828Y0281703D01*
X0366792Y0281590D01*
X0365334Y0282063D01*
X0365370Y0282176D01*
G37*
G36*
X0365952Y0326554D02*
X0367470Y0326767D01*
X0367486Y0326650D01*
X0365968Y0326437D01*
X0365952Y0326554D01*
G37*
G36*
X0510280Y0326730D02*
X0511810Y0326827D01*
X0511818Y0326710D01*
X0510288Y0326613D01*
X0510280Y0326730D01*
G37*
G36*
X0510358Y0281993D02*
X0511879Y0281802D01*
X0511864Y0281685D01*
X0510343Y0281876D01*
X0510358Y0281993D01*
G37*
D14*
G36*
X0507525Y0286092D02*
X0509292Y0285981D01*
X0509285Y0285864D01*
X0507518Y0285975D01*
X0507525Y0286092D01*
G37*
G36*
X0511488Y0288880D02*
X0513255Y0288769D01*
X0513248Y0288652D01*
X0511481Y0288763D01*
X0511488Y0288880D01*
G37*
G36*
X0511169Y0293894D02*
X0512936Y0293783D01*
X0512929Y0293666D01*
X0511162Y0293777D01*
X0511169Y0293894D01*
G37*
G36*
X0508143Y0294085D02*
X0509910Y0293974D01*
X0509903Y0293857D01*
X0508136Y0293968D01*
X0508143Y0294085D01*
G37*
X0512035Y0300384D03*
X0512883Y0308366D03*
G36*
X0508141Y0316568D02*
X0509908Y0316679D01*
X0509915Y0316562D01*
X0508148Y0316451D01*
X0508141Y0316568D01*
G37*
G36*
X0511237Y0317512D02*
X0513004Y0317623D01*
X0513011Y0317506D01*
X0511244Y0317395D01*
X0511237Y0317512D01*
G37*
G36*
X0510922Y0318755D02*
X0512689Y0318866D01*
X0512696Y0318749D01*
X0510929Y0318638D01*
X0510922Y0318755D01*
G37*
G36*
X0509498Y0274193D02*
X0511255Y0273972D01*
X0511240Y0273855D01*
X0509483Y0274076D01*
X0509498Y0274193D01*
G37*
G36*
X0509575Y0272914D02*
X0511332Y0272693D01*
X0511317Y0272576D01*
X0509560Y0272797D01*
X0509575Y0272914D01*
G37*
G36*
X0506356Y0272566D02*
X0508113Y0272345D01*
X0508098Y0272228D01*
X0506341Y0272449D01*
X0506356Y0272566D01*
G37*
G36*
X0367186Y0289074D02*
X0368935Y0288798D01*
X0368916Y0288682D01*
X0367167Y0288958D01*
X0367186Y0289074D01*
G37*
G36*
X0362979Y0286671D02*
X0364728Y0286395D01*
X0364709Y0286279D01*
X0362960Y0286555D01*
X0362979Y0286671D01*
G37*
G36*
X0364346Y0294403D02*
X0366095Y0294127D01*
X0366076Y0294011D01*
X0364327Y0294287D01*
X0364346Y0294403D01*
G37*
G36*
X0367340Y0293929D02*
X0369089Y0293653D01*
X0369070Y0293537D01*
X0367321Y0293813D01*
X0367340Y0293929D01*
G37*
X0369035Y0300634D03*
X0369383Y0308616D03*
G36*
X0364735Y0316465D02*
X0366489Y0316710D01*
X0366505Y0316593D01*
X0364751Y0316348D01*
X0364735Y0316465D01*
G37*
G36*
X0367750Y0317644D02*
X0369504Y0317889D01*
X0369520Y0317772D01*
X0367766Y0317527D01*
X0367750Y0317644D01*
G37*
G36*
X0367341Y0318859D02*
X0369095Y0319104D01*
X0369111Y0318987D01*
X0367357Y0318742D01*
X0367341Y0318859D01*
G37*
G36*
X0362994Y0274804D02*
X0364678Y0274258D01*
X0364642Y0274146D01*
X0362958Y0274692D01*
X0362994Y0274804D01*
G37*
G36*
X0362829Y0273533D02*
X0364513Y0272987D01*
X0364477Y0272875D01*
X0362793Y0273421D01*
X0362829Y0273533D01*
G37*
G36*
X0359603Y0273795D02*
X0361287Y0273249D01*
X0361251Y0273137D01*
X0359567Y0273683D01*
X0359603Y0273795D01*
G37*
X0317635Y0300984D03*
X0318633Y0308616D03*
G36*
X0313121Y0314381D02*
X0314805Y0314927D01*
X0314841Y0314815D01*
X0313157Y0314269D01*
X0313121Y0314381D01*
G37*
G36*
X0315885Y0316066D02*
X0317569Y0316612D01*
X0317605Y0316500D01*
X0315921Y0315954D01*
X0315885Y0316066D01*
G37*
G36*
X0315271Y0317191D02*
X0316955Y0317737D01*
X0316991Y0317625D01*
X0315307Y0317079D01*
X0315271Y0317191D01*
G37*
G36*
X0311899Y0285486D02*
X0313332Y0284445D01*
X0313263Y0284350D01*
X0311830Y0285391D01*
X0311899Y0285486D01*
G37*
G36*
X0311349Y0284328D02*
X0312782Y0283287D01*
X0312713Y0283192D01*
X0311280Y0284233D01*
X0311349Y0284328D01*
G37*
G36*
X0308361Y0285574D02*
X0309794Y0284533D01*
X0309725Y0284438D01*
X0308292Y0285479D01*
X0308361Y0285574D01*
G37*
X0280804Y0347982D03*
X0280686Y0350266D03*
X0283599Y0349124D03*
X0284385Y0351484D03*
X0277654Y0349124D03*
X0268007Y0354516D03*
X0264621Y0353374D03*
X0264621Y0351602D03*
X0260646Y0350266D03*
X0256749Y0349124D03*
X0256749Y0349006D03*
X0256749Y0348888D03*
X0256749Y0347234D03*
X0264621Y0401602D03*
X0264621Y0403374D03*
X0268007Y0404516D03*
X0284385Y0401484D03*
X0283135Y0546234D03*
X0266757Y0549266D03*
X0263371Y0548124D03*
X0263371Y0546352D03*
D15*
X0263351Y0548518D03*
X0261225Y0549266D03*
X0275831Y0548518D03*
X0262475Y0404516D03*
X0264601Y0403768D03*
X0277081Y0403768D03*
X0262475Y0354516D03*
X0264601Y0353768D03*
X0275391Y0348888D03*
X0277081Y0353768D03*
G36*
X0312015Y0316256D02*
X0312238Y0316329D01*
X0312275Y0316218D01*
X0312052Y0316145D01*
X0312015Y0316256D01*
G37*
G36*
X0309230Y0287572D02*
X0309420Y0287434D01*
X0309350Y0287338D01*
X0309160Y0287476D01*
X0309230Y0287572D01*
G37*
G36*
X0359811Y0275963D02*
X0360034Y0275890D01*
X0359997Y0275779D01*
X0359774Y0275852D01*
X0359811Y0275963D01*
G37*
G36*
X0363971Y0318504D02*
X0364204Y0318536D01*
X0364221Y0318420D01*
X0363988Y0318388D01*
X0363971Y0318504D01*
G37*
G36*
X0507536Y0318660D02*
X0507771Y0318675D01*
X0507778Y0318558D01*
X0507543Y0318543D01*
X0507536Y0318660D01*
G37*
G36*
X0506154Y0274735D02*
X0506387Y0274705D01*
X0506372Y0274589D01*
X0506139Y0274619D01*
X0506154Y0274735D01*
G37*
D16*
G36*
X0509434Y0273685D02*
X0511308Y0273450D01*
X0511294Y0273333D01*
X0509420Y0273568D01*
X0509434Y0273685D01*
G37*
G36*
X0509419Y0273568D02*
X0511293Y0273333D01*
X0511279Y0273216D01*
X0509405Y0273451D01*
X0509419Y0273568D01*
G37*
G36*
X0509442Y0272811D02*
X0511316Y0272576D01*
X0511302Y0272459D01*
X0509428Y0272694D01*
X0509442Y0272811D01*
G37*
G36*
X0509250Y0271288D02*
X0511124Y0271053D01*
X0511110Y0270936D01*
X0509236Y0271171D01*
X0509250Y0271288D01*
G37*
G36*
X0509743Y0279014D02*
X0511617Y0278779D01*
X0511603Y0278662D01*
X0509729Y0278897D01*
X0509743Y0279014D01*
G37*
G36*
X0507590Y0289007D02*
X0509475Y0288889D01*
X0509468Y0288771D01*
X0507583Y0288889D01*
X0507590Y0289007D01*
G37*
G36*
X0508326Y0296992D02*
X0510211Y0296874D01*
X0510204Y0296756D01*
X0508319Y0296874D01*
X0508326Y0296992D01*
G37*
G36*
X0511352Y0296802D02*
X0513237Y0296684D01*
X0513230Y0296566D01*
X0511345Y0296684D01*
X0511352Y0296802D01*
G37*
X0511976Y0303298D03*
X0512824Y0311516D03*
G36*
X0511223Y0315855D02*
X0513108Y0315973D01*
X0513115Y0315855D01*
X0511230Y0315737D01*
X0511223Y0315855D01*
G37*
G36*
X0511127Y0317388D02*
X0513012Y0317506D01*
X0513019Y0317388D01*
X0511134Y0317270D01*
X0511127Y0317388D01*
G37*
G36*
X0510962Y0318127D02*
X0512847Y0318245D01*
X0512854Y0318127D01*
X0510969Y0318009D01*
X0510962Y0318127D01*
G37*
G36*
X0510955Y0318245D02*
X0512840Y0318363D01*
X0512847Y0318245D01*
X0510962Y0318127D01*
X0510955Y0318245D01*
G37*
G36*
X0510234Y0323691D02*
X0512119Y0323809D01*
X0512126Y0323691D01*
X0510241Y0323573D01*
X0510234Y0323691D01*
G37*
X0369324Y0311766D03*
G36*
X0367863Y0315990D02*
X0369734Y0316252D01*
X0369751Y0316136D01*
X0367880Y0315874D01*
X0367863Y0315990D01*
G37*
G36*
X0367649Y0317510D02*
X0369520Y0317772D01*
X0369537Y0317656D01*
X0367666Y0317394D01*
X0367649Y0317510D01*
G37*
G36*
X0367428Y0318234D02*
X0369299Y0318496D01*
X0369316Y0318380D01*
X0367445Y0318118D01*
X0367428Y0318234D01*
G37*
G36*
X0367412Y0318351D02*
X0369283Y0318613D01*
X0369300Y0318497D01*
X0367429Y0318235D01*
X0367412Y0318351D01*
G37*
G36*
X0366139Y0323518D02*
X0368010Y0323780D01*
X0368027Y0323664D01*
X0366156Y0323402D01*
X0366139Y0323518D01*
G37*
X0368976Y0303548D03*
G36*
X0367795Y0296807D02*
X0369661Y0296512D01*
X0369643Y0296395D01*
X0367777Y0296690D01*
X0367795Y0296807D01*
G37*
G36*
X0364801Y0297281D02*
X0366667Y0296986D01*
X0366649Y0296869D01*
X0364783Y0297164D01*
X0364801Y0297281D01*
G37*
G36*
X0363318Y0289568D02*
X0365184Y0289273D01*
X0365166Y0289156D01*
X0363300Y0289451D01*
X0363318Y0289568D01*
G37*
G36*
X0364208Y0279366D02*
X0366004Y0278783D01*
X0365968Y0278670D01*
X0364172Y0279253D01*
X0364208Y0279366D01*
G37*
G36*
X0362836Y0274318D02*
X0364632Y0273735D01*
X0364596Y0273622D01*
X0362800Y0274205D01*
X0362836Y0274318D01*
G37*
G36*
X0362800Y0274206D02*
X0364596Y0273623D01*
X0364560Y0273510D01*
X0362764Y0274093D01*
X0362800Y0274206D01*
G37*
G36*
X0362681Y0273458D02*
X0364477Y0272875D01*
X0364441Y0272762D01*
X0362645Y0273345D01*
X0362681Y0273458D01*
G37*
G36*
X0362206Y0271998D02*
X0364002Y0271415D01*
X0363966Y0271302D01*
X0362170Y0271885D01*
X0362206Y0271998D01*
G37*
X0318574Y0311766D03*
G36*
X0316284Y0314457D02*
X0318080Y0315040D01*
X0318116Y0314927D01*
X0316320Y0314344D01*
X0316284Y0314457D01*
G37*
G36*
X0315810Y0315917D02*
X0317606Y0316500D01*
X0317642Y0316387D01*
X0315846Y0315804D01*
X0315810Y0315917D01*
G37*
G36*
X0315466Y0316592D02*
X0317262Y0317175D01*
X0317298Y0317062D01*
X0315502Y0316479D01*
X0315466Y0316592D01*
G37*
G36*
X0315430Y0316705D02*
X0317226Y0317288D01*
X0317262Y0317175D01*
X0315466Y0316592D01*
X0315430Y0316705D01*
G37*
G36*
X0313609Y0321864D02*
X0315405Y0322447D01*
X0315441Y0322334D01*
X0313645Y0321751D01*
X0313609Y0321864D01*
G37*
X0317576Y0303898D03*
G36*
X0311599Y0285072D02*
X0313127Y0283962D01*
X0313057Y0283866D01*
X0311529Y0284976D01*
X0311599Y0285072D01*
G37*
G36*
X0311529Y0284976D02*
X0313057Y0283866D01*
X0312987Y0283770D01*
X0311459Y0284880D01*
X0311529Y0284976D01*
G37*
G36*
X0311185Y0284302D02*
X0312713Y0283192D01*
X0312643Y0283096D01*
X0311115Y0284206D01*
X0311185Y0284302D01*
G37*
G36*
X0310283Y0283060D02*
X0311811Y0281950D01*
X0311741Y0281854D01*
X0310213Y0282964D01*
X0310283Y0283060D01*
G37*
G36*
X0305358Y0276904D02*
X0306886Y0275794D01*
X0306816Y0275698D01*
X0305288Y0276808D01*
X0305358Y0276904D01*
G37*
X0272674Y0347352D03*
X0277595Y0349006D03*
X0279286Y0353138D03*
X0279286Y0353256D03*
X0279286Y0353374D03*
X0279286Y0353492D03*
X0284444Y0354398D03*
X0283658Y0349006D03*
X0263619Y0349124D03*
X0262278Y0353138D03*
X0262278Y0353256D03*
X0262278Y0353374D03*
X0262278Y0353492D03*
X0256690Y0347628D03*
X0256808Y0347352D03*
X0262278Y0403138D03*
X0262278Y0403256D03*
X0262278Y0403374D03*
X0262278Y0403492D03*
X0279286Y0403492D03*
X0279286Y0403374D03*
X0279286Y0403256D03*
X0279286Y0403138D03*
X0284444Y0404398D03*
X0278036Y0547888D03*
X0278036Y0548006D03*
X0278036Y0548124D03*
X0278036Y0548242D03*
X0283194Y0549148D03*
X0261028Y0548242D03*
X0261028Y0548124D03*
X0261028Y0548006D03*
X0261028Y0547888D03*
D17*
X0266698Y0549148D03*
X0269099Y0548124D03*
X0269099Y0546352D03*
X0280674Y0548124D03*
X0283194Y0546352D03*
X0267948Y0404398D03*
X0270349Y0403374D03*
X0270349Y0401602D03*
X0281924Y0403374D03*
X0284444Y0401602D03*
X0267948Y0354398D03*
X0270349Y0353374D03*
X0270349Y0351602D03*
X0270036Y0347864D03*
X0266020Y0347116D03*
X0263501Y0348494D03*
X0263501Y0348612D03*
X0263501Y0348888D03*
X0263501Y0349006D03*
X0260587Y0350148D03*
X0280627Y0350148D03*
X0280627Y0348258D03*
X0284444Y0351602D03*
X0281924Y0353374D03*
X0290706Y0347864D03*
G36*
X0313460Y0321939D02*
X0315481Y0322595D01*
X0315518Y0322483D01*
X0313497Y0321827D01*
X0313460Y0321939D01*
G37*
G36*
X0315706Y0315469D02*
X0317727Y0316125D01*
X0317764Y0316013D01*
X0315743Y0315357D01*
X0315706Y0315469D01*
G37*
G36*
X0315937Y0314758D02*
X0317958Y0315414D01*
X0317995Y0315302D01*
X0315974Y0314646D01*
X0315937Y0314758D01*
G37*
G36*
X0316086Y0314682D02*
X0318107Y0315338D01*
X0318144Y0315226D01*
X0316123Y0314570D01*
X0316086Y0314682D01*
G37*
X0318456Y0311648D03*
X0318456Y0308852D03*
X0317576Y0301102D03*
G36*
X0310762Y0284122D02*
X0312481Y0282873D01*
X0312412Y0282778D01*
X0310693Y0284027D01*
X0310762Y0284122D01*
G37*
G36*
X0310322Y0283516D02*
X0312041Y0282267D01*
X0311972Y0282172D01*
X0310253Y0283421D01*
X0310322Y0283516D01*
G37*
G36*
X0310349Y0283351D02*
X0312068Y0282102D01*
X0311999Y0282007D01*
X0310280Y0283256D01*
X0310349Y0283351D01*
G37*
G36*
X0305331Y0277068D02*
X0307050Y0275819D01*
X0306981Y0275724D01*
X0305262Y0276973D01*
X0305331Y0277068D01*
G37*
G36*
X0362104Y0272444D02*
X0364125Y0271788D01*
X0364088Y0271676D01*
X0362067Y0272332D01*
X0362104Y0272444D01*
G37*
G36*
X0362180Y0272296D02*
X0364201Y0271640D01*
X0364164Y0271528D01*
X0362143Y0272184D01*
X0362180Y0272296D01*
G37*
G36*
X0362335Y0273156D02*
X0364356Y0272500D01*
X0364319Y0272388D01*
X0362298Y0273044D01*
X0362335Y0273156D01*
G37*
G36*
X0364133Y0279515D02*
X0366154Y0278859D01*
X0366117Y0278747D01*
X0364096Y0279403D01*
X0364133Y0279515D01*
G37*
G36*
X0362764Y0286825D02*
X0364863Y0286493D01*
X0364844Y0286377D01*
X0362745Y0286709D01*
X0362764Y0286825D01*
G37*
G36*
X0366479Y0286117D02*
X0368578Y0285785D01*
X0368559Y0285669D01*
X0366460Y0286001D01*
X0366479Y0286117D01*
G37*
G36*
X0366935Y0288995D02*
X0369034Y0288663D01*
X0369015Y0288547D01*
X0366916Y0288879D01*
X0366935Y0288995D01*
G37*
G36*
X0367242Y0294064D02*
X0369341Y0293732D01*
X0369322Y0293616D01*
X0367223Y0293948D01*
X0367242Y0294064D01*
G37*
X0368976Y0300752D03*
X0369206Y0308852D03*
X0369206Y0311648D03*
G36*
X0367708Y0316246D02*
X0369812Y0316541D01*
X0369828Y0316424D01*
X0367724Y0316129D01*
X0367708Y0316246D01*
G37*
G36*
X0367575Y0316347D02*
X0369679Y0316642D01*
X0369695Y0316525D01*
X0367591Y0316230D01*
X0367575Y0316347D01*
G37*
G36*
X0367471Y0317088D02*
X0369575Y0317383D01*
X0369591Y0317266D01*
X0367487Y0316971D01*
X0367471Y0317088D01*
G37*
G36*
X0366006Y0323619D02*
X0368110Y0323914D01*
X0368126Y0323797D01*
X0366022Y0323502D01*
X0366006Y0323619D01*
G37*
G36*
X0507297Y0286225D02*
X0509418Y0286093D01*
X0509411Y0285975D01*
X0507290Y0286107D01*
X0507297Y0286225D01*
G37*
G36*
X0511061Y0285869D02*
X0513182Y0285737D01*
X0513175Y0285619D01*
X0511054Y0285751D01*
X0511061Y0285869D01*
G37*
G36*
X0511244Y0288777D02*
X0513365Y0288645D01*
X0513358Y0288527D01*
X0511237Y0288659D01*
X0511244Y0288777D01*
G37*
G36*
X0511058Y0294019D02*
X0513179Y0293887D01*
X0513172Y0293769D01*
X0511051Y0293901D01*
X0511058Y0294019D01*
G37*
X0511976Y0300502D03*
X0512706Y0308602D03*
X0512706Y0311398D03*
G36*
X0511088Y0316123D02*
X0513209Y0316255D01*
X0513216Y0316137D01*
X0511095Y0316005D01*
X0511088Y0316123D01*
G37*
G36*
X0510963Y0316234D02*
X0513084Y0316366D01*
X0513091Y0316248D01*
X0510970Y0316116D01*
X0510963Y0316234D01*
G37*
G36*
X0510916Y0316981D02*
X0513037Y0317113D01*
X0513044Y0316995D01*
X0510923Y0316863D01*
X0510916Y0316981D01*
G37*
G36*
X0510109Y0323801D02*
X0512230Y0323933D01*
X0512237Y0323815D01*
X0510116Y0323683D01*
X0510109Y0323801D01*
G37*
G36*
X0509641Y0279146D02*
X0511750Y0278881D01*
X0511735Y0278764D01*
X0509626Y0279029D01*
X0509641Y0279146D01*
G37*
G36*
X0509159Y0272450D02*
X0511268Y0272185D01*
X0511253Y0272068D01*
X0509144Y0272333D01*
X0509159Y0272450D01*
G37*
G36*
X0509065Y0271708D02*
X0511174Y0271443D01*
X0511159Y0271326D01*
X0509050Y0271591D01*
X0509065Y0271708D01*
G37*
G36*
X0509167Y0271576D02*
X0511276Y0271311D01*
X0511261Y0271194D01*
X0509152Y0271459D01*
X0509167Y0271576D01*
G37*
D18*
G36*
X0510447Y0271653D02*
X0511188Y0271559D01*
X0511173Y0271443D01*
X0510432Y0271537D01*
X0510447Y0271653D01*
G37*
G36*
X0510537Y0273308D02*
X0511278Y0273214D01*
X0511263Y0273098D01*
X0510522Y0273192D01*
X0510537Y0273308D01*
G37*
G36*
X0508351Y0274219D02*
X0509092Y0274125D01*
X0509077Y0274009D01*
X0508336Y0274103D01*
X0508351Y0274219D01*
G37*
G36*
X0507387Y0272556D02*
X0508128Y0272462D01*
X0508113Y0272346D01*
X0507372Y0272440D01*
X0507387Y0272556D01*
G37*
G36*
X0506736Y0271487D02*
X0507477Y0271393D01*
X0507462Y0271277D01*
X0506721Y0271371D01*
X0506736Y0271487D01*
G37*
G36*
X0511791Y0280145D02*
X0512532Y0280051D01*
X0512517Y0279935D01*
X0511776Y0280029D01*
X0511791Y0280145D01*
G37*
G36*
X0511826Y0280419D02*
X0512567Y0280325D01*
X0512552Y0280209D01*
X0511811Y0280303D01*
X0511826Y0280419D01*
G37*
G36*
X0510426Y0287685D02*
X0511171Y0287638D01*
X0511164Y0287521D01*
X0510419Y0287568D01*
X0510426Y0287685D01*
G37*
G36*
X0508234Y0289203D02*
X0508979Y0289156D01*
X0508972Y0289039D01*
X0508227Y0289086D01*
X0508234Y0289203D01*
G37*
G36*
X0506858Y0287396D02*
X0507603Y0287349D01*
X0507596Y0287232D01*
X0506851Y0287279D01*
X0506858Y0287396D01*
G37*
G36*
X0511091Y0294530D02*
X0511836Y0294483D01*
X0511829Y0294366D01*
X0511084Y0294413D01*
X0511091Y0294530D01*
G37*
G36*
X0509991Y0295231D02*
X0510736Y0295184D01*
X0510729Y0295067D01*
X0509984Y0295114D01*
X0509991Y0295231D01*
G37*
G36*
X0509998Y0295349D02*
X0510743Y0295302D01*
X0510736Y0295185D01*
X0509991Y0295232D01*
X0509998Y0295349D01*
G37*
G36*
X0510015Y0295624D02*
X0510760Y0295577D01*
X0510753Y0295460D01*
X0510008Y0295507D01*
X0510015Y0295624D01*
G37*
G36*
X0508852Y0297196D02*
X0509597Y0297149D01*
X0509590Y0297032D01*
X0508845Y0297079D01*
X0508852Y0297196D01*
G37*
X0511405Y0301014D03*
X0513294Y0301644D03*
X0513294Y0301762D03*
X0513294Y0302038D03*
X0510145Y0303416D03*
X0510245Y0308484D03*
X0510245Y0311398D03*
X0510245Y0311516D03*
X0513394Y0310768D03*
X0513394Y0310492D03*
X0513394Y0310374D03*
X0513394Y0310256D03*
X0513394Y0310138D03*
X0513394Y0309862D03*
X0513394Y0309744D03*
X0513394Y0309626D03*
X0513394Y0309508D03*
X0513394Y0309232D03*
G36*
X0512331Y0316437D02*
X0513076Y0316484D01*
X0513083Y0316367D01*
X0512338Y0316320D01*
X0512331Y0316437D01*
G37*
G36*
X0512109Y0318080D02*
X0512854Y0318127D01*
X0512861Y0318010D01*
X0512116Y0317963D01*
X0512109Y0318080D01*
G37*
G36*
X0509791Y0318565D02*
X0510536Y0318612D01*
X0510543Y0318495D01*
X0509798Y0318448D01*
X0509791Y0318565D01*
G37*
G36*
X0509155Y0316750D02*
X0509900Y0316797D01*
X0509907Y0316680D01*
X0509162Y0316633D01*
X0509155Y0316750D01*
G37*
G36*
X0508716Y0315579D02*
X0509461Y0315626D01*
X0509468Y0315509D01*
X0508723Y0315462D01*
X0508716Y0315579D01*
G37*
G36*
X0512034Y0325184D02*
X0512779Y0325231D01*
X0512786Y0325114D01*
X0512041Y0325067D01*
X0512034Y0325184D01*
G37*
G36*
X0512017Y0325459D02*
X0512762Y0325506D01*
X0512769Y0325389D01*
X0512024Y0325342D01*
X0512017Y0325459D01*
G37*
X0369894Y0311018D03*
X0369894Y0310742D03*
X0369894Y0310624D03*
X0369894Y0310506D03*
X0369894Y0310388D03*
X0369894Y0310112D03*
X0369894Y0309994D03*
X0369894Y0309876D03*
X0369894Y0309758D03*
X0369894Y0309482D03*
X0366745Y0308734D03*
X0366745Y0311648D03*
X0366745Y0311766D03*
G36*
X0365385Y0315521D02*
X0366125Y0315625D01*
X0366141Y0315509D01*
X0365401Y0315405D01*
X0365385Y0315521D01*
G37*
G36*
X0365733Y0316723D02*
X0366473Y0316827D01*
X0366489Y0316711D01*
X0365749Y0316607D01*
X0365733Y0316723D01*
G37*
G36*
X0366227Y0318582D02*
X0366967Y0318686D01*
X0366983Y0318570D01*
X0366243Y0318466D01*
X0366227Y0318582D01*
G37*
G36*
X0368576Y0318276D02*
X0369316Y0318380D01*
X0369332Y0318264D01*
X0368592Y0318160D01*
X0368576Y0318276D01*
G37*
G36*
X0368923Y0316655D02*
X0369663Y0316759D01*
X0369679Y0316643D01*
X0368939Y0316539D01*
X0368923Y0316655D01*
G37*
G36*
X0367819Y0325146D02*
X0368559Y0325250D01*
X0368575Y0325134D01*
X0367835Y0325030D01*
X0367819Y0325146D01*
G37*
G36*
X0367780Y0325418D02*
X0368520Y0325522D01*
X0368536Y0325406D01*
X0367796Y0325302D01*
X0367780Y0325418D01*
G37*
X0367145Y0303666D03*
X0368405Y0301264D03*
X0370294Y0301894D03*
X0370294Y0302012D03*
X0370294Y0302288D03*
G36*
X0365344Y0297434D02*
X0366082Y0297318D01*
X0366064Y0297202D01*
X0365326Y0297318D01*
X0365344Y0297434D01*
G37*
G36*
X0366354Y0295759D02*
X0367092Y0295643D01*
X0367074Y0295527D01*
X0366336Y0295643D01*
X0366354Y0295759D01*
G37*
G36*
X0366311Y0295487D02*
X0367049Y0295371D01*
X0367031Y0295255D01*
X0366293Y0295371D01*
X0366311Y0295487D01*
G37*
G36*
X0366292Y0295370D02*
X0367030Y0295254D01*
X0367012Y0295138D01*
X0366274Y0295254D01*
X0366292Y0295370D01*
G37*
G36*
X0367321Y0294569D02*
X0368059Y0294453D01*
X0368041Y0294337D01*
X0367303Y0294453D01*
X0367321Y0294569D01*
G37*
G36*
X0363977Y0289702D02*
X0364715Y0289586D01*
X0364697Y0289470D01*
X0363959Y0289586D01*
X0363977Y0289702D01*
G37*
G36*
X0362437Y0288033D02*
X0363175Y0287917D01*
X0363157Y0287801D01*
X0362419Y0287917D01*
X0362437Y0288033D01*
G37*
G36*
X0366017Y0287984D02*
X0366755Y0287868D01*
X0366737Y0287752D01*
X0365999Y0287868D01*
X0366017Y0287984D01*
G37*
G36*
X0366517Y0280354D02*
X0367227Y0280124D01*
X0367191Y0280012D01*
X0366481Y0280242D01*
X0366517Y0280354D01*
G37*
G36*
X0366432Y0280092D02*
X0367142Y0279862D01*
X0367106Y0279750D01*
X0366396Y0279980D01*
X0366432Y0280092D01*
G37*
G36*
X0361872Y0275045D02*
X0362582Y0274815D01*
X0362546Y0274703D01*
X0361836Y0274933D01*
X0361872Y0275045D01*
G37*
G36*
X0360613Y0273591D02*
X0361323Y0273361D01*
X0361287Y0273249D01*
X0360577Y0273479D01*
X0360613Y0273591D01*
G37*
G36*
X0359774Y0272663D02*
X0360484Y0272433D01*
X0360448Y0272321D01*
X0359738Y0272551D01*
X0359774Y0272663D01*
G37*
G36*
X0363450Y0272131D02*
X0364160Y0271901D01*
X0364124Y0271789D01*
X0363414Y0272019D01*
X0363450Y0272131D01*
G37*
G36*
X0363849Y0273740D02*
X0364559Y0273510D01*
X0364523Y0273398D01*
X0363813Y0273628D01*
X0363849Y0273740D01*
G37*
X0318894Y0302244D03*
X0318894Y0302362D03*
X0318894Y0302638D03*
X0317005Y0301614D03*
X0315745Y0304016D03*
X0315995Y0308734D03*
X0315995Y0311648D03*
X0315995Y0311766D03*
G36*
X0313924Y0313566D02*
X0314634Y0313796D01*
X0314670Y0313684D01*
X0313960Y0313454D01*
X0313924Y0313566D01*
G37*
G36*
X0314058Y0314810D02*
X0314768Y0315040D01*
X0314804Y0314928D01*
X0314094Y0314698D01*
X0314058Y0314810D01*
G37*
G36*
X0314222Y0316726D02*
X0314932Y0316956D01*
X0314968Y0316844D01*
X0314258Y0316614D01*
X0314222Y0316726D01*
G37*
G36*
X0316589Y0316832D02*
X0317299Y0317062D01*
X0317335Y0316950D01*
X0316625Y0316720D01*
X0316589Y0316832D01*
G37*
G36*
X0317212Y0315296D02*
X0317922Y0315526D01*
X0317958Y0315414D01*
X0317248Y0315184D01*
X0317212Y0315296D01*
G37*
X0319144Y0311018D03*
X0319144Y0310742D03*
X0319144Y0310624D03*
X0319144Y0310506D03*
X0319144Y0310388D03*
X0319144Y0310112D03*
X0319144Y0309994D03*
X0319144Y0309876D03*
X0319144Y0309758D03*
X0319144Y0309482D03*
G36*
X0314981Y0323758D02*
X0315691Y0323988D01*
X0315727Y0323876D01*
X0315017Y0323646D01*
X0314981Y0323758D01*
G37*
G36*
X0314896Y0324020D02*
X0315606Y0324250D01*
X0315642Y0324138D01*
X0314932Y0323908D01*
X0314896Y0324020D01*
G37*
X0290646Y0350384D03*
X0285644Y0352626D03*
X0283755Y0352114D03*
X0283599Y0350148D03*
X0280999Y0351484D03*
X0277654Y0350148D03*
X0276394Y0347234D03*
X0278914Y0347234D03*
X0282339Y0347234D03*
X0284859Y0347234D03*
X0273520Y0349242D03*
X0271867Y0349124D03*
X0271867Y0348258D03*
X0269977Y0350384D03*
X0270644Y0351366D03*
X0272416Y0351484D03*
X0272416Y0351602D03*
X0273794Y0351484D03*
X0266828Y0350266D03*
X0266828Y0350148D03*
X0266511Y0352744D03*
X0266511Y0352862D03*
X0266511Y0353138D03*
X0262456Y0354398D03*
X0258127Y0350148D03*
X0258127Y0349872D03*
X0258127Y0349754D03*
X0258127Y0349636D03*
X0258127Y0349518D03*
X0259150Y0348888D03*
X0259150Y0348612D03*
X0259150Y0348494D03*
X0256119Y0347746D03*
X0270644Y0401366D03*
X0272416Y0401484D03*
X0272416Y0401602D03*
X0273794Y0401484D03*
X0266511Y0402744D03*
X0266511Y0402862D03*
X0266511Y0403138D03*
X0262456Y0404398D03*
X0280999Y0401484D03*
X0283755Y0402114D03*
X0285644Y0402626D03*
G36*
X0310906Y0286061D02*
X0311510Y0285622D01*
X0311440Y0285527D01*
X0310836Y0285966D01*
X0310906Y0286061D01*
G37*
G36*
X0309260Y0285067D02*
X0309864Y0284628D01*
X0309794Y0284533D01*
X0309190Y0284972D01*
X0309260Y0285067D01*
G37*
G36*
X0308175Y0284445D02*
X0308779Y0284006D01*
X0308709Y0283911D01*
X0308105Y0284350D01*
X0308175Y0284445D01*
G37*
G36*
X0311507Y0282802D02*
X0312111Y0282363D01*
X0312041Y0282268D01*
X0311437Y0282707D01*
X0311507Y0282802D01*
G37*
G36*
X0312384Y0284209D02*
X0312988Y0283770D01*
X0312918Y0283675D01*
X0312314Y0284114D01*
X0312384Y0284209D01*
G37*
G36*
X0307859Y0277130D02*
X0308463Y0276691D01*
X0308393Y0276596D01*
X0307789Y0277035D01*
X0307859Y0277130D01*
G37*
G36*
X0307697Y0276907D02*
X0308301Y0276468D01*
X0308231Y0276373D01*
X0307627Y0276812D01*
X0307697Y0276907D01*
G37*
X0279749Y0546234D03*
X0282505Y0546864D03*
X0284394Y0547376D03*
X0272544Y0546234D03*
X0271166Y0546234D03*
X0271166Y0546352D03*
X0269394Y0546116D03*
X0265261Y0547494D03*
X0265261Y0547612D03*
X0265261Y0547888D03*
X0261206Y0549148D03*
D19*
X0269158Y0546490D03*
X0283135Y0549010D03*
X0284385Y0404260D03*
X0270408Y0401740D03*
X0284385Y0354260D03*
X0280568Y0350010D03*
X0270408Y0351740D03*
G36*
X0312633Y0324484D02*
X0314766Y0325176D01*
X0314815Y0325028D01*
X0312682Y0324336D01*
X0312633Y0324484D01*
G37*
X0318396Y0311510D03*
X0317635Y0303760D03*
X0317635Y0301240D03*
G36*
X0306905Y0279233D02*
X0308719Y0277915D01*
X0308627Y0277789D01*
X0306813Y0279107D01*
X0306905Y0279233D01*
G37*
G36*
X0364960Y0282060D02*
X0367093Y0281368D01*
X0367044Y0281220D01*
X0364911Y0281912D01*
X0364960Y0282060D01*
G37*
G36*
X0367544Y0296726D02*
X0369759Y0296376D01*
X0369734Y0296222D01*
X0367519Y0296572D01*
X0367544Y0296726D01*
G37*
X0369035Y0300890D03*
X0369035Y0303410D03*
X0369146Y0311510D03*
G36*
X0365634Y0326270D02*
X0367855Y0326581D01*
X0367876Y0326426D01*
X0365655Y0326115D01*
X0365634Y0326270D01*
G37*
G36*
X0509941Y0326471D02*
X0512179Y0326612D01*
X0512189Y0326457D01*
X0509951Y0326316D01*
X0509941Y0326471D01*
G37*
X0512646Y0311260D03*
X0512035Y0303160D03*
X0512035Y0300640D03*
G36*
X0511109Y0296698D02*
X0513347Y0296557D01*
X0513337Y0296402D01*
X0511099Y0296543D01*
X0511109Y0296698D01*
G37*
G36*
X0509976Y0281803D02*
X0512201Y0281522D01*
X0512182Y0281367D01*
X0509957Y0281648D01*
X0509976Y0281803D01*
G37*
D20*
G36*
X0509623Y0279942D02*
X0510481Y0279834D01*
X0510461Y0279680D01*
X0509603Y0279788D01*
X0509623Y0279942D01*
G37*
G36*
X0511811Y0280300D02*
X0512669Y0280192D01*
X0512649Y0280038D01*
X0511791Y0280146D01*
X0511811Y0280300D01*
G37*
G36*
X0512376Y0286694D02*
X0513240Y0286639D01*
X0513230Y0286484D01*
X0512366Y0286539D01*
X0512376Y0286694D01*
G37*
G36*
X0512415Y0287323D02*
X0513279Y0287268D01*
X0513269Y0287113D01*
X0512405Y0287168D01*
X0512415Y0287323D01*
G37*
G36*
X0512455Y0287951D02*
X0513319Y0287896D01*
X0513309Y0287741D01*
X0512445Y0287796D01*
X0512455Y0287951D01*
G37*
G36*
X0509272Y0287520D02*
X0510136Y0287465D01*
X0510126Y0287310D01*
X0509262Y0287365D01*
X0509272Y0287520D01*
G37*
G36*
X0509114Y0286899D02*
X0509978Y0286844D01*
X0509968Y0286689D01*
X0509104Y0286744D01*
X0509114Y0286899D01*
G37*
G36*
X0506757Y0287679D02*
X0507621Y0287624D01*
X0507611Y0287469D01*
X0506747Y0287524D01*
X0506757Y0287679D01*
G37*
G36*
X0512876Y0294694D02*
X0513740Y0294639D01*
X0513730Y0294484D01*
X0512866Y0294539D01*
X0512876Y0294694D01*
G37*
G36*
X0513033Y0295315D02*
X0513897Y0295260D01*
X0513887Y0295105D01*
X0513023Y0295160D01*
X0513033Y0295315D01*
G37*
X0510204Y0300640D03*
X0510204Y0301270D03*
X0510204Y0301900D03*
X0510204Y0302530D03*
X0510204Y0303160D03*
X0513354Y0301900D03*
X0510186Y0308740D03*
X0510186Y0309370D03*
X0510186Y0310000D03*
X0510186Y0310630D03*
X0510186Y0311260D03*
X0511328Y0310000D03*
G36*
X0510937Y0316625D02*
X0511801Y0316680D01*
X0511811Y0316525D01*
X0510947Y0316470D01*
X0510937Y0316625D01*
G37*
G36*
X0509483Y0317795D02*
X0510347Y0317850D01*
X0510357Y0317695D01*
X0509493Y0317640D01*
X0509483Y0317795D01*
G37*
G36*
X0507872Y0317063D02*
X0508736Y0317118D01*
X0508746Y0316963D01*
X0507882Y0316908D01*
X0507872Y0317063D01*
G37*
G36*
X0507165Y0318281D02*
X0508029Y0318336D01*
X0508039Y0318181D01*
X0507175Y0318126D01*
X0507165Y0318281D01*
G37*
G36*
X0512116Y0317961D02*
X0512980Y0318016D01*
X0512990Y0317861D01*
X0512126Y0317806D01*
X0512116Y0317961D01*
G37*
G36*
X0509941Y0324578D02*
X0510805Y0324633D01*
X0510815Y0324478D01*
X0509951Y0324423D01*
X0509941Y0324578D01*
G37*
G36*
X0512023Y0325340D02*
X0512887Y0325395D01*
X0512897Y0325240D01*
X0512033Y0325185D01*
X0512023Y0325340D01*
G37*
G36*
X0505719Y0274432D02*
X0506577Y0274324D01*
X0506557Y0274170D01*
X0505699Y0274278D01*
X0505719Y0274432D01*
G37*
G36*
X0506186Y0273103D02*
X0507044Y0272995D01*
X0507024Y0272841D01*
X0506166Y0272949D01*
X0506186Y0273103D01*
G37*
G36*
X0507906Y0273521D02*
X0508764Y0273413D01*
X0508744Y0273259D01*
X0507886Y0273367D01*
X0507906Y0273521D01*
G37*
G36*
X0509115Y0272098D02*
X0509973Y0271990D01*
X0509953Y0271836D01*
X0509095Y0271944D01*
X0509115Y0272098D01*
G37*
G36*
X0510523Y0273190D02*
X0511381Y0273082D01*
X0511361Y0272928D01*
X0510503Y0273036D01*
X0510523Y0273190D01*
G37*
G36*
X0369330Y0295167D02*
X0370184Y0295032D01*
X0370160Y0294879D01*
X0369306Y0295014D01*
X0369330Y0295167D01*
G37*
G36*
X0369115Y0294564D02*
X0369969Y0294429D01*
X0369945Y0294276D01*
X0369091Y0294411D01*
X0369115Y0294564D01*
G37*
X0367204Y0300890D03*
X0367204Y0301520D03*
X0367204Y0302150D03*
X0367204Y0302780D03*
X0367204Y0303410D03*
X0370354Y0302150D03*
X0366686Y0308990D03*
X0366686Y0309620D03*
X0366686Y0310250D03*
X0366686Y0310880D03*
X0366686Y0311510D03*
X0367828Y0310250D03*
G36*
X0367520Y0316735D02*
X0368376Y0316856D01*
X0368398Y0316703D01*
X0367542Y0316582D01*
X0367520Y0316735D01*
G37*
G36*
X0365980Y0317790D02*
X0366836Y0317911D01*
X0366858Y0317758D01*
X0366002Y0317637D01*
X0365980Y0317790D01*
G37*
G36*
X0364431Y0316937D02*
X0365287Y0317058D01*
X0365309Y0316905D01*
X0364453Y0316784D01*
X0364431Y0316937D01*
G37*
G36*
X0363631Y0318096D02*
X0364487Y0318217D01*
X0364509Y0318064D01*
X0363653Y0317943D01*
X0363631Y0318096D01*
G37*
G36*
X0368592Y0318158D02*
X0369448Y0318279D01*
X0369470Y0318126D01*
X0368614Y0318005D01*
X0368592Y0318158D01*
G37*
G36*
X0365779Y0324381D02*
X0366635Y0324502D01*
X0366657Y0324349D01*
X0365801Y0324228D01*
X0365779Y0324381D01*
G37*
G36*
X0367797Y0325300D02*
X0368653Y0325421D01*
X0368675Y0325268D01*
X0367819Y0325147D01*
X0367797Y0325300D01*
G37*
G36*
X0368062Y0288058D02*
X0368916Y0287923D01*
X0368892Y0287770D01*
X0368038Y0287905D01*
X0368062Y0288058D01*
G37*
G36*
X0367963Y0287436D02*
X0368817Y0287301D01*
X0368793Y0287148D01*
X0367939Y0287283D01*
X0367963Y0287436D01*
G37*
G36*
X0367865Y0286814D02*
X0368719Y0286679D01*
X0368695Y0286526D01*
X0367841Y0286661D01*
X0367865Y0286814D01*
G37*
G36*
X0364852Y0287929D02*
X0365706Y0287794D01*
X0365682Y0287641D01*
X0364828Y0287776D01*
X0364852Y0287929D01*
G37*
G36*
X0364637Y0287325D02*
X0365491Y0287190D01*
X0365467Y0287037D01*
X0364613Y0287172D01*
X0364637Y0287325D01*
G37*
G36*
X0362364Y0288323D02*
X0363218Y0288188D01*
X0363194Y0288035D01*
X0362340Y0288170D01*
X0362364Y0288323D01*
G37*
G36*
X0364264Y0280299D02*
X0365086Y0280033D01*
X0365038Y0279885D01*
X0364216Y0280151D01*
X0364264Y0280299D01*
G37*
G36*
X0366480Y0280241D02*
X0367302Y0279975D01*
X0367254Y0279827D01*
X0366432Y0280093D01*
X0366480Y0280241D01*
G37*
G36*
X0363813Y0273627D02*
X0364635Y0273361D01*
X0364587Y0273213D01*
X0363765Y0273479D01*
X0363813Y0273627D01*
G37*
G36*
X0362225Y0272818D02*
X0363047Y0272552D01*
X0362999Y0272404D01*
X0362177Y0272670D01*
X0362225Y0272818D01*
G37*
G36*
X0361304Y0274442D02*
X0362126Y0274176D01*
X0362078Y0274028D01*
X0361256Y0274294D01*
X0361304Y0274442D01*
G37*
G36*
X0359537Y0274354D02*
X0360359Y0274088D01*
X0360311Y0273940D01*
X0359489Y0274206D01*
X0359537Y0274354D01*
G37*
G36*
X0359327Y0275747D02*
X0360149Y0275481D01*
X0360101Y0275333D01*
X0359279Y0275599D01*
X0359327Y0275747D01*
G37*
X0318954Y0302500D03*
X0315804Y0302500D03*
X0315804Y0301870D03*
X0315804Y0301240D03*
X0315804Y0303130D03*
X0315804Y0303760D03*
X0315936Y0308990D03*
X0315936Y0309620D03*
X0315936Y0310250D03*
X0315936Y0310880D03*
X0315936Y0311510D03*
X0317078Y0310250D03*
G36*
X0315816Y0315132D02*
X0316638Y0315398D01*
X0316686Y0315250D01*
X0315864Y0314984D01*
X0315816Y0315132D01*
G37*
G36*
X0314117Y0315904D02*
X0314939Y0316170D01*
X0314987Y0316022D01*
X0314165Y0315756D01*
X0314117Y0315904D01*
G37*
G36*
X0312739Y0314794D02*
X0313561Y0315060D01*
X0313609Y0314912D01*
X0312787Y0314646D01*
X0312739Y0314794D01*
G37*
G36*
X0311750Y0315798D02*
X0312572Y0316064D01*
X0312620Y0315916D01*
X0311798Y0315650D01*
X0311750Y0315798D01*
G37*
G36*
X0316625Y0316719D02*
X0317447Y0316985D01*
X0317495Y0316837D01*
X0316673Y0316571D01*
X0316625Y0316719D01*
G37*
G36*
X0313105Y0322651D02*
X0313927Y0322917D01*
X0313975Y0322769D01*
X0313153Y0322503D01*
X0313105Y0322651D01*
G37*
G36*
X0314932Y0323907D02*
X0315754Y0324173D01*
X0315802Y0324025D01*
X0314980Y0323759D01*
X0314932Y0323907D01*
G37*
X0291454Y0349380D03*
X0288698Y0349380D03*
X0288698Y0348750D03*
X0288698Y0348120D03*
X0287044Y0348120D03*
X0287044Y0348750D03*
X0287044Y0349380D03*
X0283658Y0350010D03*
X0283028Y0348750D03*
X0282398Y0347490D03*
X0281257Y0347490D03*
X0281257Y0349380D03*
X0279485Y0349380D03*
X0278225Y0348750D03*
X0277595Y0350010D03*
X0277908Y0352370D03*
X0276255Y0352370D03*
X0273735Y0352370D03*
X0273735Y0351740D03*
X0272475Y0351740D03*
X0272475Y0352370D03*
X0269719Y0352370D03*
X0268578Y0352370D03*
X0268578Y0353000D03*
X0268578Y0353630D03*
X0265428Y0352370D03*
X0266769Y0350010D03*
X0266769Y0349380D03*
X0266769Y0348750D03*
X0266769Y0348120D03*
X0264131Y0348120D03*
X0264131Y0349380D03*
X0261217Y0349380D03*
X0261217Y0348750D03*
X0261217Y0348120D03*
X0259091Y0348750D03*
X0262396Y0352370D03*
X0262396Y0354260D03*
X0269170Y0349380D03*
X0271808Y0348750D03*
X0271926Y0348120D03*
X0271926Y0349380D03*
X0273580Y0348750D03*
X0278855Y0347490D03*
X0279798Y0351740D03*
X0279798Y0352370D03*
X0282554Y0352370D03*
X0282554Y0351740D03*
X0282554Y0353630D03*
X0282554Y0354260D03*
X0285704Y0353000D03*
X0282554Y0401740D03*
X0282554Y0402370D03*
X0282554Y0403630D03*
X0282554Y0404260D03*
X0279798Y0402370D03*
X0279798Y0401740D03*
X0277908Y0402370D03*
X0276255Y0402370D03*
X0273735Y0402370D03*
X0273735Y0401740D03*
X0272475Y0401740D03*
X0272475Y0402370D03*
X0269719Y0402370D03*
X0268578Y0402370D03*
X0268578Y0403000D03*
X0268578Y0403630D03*
X0265428Y0402370D03*
X0262396Y0402370D03*
X0262396Y0404260D03*
X0285704Y0403000D03*
G36*
X0308702Y0287515D02*
X0309402Y0287007D01*
X0309310Y0286881D01*
X0308610Y0287389D01*
X0308702Y0287515D01*
G37*
G36*
X0308471Y0286126D02*
X0309171Y0285618D01*
X0309079Y0285492D01*
X0308379Y0286000D01*
X0308471Y0286126D01*
G37*
G36*
X0310179Y0285663D02*
X0310879Y0285155D01*
X0310787Y0285029D01*
X0310087Y0285537D01*
X0310179Y0285663D01*
G37*
G36*
X0310554Y0283834D02*
X0311254Y0283326D01*
X0311162Y0283200D01*
X0310462Y0283708D01*
X0310554Y0283834D01*
G37*
G36*
X0312313Y0284113D02*
X0313013Y0283605D01*
X0312921Y0283479D01*
X0312221Y0283987D01*
X0312313Y0284113D01*
G37*
G36*
X0307789Y0277034D02*
X0308489Y0276526D01*
X0308397Y0276400D01*
X0307697Y0276908D01*
X0307789Y0277034D01*
G37*
G36*
X0305698Y0277774D02*
X0306398Y0277266D01*
X0306306Y0277140D01*
X0305606Y0277648D01*
X0305698Y0277774D01*
G37*
X0281304Y0546490D03*
X0281304Y0547120D03*
X0281304Y0548380D03*
X0281304Y0549010D03*
X0278548Y0547120D03*
X0278548Y0546490D03*
X0276658Y0547120D03*
X0275005Y0547120D03*
X0272485Y0547120D03*
X0272485Y0546490D03*
X0271225Y0546490D03*
X0271225Y0547120D03*
X0268469Y0547120D03*
X0267328Y0547120D03*
X0267328Y0547750D03*
X0267328Y0548380D03*
X0264178Y0547120D03*
X0261146Y0547120D03*
X0261146Y0549010D03*
X0284454Y0547750D03*
D21*
X0283213Y0546490D03*
X0266560Y0546490D03*
X0266560Y0549010D03*
X0267810Y0404260D03*
X0267810Y0401740D03*
X0284463Y0401740D03*
X0267810Y0354260D03*
X0267810Y0351740D03*
X0266001Y0347490D03*
X0284463Y0351740D03*
X0318318Y0308990D03*
G36*
X0364155Y0294711D02*
X0366527Y0294337D01*
X0366503Y0294183D01*
X0364131Y0294557D01*
X0364155Y0294711D01*
G37*
G36*
X0367149Y0294237D02*
X0369521Y0293863D01*
X0369497Y0293709D01*
X0367125Y0294083D01*
X0367149Y0294237D01*
G37*
G36*
X0366643Y0288920D02*
X0369015Y0288546D01*
X0368991Y0288392D01*
X0366619Y0288766D01*
X0366643Y0288920D01*
G37*
G36*
X0366249Y0286432D02*
X0368621Y0286058D01*
X0368597Y0285904D01*
X0366225Y0286278D01*
X0366249Y0286432D01*
G37*
X0369068Y0308990D03*
G36*
X0507925Y0294374D02*
X0510321Y0294223D01*
X0510311Y0294068D01*
X0507915Y0294219D01*
X0507925Y0294374D01*
G37*
G36*
X0510950Y0294184D02*
X0513346Y0294033D01*
X0513336Y0293878D01*
X0510940Y0294029D01*
X0510950Y0294184D01*
G37*
G36*
X0510962Y0288676D02*
X0513358Y0288525D01*
X0513348Y0288370D01*
X0510952Y0288521D01*
X0510962Y0288676D01*
G37*
G36*
X0510804Y0286161D02*
X0513200Y0286010D01*
X0513190Y0285855D01*
X0510794Y0286006D01*
X0510804Y0286161D01*
G37*
X0512568Y0308740D03*
D22*
X0512568Y0311122D03*
X0512113Y0303022D03*
X0512113Y0300778D03*
G36*
X0511099Y0296542D02*
X0513495Y0296392D01*
X0513487Y0296274D01*
X0511091Y0296424D01*
X0511099Y0296542D01*
G37*
G36*
X0508073Y0296732D02*
X0510469Y0296582D01*
X0510461Y0296464D01*
X0508065Y0296614D01*
X0508073Y0296732D01*
G37*
G36*
X0509956Y0281647D02*
X0512338Y0281347D01*
X0512324Y0281229D01*
X0509942Y0281529D01*
X0509956Y0281647D01*
G37*
G36*
X0509950Y0326316D02*
X0512346Y0326466D01*
X0512354Y0326348D01*
X0509958Y0326198D01*
X0509950Y0326316D01*
G37*
X0369068Y0311372D03*
X0369113Y0303272D03*
X0369113Y0301028D03*
G36*
X0367519Y0296572D02*
X0369890Y0296197D01*
X0369871Y0296080D01*
X0367500Y0296455D01*
X0367519Y0296572D01*
G37*
G36*
X0364525Y0297046D02*
X0366896Y0296671D01*
X0366877Y0296554D01*
X0364506Y0296929D01*
X0364525Y0297046D01*
G37*
G36*
X0364912Y0281911D02*
X0367195Y0281169D01*
X0367158Y0281057D01*
X0364875Y0281799D01*
X0364912Y0281911D01*
G37*
G36*
X0365655Y0326115D02*
X0368033Y0326448D01*
X0368049Y0326331D01*
X0365671Y0325998D01*
X0365655Y0326115D01*
G37*
X0318318Y0311372D03*
X0317713Y0303622D03*
X0317713Y0301378D03*
G36*
X0312681Y0324335D02*
X0314964Y0325077D01*
X0315001Y0324965D01*
X0312718Y0324223D01*
X0312681Y0324335D01*
G37*
X0290568Y0347116D03*
X0290568Y0347746D03*
X0284463Y0354122D03*
X0280489Y0349872D03*
X0280489Y0348494D03*
X0280489Y0348376D03*
X0266001Y0347628D03*
X0266001Y0347352D03*
X0266001Y0347234D03*
X0263363Y0347864D03*
X0263245Y0347116D03*
X0284463Y0404122D03*
G36*
X0306813Y0279107D02*
X0308755Y0277696D01*
X0308685Y0277601D01*
X0306743Y0279012D01*
X0306813Y0279107D01*
G37*
X0283213Y0548872D03*
D23*
X0283272Y0548754D03*
X0283272Y0546746D03*
X0283272Y0546628D03*
X0266501Y0546628D03*
X0266501Y0548872D03*
X0267751Y0404122D03*
X0267751Y0401878D03*
X0284522Y0401878D03*
X0284522Y0401996D03*
X0284522Y0404004D03*
X0284522Y0354004D03*
X0284522Y0351996D03*
X0284522Y0351878D03*
X0283580Y0348376D03*
X0280430Y0348612D03*
X0280430Y0349636D03*
X0280430Y0349754D03*
X0277674Y0348376D03*
X0269839Y0347746D03*
X0269839Y0347234D03*
X0267751Y0351878D03*
X0267751Y0354122D03*
X0263186Y0350266D03*
X0263304Y0349636D03*
X0260391Y0349872D03*
X0260391Y0347628D03*
X0290509Y0347234D03*
G36*
X0312718Y0324223D02*
X0315114Y0325001D01*
X0315150Y0324889D01*
X0312754Y0324111D01*
X0312718Y0324223D01*
G37*
G36*
X0313262Y0322164D02*
X0315658Y0322942D01*
X0315694Y0322830D01*
X0313298Y0322052D01*
X0313262Y0322164D01*
G37*
X0318259Y0311254D03*
X0318259Y0309246D03*
X0318259Y0309128D03*
X0317772Y0303504D03*
X0317772Y0303386D03*
X0317772Y0301496D03*
G36*
X0306743Y0279011D02*
X0308781Y0277531D01*
X0308711Y0277435D01*
X0306673Y0278915D01*
X0306743Y0279011D01*
G37*
G36*
X0305398Y0277361D02*
X0307436Y0275881D01*
X0307366Y0275785D01*
X0305328Y0277265D01*
X0305398Y0277361D01*
G37*
G36*
X0364105Y0279813D02*
X0366501Y0279035D01*
X0366465Y0278923D01*
X0364069Y0279701D01*
X0364105Y0279813D01*
G37*
G36*
X0364874Y0281799D02*
X0367270Y0281021D01*
X0367234Y0280909D01*
X0364838Y0281687D01*
X0364874Y0281799D01*
G37*
G36*
X0366151Y0286568D02*
X0368639Y0286175D01*
X0368621Y0286058D01*
X0366133Y0286451D01*
X0366151Y0286568D01*
G37*
G36*
X0366502Y0288785D02*
X0368990Y0288392D01*
X0368972Y0288275D01*
X0366484Y0288668D01*
X0366502Y0288785D01*
G37*
G36*
X0367168Y0294355D02*
X0369656Y0293962D01*
X0369638Y0293845D01*
X0367150Y0294238D01*
X0367168Y0294355D01*
G37*
G36*
X0367500Y0296455D02*
X0369988Y0296062D01*
X0369970Y0295945D01*
X0367482Y0296338D01*
X0367500Y0296455D01*
G37*
X0369172Y0301146D03*
X0369172Y0303036D03*
X0369172Y0303154D03*
X0369009Y0309128D03*
X0369009Y0309246D03*
X0369009Y0311254D03*
G36*
X0365851Y0323876D02*
X0368345Y0324225D01*
X0368361Y0324108D01*
X0365867Y0323759D01*
X0365851Y0323876D01*
G37*
G36*
X0365672Y0325998D02*
X0368166Y0326347D01*
X0368182Y0326230D01*
X0365688Y0325881D01*
X0365672Y0325998D01*
G37*
G36*
X0509957Y0326198D02*
X0512471Y0326355D01*
X0512479Y0326238D01*
X0509965Y0326081D01*
X0509957Y0326198D01*
G37*
G36*
X0509973Y0324068D02*
X0512487Y0324225D01*
X0512495Y0324108D01*
X0509981Y0323951D01*
X0509973Y0324068D01*
G37*
X0512509Y0311004D03*
X0512509Y0308996D03*
X0512509Y0308878D03*
X0512172Y0302904D03*
X0512172Y0302786D03*
X0512172Y0300896D03*
G36*
X0511091Y0296423D02*
X0513605Y0296266D01*
X0513597Y0296149D01*
X0511083Y0296306D01*
X0511091Y0296423D01*
G37*
G36*
X0510958Y0294301D02*
X0513472Y0294144D01*
X0513464Y0294027D01*
X0510950Y0294184D01*
X0510958Y0294301D01*
G37*
G36*
X0510835Y0288526D02*
X0513349Y0288369D01*
X0513341Y0288252D01*
X0510827Y0288409D01*
X0510835Y0288526D01*
G37*
G36*
X0510694Y0286287D02*
X0513208Y0286130D01*
X0513200Y0286013D01*
X0510686Y0286170D01*
X0510694Y0286287D01*
G37*
G36*
X0509942Y0281529D02*
X0512441Y0281214D01*
X0512426Y0281097D01*
X0509927Y0281412D01*
X0509942Y0281529D01*
G37*
G36*
X0509558Y0279435D02*
X0512057Y0279120D01*
X0512042Y0279003D01*
X0509543Y0279318D01*
X0509558Y0279435D01*
G37*
D24*
G36*
X0509573Y0279552D02*
X0512189Y0279223D01*
X0512175Y0279106D01*
X0509559Y0279435D01*
X0509573Y0279552D01*
G37*
G36*
X0509927Y0281412D02*
X0512543Y0281083D01*
X0512529Y0280966D01*
X0509913Y0281295D01*
X0509927Y0281412D01*
G37*
G36*
X0510583Y0286412D02*
X0513215Y0286248D01*
X0513207Y0286130D01*
X0510575Y0286294D01*
X0510583Y0286412D01*
G37*
G36*
X0510709Y0288416D02*
X0513341Y0288252D01*
X0513333Y0288134D01*
X0510701Y0288298D01*
X0510709Y0288416D01*
G37*
G36*
X0510965Y0294420D02*
X0513597Y0294256D01*
X0513589Y0294138D01*
X0510957Y0294302D01*
X0510965Y0294420D01*
G37*
G36*
X0507814Y0294500D02*
X0510446Y0294336D01*
X0510438Y0294218D01*
X0507806Y0294382D01*
X0507814Y0294500D01*
G37*
G36*
X0507948Y0296621D02*
X0510580Y0296457D01*
X0510572Y0296339D01*
X0507940Y0296503D01*
X0507948Y0296621D01*
G37*
G36*
X0511084Y0296306D02*
X0513716Y0296142D01*
X0513708Y0296024D01*
X0511076Y0296188D01*
X0511084Y0296306D01*
G37*
X0512450Y0309114D03*
X0512450Y0310886D03*
G36*
X0509965Y0324187D02*
X0512597Y0324351D01*
X0512605Y0324233D01*
X0509973Y0324069D01*
X0509965Y0324187D01*
G37*
G36*
X0509965Y0326080D02*
X0512597Y0326244D01*
X0512605Y0326126D01*
X0509973Y0325962D01*
X0509965Y0326080D01*
G37*
X0368950Y0311136D03*
X0368950Y0309364D03*
G36*
X0364390Y0296947D02*
X0366994Y0296535D01*
X0366976Y0296419D01*
X0364372Y0296831D01*
X0364390Y0296947D01*
G37*
G36*
X0364057Y0294848D02*
X0366661Y0294436D01*
X0366643Y0294320D01*
X0364039Y0294732D01*
X0364057Y0294848D01*
G37*
G36*
X0367186Y0294471D02*
X0369790Y0294059D01*
X0369772Y0293943D01*
X0367168Y0294355D01*
X0367186Y0294471D01*
G37*
G36*
X0367482Y0296338D02*
X0370086Y0295926D01*
X0370068Y0295810D01*
X0367464Y0296222D01*
X0367482Y0296338D01*
G37*
G36*
X0366367Y0288686D02*
X0368971Y0288274D01*
X0368953Y0288158D01*
X0366349Y0288570D01*
X0366367Y0288686D01*
G37*
G36*
X0366053Y0286703D02*
X0368657Y0286291D01*
X0368639Y0286175D01*
X0366035Y0286587D01*
X0366053Y0286703D01*
G37*
G36*
X0364838Y0281686D02*
X0367346Y0280872D01*
X0367310Y0280760D01*
X0364802Y0281574D01*
X0364838Y0281686D01*
G37*
G36*
X0364142Y0279926D02*
X0366650Y0279112D01*
X0366614Y0279000D01*
X0364106Y0279814D01*
X0364142Y0279926D01*
G37*
G36*
X0365834Y0323992D02*
X0368445Y0324358D01*
X0368462Y0324242D01*
X0365851Y0323876D01*
X0365834Y0323992D01*
G37*
G36*
X0365688Y0325880D02*
X0368299Y0326246D01*
X0368316Y0326130D01*
X0365705Y0325764D01*
X0365688Y0325880D01*
G37*
X0318200Y0311136D03*
X0318200Y0309364D03*
G36*
X0313226Y0322277D02*
X0315734Y0323091D01*
X0315770Y0322979D01*
X0313262Y0322165D01*
X0313226Y0322277D01*
G37*
G36*
X0312754Y0324111D02*
X0315262Y0324925D01*
X0315298Y0324813D01*
X0312790Y0323999D01*
X0312754Y0324111D01*
G37*
X0290568Y0347352D03*
X0290568Y0347628D03*
X0283639Y0348258D03*
X0284581Y0353886D03*
X0277615Y0348258D03*
X0267692Y0351996D03*
X0267692Y0353886D03*
X0267692Y0354004D03*
X0263245Y0350148D03*
X0263245Y0349872D03*
X0263245Y0349754D03*
X0263245Y0347746D03*
X0263245Y0347628D03*
X0263245Y0347352D03*
X0263245Y0347234D03*
X0260331Y0347746D03*
X0260331Y0349636D03*
X0260331Y0349754D03*
X0267692Y0401996D03*
X0267692Y0403886D03*
X0267692Y0404004D03*
X0284581Y0403886D03*
G36*
X0306674Y0278916D02*
X0308807Y0277366D01*
X0308738Y0277270D01*
X0306605Y0278820D01*
X0306674Y0278916D01*
G37*
G36*
X0305467Y0277457D02*
X0307600Y0275907D01*
X0307531Y0275811D01*
X0305398Y0277361D01*
X0305467Y0277457D01*
G37*
X0283331Y0548636D03*
X0266442Y0548636D03*
X0266442Y0548754D03*
X0266442Y0546746D03*
D25*
X0271599Y0548242D03*
X0260772Y0546234D03*
X0284080Y0548518D03*
X0284198Y0546982D03*
X0285330Y0403768D03*
X0285448Y0402232D03*
X0272849Y0403492D03*
X0262022Y0401484D03*
X0272849Y0353492D03*
X0274820Y0349872D03*
X0277615Y0349754D03*
X0280765Y0350384D03*
X0283639Y0349754D03*
X0285448Y0352232D03*
X0285330Y0353768D03*
X0272694Y0347116D03*
X0269426Y0348612D03*
X0262022Y0351484D03*
G36*
X0314213Y0324460D02*
X0315298Y0324812D01*
X0315335Y0324700D01*
X0314250Y0324348D01*
X0314213Y0324460D01*
G37*
G36*
X0316411Y0316485D02*
X0317496Y0316837D01*
X0317533Y0316725D01*
X0316448Y0316373D01*
X0316411Y0316485D01*
G37*
G36*
X0316731Y0314353D02*
X0317816Y0314705D01*
X0317853Y0314593D01*
X0316768Y0314241D01*
X0316731Y0314353D01*
G37*
G36*
X0313577Y0313867D02*
X0314662Y0314219D01*
X0314699Y0314107D01*
X0313614Y0313755D01*
X0313577Y0313867D01*
G37*
X0317452Y0311018D03*
X0318711Y0311884D03*
X0317333Y0309482D03*
X0318580Y0303268D03*
G36*
X0308214Y0284902D02*
X0309137Y0284232D01*
X0309068Y0284136D01*
X0308145Y0284806D01*
X0308214Y0284902D01*
G37*
G36*
X0310462Y0282637D02*
X0311385Y0281967D01*
X0311316Y0281871D01*
X0310393Y0282541D01*
X0310462Y0282637D01*
G37*
G36*
X0311998Y0284149D02*
X0312921Y0283479D01*
X0312852Y0283383D01*
X0311929Y0284053D01*
X0311998Y0284149D01*
G37*
G36*
X0307814Y0277941D02*
X0308737Y0277271D01*
X0308668Y0277175D01*
X0307745Y0277845D01*
X0307814Y0277941D01*
G37*
G36*
X0359671Y0273111D02*
X0360756Y0272759D01*
X0360719Y0272647D01*
X0359634Y0272999D01*
X0359671Y0273111D01*
G37*
G36*
X0362508Y0271651D02*
X0363593Y0271299D01*
X0363556Y0271187D01*
X0362471Y0271539D01*
X0362508Y0271651D01*
G37*
G36*
X0363502Y0273563D02*
X0364587Y0273211D01*
X0364550Y0273099D01*
X0363465Y0273451D01*
X0363502Y0273563D01*
G37*
G36*
X0366225Y0281112D02*
X0367310Y0280760D01*
X0367273Y0280648D01*
X0366188Y0281000D01*
X0366225Y0281112D01*
G37*
G36*
X0364205Y0287115D02*
X0365332Y0286937D01*
X0365313Y0286821D01*
X0364186Y0286999D01*
X0364205Y0287115D01*
G37*
G36*
X0362714Y0289026D02*
X0363841Y0288848D01*
X0363822Y0288732D01*
X0362695Y0288910D01*
X0362714Y0289026D01*
G37*
G36*
X0368818Y0294452D02*
X0369945Y0294274D01*
X0369926Y0294158D01*
X0368799Y0294336D01*
X0368818Y0294452D01*
G37*
G36*
X0365947Y0296461D02*
X0367074Y0296283D01*
X0367055Y0296167D01*
X0365928Y0296345D01*
X0365947Y0296461D01*
G37*
G36*
X0364081Y0296757D02*
X0365208Y0296579D01*
X0365189Y0296463D01*
X0364062Y0296641D01*
X0364081Y0296757D01*
G37*
X0369980Y0302918D03*
X0368083Y0309482D03*
X0368202Y0311018D03*
X0369461Y0311884D03*
G36*
X0368286Y0315810D02*
X0369416Y0315968D01*
X0369432Y0315852D01*
X0368302Y0315694D01*
X0368286Y0315810D01*
G37*
G36*
X0368341Y0317965D02*
X0369471Y0318123D01*
X0369487Y0318007D01*
X0368357Y0317849D01*
X0368341Y0317965D01*
G37*
G36*
X0365096Y0315879D02*
X0366226Y0316037D01*
X0366242Y0315921D01*
X0365112Y0315763D01*
X0365096Y0315879D01*
G37*
G36*
X0367186Y0325971D02*
X0368316Y0326129D01*
X0368332Y0326013D01*
X0367202Y0325855D01*
X0367186Y0325971D01*
G37*
G36*
X0508455Y0315957D02*
X0509594Y0316028D01*
X0509601Y0315911D01*
X0508462Y0315840D01*
X0508455Y0315957D01*
G37*
G36*
X0511631Y0315644D02*
X0512770Y0315715D01*
X0512777Y0315598D01*
X0511638Y0315527D01*
X0511631Y0315644D01*
G37*
G36*
X0511851Y0317788D02*
X0512990Y0317859D01*
X0512997Y0317742D01*
X0511858Y0317671D01*
X0511851Y0317788D01*
G37*
X0512961Y0311634D03*
X0511702Y0310768D03*
X0511583Y0309232D03*
X0512980Y0302668D03*
G36*
X0509544Y0296284D02*
X0510683Y0296213D01*
X0510676Y0296096D01*
X0509537Y0296167D01*
X0509544Y0296284D01*
G37*
G36*
X0507658Y0296403D02*
X0508797Y0296332D01*
X0508790Y0296215D01*
X0507651Y0296286D01*
X0507658Y0296403D01*
G37*
G36*
X0512591Y0294554D02*
X0513730Y0294483D01*
X0513723Y0294366D01*
X0512584Y0294437D01*
X0512591Y0294554D01*
G37*
G36*
X0507040Y0288410D02*
X0508179Y0288339D01*
X0508172Y0288222D01*
X0507033Y0288293D01*
X0507040Y0288410D01*
G37*
G36*
X0508704Y0286649D02*
X0509843Y0286578D01*
X0509836Y0286461D01*
X0508697Y0286532D01*
X0508704Y0286649D01*
G37*
G36*
X0511396Y0281108D02*
X0512528Y0280965D01*
X0512514Y0280848D01*
X0511382Y0280991D01*
X0511396Y0281108D01*
G37*
G36*
X0510229Y0273070D02*
X0511361Y0272927D01*
X0511347Y0272810D01*
X0510215Y0272953D01*
X0510229Y0273070D01*
G37*
G36*
X0509611Y0271005D02*
X0510743Y0270862D01*
X0510729Y0270745D01*
X0509597Y0270888D01*
X0509611Y0271005D01*
G37*
G36*
X0506550Y0271907D02*
X0507682Y0271764D01*
X0507668Y0271647D01*
X0506536Y0271790D01*
X0506550Y0271907D01*
G37*
G36*
X0511466Y0326056D02*
X0512605Y0326127D01*
X0512612Y0326010D01*
X0511473Y0325939D01*
X0511466Y0326056D01*
G37*
D26*
G36*
X0510005Y0325451D02*
X0511262Y0325530D01*
X0511269Y0325413D01*
X0510012Y0325334D01*
X0510005Y0325451D01*
G37*
G36*
X0509926Y0324814D02*
X0511183Y0324893D01*
X0511190Y0324776D01*
X0509933Y0324697D01*
X0509926Y0324814D01*
G37*
G36*
X0511452Y0324398D02*
X0512709Y0324477D01*
X0512716Y0324360D01*
X0511459Y0324281D01*
X0511452Y0324398D01*
G37*
G36*
X0511150Y0318888D02*
X0512407Y0318967D01*
X0512414Y0318850D01*
X0511157Y0318771D01*
X0511150Y0318888D01*
G37*
G36*
X0508448Y0316075D02*
X0509705Y0316154D01*
X0509712Y0316037D01*
X0508455Y0315958D01*
X0508448Y0316075D01*
G37*
X0512920Y0301014D03*
X0512054Y0300266D03*
G36*
X0512569Y0296094D02*
X0513826Y0296015D01*
X0513819Y0295898D01*
X0512562Y0295977D01*
X0512569Y0296094D01*
G37*
G36*
X0512347Y0294451D02*
X0513604Y0294372D01*
X0513597Y0294255D01*
X0512340Y0294334D01*
X0512347Y0294451D01*
G37*
G36*
X0511436Y0293759D02*
X0512693Y0293680D01*
X0512686Y0293563D01*
X0511429Y0293642D01*
X0511436Y0293759D01*
G37*
G36*
X0509322Y0294642D02*
X0510579Y0294563D01*
X0510572Y0294446D01*
X0509315Y0294525D01*
X0509322Y0294642D01*
G37*
G36*
X0508410Y0293949D02*
X0509667Y0293870D01*
X0509660Y0293753D01*
X0508403Y0293832D01*
X0508410Y0293949D01*
G37*
G36*
X0510576Y0288188D02*
X0511833Y0288109D01*
X0511826Y0287992D01*
X0510569Y0288071D01*
X0510576Y0288188D01*
G37*
G36*
X0506936Y0286760D02*
X0508193Y0286681D01*
X0508186Y0286564D01*
X0506929Y0286643D01*
X0506936Y0286760D01*
G37*
G36*
X0509848Y0280787D02*
X0511097Y0280630D01*
X0511082Y0280513D01*
X0509833Y0280670D01*
X0509848Y0280787D01*
G37*
G36*
X0509652Y0280177D02*
X0510901Y0280020D01*
X0510886Y0279903D01*
X0509637Y0280060D01*
X0509652Y0280177D01*
G37*
G36*
X0511072Y0279482D02*
X0512321Y0279325D01*
X0512306Y0279208D01*
X0511057Y0279365D01*
X0511072Y0279482D01*
G37*
G36*
X0509747Y0274281D02*
X0510996Y0274124D01*
X0510981Y0274007D01*
X0509732Y0274164D01*
X0509747Y0274281D01*
G37*
G36*
X0506566Y0272024D02*
X0507815Y0271867D01*
X0507800Y0271750D01*
X0506551Y0271907D01*
X0506566Y0272024D01*
G37*
G36*
X0368941Y0295987D02*
X0370185Y0295791D01*
X0370167Y0295675D01*
X0368923Y0295871D01*
X0368941Y0295987D01*
G37*
G36*
X0368565Y0294372D02*
X0369809Y0294176D01*
X0369791Y0294060D01*
X0368547Y0294256D01*
X0368565Y0294372D01*
G37*
G36*
X0367593Y0293769D02*
X0368837Y0293573D01*
X0368819Y0293457D01*
X0367575Y0293653D01*
X0367593Y0293769D01*
G37*
G36*
X0365571Y0294847D02*
X0366815Y0294651D01*
X0366797Y0294535D01*
X0365553Y0294731D01*
X0365571Y0294847D01*
G37*
G36*
X0364599Y0294243D02*
X0365843Y0294047D01*
X0365825Y0293931D01*
X0364581Y0294127D01*
X0364599Y0294243D01*
G37*
G36*
X0366213Y0288471D02*
X0367457Y0288275D01*
X0367439Y0288159D01*
X0366195Y0288355D01*
X0366213Y0288471D01*
G37*
G36*
X0362455Y0287392D02*
X0363699Y0287196D01*
X0363681Y0287080D01*
X0362437Y0287276D01*
X0362455Y0287392D01*
G37*
G36*
X0364644Y0281087D02*
X0365841Y0280699D01*
X0365804Y0280587D01*
X0364607Y0280975D01*
X0364644Y0281087D01*
G37*
G36*
X0364337Y0280525D02*
X0365534Y0280137D01*
X0365497Y0280025D01*
X0364300Y0280413D01*
X0364337Y0280525D01*
G37*
G36*
X0365602Y0279575D02*
X0366799Y0279187D01*
X0366762Y0279075D01*
X0365565Y0279463D01*
X0365602Y0279575D01*
G37*
G36*
X0363256Y0274843D02*
X0364453Y0274455D01*
X0364416Y0274343D01*
X0363219Y0274731D01*
X0363256Y0274843D01*
G37*
G36*
X0359707Y0273223D02*
X0360904Y0272835D01*
X0360867Y0272723D01*
X0359670Y0273111D01*
X0359707Y0273223D01*
G37*
X0369054Y0300516D03*
X0369920Y0301264D03*
G36*
X0365079Y0315996D02*
X0366326Y0316171D01*
X0366343Y0316054D01*
X0365096Y0315879D01*
X0365079Y0315996D01*
G37*
G36*
X0367558Y0319008D02*
X0368805Y0319183D01*
X0368822Y0319066D01*
X0367575Y0318891D01*
X0367558Y0319008D01*
G37*
G36*
X0367299Y0324318D02*
X0368546Y0324493D01*
X0368563Y0324376D01*
X0367316Y0324201D01*
X0367299Y0324318D01*
G37*
G36*
X0365746Y0324616D02*
X0366993Y0324791D01*
X0367010Y0324674D01*
X0365763Y0324499D01*
X0365746Y0324616D01*
G37*
G36*
X0365775Y0325257D02*
X0367022Y0325432D01*
X0367039Y0325315D01*
X0365792Y0325140D01*
X0365775Y0325257D01*
G37*
X0318520Y0301614D03*
X0317654Y0300866D03*
G36*
X0312159Y0285443D02*
X0313178Y0284703D01*
X0313109Y0284607D01*
X0312090Y0285347D01*
X0312159Y0285443D01*
G37*
G36*
X0308284Y0284998D02*
X0309303Y0284258D01*
X0309234Y0284162D01*
X0308215Y0284902D01*
X0308284Y0284998D01*
G37*
G36*
X0306303Y0278407D02*
X0307322Y0277667D01*
X0307253Y0277571D01*
X0306234Y0278311D01*
X0306303Y0278407D01*
G37*
G36*
X0305837Y0277966D02*
X0306856Y0277226D01*
X0306787Y0277130D01*
X0305768Y0277870D01*
X0305837Y0277966D01*
G37*
G36*
X0306747Y0276673D02*
X0307766Y0275933D01*
X0307697Y0275837D01*
X0306678Y0276577D01*
X0306747Y0276673D01*
G37*
G36*
X0313541Y0313979D02*
X0314738Y0314367D01*
X0314775Y0314255D01*
X0313578Y0313867D01*
X0313541Y0313979D01*
G37*
G36*
X0315459Y0317376D02*
X0316656Y0317764D01*
X0316693Y0317652D01*
X0315496Y0317264D01*
X0315459Y0317376D01*
G37*
G36*
X0314612Y0322852D02*
X0315809Y0323240D01*
X0315846Y0323128D01*
X0314649Y0322740D01*
X0314612Y0322852D01*
G37*
G36*
X0313031Y0322876D02*
X0314228Y0323264D01*
X0314265Y0323152D01*
X0313068Y0322764D01*
X0313031Y0322876D01*
G37*
G36*
X0312949Y0323512D02*
X0314146Y0323900D01*
X0314183Y0323788D01*
X0312986Y0323400D01*
X0312949Y0323512D01*
G37*
X0290272Y0348494D03*
X0290154Y0348612D03*
X0290627Y0350266D03*
X0287871Y0350266D03*
X0287871Y0347116D03*
X0283580Y0349636D03*
X0284404Y0351366D03*
X0285270Y0352114D03*
X0277674Y0349636D03*
X0274879Y0349754D03*
X0269997Y0350266D03*
X0269603Y0348494D03*
X0266885Y0353768D03*
X0262200Y0351996D03*
X0262081Y0351602D03*
X0259524Y0349518D03*
X0256769Y0347116D03*
X0262081Y0401602D03*
X0262200Y0401996D03*
X0266885Y0403768D03*
X0284404Y0401366D03*
X0285270Y0402114D03*
X0283154Y0546116D03*
X0284020Y0546864D03*
X0265635Y0548518D03*
X0260950Y0546746D03*
X0260831Y0546352D03*
D27*
X0265379Y0547120D03*
X0265497Y0548380D03*
X0284276Y0548380D03*
X0284276Y0547120D03*
X0285526Y0403630D03*
X0285526Y0402370D03*
X0266747Y0403630D03*
X0266629Y0402370D03*
X0266747Y0353630D03*
X0266629Y0352370D03*
X0269347Y0348750D03*
X0259269Y0348120D03*
X0285526Y0352370D03*
X0285526Y0353630D03*
X0290017Y0348750D03*
G36*
X0314512Y0324433D02*
X0315447Y0324736D01*
X0315496Y0324587D01*
X0314561Y0324284D01*
X0314512Y0324433D01*
G37*
G36*
X0314902Y0323235D02*
X0315837Y0323538D01*
X0315886Y0323389D01*
X0314951Y0323086D01*
X0314902Y0323235D01*
G37*
X0317255Y0310880D03*
X0317255Y0309620D03*
X0318776Y0301870D03*
G36*
X0307968Y0277683D02*
X0308763Y0277105D01*
X0308672Y0276979D01*
X0307877Y0277557D01*
X0307968Y0277683D01*
G37*
G36*
X0307227Y0276664D02*
X0308022Y0276086D01*
X0307931Y0275960D01*
X0307136Y0276538D01*
X0307227Y0276664D01*
G37*
G36*
X0366061Y0279716D02*
X0366996Y0279413D01*
X0366947Y0279264D01*
X0366012Y0279567D01*
X0366061Y0279716D01*
G37*
G36*
X0366451Y0280914D02*
X0367386Y0280611D01*
X0367337Y0280462D01*
X0366402Y0280765D01*
X0366451Y0280914D01*
G37*
G36*
X0365882Y0287129D02*
X0366853Y0286975D01*
X0366828Y0286821D01*
X0365857Y0286975D01*
X0365882Y0287129D01*
G37*
G36*
X0366004Y0295057D02*
X0366975Y0294903D01*
X0366950Y0294749D01*
X0365979Y0294903D01*
X0366004Y0295057D01*
G37*
G36*
X0366084Y0296320D02*
X0367055Y0296166D01*
X0367030Y0296012D01*
X0366059Y0296166D01*
X0366084Y0296320D01*
G37*
G36*
X0369195Y0295827D02*
X0370166Y0295673D01*
X0370141Y0295519D01*
X0369170Y0295673D01*
X0369195Y0295827D01*
G37*
X0370176Y0301520D03*
X0368005Y0309620D03*
X0368005Y0310880D03*
G36*
X0367650Y0324644D02*
X0368624Y0324781D01*
X0368646Y0324628D01*
X0367672Y0324491D01*
X0367650Y0324644D01*
G37*
G36*
X0367475Y0325891D02*
X0368449Y0326028D01*
X0368471Y0325875D01*
X0367497Y0325738D01*
X0367475Y0325891D01*
G37*
G36*
X0511749Y0325953D02*
X0512730Y0326015D01*
X0512739Y0325861D01*
X0511758Y0325799D01*
X0511749Y0325953D01*
G37*
G36*
X0511828Y0324696D02*
X0512809Y0324758D01*
X0512818Y0324604D01*
X0511837Y0324542D01*
X0511828Y0324696D01*
G37*
X0511505Y0310630D03*
X0511505Y0309370D03*
X0513176Y0301270D03*
G36*
X0512837Y0295958D02*
X0513818Y0295896D01*
X0513809Y0295742D01*
X0512828Y0295804D01*
X0512837Y0295958D01*
G37*
G36*
X0509694Y0296156D02*
X0510675Y0296094D01*
X0510666Y0295940D01*
X0509685Y0296002D01*
X0509694Y0296156D01*
G37*
G36*
X0509732Y0294891D02*
X0510713Y0294829D01*
X0510704Y0294675D01*
X0509723Y0294737D01*
X0509732Y0294891D01*
G37*
G36*
X0510372Y0286819D02*
X0511353Y0286757D01*
X0511344Y0286603D01*
X0510363Y0286665D01*
X0510372Y0286819D01*
G37*
G36*
X0511655Y0280956D02*
X0512630Y0280832D01*
X0512611Y0280678D01*
X0511636Y0280802D01*
X0511655Y0280956D01*
G37*
G36*
X0511497Y0279706D02*
X0512472Y0279582D01*
X0512453Y0279428D01*
X0511478Y0279552D01*
X0511497Y0279706D01*
G37*
D28*
X0511287Y0302530D03*
X0368287Y0302780D03*
X0316887Y0303130D03*
X0283637Y0353630D03*
X0256119Y0348750D03*
X0283637Y0403630D03*
X0282387Y0548380D03*
D29*
X0280320Y0548380D03*
X0278548Y0548380D03*
X0273863Y0548380D03*
X0272997Y0548380D03*
X0271619Y0548380D03*
X0269454Y0548380D03*
X0268469Y0548380D03*
X0271221Y0539045D03*
X0275946Y0539203D03*
X0278938Y0539203D03*
X0283347Y0539203D03*
X0253111Y0541565D03*
X0253111Y0541722D03*
X0253111Y0541880D03*
X0269719Y0403630D03*
X0270704Y0403630D03*
X0272869Y0403630D03*
X0274247Y0403630D03*
X0275113Y0403630D03*
X0279798Y0403630D03*
X0281570Y0403630D03*
X0280207Y0396453D03*
X0283200Y0396453D03*
X0284617Y0396453D03*
X0287609Y0396453D03*
X0291389Y0396295D03*
X0253278Y0397240D03*
X0269719Y0353630D03*
X0270704Y0353630D03*
X0272869Y0353630D03*
X0274247Y0353630D03*
X0275113Y0353630D03*
X0279798Y0353630D03*
X0281570Y0353630D03*
X0258186Y0349380D03*
D30*
X0258127Y0350010D03*
X0257261Y0348750D03*
X0278833Y0353630D03*
X0319144Y0310880D03*
X0319144Y0310250D03*
X0319144Y0309620D03*
G36*
X0366335Y0295642D02*
X0367073Y0295525D01*
X0367049Y0295372D01*
X0366311Y0295489D01*
X0366335Y0295642D01*
G37*
X0369894Y0309620D03*
X0369894Y0310250D03*
X0369894Y0310880D03*
X0278833Y0403630D03*
X0277583Y0548380D03*
X0513394Y0310630D03*
X0513394Y0310000D03*
X0513394Y0309370D03*
G36*
X0510008Y0295505D02*
X0510754Y0295458D01*
X0510744Y0295303D01*
X0509998Y0295350D01*
X0510008Y0295505D01*
G37*
D31*
X0277022Y0353630D03*
X0264542Y0353630D03*
X0264542Y0403630D03*
X0277022Y0403630D03*
X0275772Y0548380D03*
X0263292Y0548380D03*
D32*
X0261028Y0548380D03*
X0262278Y0403630D03*
X0262278Y0353630D03*
X0256572Y0348120D03*
X0275076Y0349380D03*
G36*
X0313157Y0314268D02*
X0314729Y0314778D01*
X0314777Y0314630D01*
X0313205Y0314120D01*
X0313157Y0314268D01*
G37*
G36*
X0308292Y0285478D02*
X0309629Y0284507D01*
X0309538Y0284380D01*
X0308201Y0285351D01*
X0308292Y0285478D01*
G37*
G36*
X0359566Y0273682D02*
X0361138Y0273172D01*
X0361090Y0273024D01*
X0359518Y0273534D01*
X0359566Y0273682D01*
G37*
G36*
X0364752Y0316347D02*
X0366389Y0316576D01*
X0366410Y0316421D01*
X0364773Y0316192D01*
X0364752Y0316347D01*
G37*
G36*
X0508148Y0316449D02*
X0509798Y0316553D01*
X0509808Y0316399D01*
X0508158Y0316295D01*
X0508148Y0316449D01*
G37*
G36*
X0506341Y0272449D02*
X0507981Y0272242D01*
X0507961Y0272087D01*
X0506321Y0272294D01*
X0506341Y0272449D01*
G37*
D33*
G36*
X0509291Y0272553D02*
X0511282Y0272302D01*
X0511267Y0272185D01*
X0509276Y0272436D01*
X0509291Y0272553D01*
G37*
G36*
X0509332Y0273818D02*
X0511323Y0273567D01*
X0511308Y0273450D01*
X0509317Y0273701D01*
X0509332Y0273818D01*
G37*
G36*
X0509366Y0274091D02*
X0511357Y0273840D01*
X0511342Y0273723D01*
X0509351Y0273974D01*
X0509366Y0274091D01*
G37*
G36*
X0510109Y0281905D02*
X0512100Y0281654D01*
X0512085Y0281537D01*
X0510094Y0281788D01*
X0510109Y0281905D01*
G37*
X0512765Y0308484D03*
G36*
X0511026Y0317105D02*
X0513029Y0317230D01*
X0513036Y0317113D01*
X0511033Y0316988D01*
X0511026Y0317105D01*
G37*
G36*
X0510829Y0318355D02*
X0512832Y0318480D01*
X0512839Y0318363D01*
X0510836Y0318238D01*
X0510829Y0318355D01*
G37*
G36*
X0510812Y0318630D02*
X0512815Y0318755D01*
X0512822Y0318638D01*
X0510819Y0318513D01*
X0510812Y0318630D01*
G37*
G36*
X0510051Y0326598D02*
X0512054Y0326723D01*
X0512061Y0326606D01*
X0510058Y0326481D01*
X0510051Y0326598D01*
G37*
G36*
X0367571Y0317221D02*
X0369559Y0317500D01*
X0369575Y0317383D01*
X0367587Y0317104D01*
X0367571Y0317221D01*
G37*
G36*
X0367279Y0318452D02*
X0369267Y0318731D01*
X0369283Y0318614D01*
X0367295Y0318335D01*
X0367279Y0318452D01*
G37*
G36*
X0367240Y0318725D02*
X0369228Y0319004D01*
X0369244Y0318887D01*
X0367256Y0318608D01*
X0367240Y0318725D01*
G37*
X0369265Y0308734D03*
G36*
X0365734Y0326404D02*
X0367722Y0326683D01*
X0367738Y0326566D01*
X0365750Y0326287D01*
X0365734Y0326404D01*
G37*
G36*
X0365109Y0282137D02*
X0367018Y0281517D01*
X0366981Y0281405D01*
X0365072Y0282025D01*
X0365109Y0282137D01*
G37*
G36*
X0362846Y0274729D02*
X0364755Y0274109D01*
X0364718Y0273997D01*
X0362809Y0274617D01*
X0362846Y0274729D01*
G37*
G36*
X0362760Y0274467D02*
X0364669Y0273847D01*
X0364632Y0273735D01*
X0362723Y0274355D01*
X0362760Y0274467D01*
G37*
G36*
X0362484Y0273232D02*
X0364393Y0272612D01*
X0364356Y0272500D01*
X0362447Y0273120D01*
X0362484Y0273232D01*
G37*
X0318515Y0308734D03*
G36*
X0315782Y0315618D02*
X0317691Y0316238D01*
X0317728Y0316126D01*
X0315819Y0315506D01*
X0315782Y0315618D01*
G37*
G36*
X0315280Y0316780D02*
X0317189Y0317400D01*
X0317226Y0317288D01*
X0315317Y0316668D01*
X0315280Y0316780D01*
G37*
G36*
X0315195Y0317042D02*
X0317104Y0317662D01*
X0317141Y0317550D01*
X0315232Y0316930D01*
X0315195Y0317042D01*
G37*
G36*
X0312708Y0324634D02*
X0314617Y0325254D01*
X0314654Y0325142D01*
X0312745Y0324522D01*
X0312708Y0324634D01*
G37*
X0290646Y0349872D03*
X0281983Y0353492D03*
X0270290Y0353492D03*
X0270290Y0351484D03*
X0269977Y0349872D03*
X0268007Y0351484D03*
X0264621Y0353256D03*
X0263166Y0350384D03*
X0263560Y0348376D03*
X0266198Y0347746D03*
X0260646Y0347234D03*
X0268007Y0401484D03*
X0270290Y0401484D03*
X0270290Y0403492D03*
X0264621Y0403256D03*
X0281983Y0403492D03*
G36*
X0311734Y0285459D02*
X0313357Y0284280D01*
X0313288Y0284185D01*
X0311665Y0285364D01*
X0311734Y0285459D01*
G37*
G36*
X0311572Y0285236D02*
X0313195Y0284057D01*
X0313126Y0283962D01*
X0311503Y0285141D01*
X0311572Y0285236D01*
G37*
G36*
X0310927Y0284147D02*
X0312550Y0282968D01*
X0312481Y0282873D01*
X0310858Y0284052D01*
X0310927Y0284147D01*
G37*
G36*
X0307070Y0279260D02*
X0308693Y0278081D01*
X0308624Y0277986D01*
X0307001Y0279165D01*
X0307070Y0279260D01*
G37*
X0269040Y0546234D03*
X0269040Y0548242D03*
X0266757Y0546234D03*
X0263371Y0548006D03*
X0280733Y0548242D03*
D34*
X0275831Y0548242D03*
X0275831Y0546234D03*
X0263351Y0546234D03*
X0263351Y0548242D03*
X0264601Y0403492D03*
X0264601Y0401484D03*
X0277081Y0401484D03*
X0277081Y0403492D03*
X0277081Y0353492D03*
X0277081Y0351484D03*
X0270233Y0347982D03*
X0264601Y0351484D03*
X0264601Y0353492D03*
X0287871Y0347234D03*
G36*
X0312873Y0323362D02*
X0314295Y0323824D01*
X0314331Y0323712D01*
X0312909Y0323250D01*
X0312873Y0323362D01*
G37*
G36*
X0312959Y0323100D02*
X0314381Y0323562D01*
X0314417Y0323450D01*
X0312995Y0322988D01*
X0312959Y0323100D01*
G37*
G36*
X0316111Y0316263D02*
X0317533Y0316725D01*
X0317569Y0316613D01*
X0316147Y0316151D01*
X0316111Y0316263D01*
G37*
G36*
X0313356Y0314167D02*
X0314778Y0314629D01*
X0314814Y0314517D01*
X0313392Y0314055D01*
X0313356Y0314167D01*
G37*
G36*
X0308327Y0285258D02*
X0309536Y0284380D01*
X0309467Y0284284D01*
X0308258Y0285162D01*
X0308327Y0285258D01*
G37*
G36*
X0311642Y0284261D02*
X0312851Y0283383D01*
X0312782Y0283287D01*
X0311573Y0284165D01*
X0311642Y0284261D01*
G37*
G36*
X0306139Y0278380D02*
X0307348Y0277502D01*
X0307279Y0277406D01*
X0306070Y0278284D01*
X0306139Y0278380D01*
G37*
G36*
X0305977Y0278157D02*
X0307186Y0277279D01*
X0307117Y0277183D01*
X0305908Y0278061D01*
X0305977Y0278157D01*
G37*
G36*
X0359667Y0273485D02*
X0361089Y0273023D01*
X0361053Y0272911D01*
X0359631Y0273373D01*
X0359667Y0273485D01*
G37*
G36*
X0363128Y0273561D02*
X0364550Y0273099D01*
X0364514Y0272987D01*
X0363092Y0273449D01*
X0363128Y0273561D01*
G37*
G36*
X0364409Y0280750D02*
X0365831Y0280288D01*
X0365795Y0280176D01*
X0364373Y0280638D01*
X0364409Y0280750D01*
G37*
G36*
X0364495Y0281012D02*
X0365917Y0280550D01*
X0365881Y0280438D01*
X0364459Y0280900D01*
X0364495Y0281012D01*
G37*
G36*
X0364975Y0297373D02*
X0366452Y0297140D01*
X0366433Y0297023D01*
X0364956Y0297256D01*
X0364975Y0297373D01*
G37*
G36*
X0364930Y0316214D02*
X0366410Y0316421D01*
X0366426Y0316304D01*
X0364946Y0316097D01*
X0364930Y0316214D01*
G37*
G36*
X0368007Y0317799D02*
X0369487Y0318006D01*
X0369503Y0317889D01*
X0368023Y0317682D01*
X0368007Y0317799D01*
G37*
G36*
X0365714Y0324851D02*
X0367194Y0325058D01*
X0367210Y0324941D01*
X0365730Y0324734D01*
X0365714Y0324851D01*
G37*
G36*
X0365676Y0325124D02*
X0367156Y0325331D01*
X0367172Y0325214D01*
X0365692Y0325007D01*
X0365676Y0325124D01*
G37*
G36*
X0508315Y0316302D02*
X0509807Y0316396D01*
X0509815Y0316280D01*
X0508323Y0316186D01*
X0508315Y0316302D01*
G37*
G36*
X0511504Y0317647D02*
X0512996Y0317741D01*
X0513004Y0317625D01*
X0511512Y0317531D01*
X0511504Y0317647D01*
G37*
G36*
X0509911Y0325050D02*
X0511403Y0325144D01*
X0511411Y0325028D01*
X0509919Y0324934D01*
X0509911Y0325050D01*
G37*
G36*
X0509894Y0325325D02*
X0511386Y0325419D01*
X0511394Y0325303D01*
X0509902Y0325209D01*
X0509894Y0325325D01*
G37*
G36*
X0508491Y0297100D02*
X0509983Y0297006D01*
X0509975Y0296890D01*
X0508483Y0296984D01*
X0508491Y0297100D01*
G37*
G36*
X0509716Y0280685D02*
X0511199Y0280498D01*
X0511184Y0280381D01*
X0509701Y0280568D01*
X0509716Y0280685D01*
G37*
G36*
X0509682Y0280412D02*
X0511165Y0280225D01*
X0511150Y0280108D01*
X0509667Y0280295D01*
X0509682Y0280412D01*
G37*
G36*
X0509863Y0272997D02*
X0511346Y0272810D01*
X0511331Y0272693D01*
X0509848Y0272880D01*
X0509863Y0272997D01*
G37*
G36*
X0506478Y0272274D02*
X0507961Y0272087D01*
X0507946Y0271970D01*
X0506463Y0272157D01*
X0506478Y0272274D01*
G37*
D35*
X0287871Y0350384D03*
X0275192Y0353492D03*
X0274643Y0350148D03*
X0274643Y0348888D03*
X0274643Y0348612D03*
X0274643Y0348494D03*
X0274643Y0348376D03*
X0274643Y0348258D03*
X0274643Y0347982D03*
X0274643Y0347864D03*
X0274643Y0347746D03*
X0274643Y0347628D03*
X0274643Y0347352D03*
X0274643Y0347234D03*
X0274643Y0347116D03*
X0261963Y0351366D03*
X0261963Y0401366D03*
X0275192Y0403492D03*
X0260713Y0546116D03*
X0273942Y0548242D03*
D36*
X0272938Y0548242D03*
X0268528Y0547494D03*
X0268528Y0546982D03*
X0265497Y0546982D03*
X0265379Y0548242D03*
X0264119Y0547612D03*
X0281245Y0547494D03*
X0274188Y0403492D03*
X0269778Y0402744D03*
X0269778Y0402232D03*
X0266747Y0402232D03*
X0266629Y0403492D03*
X0265369Y0402862D03*
X0282495Y0402744D03*
X0274188Y0353492D03*
X0269778Y0352744D03*
X0269778Y0352232D03*
X0269229Y0349518D03*
X0269229Y0348888D03*
X0266747Y0352232D03*
X0266629Y0353492D03*
X0265369Y0352862D03*
X0259269Y0349242D03*
X0276906Y0348494D03*
X0278166Y0348888D03*
X0282457Y0347628D03*
X0283087Y0348888D03*
X0284347Y0348494D03*
X0282495Y0352744D03*
X0291394Y0349518D03*
G36*
X0314561Y0324284D02*
X0315496Y0324587D01*
X0315533Y0324474D01*
X0314598Y0324171D01*
X0314561Y0324284D01*
G37*
G36*
X0315743Y0315358D02*
X0316678Y0315661D01*
X0316715Y0315548D01*
X0315780Y0315245D01*
X0315743Y0315358D01*
G37*
G36*
X0315901Y0314871D02*
X0316836Y0315174D01*
X0316873Y0315061D01*
X0315938Y0314758D01*
X0315901Y0314871D01*
G37*
G36*
X0312404Y0315059D02*
X0313339Y0315362D01*
X0313376Y0315249D01*
X0312441Y0314946D01*
X0312404Y0315059D01*
G37*
X0317137Y0310624D03*
X0318776Y0302992D03*
G36*
X0308489Y0286552D02*
X0309284Y0285975D01*
X0309215Y0285880D01*
X0308420Y0286457D01*
X0308489Y0286552D01*
G37*
G36*
X0310693Y0284026D02*
X0311488Y0283449D01*
X0311419Y0283354D01*
X0310624Y0283931D01*
X0310693Y0284026D01*
G37*
G36*
X0310392Y0283612D02*
X0311187Y0283035D01*
X0311118Y0282940D01*
X0310323Y0283517D01*
X0310392Y0283612D01*
G37*
G36*
X0307876Y0277555D02*
X0308671Y0276978D01*
X0308602Y0276883D01*
X0307807Y0277460D01*
X0307876Y0277555D01*
G37*
G36*
X0359422Y0274765D02*
X0360357Y0274462D01*
X0360320Y0274349D01*
X0359385Y0274652D01*
X0359422Y0274765D01*
G37*
G36*
X0362298Y0273044D02*
X0363233Y0272741D01*
X0363196Y0272628D01*
X0362261Y0272931D01*
X0362298Y0273044D01*
G37*
G36*
X0362140Y0272557D02*
X0363075Y0272254D01*
X0363038Y0272141D01*
X0362103Y0272444D01*
X0362140Y0272557D01*
G37*
G36*
X0366402Y0280765D02*
X0367337Y0280462D01*
X0367300Y0280349D01*
X0366365Y0280652D01*
X0366402Y0280765D01*
G37*
G36*
X0365974Y0286955D02*
X0366945Y0286802D01*
X0366926Y0286685D01*
X0365955Y0286838D01*
X0365974Y0286955D01*
G37*
G36*
X0364656Y0287443D02*
X0365627Y0287290D01*
X0365608Y0287173D01*
X0364637Y0287326D01*
X0364656Y0287443D01*
G37*
G36*
X0366054Y0288218D02*
X0367025Y0288065D01*
X0367006Y0287948D01*
X0366035Y0288101D01*
X0366054Y0288218D01*
G37*
G36*
X0365863Y0294921D02*
X0366834Y0294768D01*
X0366815Y0294651D01*
X0365844Y0294804D01*
X0365863Y0294921D01*
G37*
G36*
X0366177Y0296147D02*
X0367148Y0295994D01*
X0367129Y0295877D01*
X0366158Y0296030D01*
X0366177Y0296147D01*
G37*
G36*
X0369269Y0295537D02*
X0370240Y0295384D01*
X0370221Y0295267D01*
X0369250Y0295420D01*
X0369269Y0295537D01*
G37*
X0370176Y0302642D03*
X0367887Y0310624D03*
G36*
X0367558Y0316463D02*
X0368532Y0316599D01*
X0368548Y0316483D01*
X0367574Y0316347D01*
X0367558Y0316463D01*
G37*
G36*
X0367487Y0316970D02*
X0368461Y0317106D01*
X0368477Y0316990D01*
X0367503Y0316854D01*
X0367487Y0316970D01*
G37*
G36*
X0364147Y0317256D02*
X0365121Y0317392D01*
X0365137Y0317276D01*
X0364163Y0317140D01*
X0364147Y0317256D01*
G37*
G36*
X0367497Y0325737D02*
X0368471Y0325873D01*
X0368487Y0325757D01*
X0367513Y0325621D01*
X0367497Y0325737D01*
G37*
G36*
X0507615Y0317402D02*
X0508596Y0317464D01*
X0508603Y0317348D01*
X0507622Y0317286D01*
X0507615Y0317402D01*
G37*
G36*
X0510923Y0316861D02*
X0511904Y0316923D01*
X0511911Y0316807D01*
X0510930Y0316745D01*
X0510923Y0316861D01*
G37*
G36*
X0510955Y0316350D02*
X0511936Y0316412D01*
X0511943Y0316296D01*
X0510962Y0316234D01*
X0510955Y0316350D01*
G37*
X0511387Y0310374D03*
X0513176Y0302392D03*
G36*
X0509802Y0295992D02*
X0510783Y0295930D01*
X0510776Y0295814D01*
X0509795Y0295876D01*
X0509802Y0295992D01*
G37*
G36*
X0509605Y0294742D02*
X0510586Y0294680D01*
X0510579Y0294564D01*
X0509598Y0294626D01*
X0509605Y0294742D01*
G37*
G36*
X0512938Y0295676D02*
X0513919Y0295614D01*
X0513912Y0295498D01*
X0512931Y0295560D01*
X0512938Y0295676D01*
G37*
G36*
X0510441Y0287920D02*
X0511422Y0287858D01*
X0511415Y0287742D01*
X0510434Y0287804D01*
X0510441Y0287920D01*
G37*
G36*
X0509122Y0287017D02*
X0510103Y0286955D01*
X0510096Y0286839D01*
X0509115Y0286901D01*
X0509122Y0287017D01*
G37*
G36*
X0510480Y0286655D02*
X0511461Y0286593D01*
X0511454Y0286477D01*
X0510473Y0286539D01*
X0510480Y0286655D01*
G37*
G36*
X0511636Y0280800D02*
X0512611Y0280677D01*
X0512596Y0280560D01*
X0511621Y0280683D01*
X0511636Y0280800D01*
G37*
G36*
X0505996Y0273485D02*
X0506971Y0273362D01*
X0506956Y0273245D01*
X0505981Y0273368D01*
X0505996Y0273485D01*
G37*
G36*
X0509145Y0272334D02*
X0510120Y0272211D01*
X0510105Y0272094D01*
X0509130Y0272217D01*
X0509145Y0272334D01*
G37*
G36*
X0509080Y0271826D02*
X0510055Y0271703D01*
X0510040Y0271586D01*
X0509065Y0271709D01*
X0509080Y0271826D01*
G37*
G36*
X0511758Y0325797D02*
X0512739Y0325859D01*
X0512746Y0325743D01*
X0511765Y0325681D01*
X0511758Y0325797D01*
G37*
D37*
X0287871Y0347352D03*
X0277081Y0351602D03*
X0277081Y0353374D03*
X0277081Y0401602D03*
X0277081Y0403374D03*
X0275831Y0546352D03*
X0275831Y0548124D03*
D38*
X0272623Y0548124D03*
X0272623Y0548006D03*
X0273873Y0403374D03*
X0273873Y0403256D03*
X0273873Y0353374D03*
X0273873Y0353256D03*
D39*
X0270408Y0353256D03*
X0270408Y0353138D03*
X0270408Y0351878D03*
X0269977Y0349754D03*
X0269977Y0349636D03*
X0269859Y0347116D03*
X0267889Y0351602D03*
X0260528Y0347352D03*
X0281865Y0353138D03*
X0281865Y0353256D03*
X0290646Y0349754D03*
X0290646Y0349636D03*
X0281865Y0403138D03*
X0281865Y0403256D03*
X0270408Y0403256D03*
X0270408Y0403138D03*
X0270408Y0401878D03*
X0267889Y0401602D03*
G36*
X0366381Y0286252D02*
X0368596Y0285902D01*
X0368577Y0285786D01*
X0366362Y0286136D01*
X0366381Y0286252D01*
G37*
G36*
X0510951Y0285995D02*
X0513190Y0285855D01*
X0513183Y0285737D01*
X0510944Y0285877D01*
X0510951Y0285995D01*
G37*
X0280615Y0547888D03*
X0280615Y0548006D03*
X0269158Y0548006D03*
X0269158Y0547888D03*
X0269158Y0546628D03*
X0266639Y0546352D03*
D40*
X0275831Y0548006D03*
X0277081Y0403256D03*
X0277081Y0353256D03*
X0272753Y0349872D03*
X0287871Y0349872D03*
D41*
X0287871Y0349636D03*
X0287871Y0347746D03*
X0277081Y0351878D03*
X0277081Y0351996D03*
X0277081Y0353138D03*
X0272753Y0349636D03*
X0264601Y0351878D03*
X0264601Y0351996D03*
X0264601Y0353138D03*
X0264601Y0401878D03*
X0264601Y0401996D03*
X0264601Y0403138D03*
X0277081Y0403138D03*
X0277081Y0401996D03*
X0277081Y0401878D03*
X0275831Y0546628D03*
X0275831Y0546746D03*
X0275831Y0547888D03*
X0263351Y0547888D03*
X0263351Y0546746D03*
X0263351Y0546628D03*
D42*
X0272564Y0547612D03*
X0272564Y0547888D03*
X0273814Y0403138D03*
X0273814Y0402862D03*
X0273814Y0353138D03*
X0273814Y0352862D03*
D43*
X0270467Y0353000D03*
X0260469Y0350010D03*
X0260469Y0347490D03*
X0281806Y0353000D03*
G36*
X0313299Y0322052D02*
X0315545Y0322781D01*
X0315593Y0322632D01*
X0313347Y0321903D01*
X0313299Y0322052D01*
G37*
G36*
X0305328Y0277265D02*
X0307238Y0275877D01*
X0307146Y0275751D01*
X0305236Y0277139D01*
X0305328Y0277265D01*
G37*
G36*
X0362672Y0286998D02*
X0365004Y0286630D01*
X0364980Y0286476D01*
X0362648Y0286844D01*
X0362672Y0286998D01*
G37*
G36*
X0364069Y0279701D02*
X0366315Y0278972D01*
X0366267Y0278823D01*
X0364021Y0279552D01*
X0364069Y0279701D01*
G37*
G36*
X0365867Y0323758D02*
X0368205Y0324086D01*
X0368227Y0323932D01*
X0365889Y0323604D01*
X0365867Y0323758D01*
G37*
X0291467Y0400075D03*
X0286113Y0398815D03*
X0282491Y0397713D03*
X0282491Y0400390D03*
X0281806Y0403000D03*
X0278711Y0398815D03*
X0272412Y0400075D03*
X0269105Y0400075D03*
X0270467Y0403000D03*
X0272412Y0396768D03*
X0257452Y0400390D03*
X0252570Y0396768D03*
X0251300Y0539833D03*
X0259961Y0541722D03*
X0267835Y0542825D03*
X0269217Y0547750D03*
X0277442Y0541565D03*
X0280556Y0547750D03*
X0284843Y0541565D03*
X0290198Y0542825D03*
X0290198Y0539675D03*
X0290198Y0539518D03*
X0293662Y0539518D03*
X0293662Y0539675D03*
X0293662Y0542825D03*
G36*
X0509981Y0323949D02*
X0512337Y0324098D01*
X0512347Y0323943D01*
X0509991Y0323794D01*
X0509981Y0323949D01*
G37*
G36*
X0507189Y0286389D02*
X0509545Y0286240D01*
X0509535Y0286085D01*
X0507179Y0286234D01*
X0507189Y0286389D01*
G37*
G36*
X0509544Y0279317D02*
X0511886Y0279022D01*
X0511866Y0278867D01*
X0509524Y0279162D01*
X0509544Y0279317D01*
G37*
D44*
X0279345Y0353000D03*
X0279345Y0403000D03*
X0278095Y0547750D03*
D45*
X0275831Y0547750D03*
X0263351Y0547750D03*
X0264601Y0403000D03*
X0277081Y0403000D03*
X0277081Y0353000D03*
X0264601Y0353000D03*
D46*
X0273814Y0353000D03*
X0273814Y0403000D03*
X0272564Y0547750D03*
D47*
X0273883Y0547120D03*
X0273883Y0546490D03*
X0270103Y0547120D03*
X0265182Y0547750D03*
X0262544Y0547120D03*
X0279670Y0547120D03*
X0279670Y0546490D03*
X0266432Y0403000D03*
X0263794Y0402370D03*
X0271353Y0402370D03*
X0275133Y0402370D03*
X0275133Y0401740D03*
X0280920Y0401740D03*
X0280920Y0402370D03*
X0280920Y0352370D03*
X0280920Y0351740D03*
X0284780Y0347490D03*
X0289820Y0349380D03*
X0276473Y0347490D03*
X0273442Y0348120D03*
X0273442Y0349380D03*
X0270804Y0349380D03*
X0271353Y0352370D03*
X0275133Y0352370D03*
X0275133Y0351740D03*
X0266432Y0353000D03*
X0263794Y0352370D03*
G36*
X0314049Y0315220D02*
X0314909Y0315499D01*
X0314957Y0315350D01*
X0314097Y0315071D01*
X0314049Y0315220D01*
G37*
G36*
X0309586Y0285316D02*
X0310318Y0284784D01*
X0310226Y0284658D01*
X0309494Y0285190D01*
X0309586Y0285316D01*
G37*
G36*
X0360847Y0273929D02*
X0361707Y0273650D01*
X0361659Y0273501D01*
X0360799Y0273780D01*
X0360847Y0273929D01*
G37*
G36*
X0365824Y0287775D02*
X0366718Y0287634D01*
X0366694Y0287481D01*
X0365800Y0287622D01*
X0365824Y0287775D01*
G37*
G36*
X0363864Y0295395D02*
X0364758Y0295254D01*
X0364734Y0295101D01*
X0363840Y0295242D01*
X0363864Y0295395D01*
G37*
G36*
X0363846Y0296036D02*
X0364740Y0295895D01*
X0364716Y0295742D01*
X0363822Y0295883D01*
X0363846Y0296036D01*
G37*
G36*
X0365795Y0317129D02*
X0366691Y0317255D01*
X0366713Y0317101D01*
X0365817Y0316975D01*
X0365795Y0317129D01*
G37*
G36*
X0507493Y0295663D02*
X0508397Y0295606D01*
X0508387Y0295451D01*
X0507483Y0295508D01*
X0507493Y0295663D01*
G37*
G36*
X0507571Y0295027D02*
X0508475Y0294970D01*
X0508465Y0294815D01*
X0507561Y0294872D01*
X0507571Y0295027D01*
G37*
G36*
X0510254Y0287458D02*
X0511158Y0287401D01*
X0511148Y0287246D01*
X0510244Y0287303D01*
X0510254Y0287458D01*
G37*
G36*
X0507553Y0272931D02*
X0508451Y0272817D01*
X0508431Y0272663D01*
X0507533Y0272777D01*
X0507553Y0272931D01*
G37*
G36*
X0509247Y0317150D02*
X0510151Y0317207D01*
X0510161Y0317052D01*
X0509257Y0316995D01*
X0509247Y0317150D01*
G37*
D48*
X0290706Y0350010D03*
X0272674Y0350010D03*
X0272674Y0347490D03*
X0269918Y0350010D03*
X0262278Y0353000D03*
X0272491Y0396610D03*
X0269184Y0397713D03*
X0269026Y0397870D03*
X0275326Y0398972D03*
X0275326Y0399445D03*
X0278633Y0399287D03*
X0286034Y0399287D03*
X0291389Y0396610D03*
X0262278Y0403000D03*
X0252176Y0397555D03*
X0271221Y0539360D03*
X0274056Y0541565D03*
X0274056Y0542352D03*
X0277363Y0542037D03*
X0284922Y0542037D03*
X0296576Y0542195D03*
X0296576Y0541722D03*
X0267757Y0540620D03*
X0261028Y0547750D03*
X0251536Y0540935D03*
D49*
X0269217Y0546746D03*
X0269217Y0546864D03*
X0269217Y0547612D03*
X0280556Y0547612D03*
X0281806Y0402862D03*
X0270467Y0402862D03*
X0270467Y0402114D03*
X0270467Y0401996D03*
X0270467Y0352862D03*
X0270467Y0352114D03*
X0270467Y0351996D03*
X0281806Y0352862D03*
G36*
X0363041Y0289333D02*
X0365373Y0288964D01*
X0365355Y0288847D01*
X0363023Y0289216D01*
X0363041Y0289333D01*
G37*
G36*
X0507338Y0288747D02*
X0509694Y0288599D01*
X0509686Y0288481D01*
X0507330Y0288629D01*
X0507338Y0288747D01*
G37*
D50*
G36*
X0305920Y0276203D02*
X0306142Y0276042D01*
X0306072Y0275947D01*
X0305850Y0276108D01*
X0305920Y0276203D01*
G37*
G36*
X0311768Y0282759D02*
X0311990Y0282598D01*
X0311920Y0282503D01*
X0311698Y0282664D01*
X0311768Y0282759D01*
G37*
X0315995Y0311884D03*
G36*
X0317399Y0315480D02*
X0317661Y0315565D01*
X0317697Y0315454D01*
X0317435Y0315369D01*
X0317399Y0315480D01*
G37*
G36*
X0314505Y0321905D02*
X0314767Y0321990D01*
X0314803Y0321879D01*
X0314541Y0321794D01*
X0314505Y0321905D01*
G37*
X0284385Y0351248D03*
X0278715Y0352862D03*
X0266828Y0350384D03*
X0261707Y0352862D03*
X0257379Y0347864D03*
X0261707Y0402862D03*
X0278715Y0402862D03*
X0284385Y0401248D03*
G36*
X0367030Y0323405D02*
X0367302Y0323443D01*
X0367318Y0323327D01*
X0367046Y0323289D01*
X0367030Y0323405D01*
G37*
G36*
X0369140Y0316805D02*
X0369412Y0316843D01*
X0369428Y0316727D01*
X0369156Y0316689D01*
X0369140Y0316805D01*
G37*
X0366745Y0311884D03*
G36*
X0368041Y0293578D02*
X0368313Y0293535D01*
X0368295Y0293420D01*
X0368023Y0293463D01*
X0368041Y0293578D01*
G37*
G36*
X0364959Y0278873D02*
X0365221Y0278788D01*
X0365185Y0278677D01*
X0364923Y0278762D01*
X0364959Y0278873D01*
G37*
G36*
X0363711Y0272170D02*
X0363973Y0272085D01*
X0363937Y0271974D01*
X0363675Y0272059D01*
X0363711Y0272170D01*
G37*
G36*
X0510696Y0271740D02*
X0510969Y0271706D01*
X0510954Y0271590D01*
X0510681Y0271624D01*
X0510696Y0271740D01*
G37*
G36*
X0510573Y0278672D02*
X0510846Y0278638D01*
X0510831Y0278522D01*
X0510558Y0278556D01*
X0510573Y0278672D01*
G37*
G36*
X0511900Y0293611D02*
X0512175Y0293594D01*
X0512168Y0293477D01*
X0511893Y0293494D01*
X0511900Y0293611D01*
G37*
X0510245Y0311634D03*
G36*
X0512558Y0316570D02*
X0512833Y0316587D01*
X0512840Y0316470D01*
X0512565Y0316453D01*
X0512558Y0316570D01*
G37*
G36*
X0511113Y0323509D02*
X0511388Y0323526D01*
X0511395Y0323409D01*
X0511120Y0323392D01*
X0511113Y0323509D01*
G37*
X0283135Y0545998D03*
X0277465Y0547612D03*
X0260457Y0547612D03*
D51*
X0262544Y0547494D03*
X0262544Y0547376D03*
X0262544Y0547258D03*
X0262544Y0546982D03*
X0270103Y0547258D03*
X0270103Y0547376D03*
X0273883Y0547376D03*
X0273883Y0547494D03*
X0273883Y0547258D03*
X0273883Y0546982D03*
X0273883Y0546864D03*
X0273883Y0546746D03*
X0273883Y0546628D03*
X0273883Y0546352D03*
X0273883Y0546234D03*
X0279670Y0546352D03*
X0279670Y0546628D03*
X0279670Y0546746D03*
X0279670Y0546864D03*
X0279670Y0546982D03*
X0279670Y0547258D03*
X0279670Y0547376D03*
X0275133Y0402744D03*
X0275133Y0402626D03*
X0275133Y0402508D03*
X0275133Y0402232D03*
X0275133Y0402114D03*
X0275133Y0401996D03*
X0275133Y0401878D03*
X0275133Y0401602D03*
X0275133Y0401484D03*
X0271353Y0402508D03*
X0271353Y0402626D03*
X0263794Y0402626D03*
X0263794Y0402744D03*
X0263794Y0402508D03*
X0263794Y0402232D03*
X0280920Y0402232D03*
X0280920Y0402114D03*
X0280920Y0401996D03*
X0280920Y0401878D03*
X0280920Y0401602D03*
X0280920Y0402508D03*
X0280920Y0402626D03*
X0280920Y0352626D03*
X0280920Y0352508D03*
X0280920Y0352232D03*
X0280920Y0352114D03*
X0280920Y0351996D03*
X0280920Y0351878D03*
X0280920Y0351602D03*
X0282891Y0348494D03*
X0284150Y0348888D03*
X0284780Y0347628D03*
X0287182Y0347864D03*
X0288560Y0347864D03*
X0288560Y0349518D03*
X0289820Y0349242D03*
X0289820Y0349124D03*
X0289820Y0349006D03*
X0287182Y0349518D03*
X0278363Y0348494D03*
X0277103Y0348888D03*
X0276473Y0347628D03*
X0273442Y0347982D03*
X0270804Y0349006D03*
X0270804Y0349124D03*
X0270804Y0349242D03*
X0271353Y0352508D03*
X0271353Y0352626D03*
X0275133Y0352626D03*
X0275133Y0352744D03*
X0275133Y0352508D03*
X0275133Y0352232D03*
X0275133Y0352114D03*
X0275133Y0351996D03*
X0275133Y0351878D03*
X0275133Y0351602D03*
X0275133Y0351484D03*
X0263794Y0352232D03*
X0263794Y0352508D03*
X0263794Y0352626D03*
X0263794Y0352744D03*
G36*
X0311946Y0315573D02*
X0312807Y0315852D01*
X0312844Y0315739D01*
X0311983Y0315460D01*
X0311946Y0315573D01*
G37*
G36*
X0312132Y0315385D02*
X0312993Y0315664D01*
X0313030Y0315551D01*
X0312169Y0315272D01*
X0312132Y0315385D01*
G37*
G36*
X0312935Y0314569D02*
X0313796Y0314848D01*
X0313833Y0314735D01*
X0312972Y0314456D01*
X0312935Y0314569D01*
G37*
G36*
X0312971Y0314457D02*
X0313832Y0314736D01*
X0313869Y0314623D01*
X0313008Y0314344D01*
X0312971Y0314457D01*
G37*
G36*
X0314011Y0315333D02*
X0314872Y0315612D01*
X0314909Y0315499D01*
X0314048Y0315220D01*
X0314011Y0315333D01*
G37*
G36*
X0314087Y0315482D02*
X0314948Y0315761D01*
X0314985Y0315648D01*
X0314124Y0315369D01*
X0314087Y0315482D01*
G37*
G36*
X0314051Y0315594D02*
X0314912Y0315873D01*
X0314949Y0315760D01*
X0314088Y0315481D01*
X0314051Y0315594D01*
G37*
G36*
X0308636Y0287223D02*
X0309368Y0286692D01*
X0309298Y0286597D01*
X0308566Y0287128D01*
X0308636Y0287223D01*
G37*
G36*
X0308593Y0286963D02*
X0309325Y0286432D01*
X0309255Y0286337D01*
X0308523Y0286868D01*
X0308593Y0286963D01*
G37*
G36*
X0308405Y0285834D02*
X0309137Y0285303D01*
X0309067Y0285208D01*
X0308335Y0285739D01*
X0308405Y0285834D01*
G37*
G36*
X0308336Y0285738D02*
X0309068Y0285207D01*
X0308998Y0285112D01*
X0308266Y0285643D01*
X0308336Y0285738D01*
G37*
G36*
X0309656Y0285412D02*
X0310388Y0284881D01*
X0310318Y0284786D01*
X0309586Y0285317D01*
X0309656Y0285412D01*
G37*
G36*
X0309821Y0285438D02*
X0310553Y0284907D01*
X0310483Y0284812D01*
X0309751Y0285343D01*
X0309821Y0285438D01*
G37*
G36*
X0309890Y0285533D02*
X0310622Y0285002D01*
X0310552Y0284907D01*
X0309820Y0285438D01*
X0309890Y0285533D01*
G37*
G36*
X0359354Y0275450D02*
X0360215Y0275171D01*
X0360178Y0275058D01*
X0359317Y0275337D01*
X0359354Y0275450D01*
G37*
G36*
X0359393Y0275188D02*
X0360254Y0274909D01*
X0360217Y0274796D01*
X0359356Y0275075D01*
X0359393Y0275188D01*
G37*
G36*
X0359564Y0274057D02*
X0360425Y0273778D01*
X0360388Y0273665D01*
X0359527Y0273944D01*
X0359564Y0274057D01*
G37*
G36*
X0359527Y0273944D02*
X0360388Y0273665D01*
X0360351Y0273552D01*
X0359490Y0273831D01*
X0359527Y0273944D01*
G37*
G36*
X0360884Y0274042D02*
X0361745Y0273763D01*
X0361708Y0273650D01*
X0360847Y0273929D01*
X0360884Y0274042D01*
G37*
G36*
X0361032Y0274118D02*
X0361893Y0273839D01*
X0361856Y0273726D01*
X0360995Y0274005D01*
X0361032Y0274118D01*
G37*
G36*
X0361069Y0274230D02*
X0361930Y0273951D01*
X0361893Y0273838D01*
X0361032Y0274117D01*
X0361069Y0274230D01*
G37*
G36*
X0365781Y0287504D02*
X0366675Y0287363D01*
X0366657Y0287246D01*
X0365763Y0287387D01*
X0365781Y0287504D01*
G37*
G36*
X0365799Y0287621D02*
X0366693Y0287480D01*
X0366675Y0287363D01*
X0365781Y0287504D01*
X0365799Y0287621D01*
G37*
G36*
X0365842Y0287893D02*
X0366736Y0287752D01*
X0366718Y0287635D01*
X0365824Y0287776D01*
X0365842Y0287893D01*
G37*
G36*
X0363785Y0295648D02*
X0364679Y0295507D01*
X0364661Y0295390D01*
X0363767Y0295531D01*
X0363785Y0295648D01*
G37*
G36*
X0363803Y0295765D02*
X0364697Y0295624D01*
X0364679Y0295507D01*
X0363785Y0295648D01*
X0363803Y0295765D01*
G37*
G36*
X0363822Y0295882D02*
X0364716Y0295741D01*
X0364698Y0295624D01*
X0363804Y0295765D01*
X0363822Y0295882D01*
G37*
G36*
X0363865Y0296154D02*
X0364759Y0296013D01*
X0364741Y0295896D01*
X0363847Y0296037D01*
X0363865Y0296154D01*
G37*
G36*
X0363883Y0296271D02*
X0364777Y0296130D01*
X0364759Y0296013D01*
X0363865Y0296154D01*
X0363883Y0296271D01*
G37*
G36*
X0363902Y0296387D02*
X0364796Y0296246D01*
X0364778Y0296129D01*
X0363884Y0296270D01*
X0363902Y0296387D01*
G37*
G36*
X0364037Y0296485D02*
X0364931Y0296344D01*
X0364913Y0296227D01*
X0364019Y0296368D01*
X0364037Y0296485D01*
G37*
G36*
X0364602Y0316565D02*
X0365498Y0316690D01*
X0365514Y0316573D01*
X0364618Y0316448D01*
X0364602Y0316565D01*
G37*
G36*
X0364586Y0316682D02*
X0365482Y0316807D01*
X0365498Y0316690D01*
X0364602Y0316565D01*
X0364586Y0316682D01*
G37*
G36*
X0363936Y0317625D02*
X0364832Y0317750D01*
X0364848Y0317633D01*
X0363952Y0317508D01*
X0363936Y0317625D01*
G37*
G36*
X0363787Y0317842D02*
X0364683Y0317967D01*
X0364699Y0317850D01*
X0363803Y0317725D01*
X0363787Y0317842D01*
G37*
G36*
X0365778Y0317248D02*
X0366674Y0317373D01*
X0366690Y0317256D01*
X0365794Y0317131D01*
X0365778Y0317248D01*
G37*
G36*
X0365879Y0317381D02*
X0366775Y0317506D01*
X0366791Y0317389D01*
X0365895Y0317264D01*
X0365879Y0317381D01*
G37*
G36*
X0365863Y0317498D02*
X0366759Y0317623D01*
X0366775Y0317506D01*
X0365879Y0317381D01*
X0365863Y0317498D01*
G37*
G36*
X0507300Y0318014D02*
X0508203Y0318071D01*
X0508210Y0317954D01*
X0507307Y0317897D01*
X0507300Y0318014D01*
G37*
G36*
X0507433Y0317786D02*
X0508336Y0317843D01*
X0508343Y0317726D01*
X0507440Y0317669D01*
X0507433Y0317786D01*
G37*
G36*
X0508008Y0316796D02*
X0508911Y0316853D01*
X0508918Y0316736D01*
X0508015Y0316679D01*
X0508008Y0316796D01*
G37*
G36*
X0508015Y0316678D02*
X0508918Y0316735D01*
X0508925Y0316618D01*
X0508022Y0316561D01*
X0508015Y0316678D01*
G37*
G36*
X0509241Y0317268D02*
X0510144Y0317325D01*
X0510151Y0317208D01*
X0509248Y0317151D01*
X0509241Y0317268D01*
G37*
G36*
X0509351Y0317394D02*
X0510254Y0317451D01*
X0510261Y0317334D01*
X0509358Y0317277D01*
X0509351Y0317394D01*
G37*
G36*
X0509344Y0317511D02*
X0510247Y0317568D01*
X0510254Y0317451D01*
X0509351Y0317394D01*
X0509344Y0317511D01*
G37*
G36*
X0507640Y0296128D02*
X0508543Y0296071D01*
X0508536Y0295954D01*
X0507633Y0296011D01*
X0507640Y0296128D01*
G37*
G36*
X0507515Y0296018D02*
X0508418Y0295961D01*
X0508411Y0295844D01*
X0507508Y0295901D01*
X0507515Y0296018D01*
G37*
G36*
X0507508Y0295900D02*
X0508411Y0295843D01*
X0508404Y0295726D01*
X0507501Y0295783D01*
X0507508Y0295900D01*
G37*
G36*
X0507500Y0295782D02*
X0508403Y0295725D01*
X0508396Y0295608D01*
X0507493Y0295665D01*
X0507500Y0295782D01*
G37*
G36*
X0507483Y0295507D02*
X0508386Y0295450D01*
X0508379Y0295333D01*
X0507476Y0295390D01*
X0507483Y0295507D01*
G37*
G36*
X0507475Y0295389D02*
X0508378Y0295332D01*
X0508371Y0295215D01*
X0507468Y0295272D01*
X0507475Y0295389D01*
G37*
G36*
X0507468Y0295271D02*
X0508371Y0295214D01*
X0508364Y0295097D01*
X0507461Y0295154D01*
X0507468Y0295271D01*
G37*
G36*
X0510261Y0287577D02*
X0511164Y0287520D01*
X0511157Y0287403D01*
X0510254Y0287460D01*
X0510261Y0287577D01*
G37*
G36*
X0510244Y0287302D02*
X0511147Y0287245D01*
X0511140Y0287128D01*
X0510237Y0287185D01*
X0510244Y0287302D01*
G37*
G36*
X0510237Y0287184D02*
X0511140Y0287127D01*
X0511133Y0287010D01*
X0510230Y0287067D01*
X0510237Y0287184D01*
G37*
G36*
X0505801Y0274145D02*
X0506699Y0274031D01*
X0506685Y0273915D01*
X0505787Y0274029D01*
X0505801Y0274145D01*
G37*
G36*
X0505888Y0273896D02*
X0506786Y0273782D01*
X0506772Y0273666D01*
X0505874Y0273780D01*
X0505888Y0273896D01*
G37*
G36*
X0506268Y0272816D02*
X0507166Y0272702D01*
X0507152Y0272586D01*
X0506254Y0272700D01*
X0506268Y0272816D01*
G37*
G36*
X0506253Y0272699D02*
X0507151Y0272585D01*
X0507137Y0272469D01*
X0506239Y0272583D01*
X0506253Y0272699D01*
G37*
G36*
X0507567Y0273049D02*
X0508465Y0272935D01*
X0508451Y0272819D01*
X0507553Y0272933D01*
X0507567Y0273049D01*
G37*
G36*
X0507699Y0273151D02*
X0508597Y0273037D01*
X0508583Y0272921D01*
X0507685Y0273035D01*
X0507699Y0273151D01*
G37*
G36*
X0507714Y0273268D02*
X0508612Y0273154D01*
X0508598Y0273038D01*
X0507700Y0273152D01*
X0507714Y0273268D01*
G37*
D52*
G36*
X0508497Y0274439D02*
X0508887Y0274389D01*
X0508873Y0274273D01*
X0508483Y0274323D01*
X0508497Y0274439D01*
G37*
G36*
X0508140Y0285817D02*
X0508532Y0285792D01*
X0508524Y0285675D01*
X0508132Y0285700D01*
X0508140Y0285817D01*
G37*
G36*
X0511216Y0294641D02*
X0511608Y0294616D01*
X0511600Y0294499D01*
X0511208Y0294524D01*
X0511216Y0294641D01*
G37*
G36*
X0509893Y0318808D02*
X0510285Y0318833D01*
X0510293Y0318716D01*
X0509901Y0318691D01*
X0509893Y0318808D01*
G37*
G36*
X0367456Y0294668D02*
X0367844Y0294606D01*
X0367826Y0294490D01*
X0367438Y0294552D01*
X0367456Y0294668D01*
G37*
G36*
X0363564Y0286340D02*
X0363952Y0286278D01*
X0363934Y0286162D01*
X0363546Y0286224D01*
X0363564Y0286340D01*
G37*
G36*
X0362057Y0275233D02*
X0362431Y0275113D01*
X0362395Y0275001D01*
X0362021Y0275121D01*
X0362057Y0275233D01*
G37*
G36*
X0366311Y0318833D02*
X0366700Y0318887D01*
X0366717Y0318771D01*
X0366328Y0318717D01*
X0366311Y0318833D01*
G37*
G36*
X0314261Y0316987D02*
X0314635Y0317107D01*
X0314671Y0316995D01*
X0314297Y0316875D01*
X0314261Y0316987D01*
G37*
G36*
X0311141Y0286183D02*
X0311459Y0285952D01*
X0311389Y0285857D01*
X0311071Y0286088D01*
X0311141Y0286183D01*
G37*
X0283696Y0352232D03*
X0283696Y0402232D03*
X0282446Y0546982D03*
D53*
X0266383Y0546864D03*
X0267633Y0402114D03*
X0267633Y0352114D03*
X0260272Y0347864D03*
G36*
X0364255Y0296849D02*
X0366976Y0296419D01*
X0366957Y0296303D01*
X0364236Y0296733D01*
X0364255Y0296849D01*
G37*
G36*
X0363959Y0294982D02*
X0366680Y0294552D01*
X0366661Y0294436D01*
X0363940Y0294866D01*
X0363959Y0294982D01*
G37*
G36*
X0366232Y0288588D02*
X0368953Y0288158D01*
X0368934Y0288042D01*
X0366213Y0288472D01*
X0366232Y0288588D01*
G37*
G36*
X0365955Y0286838D02*
X0368676Y0286408D01*
X0368657Y0286292D01*
X0365936Y0286722D01*
X0365955Y0286838D01*
G37*
G36*
X0507704Y0294625D02*
X0510453Y0294453D01*
X0510446Y0294335D01*
X0507697Y0294507D01*
X0507704Y0294625D01*
G37*
G36*
X0507823Y0296511D02*
X0510572Y0296339D01*
X0510565Y0296221D01*
X0507816Y0296393D01*
X0507823Y0296511D01*
G37*
G36*
X0510584Y0288306D02*
X0513333Y0288134D01*
X0513326Y0288016D01*
X0510577Y0288188D01*
X0510584Y0288306D01*
G37*
G36*
X0510473Y0286538D02*
X0513222Y0286366D01*
X0513215Y0286248D01*
X0510466Y0286420D01*
X0510473Y0286538D01*
G37*
D54*
G36*
X0509667Y0280294D02*
X0511033Y0280123D01*
X0511019Y0280006D01*
X0509653Y0280177D01*
X0509667Y0280294D01*
G37*
G36*
X0506463Y0272156D02*
X0507829Y0271985D01*
X0507815Y0271868D01*
X0506449Y0272039D01*
X0506463Y0272156D01*
G37*
G36*
X0511635Y0296903D02*
X0513009Y0296816D01*
X0513001Y0296699D01*
X0511627Y0296786D01*
X0511635Y0296903D01*
G37*
G36*
X0508322Y0316185D02*
X0509696Y0316272D01*
X0509704Y0316155D01*
X0508330Y0316068D01*
X0508322Y0316185D01*
G37*
G36*
X0509919Y0324932D02*
X0511293Y0325019D01*
X0511301Y0324902D01*
X0509927Y0324815D01*
X0509919Y0324932D01*
G37*
G36*
X0368086Y0296881D02*
X0369446Y0296666D01*
X0369428Y0296549D01*
X0368068Y0296764D01*
X0368086Y0296881D01*
G37*
G36*
X0364373Y0280638D02*
X0365683Y0280213D01*
X0365647Y0280100D01*
X0364337Y0280525D01*
X0364373Y0280638D01*
G37*
G36*
X0359631Y0273372D02*
X0360941Y0272947D01*
X0360905Y0272834D01*
X0359595Y0273259D01*
X0359631Y0273372D01*
G37*
G36*
X0364946Y0316097D02*
X0366310Y0316288D01*
X0366326Y0316171D01*
X0364962Y0315980D01*
X0364946Y0316097D01*
G37*
G36*
X0365730Y0324734D02*
X0367094Y0324925D01*
X0367110Y0324808D01*
X0365746Y0324617D01*
X0365730Y0324734D01*
G37*
G36*
X0312995Y0322989D02*
X0314305Y0323414D01*
X0314341Y0323301D01*
X0313031Y0322876D01*
X0312995Y0322989D01*
G37*
G36*
X0313392Y0314056D02*
X0314702Y0314481D01*
X0314738Y0314368D01*
X0313428Y0313943D01*
X0313392Y0314056D01*
G37*
G36*
X0308258Y0285162D02*
X0309372Y0284353D01*
X0309302Y0284258D01*
X0308188Y0285067D01*
X0308258Y0285162D01*
G37*
G36*
X0305907Y0278061D02*
X0307021Y0277252D01*
X0306951Y0277157D01*
X0305837Y0277966D01*
X0305907Y0278061D01*
G37*
X0290961Y0347982D03*
X0290450Y0348376D03*
X0283639Y0349518D03*
X0277615Y0349518D03*
X0272694Y0350266D03*
X0269780Y0348376D03*
X0262141Y0351878D03*
X0256946Y0348494D03*
X0256434Y0347982D03*
X0262141Y0401878D03*
X0260891Y0546628D03*
D55*
X0267835Y0542982D03*
X0271300Y0542982D03*
X0274135Y0542195D03*
X0274135Y0542037D03*
X0274135Y0541880D03*
X0274135Y0541722D03*
X0277442Y0541880D03*
X0275831Y0546490D03*
X0284843Y0541880D03*
X0290198Y0542982D03*
X0293662Y0542982D03*
X0296654Y0542037D03*
X0296654Y0541880D03*
X0293662Y0539360D03*
X0290198Y0539360D03*
X0256339Y0539203D03*
X0251457Y0540778D03*
X0251300Y0540620D03*
X0251143Y0540463D03*
X0251300Y0541880D03*
X0277081Y0401740D03*
X0275404Y0399287D03*
X0275404Y0399130D03*
X0272412Y0400232D03*
X0269105Y0400232D03*
X0278711Y0399130D03*
X0282648Y0397555D03*
X0286113Y0399130D03*
X0291467Y0400232D03*
X0252570Y0398028D03*
X0252412Y0397870D03*
X0252412Y0397713D03*
X0252570Y0396610D03*
X0252412Y0399130D03*
X0277081Y0351740D03*
X0287871Y0347490D03*
D56*
X0280686Y0348120D03*
X0264621Y0351740D03*
X0256749Y0347490D03*
X0264621Y0401740D03*
G36*
X0315232Y0316929D02*
X0317140Y0317549D01*
X0317188Y0317401D01*
X0315280Y0316781D01*
X0315232Y0316929D01*
G37*
G36*
X0315734Y0315767D02*
X0317642Y0316387D01*
X0317690Y0316239D01*
X0315782Y0315619D01*
X0315734Y0315767D01*
G37*
G36*
X0311664Y0285364D02*
X0313288Y0284184D01*
X0313196Y0284058D01*
X0311572Y0285238D01*
X0311664Y0285364D01*
G37*
G36*
X0311019Y0284275D02*
X0312643Y0283095D01*
X0312551Y0282969D01*
X0310927Y0284149D01*
X0311019Y0284275D01*
G37*
G36*
X0362532Y0273381D02*
X0364440Y0272761D01*
X0364392Y0272613D01*
X0362484Y0273233D01*
X0362532Y0273381D01*
G37*
G36*
X0362809Y0274616D02*
X0364717Y0273996D01*
X0364669Y0273848D01*
X0362761Y0274468D01*
X0362809Y0274616D01*
G37*
G36*
X0367549Y0317376D02*
X0369537Y0317654D01*
X0369559Y0317500D01*
X0367571Y0317222D01*
X0367549Y0317376D01*
G37*
G36*
X0367257Y0318608D02*
X0369245Y0318886D01*
X0369267Y0318732D01*
X0367279Y0318454D01*
X0367257Y0318608D01*
G37*
G36*
X0510820Y0318511D02*
X0512823Y0318637D01*
X0512832Y0318483D01*
X0510829Y0318357D01*
X0510820Y0318511D01*
G37*
G36*
X0511017Y0317261D02*
X0513020Y0317387D01*
X0513029Y0317233D01*
X0511026Y0317107D01*
X0511017Y0317261D01*
G37*
G36*
X0509351Y0273973D02*
X0511342Y0273722D01*
X0511323Y0273567D01*
X0509332Y0273818D01*
X0509351Y0273973D01*
G37*
G36*
X0509310Y0272709D02*
X0511301Y0272458D01*
X0511282Y0272303D01*
X0509291Y0272554D01*
X0509310Y0272709D01*
G37*
X0263371Y0546490D03*
D57*
X0260831Y0546490D03*
X0256418Y0543297D03*
X0254528Y0541880D03*
X0254528Y0540463D03*
X0254686Y0540305D03*
X0250749Y0540148D03*
X0266969Y0541407D03*
X0270276Y0540305D03*
X0273741Y0542825D03*
X0276733Y0541407D03*
X0277363Y0542667D03*
X0278150Y0541250D03*
X0278308Y0540935D03*
X0278938Y0539675D03*
X0279883Y0541407D03*
X0279883Y0542195D03*
X0283977Y0540935D03*
X0284135Y0541250D03*
X0285552Y0541407D03*
X0285709Y0541093D03*
X0284922Y0542667D03*
X0289331Y0542195D03*
X0291064Y0542195D03*
X0292796Y0542195D03*
X0294528Y0542195D03*
X0296261Y0542825D03*
X0294528Y0540148D03*
X0292796Y0540148D03*
X0291064Y0540148D03*
X0289331Y0540148D03*
X0275946Y0539675D03*
X0262081Y0401740D03*
X0268081Y0399445D03*
X0268081Y0398657D03*
X0268239Y0398500D03*
X0269971Y0399445D03*
X0271546Y0399445D03*
X0271546Y0397398D03*
X0273278Y0397398D03*
X0275011Y0400075D03*
X0278003Y0398657D03*
X0277845Y0398343D03*
X0277215Y0397083D03*
X0279578Y0398185D03*
X0279420Y0398500D03*
X0278633Y0399917D03*
X0281152Y0399445D03*
X0284617Y0396925D03*
X0285404Y0398657D03*
X0286034Y0399917D03*
X0286822Y0398500D03*
X0286979Y0398185D03*
X0287609Y0396925D03*
X0290601Y0397398D03*
X0292333Y0397398D03*
X0292333Y0399445D03*
X0255798Y0399287D03*
X0255641Y0398972D03*
X0255798Y0397713D03*
X0253121Y0398343D03*
X0262081Y0351740D03*
D58*
X0256690Y0349242D03*
X0256808Y0348376D03*
X0256690Y0348258D03*
X0268066Y0351366D03*
X0269918Y0350148D03*
X0275076Y0349242D03*
X0277595Y0349242D03*
X0283658Y0349242D03*
X0290706Y0350148D03*
G36*
X0316433Y0314381D02*
X0318005Y0314891D01*
X0318041Y0314779D01*
X0316469Y0314269D01*
X0316433Y0314381D01*
G37*
G36*
X0310308Y0282894D02*
X0311645Y0281923D01*
X0311576Y0281828D01*
X0310239Y0282799D01*
X0310308Y0282894D01*
G37*
G36*
X0362282Y0271848D02*
X0363854Y0271338D01*
X0363818Y0271226D01*
X0362246Y0271736D01*
X0362282Y0271848D01*
G37*
G36*
X0366810Y0285945D02*
X0368443Y0285687D01*
X0368424Y0285571D01*
X0366791Y0285829D01*
X0366810Y0285945D01*
G37*
G36*
X0367996Y0315890D02*
X0369633Y0316119D01*
X0369650Y0316002D01*
X0368013Y0315773D01*
X0367996Y0315890D01*
G37*
X0268066Y0401366D03*
X0266816Y0546116D03*
G36*
X0511348Y0315744D02*
X0512998Y0315848D01*
X0513006Y0315732D01*
X0511356Y0315628D01*
X0511348Y0315744D01*
G37*
G36*
X0511408Y0285729D02*
X0513058Y0285625D01*
X0513050Y0285509D01*
X0511400Y0285613D01*
X0511408Y0285729D01*
G37*
G36*
X0509352Y0271157D02*
X0510992Y0270950D01*
X0510978Y0270833D01*
X0509338Y0271040D01*
X0509352Y0271157D01*
G37*
D59*
X0510224Y0303534D03*
X0367224Y0303784D03*
X0315824Y0304134D03*
X0283639Y0350384D03*
X0277615Y0350384D03*
X0277022Y0351248D03*
X0274583Y0350384D03*
X0264542Y0351248D03*
X0258206Y0350384D03*
X0256828Y0346998D03*
X0264542Y0401248D03*
X0277022Y0401248D03*
X0275772Y0545998D03*
X0263292Y0545998D03*
D60*
X0272694Y0350148D03*
X0272694Y0347234D03*
X0260725Y0347116D03*
X0287930Y0350148D03*
D61*
X0287871Y0350010D03*
X0286113Y0399445D03*
X0278711Y0399445D03*
X0275247Y0399602D03*
X0275247Y0398815D03*
X0269420Y0397555D03*
X0268790Y0398028D03*
X0252727Y0398185D03*
X0250985Y0540305D03*
X0267363Y0540935D03*
X0267520Y0540778D03*
X0267993Y0540463D03*
X0268150Y0540305D03*
X0267835Y0543140D03*
X0277442Y0542195D03*
X0284843Y0542195D03*
X0290198Y0543140D03*
X0293662Y0543140D03*
X0296497Y0542352D03*
X0296497Y0541565D03*
D62*
X0274761Y0350010D03*
X0277044Y0348750D03*
X0284209Y0348750D03*
X0259406Y0349380D03*
G36*
X0312169Y0315271D02*
X0313142Y0315587D01*
X0313191Y0315439D01*
X0312218Y0315123D01*
X0312169Y0315271D01*
G37*
G36*
X0313726Y0313790D02*
X0314699Y0314106D01*
X0314748Y0313958D01*
X0313775Y0313642D01*
X0313726Y0313790D01*
G37*
G36*
X0314146Y0316576D02*
X0315119Y0316892D01*
X0315168Y0316744D01*
X0314195Y0316428D01*
X0314146Y0316576D01*
G37*
X0318639Y0303130D03*
G36*
X0310740Y0286035D02*
X0311568Y0285434D01*
X0311476Y0285307D01*
X0310648Y0285908D01*
X0310740Y0286035D01*
G37*
G36*
X0308523Y0286868D02*
X0309351Y0286267D01*
X0309259Y0286140D01*
X0308431Y0286741D01*
X0308523Y0286868D01*
G37*
G36*
X0308240Y0284737D02*
X0309068Y0284136D01*
X0308976Y0284009D01*
X0308148Y0284610D01*
X0308240Y0284737D01*
G37*
G36*
X0359357Y0275075D02*
X0360330Y0274759D01*
X0360281Y0274611D01*
X0359308Y0274927D01*
X0359357Y0275075D01*
G37*
G36*
X0359746Y0272962D02*
X0360719Y0272646D01*
X0360670Y0272498D01*
X0359697Y0272814D01*
X0359746Y0272962D01*
G37*
G36*
X0361723Y0274969D02*
X0362696Y0274653D01*
X0362647Y0274505D01*
X0361674Y0274821D01*
X0361723Y0274969D01*
G37*
G36*
X0362381Y0287683D02*
X0363391Y0287523D01*
X0363367Y0287369D01*
X0362357Y0287529D01*
X0362381Y0287683D01*
G37*
G36*
X0362579Y0288927D02*
X0363589Y0288767D01*
X0363565Y0288613D01*
X0362555Y0288773D01*
X0362579Y0288927D01*
G37*
G36*
X0364678Y0288595D02*
X0365688Y0288435D01*
X0365664Y0288281D01*
X0364654Y0288441D01*
X0364678Y0288595D01*
G37*
G36*
X0364062Y0296640D02*
X0365072Y0296480D01*
X0365048Y0296326D01*
X0364038Y0296486D01*
X0364062Y0296640D01*
G37*
X0370039Y0302780D03*
G36*
X0365230Y0315777D02*
X0366243Y0315920D01*
X0366264Y0315767D01*
X0365251Y0315624D01*
X0365230Y0315777D01*
G37*
G36*
X0363953Y0317506D02*
X0364966Y0317649D01*
X0364987Y0317496D01*
X0363974Y0317353D01*
X0363953Y0317506D01*
G37*
G36*
X0366127Y0318447D02*
X0367140Y0318590D01*
X0367161Y0318437D01*
X0366148Y0318294D01*
X0366127Y0318447D01*
G37*
G36*
X0507441Y0317667D02*
X0508462Y0317731D01*
X0508471Y0317577D01*
X0507450Y0317513D01*
X0507441Y0317667D01*
G37*
G36*
X0508581Y0315845D02*
X0509602Y0315909D01*
X0509611Y0315755D01*
X0508590Y0315691D01*
X0508581Y0315845D01*
G37*
G36*
X0509680Y0318439D02*
X0510701Y0318503D01*
X0510710Y0318349D01*
X0509689Y0318285D01*
X0509680Y0318439D01*
G37*
X0513039Y0302530D03*
G36*
X0507650Y0296284D02*
X0508671Y0296220D01*
X0508662Y0296066D01*
X0507641Y0296130D01*
X0507650Y0296284D01*
G37*
G36*
X0506914Y0288299D02*
X0507935Y0288235D01*
X0507926Y0288081D01*
X0506905Y0288145D01*
X0506914Y0288299D01*
G37*
G36*
X0506835Y0287041D02*
X0507856Y0286977D01*
X0507847Y0286823D01*
X0506826Y0286887D01*
X0506835Y0287041D01*
G37*
G36*
X0509036Y0288165D02*
X0510057Y0288101D01*
X0510048Y0287947D01*
X0509027Y0288011D01*
X0509036Y0288165D01*
G37*
G36*
X0508218Y0274116D02*
X0509233Y0273988D01*
X0509214Y0273834D01*
X0508199Y0273962D01*
X0508218Y0274116D01*
G37*
G36*
X0505874Y0273777D02*
X0506889Y0273649D01*
X0506870Y0273495D01*
X0505855Y0273623D01*
X0505874Y0273777D01*
G37*
G36*
X0506652Y0271774D02*
X0507667Y0271646D01*
X0507648Y0271492D01*
X0506633Y0271620D01*
X0506652Y0271774D01*
G37*
D63*
X0290568Y0347490D03*
X0263245Y0347490D03*
X0263245Y0350010D03*
D64*
X0272694Y0349754D03*
X0272694Y0347746D03*
X0272694Y0347628D03*
X0287930Y0347628D03*
X0287930Y0349754D03*
G36*
X0364248Y0294538D02*
X0366384Y0294201D01*
X0366366Y0294084D01*
X0364230Y0294421D01*
X0364248Y0294538D01*
G37*
G36*
X0508033Y0294209D02*
X0510192Y0294074D01*
X0510185Y0293957D01*
X0508026Y0294092D01*
X0508033Y0294209D01*
G37*
D65*
G36*
X0507835Y0289110D02*
X0509247Y0289021D01*
X0509239Y0288904D01*
X0507827Y0288993D01*
X0507835Y0289110D01*
G37*
G36*
X0507637Y0285967D02*
X0509049Y0285878D01*
X0509041Y0285761D01*
X0507629Y0285850D01*
X0507637Y0285967D01*
G37*
G36*
X0509963Y0278868D02*
X0511367Y0278691D01*
X0511353Y0278574D01*
X0509949Y0278751D01*
X0509963Y0278868D01*
G37*
X0511976Y0303416D03*
G36*
X0510478Y0323587D02*
X0511890Y0323676D01*
X0511898Y0323559D01*
X0510486Y0323470D01*
X0510478Y0323587D01*
G37*
X0368976Y0303666D03*
G36*
X0363570Y0289648D02*
X0364968Y0289427D01*
X0364950Y0289310D01*
X0363552Y0289531D01*
X0363570Y0289648D01*
G37*
G36*
X0363077Y0286537D02*
X0364475Y0286316D01*
X0364457Y0286199D01*
X0363059Y0286420D01*
X0363077Y0286537D01*
G37*
G36*
X0364397Y0279180D02*
X0365743Y0278744D01*
X0365707Y0278632D01*
X0364361Y0279068D01*
X0364397Y0279180D01*
G37*
G36*
X0366390Y0323435D02*
X0367791Y0323631D01*
X0367808Y0323515D01*
X0366407Y0323319D01*
X0366390Y0323435D01*
G37*
G36*
X0313871Y0321824D02*
X0315217Y0322260D01*
X0315253Y0322148D01*
X0313907Y0321712D01*
X0313871Y0321824D01*
G37*
X0317576Y0304016D03*
G36*
X0305480Y0276668D02*
X0306625Y0275837D01*
X0306556Y0275742D01*
X0305411Y0276573D01*
X0305480Y0276668D01*
G37*
X0274957Y0349006D03*
X0274957Y0349636D03*
X0269918Y0348258D03*
D66*
X0256690Y0349518D03*
X0317576Y0300748D03*
X0368976Y0300398D03*
X0511976Y0300148D03*
D67*
G36*
X0509701Y0280567D02*
X0511184Y0280380D01*
X0511165Y0280225D01*
X0509682Y0280412D01*
X0509701Y0280567D01*
G37*
G36*
X0509902Y0325206D02*
X0511394Y0325300D01*
X0511404Y0325146D01*
X0509912Y0325052D01*
X0509902Y0325206D01*
G37*
G36*
X0365692Y0325006D02*
X0367172Y0325213D01*
X0367194Y0325058D01*
X0365714Y0324851D01*
X0365692Y0325006D01*
G37*
G36*
X0364458Y0280899D02*
X0365880Y0280438D01*
X0365832Y0280289D01*
X0364410Y0280750D01*
X0364458Y0280899D01*
G37*
G36*
X0312910Y0323250D02*
X0314332Y0323711D01*
X0314380Y0323562D01*
X0312958Y0323101D01*
X0312910Y0323250D01*
G37*
X0283580Y0349380D03*
X0277674Y0349380D03*
X0270115Y0348120D03*
G36*
X0306069Y0278283D02*
X0307278Y0277405D01*
X0307187Y0277279D01*
X0305978Y0278157D01*
X0306069Y0278283D01*
G37*
D68*
G36*
X0366078Y0288373D02*
X0367166Y0288201D01*
X0367142Y0288047D01*
X0366054Y0288219D01*
X0366078Y0288373D01*
G37*
X0293830Y0396768D03*
X0293830Y0396925D03*
X0293830Y0397083D03*
X0293830Y0397240D03*
X0293830Y0397398D03*
X0293830Y0398657D03*
X0293830Y0398815D03*
X0293830Y0398972D03*
X0293830Y0399130D03*
X0293830Y0399287D03*
X0293830Y0399445D03*
X0293830Y0399602D03*
X0293830Y0399760D03*
X0293830Y0399917D03*
X0293830Y0400075D03*
X0295404Y0400075D03*
X0295404Y0400232D03*
X0295404Y0399917D03*
X0295562Y0399760D03*
X0295562Y0399602D03*
X0295562Y0399445D03*
X0295562Y0399287D03*
X0295719Y0399130D03*
X0295719Y0398972D03*
X0295719Y0398815D03*
X0295719Y0398657D03*
X0292570Y0398500D03*
X0292412Y0398972D03*
X0292412Y0399130D03*
X0292412Y0399287D03*
X0292412Y0397870D03*
X0292412Y0397713D03*
X0292412Y0397555D03*
X0290522Y0397555D03*
X0290365Y0397713D03*
X0290365Y0397870D03*
X0290365Y0398028D03*
X0290365Y0398185D03*
X0290365Y0398343D03*
X0290365Y0398500D03*
X0290365Y0398657D03*
X0290365Y0398815D03*
X0290365Y0398972D03*
X0290365Y0399130D03*
X0290522Y0399287D03*
X0290522Y0399445D03*
X0286900Y0398343D03*
X0286743Y0398657D03*
X0285326Y0398500D03*
X0285326Y0398343D03*
X0285168Y0398185D03*
X0284696Y0397083D03*
X0284538Y0396768D03*
X0284538Y0396610D03*
X0287530Y0397083D03*
X0287688Y0396768D03*
X0286113Y0400075D03*
X0281074Y0399287D03*
X0281074Y0398815D03*
X0281074Y0398657D03*
X0279499Y0398343D03*
X0279341Y0398657D03*
X0277924Y0398500D03*
X0277767Y0398185D03*
X0277137Y0396925D03*
X0277137Y0396768D03*
X0274932Y0396768D03*
X0274932Y0396925D03*
X0274932Y0397083D03*
X0274932Y0397240D03*
X0274932Y0397398D03*
X0274932Y0397555D03*
X0274932Y0397713D03*
X0274932Y0397870D03*
X0274932Y0398028D03*
X0274932Y0398185D03*
X0274932Y0398343D03*
X0274932Y0398500D03*
X0274932Y0398657D03*
X0273515Y0398657D03*
X0273515Y0398500D03*
X0273515Y0398343D03*
X0273515Y0398185D03*
X0273515Y0398028D03*
X0273515Y0397870D03*
X0273515Y0397713D03*
X0273357Y0397555D03*
X0273515Y0398815D03*
X0273515Y0398972D03*
X0273515Y0399130D03*
X0273357Y0399287D03*
X0273357Y0399445D03*
X0274932Y0400232D03*
X0271467Y0399287D03*
X0271467Y0399130D03*
X0271310Y0398657D03*
X0271310Y0398500D03*
X0271310Y0398343D03*
X0271467Y0397870D03*
X0271467Y0397713D03*
X0271467Y0397555D03*
X0270050Y0398815D03*
X0270050Y0398972D03*
X0270050Y0399130D03*
X0270050Y0399287D03*
X0268003Y0399287D03*
X0268003Y0399130D03*
X0268003Y0398972D03*
X0268003Y0398815D03*
X0278711Y0400075D03*
X0280129Y0397083D03*
X0280129Y0396925D03*
X0280286Y0396768D03*
X0255719Y0397870D03*
X0255562Y0398028D03*
X0255562Y0398185D03*
X0255562Y0398343D03*
X0255562Y0398500D03*
X0255562Y0398657D03*
X0255562Y0398815D03*
X0255719Y0399130D03*
X0256690Y0349380D03*
X0273662Y0539360D03*
X0273662Y0539518D03*
X0273662Y0539675D03*
X0273662Y0539833D03*
X0273662Y0539990D03*
X0273662Y0540148D03*
X0273662Y0540305D03*
X0273662Y0540463D03*
X0273662Y0540620D03*
X0273662Y0540778D03*
X0273662Y0540935D03*
X0273662Y0541093D03*
X0273662Y0541250D03*
X0273662Y0541407D03*
X0272245Y0541407D03*
X0272245Y0541250D03*
X0272245Y0541093D03*
X0272245Y0540935D03*
X0272245Y0540778D03*
X0272245Y0540620D03*
X0272245Y0540463D03*
X0272245Y0540305D03*
X0272087Y0540148D03*
X0272245Y0541565D03*
X0272245Y0541722D03*
X0272245Y0541880D03*
X0272245Y0542037D03*
X0272087Y0542195D03*
X0270355Y0542195D03*
X0270198Y0542037D03*
X0270198Y0541880D03*
X0270198Y0541722D03*
X0270198Y0541565D03*
X0270198Y0541407D03*
X0270198Y0541250D03*
X0270198Y0541093D03*
X0270198Y0540935D03*
X0270198Y0540778D03*
X0270198Y0540620D03*
X0270198Y0540463D03*
X0270355Y0540148D03*
X0268780Y0542037D03*
X0268780Y0542195D03*
X0266891Y0542195D03*
X0266891Y0542037D03*
X0266891Y0541722D03*
X0266891Y0541565D03*
X0263898Y0541565D03*
X0263898Y0541722D03*
X0263898Y0541880D03*
X0263898Y0542037D03*
X0263898Y0542195D03*
X0263898Y0542352D03*
X0263898Y0542510D03*
X0263898Y0542667D03*
X0263898Y0542825D03*
X0263898Y0542982D03*
X0263898Y0541407D03*
X0263898Y0541250D03*
X0263898Y0541093D03*
X0263898Y0540935D03*
X0263898Y0540778D03*
X0263898Y0540620D03*
X0263898Y0540463D03*
X0263898Y0540305D03*
X0263898Y0540148D03*
X0260591Y0540305D03*
X0260591Y0540463D03*
X0260591Y0540620D03*
X0260591Y0541880D03*
X0260591Y0542037D03*
X0260591Y0542195D03*
X0256969Y0542195D03*
X0256969Y0542037D03*
X0256969Y0541880D03*
X0256969Y0541722D03*
X0256969Y0541565D03*
X0256969Y0541407D03*
X0256969Y0541250D03*
X0256969Y0541093D03*
X0256969Y0540935D03*
X0256969Y0540778D03*
X0256969Y0540620D03*
X0256969Y0540463D03*
X0256969Y0540305D03*
X0254450Y0540620D03*
X0254450Y0540778D03*
X0254292Y0540935D03*
X0254292Y0541093D03*
X0254292Y0541250D03*
X0254292Y0541407D03*
X0254450Y0541722D03*
X0251930Y0541093D03*
X0273662Y0542982D03*
X0276654Y0541250D03*
X0276654Y0541093D03*
X0276497Y0540935D03*
X0276024Y0539833D03*
X0275867Y0539518D03*
X0275867Y0539360D03*
X0278229Y0541093D03*
X0278072Y0541407D03*
X0277442Y0542825D03*
X0279804Y0542037D03*
X0279804Y0541880D03*
X0279804Y0541722D03*
X0279804Y0541565D03*
X0278859Y0539833D03*
X0279017Y0539518D03*
X0282009Y0539518D03*
X0282009Y0539675D03*
X0282009Y0539833D03*
X0282009Y0539990D03*
X0282009Y0540148D03*
X0282009Y0539360D03*
X0283269Y0539518D03*
X0283426Y0539675D03*
X0283426Y0539833D03*
X0284056Y0541093D03*
X0284213Y0541407D03*
X0285631Y0541250D03*
X0285788Y0540935D03*
X0286261Y0539833D03*
X0286418Y0539675D03*
X0286418Y0539518D03*
X0289253Y0540305D03*
X0289253Y0540463D03*
X0289095Y0540778D03*
X0289095Y0540935D03*
X0289095Y0541093D03*
X0289095Y0541250D03*
X0289095Y0541407D03*
X0289095Y0541565D03*
X0289253Y0541880D03*
X0289253Y0542037D03*
X0291143Y0542037D03*
X0291300Y0541722D03*
X0291300Y0541565D03*
X0291300Y0541407D03*
X0291300Y0541250D03*
X0291300Y0541093D03*
X0291300Y0540935D03*
X0291300Y0540778D03*
X0291300Y0540620D03*
X0291143Y0540463D03*
X0291143Y0540305D03*
X0292560Y0540778D03*
X0292560Y0540935D03*
X0292560Y0541093D03*
X0292560Y0541250D03*
X0292560Y0541407D03*
X0292560Y0541565D03*
X0292717Y0541880D03*
X0292717Y0542037D03*
X0292717Y0540463D03*
X0292717Y0540305D03*
X0294607Y0540305D03*
X0294607Y0540463D03*
X0294765Y0540620D03*
X0294765Y0540778D03*
X0294765Y0540935D03*
X0294765Y0541093D03*
X0294765Y0541250D03*
X0294765Y0541407D03*
X0294765Y0541565D03*
X0294765Y0541722D03*
X0294607Y0542037D03*
X0284843Y0542825D03*
X0282009Y0542195D03*
X0282009Y0542037D03*
X0282009Y0541880D03*
X0282009Y0541722D03*
X0282009Y0541565D03*
X0282009Y0541407D03*
G36*
X0510451Y0288077D02*
X0511550Y0288008D01*
X0511541Y0287853D01*
X0510442Y0287922D01*
X0510451Y0288077D01*
G37*
D69*
X0511287Y0301132D03*
G36*
X0511874Y0315540D02*
X0512384Y0315572D01*
X0512392Y0315456D01*
X0511882Y0315424D01*
X0511874Y0315540D01*
G37*
G36*
X0508841Y0315468D02*
X0509351Y0315500D01*
X0509359Y0315384D01*
X0508849Y0315352D01*
X0508841Y0315468D01*
G37*
G36*
X0506838Y0271355D02*
X0507345Y0271291D01*
X0507330Y0271175D01*
X0506823Y0271239D01*
X0506838Y0271355D01*
G37*
G36*
X0509831Y0270858D02*
X0510338Y0270794D01*
X0510323Y0270678D01*
X0509816Y0270742D01*
X0509831Y0270858D01*
G37*
X0368287Y0301382D03*
G36*
X0365518Y0315421D02*
X0366024Y0315493D01*
X0366040Y0315377D01*
X0365534Y0315305D01*
X0365518Y0315421D01*
G37*
G36*
X0368537Y0315725D02*
X0369043Y0315797D01*
X0369059Y0315681D01*
X0368553Y0315609D01*
X0368537Y0315725D01*
G37*
G36*
X0359849Y0272515D02*
X0360335Y0272358D01*
X0360299Y0272245D01*
X0359813Y0272402D01*
X0359849Y0272515D01*
G37*
G36*
X0362696Y0271466D02*
X0363182Y0271309D01*
X0363146Y0271196D01*
X0362660Y0271353D01*
X0362696Y0271466D01*
G37*
X0316887Y0301732D03*
G36*
X0314073Y0313490D02*
X0314559Y0313647D01*
X0314595Y0313534D01*
X0314109Y0313377D01*
X0314073Y0313490D01*
G37*
G36*
X0316992Y0314315D02*
X0317478Y0314472D01*
X0317514Y0314359D01*
X0317028Y0314202D01*
X0316992Y0314315D01*
G37*
X0284859Y0347116D03*
X0276394Y0347116D03*
X0258127Y0349006D03*
X0258127Y0349124D03*
G36*
X0308200Y0284280D02*
X0308613Y0283980D01*
X0308544Y0283884D01*
X0308131Y0284184D01*
X0308200Y0284280D01*
G37*
G36*
X0310583Y0282403D02*
X0310996Y0282103D01*
X0310927Y0282007D01*
X0310514Y0282307D01*
X0310583Y0282403D01*
G37*
D70*
G36*
X0365087Y0294046D02*
X0365436Y0293991D01*
X0365417Y0293876D01*
X0365068Y0293931D01*
X0365087Y0294046D01*
G37*
X0272694Y0346998D03*
X0258206Y0348888D03*
G36*
X0508915Y0293799D02*
X0509267Y0293777D01*
X0509259Y0293661D01*
X0508907Y0293683D01*
X0508915Y0293799D01*
G37*
D71*
X0291389Y0396925D03*
X0291389Y0399917D03*
X0272491Y0399917D03*
X0272491Y0396925D03*
X0269026Y0399917D03*
X0264302Y0397240D03*
X0260995Y0398028D03*
X0260995Y0398185D03*
X0260995Y0398657D03*
X0260995Y0398815D03*
X0260680Y0400547D03*
X0257373Y0396610D03*
X0252491Y0396925D03*
X0252491Y0397083D03*
X0280430Y0348750D03*
X0271221Y0539675D03*
X0271221Y0542667D03*
X0281300Y0540463D03*
X0290276Y0542667D03*
X0293741Y0542667D03*
X0259883Y0540778D03*
X0259410Y0543297D03*
X0251379Y0539675D03*
X0251379Y0539518D03*
D72*
X0252087Y0539990D03*
X0253032Y0542037D03*
X0263898Y0543140D03*
X0273662Y0543140D03*
X0277442Y0543140D03*
X0273662Y0539203D03*
X0282009Y0539203D03*
X0286418Y0539203D03*
X0284843Y0543140D03*
X0290198Y0543297D03*
X0293662Y0543297D03*
X0296024Y0543140D03*
X0286113Y0400390D03*
X0293830Y0396453D03*
X0278711Y0400390D03*
X0277137Y0396453D03*
X0274932Y0396453D03*
X0270050Y0398657D03*
X0254302Y0398972D03*
X0254302Y0399130D03*
X0254302Y0399287D03*
X0254302Y0399445D03*
X0254302Y0399602D03*
X0254302Y0400232D03*
X0254302Y0400390D03*
X0274643Y0348750D03*
X0274643Y0348120D03*
X0274643Y0347490D03*
D73*
X0263501Y0348750D03*
G36*
X0316123Y0314569D02*
X0318144Y0315225D01*
X0318193Y0315077D01*
X0316172Y0314421D01*
X0316123Y0314569D01*
G37*
G36*
X0310279Y0283255D02*
X0311998Y0282007D01*
X0311907Y0281881D01*
X0310188Y0283129D01*
X0310279Y0283255D01*
G37*
G36*
X0362143Y0272183D02*
X0364164Y0271527D01*
X0364115Y0271379D01*
X0362094Y0272035D01*
X0362143Y0272183D01*
G37*
G36*
X0363183Y0289469D02*
X0365282Y0289137D01*
X0365257Y0288983D01*
X0363158Y0289315D01*
X0363183Y0289469D01*
G37*
G36*
X0367725Y0316129D02*
X0369829Y0316424D01*
X0369851Y0316269D01*
X0367747Y0315974D01*
X0367725Y0316129D01*
G37*
G36*
X0507465Y0288896D02*
X0509586Y0288763D01*
X0509577Y0288608D01*
X0507456Y0288741D01*
X0507465Y0288896D01*
G37*
G36*
X0509153Y0271458D02*
X0511261Y0271193D01*
X0511241Y0271038D01*
X0509133Y0271303D01*
X0509153Y0271458D01*
G37*
G36*
X0511096Y0316004D02*
X0513217Y0316137D01*
X0513226Y0315982D01*
X0511105Y0315849D01*
X0511096Y0316004D01*
G37*
D74*
X0290765Y0348120D03*
D75*
X0283580Y0348120D03*
X0277674Y0348120D03*
D76*
X0277595Y0347982D03*
X0283658Y0347982D03*
G36*
X0362734Y0289143D02*
X0365609Y0288688D01*
X0365590Y0288571D01*
X0362715Y0289026D01*
X0362734Y0289143D01*
G37*
G36*
X0507048Y0288528D02*
X0509953Y0288346D01*
X0509946Y0288228D01*
X0507041Y0288410D01*
X0507048Y0288528D01*
G37*
D77*
X0283599Y0347864D03*
X0277654Y0347864D03*
D78*
X0277595Y0347746D03*
X0283658Y0347746D03*
D79*
X0269918Y0347628D03*
X0269918Y0347352D03*
G36*
X0362868Y0289240D02*
X0365510Y0288822D01*
X0365492Y0288706D01*
X0362850Y0289124D01*
X0362868Y0289240D01*
G37*
G36*
X0362535Y0287141D02*
X0365177Y0286723D01*
X0365159Y0286607D01*
X0362517Y0287025D01*
X0362535Y0287141D01*
G37*
G36*
X0507040Y0286517D02*
X0509710Y0286350D01*
X0509702Y0286233D01*
X0507032Y0286400D01*
X0507040Y0286517D01*
G37*
G36*
X0507174Y0288638D02*
X0509844Y0288471D01*
X0509836Y0288354D01*
X0507166Y0288521D01*
X0507174Y0288638D01*
G37*
D80*
X0294617Y0397555D03*
X0291467Y0397083D03*
X0291467Y0399760D03*
X0282333Y0400232D03*
X0282333Y0397870D03*
X0272412Y0397083D03*
X0272412Y0399760D03*
X0269105Y0397398D03*
X0260916Y0398343D03*
X0260916Y0398500D03*
X0257294Y0396768D03*
X0257294Y0400232D03*
X0269918Y0347490D03*
X0256182Y0539360D03*
X0256182Y0542982D03*
X0259804Y0541565D03*
X0259804Y0541407D03*
X0259804Y0541250D03*
X0259804Y0541093D03*
X0259804Y0540935D03*
X0263111Y0539990D03*
X0267835Y0540148D03*
X0267835Y0542510D03*
X0267835Y0542667D03*
X0271300Y0542510D03*
X0271300Y0539833D03*
X0281221Y0542982D03*
X0290198Y0542510D03*
X0290198Y0539990D03*
X0290198Y0539833D03*
X0293662Y0539833D03*
X0293662Y0539990D03*
X0293662Y0542510D03*
D81*
X0287871Y0346998D03*
D82*
G36*
X0313165Y0323995D02*
X0313313Y0324043D01*
X0313361Y0323895D01*
X0313213Y0323847D01*
X0313165Y0323995D01*
G37*
G36*
X0306822Y0278515D02*
X0306947Y0278424D01*
X0306856Y0278299D01*
X0306731Y0278390D01*
X0306822Y0278515D01*
G37*
G36*
X0365102Y0281352D02*
X0365250Y0281304D01*
X0365202Y0281156D01*
X0365054Y0281204D01*
X0365102Y0281352D01*
G37*
G36*
X0366072Y0325695D02*
X0366226Y0325717D01*
X0366248Y0325563D01*
X0366094Y0325541D01*
X0366072Y0325695D01*
G37*
G36*
X0510335Y0325864D02*
X0510489Y0325874D01*
X0510499Y0325720D01*
X0510345Y0325710D01*
X0510335Y0325864D01*
G37*
G36*
X0510250Y0281133D02*
X0510404Y0281113D01*
X0510384Y0280959D01*
X0510230Y0280979D01*
X0510250Y0281133D01*
G37*
D83*
G36*
X0507047Y0286635D02*
X0509834Y0286461D01*
X0509827Y0286343D01*
X0507040Y0286517D01*
X0507047Y0286635D01*
G37*
G36*
X0362554Y0287257D02*
X0365313Y0286821D01*
X0365294Y0286705D01*
X0362535Y0287141D01*
X0362554Y0287257D01*
G37*
D84*
G36*
X0364667Y0297182D02*
X0366803Y0296844D01*
X0366779Y0296690D01*
X0364643Y0297028D01*
X0364667Y0297182D01*
G37*
G36*
X0508202Y0296881D02*
X0510360Y0296745D01*
X0510350Y0296591D01*
X0508192Y0296727D01*
X0508202Y0296881D01*
G37*
D85*
G36*
X0511305Y0296055D02*
X0511697Y0296030D01*
X0511687Y0295875D01*
X0511295Y0295900D01*
X0511305Y0296055D01*
G37*
G36*
X0367678Y0296067D02*
X0368066Y0296006D01*
X0368042Y0295853D01*
X0367654Y0295914D01*
X0367678Y0296067D01*
G37*
D86*
G36*
X0363978Y0295099D02*
X0365065Y0294928D01*
X0365046Y0294811D01*
X0363959Y0294982D01*
X0363978Y0295099D01*
G37*
G36*
X0507711Y0294743D02*
X0508810Y0294674D01*
X0508803Y0294557D01*
X0507704Y0294626D01*
X0507711Y0294743D01*
G37*
D87*
X0295483Y0400547D03*
X0293908Y0400547D03*
X0274853Y0400547D03*
X0265089Y0400547D03*
X0252491Y0399445D03*
X0251861Y0398500D03*
X0252166Y0540148D03*
X0253111Y0541407D03*
X0253111Y0543297D03*
X0250591Y0541250D03*
X0297048Y0541407D03*
D88*
X0296103Y0541407D03*
X0296103Y0541250D03*
X0296103Y0541093D03*
X0296103Y0540935D03*
X0296103Y0540778D03*
X0296103Y0540620D03*
X0296103Y0540463D03*
X0296103Y0540305D03*
X0296103Y0540148D03*
X0296103Y0539990D03*
X0296103Y0539833D03*
X0296103Y0539675D03*
X0296103Y0539518D03*
X0296103Y0539360D03*
X0296103Y0539203D03*
X0294686Y0541880D03*
X0296103Y0542982D03*
X0292639Y0541722D03*
X0292639Y0540620D03*
X0291221Y0541880D03*
X0289174Y0541722D03*
X0289174Y0540620D03*
X0286497Y0539360D03*
X0283347Y0539360D03*
X0284922Y0542982D03*
X0278938Y0539360D03*
X0277363Y0542982D03*
X0271221Y0543297D03*
X0268859Y0541880D03*
X0268859Y0541722D03*
X0268859Y0541565D03*
X0268859Y0541407D03*
X0266812Y0541880D03*
X0267914Y0543297D03*
X0254371Y0541565D03*
X0253111Y0542195D03*
X0253111Y0542352D03*
X0253111Y0542510D03*
X0253111Y0542667D03*
X0253111Y0542825D03*
X0253111Y0542982D03*
X0253111Y0543140D03*
X0252009Y0541250D03*
X0250591Y0539990D03*
X0265089Y0400390D03*
X0265089Y0400232D03*
X0265089Y0400075D03*
X0265089Y0399917D03*
X0265089Y0399760D03*
X0265089Y0399602D03*
X0265089Y0399445D03*
X0265089Y0399287D03*
X0265089Y0399130D03*
X0265089Y0398972D03*
X0265089Y0398815D03*
X0265089Y0398657D03*
X0265089Y0398500D03*
X0265089Y0398343D03*
X0265089Y0398185D03*
X0265089Y0398028D03*
X0265089Y0397870D03*
X0265089Y0397713D03*
X0265089Y0397555D03*
X0265089Y0397398D03*
X0261782Y0397555D03*
X0261782Y0397713D03*
X0261782Y0397870D03*
X0261782Y0399130D03*
X0261782Y0399287D03*
X0261782Y0399445D03*
X0258160Y0399445D03*
X0258160Y0399287D03*
X0258160Y0399130D03*
X0258160Y0398972D03*
X0258160Y0398815D03*
X0258160Y0398657D03*
X0258160Y0398500D03*
X0258160Y0398343D03*
X0258160Y0398185D03*
X0258160Y0398028D03*
X0258160Y0397870D03*
X0258160Y0397713D03*
X0258160Y0397555D03*
X0254223Y0399760D03*
X0254223Y0399917D03*
X0254223Y0400075D03*
X0253278Y0398500D03*
X0251704Y0397240D03*
X0269026Y0400547D03*
X0271389Y0398972D03*
X0271389Y0398815D03*
X0271389Y0398185D03*
X0271389Y0398028D03*
X0272491Y0400547D03*
X0274853Y0400390D03*
X0274853Y0396610D03*
X0277058Y0396610D03*
X0280207Y0396610D03*
X0280995Y0398972D03*
X0280995Y0399130D03*
X0283200Y0399130D03*
X0283200Y0399287D03*
X0283200Y0399445D03*
X0283200Y0398972D03*
X0283200Y0398815D03*
X0283200Y0398657D03*
X0283200Y0397398D03*
X0283200Y0397240D03*
X0283200Y0397083D03*
X0283200Y0396925D03*
X0283200Y0396768D03*
X0283200Y0396610D03*
X0287609Y0396610D03*
X0286034Y0400232D03*
X0291389Y0400547D03*
X0292491Y0398815D03*
X0292491Y0398657D03*
X0292491Y0398343D03*
X0292491Y0398185D03*
X0292491Y0398028D03*
X0293908Y0396610D03*
X0293908Y0400232D03*
X0293908Y0400390D03*
X0295483Y0400390D03*
X0278633Y0400232D03*
D89*
X0278711Y0400547D03*
X0275877Y0398657D03*
X0286113Y0400547D03*
X0254302Y0400547D03*
X0253357Y0397398D03*
X0252570Y0396295D03*
X0251457Y0539045D03*
X0251300Y0542195D03*
X0263898Y0543297D03*
X0273662Y0543297D03*
X0274607Y0541407D03*
X0277442Y0543297D03*
X0284843Y0543297D03*
X0296024Y0543297D03*
D90*
X0296339Y0542667D03*
X0293662Y0539203D03*
X0290198Y0539203D03*
X0284843Y0542510D03*
X0281379Y0543297D03*
X0277442Y0542510D03*
X0273820Y0542667D03*
X0267206Y0541093D03*
X0267048Y0541250D03*
X0254607Y0542037D03*
X0257609Y0400547D03*
X0256034Y0399445D03*
X0255877Y0397555D03*
X0251940Y0397398D03*
X0272412Y0396453D03*
X0275089Y0399917D03*
X0278711Y0399760D03*
X0282648Y0400547D03*
X0286113Y0399760D03*
D91*
X0286034Y0399602D03*
X0291389Y0400390D03*
X0291389Y0396453D03*
X0278633Y0399602D03*
X0275168Y0399760D03*
X0272491Y0400390D03*
X0269026Y0400390D03*
X0268396Y0398343D03*
X0268554Y0398185D03*
X0252491Y0399287D03*
X0252491Y0396453D03*
X0251379Y0539203D03*
X0251221Y0542037D03*
X0254843Y0542195D03*
X0271221Y0543140D03*
X0273898Y0542510D03*
X0277363Y0542352D03*
X0271221Y0539203D03*
X0284922Y0542352D03*
X0296418Y0542510D03*
D92*
X0284922Y0540778D03*
X0280985Y0540935D03*
X0280985Y0541093D03*
X0280985Y0541250D03*
X0280985Y0542352D03*
X0280985Y0542510D03*
X0267757Y0539990D03*
X0267757Y0539833D03*
X0267757Y0539675D03*
X0267757Y0539518D03*
X0267757Y0539360D03*
X0259568Y0542352D03*
X0259410Y0543140D03*
X0255946Y0542667D03*
X0255946Y0539833D03*
X0260680Y0400390D03*
X0260680Y0400232D03*
X0260680Y0399760D03*
X0260680Y0399602D03*
X0260680Y0397240D03*
X0260680Y0397083D03*
X0260680Y0396610D03*
X0260680Y0396453D03*
X0257058Y0397083D03*
X0257058Y0397240D03*
X0257058Y0399760D03*
X0268869Y0396610D03*
X0278633Y0398028D03*
X0282097Y0398500D03*
X0282097Y0399602D03*
X0294853Y0398500D03*
X0294853Y0398343D03*
X0294853Y0398185D03*
X0294853Y0398028D03*
X0294853Y0397870D03*
X0294853Y0397713D03*
D93*
X0291389Y0397240D03*
X0291389Y0399602D03*
X0282255Y0400075D03*
X0282255Y0398028D03*
X0272491Y0397240D03*
X0272491Y0399602D03*
X0269026Y0399602D03*
X0269026Y0399760D03*
X0264144Y0397083D03*
X0264144Y0396453D03*
X0260837Y0397398D03*
X0257215Y0400075D03*
X0262875Y0539203D03*
X0271221Y0539990D03*
X0271221Y0542352D03*
X0281143Y0542825D03*
X0281143Y0540620D03*
X0290276Y0542352D03*
X0293741Y0542352D03*
X0256103Y0539518D03*
D94*
X0255867Y0539990D03*
X0255867Y0542510D03*
X0259489Y0542510D03*
X0259489Y0542667D03*
X0259489Y0542825D03*
X0259489Y0542982D03*
X0259489Y0539990D03*
X0259489Y0539833D03*
X0259489Y0539675D03*
X0259489Y0539518D03*
X0259489Y0539360D03*
X0277442Y0540463D03*
X0277442Y0540620D03*
X0284843Y0540620D03*
X0260601Y0400075D03*
X0260601Y0399917D03*
X0260601Y0396925D03*
X0260601Y0396768D03*
X0256979Y0397398D03*
X0256979Y0399602D03*
X0268948Y0397083D03*
X0268948Y0396925D03*
X0268948Y0396768D03*
X0278711Y0397870D03*
X0286113Y0397870D03*
X0286113Y0397713D03*
D95*
X0286113Y0398028D03*
X0282176Y0398185D03*
X0282176Y0398343D03*
X0282176Y0399760D03*
X0282176Y0399917D03*
X0268948Y0397240D03*
X0268948Y0396453D03*
X0264066Y0396610D03*
X0264066Y0396768D03*
X0264066Y0396925D03*
X0257137Y0396925D03*
X0257137Y0399917D03*
X0259489Y0539203D03*
X0259646Y0540148D03*
X0262954Y0539833D03*
X0262954Y0539675D03*
X0262954Y0539518D03*
X0262954Y0539360D03*
X0267678Y0539203D03*
X0267835Y0542352D03*
X0277442Y0540778D03*
X0281064Y0540778D03*
X0281064Y0542667D03*
X0256024Y0542825D03*
X0256024Y0539675D03*
D96*
X0256261Y0543140D03*
X0251379Y0541565D03*
X0251379Y0541407D03*
X0251221Y0541722D03*
X0251379Y0539360D03*
X0271221Y0539518D03*
X0271221Y0542825D03*
X0277363Y0541722D03*
X0281300Y0543140D03*
X0281457Y0540305D03*
X0284922Y0541722D03*
X0286034Y0398972D03*
X0291389Y0396768D03*
X0278633Y0398972D03*
X0261152Y0398972D03*
X0257530Y0396453D03*
X0252648Y0398657D03*
X0252491Y0398815D03*
X0252491Y0398972D03*
D97*
X0254302Y0398815D03*
X0254302Y0398657D03*
X0272412Y0396295D03*
X0290198Y0539045D03*
X0293662Y0539045D03*
D98*
X0284922Y0540463D03*
X0255788Y0540148D03*
X0255788Y0542352D03*
X0278633Y0397713D03*
D99*
X0278711Y0397555D03*
X0286113Y0397555D03*
X0286113Y0397398D03*
X0284843Y0540305D03*
X0277442Y0540305D03*
X0277442Y0540148D03*
D100*
X0284922Y0540148D03*
X0278633Y0397398D03*
D101*
X0278711Y0397240D03*
X0286113Y0397240D03*
X0284843Y0539990D03*
X0277442Y0539990D03*
M02*
