G75*
%MOIN*%
%OFA0B0*%
%FSLAX25Y25*%
%IPPOS*%
%LPD*%
%AMOC8*
5,1,8,0,0,1.08239X$1,22.5*
%
%ADD10C,0.02300*%
%ADD11C,0.04300*%
D10*
X0271550Y0049250D03*
X0273750Y0049250D03*
X0276050Y0049250D03*
X0276050Y0055800D03*
X0273750Y0055800D03*
X0271550Y0055800D03*
X0271450Y0077650D03*
X0273650Y0077650D03*
X0275950Y0077650D03*
X0276050Y0199300D03*
X0273750Y0199300D03*
X0271550Y0199300D03*
X0271500Y0218650D03*
X0273700Y0218650D03*
X0276000Y0218650D03*
X0276050Y0249350D03*
X0273750Y0249350D03*
X0271550Y0249350D03*
X0216800Y0304000D03*
X0216800Y0306300D03*
X0216800Y0308500D03*
X0186150Y0308500D03*
X0186150Y0306300D03*
X0186150Y0304000D03*
X0166800Y0304050D03*
X0166800Y0306350D03*
X0166800Y0308550D03*
X0271500Y0363200D03*
X0273700Y0363200D03*
X0276000Y0363200D03*
X0276050Y0393850D03*
X0273750Y0393850D03*
X0271550Y0393850D03*
X0271550Y0413250D03*
X0273750Y0413250D03*
X0276050Y0413250D03*
X0330650Y0308550D03*
X0330650Y0306350D03*
X0330650Y0304050D03*
X0361400Y0304050D03*
X0361400Y0306350D03*
X0361400Y0308550D03*
X0380700Y0308550D03*
X0380700Y0306350D03*
X0380700Y0304050D03*
X0502350Y0304000D03*
X0502350Y0306300D03*
X0502350Y0308500D03*
X0524250Y0308650D03*
X0524250Y0306450D03*
X0524250Y0304150D03*
X0531000Y0304050D03*
X0531000Y0306350D03*
X0531000Y0308550D03*
X0276050Y0534800D03*
X0273750Y0534800D03*
X0271550Y0534800D03*
X0271550Y0556700D03*
X0273750Y0556700D03*
X0276050Y0556700D03*
X0276000Y0563550D03*
X0273700Y0563550D03*
X0271500Y0563550D03*
X0044800Y0308250D03*
X0044800Y0306050D03*
X0044800Y0303750D03*
X0023750Y0304050D03*
X0023750Y0306350D03*
X0023750Y0308550D03*
X0016650Y0308450D03*
X0016650Y0306250D03*
X0016650Y0303950D03*
D11*
X0310331Y0274689D02*
X0313567Y0272339D01*
X0318269Y0278811D02*
X0315033Y0281161D01*
X0318162Y0287564D02*
X0321966Y0286328D01*
X0324438Y0293936D02*
X0320634Y0295172D01*
X0321800Y0302250D02*
X0325800Y0302250D01*
X0325800Y0310250D02*
X0321800Y0310250D01*
X0320634Y0317328D02*
X0324438Y0318564D01*
X0321966Y0326172D02*
X0318162Y0324936D01*
X0369784Y0279172D02*
X0373588Y0277936D01*
X0371116Y0270328D02*
X0367312Y0271564D01*
X0371549Y0286611D02*
X0375499Y0285987D01*
X0376751Y0293889D02*
X0372801Y0294513D01*
X0373300Y0302300D02*
X0377300Y0302300D01*
X0377300Y0310300D02*
X0373300Y0310300D01*
X0372701Y0317987D02*
X0376651Y0318611D01*
X0375399Y0326513D02*
X0371449Y0325889D01*
X0516053Y0325617D02*
X0520045Y0325867D01*
X0520547Y0317883D02*
X0516555Y0317633D01*
X0516800Y0310050D02*
X0520800Y0310050D01*
X0520800Y0302050D02*
X0516800Y0302050D01*
X0516605Y0294937D02*
X0520597Y0294687D01*
X0520095Y0286703D02*
X0516103Y0286953D01*
X0515467Y0279718D02*
X0519435Y0279218D01*
X0518433Y0271282D02*
X0514465Y0271782D01*
M02*
