G75*
%MOIN*%
%OFA0B0*%
%FSLAX25Y25*%
%IPPOS*%
%LPD*%
%AMOC8*
5,1,8,0,0,1.08239X$1,22.5*
%
%ADD10C,0.01100*%
%ADD11C,0.03500*%
%ADD12C,0.02600*%
%ADD13C,0.00700*%
%ADD14C,0.02000*%
%ADD15C,0.00600*%
%ADD16C,0.01600*%
%ADD17C,0.00800*%
%ADD18C,0.02778*%
D10*
X0266850Y0071767D02*
X0268161Y0075700D01*
X0269472Y0071767D01*
X0275338Y0072750D02*
X0275336Y0072888D01*
X0275330Y0073026D01*
X0275320Y0073163D01*
X0275307Y0073300D01*
X0275289Y0073437D01*
X0275268Y0073573D01*
X0275243Y0073709D01*
X0275213Y0073843D01*
X0275181Y0073977D01*
X0275144Y0074110D01*
X0275104Y0074242D01*
X0275059Y0074372D01*
X0275012Y0074502D01*
X0274960Y0074629D01*
X0274905Y0074756D01*
X0274846Y0074881D01*
X0274847Y0074880D02*
X0274823Y0074944D01*
X0274796Y0075007D01*
X0274765Y0075068D01*
X0274730Y0075127D01*
X0274693Y0075184D01*
X0274652Y0075239D01*
X0274608Y0075291D01*
X0274561Y0075341D01*
X0274512Y0075388D01*
X0274460Y0075433D01*
X0274405Y0075474D01*
X0274348Y0075512D01*
X0274289Y0075547D01*
X0274229Y0075579D01*
X0274166Y0075607D01*
X0274103Y0075631D01*
X0274037Y0075652D01*
X0273971Y0075669D01*
X0273904Y0075683D01*
X0273837Y0075692D01*
X0273768Y0075698D01*
X0273700Y0075700D01*
X0273632Y0075698D01*
X0273563Y0075692D01*
X0273496Y0075683D01*
X0273429Y0075669D01*
X0273363Y0075652D01*
X0273297Y0075631D01*
X0273234Y0075607D01*
X0273171Y0075579D01*
X0273111Y0075547D01*
X0273052Y0075512D01*
X0272995Y0075474D01*
X0272940Y0075433D01*
X0272888Y0075388D01*
X0272839Y0075341D01*
X0272792Y0075291D01*
X0272748Y0075239D01*
X0272707Y0075184D01*
X0272670Y0075127D01*
X0272635Y0075068D01*
X0272604Y0075007D01*
X0272577Y0074944D01*
X0272553Y0074880D01*
X0272389Y0074389D02*
X0275011Y0071111D01*
X0274847Y0070620D02*
X0274823Y0070556D01*
X0274796Y0070493D01*
X0274765Y0070432D01*
X0274730Y0070373D01*
X0274693Y0070316D01*
X0274652Y0070261D01*
X0274608Y0070209D01*
X0274561Y0070159D01*
X0274512Y0070112D01*
X0274460Y0070067D01*
X0274405Y0070026D01*
X0274348Y0069988D01*
X0274289Y0069953D01*
X0274229Y0069921D01*
X0274166Y0069893D01*
X0274103Y0069869D01*
X0274037Y0069848D01*
X0273971Y0069831D01*
X0273904Y0069817D01*
X0273837Y0069808D01*
X0273768Y0069802D01*
X0273700Y0069800D01*
X0273632Y0069802D01*
X0273563Y0069808D01*
X0273496Y0069817D01*
X0273429Y0069831D01*
X0273363Y0069848D01*
X0273297Y0069869D01*
X0273234Y0069893D01*
X0273171Y0069921D01*
X0273111Y0069953D01*
X0273052Y0069988D01*
X0272995Y0070026D01*
X0272940Y0070067D01*
X0272888Y0070112D01*
X0272839Y0070159D01*
X0272792Y0070209D01*
X0272748Y0070261D01*
X0272707Y0070316D01*
X0272670Y0070373D01*
X0272635Y0070432D01*
X0272604Y0070493D01*
X0272577Y0070556D01*
X0272553Y0070620D01*
X0274847Y0070619D02*
X0274906Y0070744D01*
X0274961Y0070871D01*
X0275013Y0070998D01*
X0275060Y0071128D01*
X0275105Y0071258D01*
X0275145Y0071390D01*
X0275182Y0071523D01*
X0275214Y0071657D01*
X0275244Y0071791D01*
X0275269Y0071927D01*
X0275290Y0072063D01*
X0275308Y0072200D01*
X0275321Y0072337D01*
X0275331Y0072474D01*
X0275337Y0072612D01*
X0275339Y0072750D01*
X0272061Y0072750D02*
X0272063Y0072612D01*
X0272069Y0072474D01*
X0272079Y0072337D01*
X0272092Y0072200D01*
X0272110Y0072063D01*
X0272131Y0071927D01*
X0272156Y0071791D01*
X0272186Y0071657D01*
X0272218Y0071523D01*
X0272255Y0071390D01*
X0272295Y0071258D01*
X0272340Y0071128D01*
X0272387Y0070998D01*
X0272439Y0070871D01*
X0272494Y0070744D01*
X0272553Y0070619D01*
X0272061Y0072750D02*
X0272063Y0072888D01*
X0272069Y0073026D01*
X0272079Y0073163D01*
X0272092Y0073300D01*
X0272110Y0073437D01*
X0272131Y0073573D01*
X0272156Y0073709D01*
X0272186Y0073843D01*
X0272218Y0073977D01*
X0272255Y0074110D01*
X0272295Y0074242D01*
X0272340Y0074372D01*
X0272387Y0074502D01*
X0272439Y0074629D01*
X0272494Y0074756D01*
X0272553Y0074881D01*
X0278215Y0075700D02*
X0281493Y0075700D01*
X0279854Y0075700D02*
X0279854Y0069800D01*
X0278215Y0071111D01*
X0279854Y0210800D02*
X0278215Y0212111D01*
X0272061Y0213750D02*
X0272063Y0213888D01*
X0272069Y0214026D01*
X0272079Y0214163D01*
X0272092Y0214300D01*
X0272110Y0214437D01*
X0272131Y0214573D01*
X0272156Y0214709D01*
X0272186Y0214843D01*
X0272218Y0214977D01*
X0272255Y0215110D01*
X0272295Y0215242D01*
X0272340Y0215372D01*
X0272387Y0215502D01*
X0272439Y0215629D01*
X0272494Y0215756D01*
X0272553Y0215881D01*
X0272389Y0215389D02*
X0275011Y0212111D01*
X0274847Y0211620D02*
X0274823Y0211556D01*
X0274796Y0211493D01*
X0274765Y0211432D01*
X0274730Y0211373D01*
X0274693Y0211316D01*
X0274652Y0211261D01*
X0274608Y0211209D01*
X0274561Y0211159D01*
X0274512Y0211112D01*
X0274460Y0211067D01*
X0274405Y0211026D01*
X0274348Y0210988D01*
X0274289Y0210953D01*
X0274229Y0210921D01*
X0274166Y0210893D01*
X0274103Y0210869D01*
X0274037Y0210848D01*
X0273971Y0210831D01*
X0273904Y0210817D01*
X0273837Y0210808D01*
X0273768Y0210802D01*
X0273700Y0210800D01*
X0273632Y0210802D01*
X0273563Y0210808D01*
X0273496Y0210817D01*
X0273429Y0210831D01*
X0273363Y0210848D01*
X0273297Y0210869D01*
X0273234Y0210893D01*
X0273171Y0210921D01*
X0273111Y0210953D01*
X0273052Y0210988D01*
X0272995Y0211026D01*
X0272940Y0211067D01*
X0272888Y0211112D01*
X0272839Y0211159D01*
X0272792Y0211209D01*
X0272748Y0211261D01*
X0272707Y0211316D01*
X0272670Y0211373D01*
X0272635Y0211432D01*
X0272604Y0211493D01*
X0272577Y0211556D01*
X0272553Y0211620D01*
X0274847Y0211619D02*
X0274906Y0211744D01*
X0274961Y0211871D01*
X0275013Y0211998D01*
X0275060Y0212128D01*
X0275105Y0212258D01*
X0275145Y0212390D01*
X0275182Y0212523D01*
X0275214Y0212657D01*
X0275244Y0212791D01*
X0275269Y0212927D01*
X0275290Y0213063D01*
X0275308Y0213200D01*
X0275321Y0213337D01*
X0275331Y0213474D01*
X0275337Y0213612D01*
X0275339Y0213750D01*
X0272061Y0213750D02*
X0272063Y0213612D01*
X0272069Y0213474D01*
X0272079Y0213337D01*
X0272092Y0213200D01*
X0272110Y0213063D01*
X0272131Y0212927D01*
X0272156Y0212791D01*
X0272186Y0212657D01*
X0272218Y0212523D01*
X0272255Y0212390D01*
X0272295Y0212258D01*
X0272340Y0212128D01*
X0272387Y0211998D01*
X0272439Y0211871D01*
X0272494Y0211744D01*
X0272553Y0211619D01*
X0275338Y0213750D02*
X0275336Y0213888D01*
X0275330Y0214026D01*
X0275320Y0214163D01*
X0275307Y0214300D01*
X0275289Y0214437D01*
X0275268Y0214573D01*
X0275243Y0214709D01*
X0275213Y0214843D01*
X0275181Y0214977D01*
X0275144Y0215110D01*
X0275104Y0215242D01*
X0275059Y0215372D01*
X0275012Y0215502D01*
X0274960Y0215629D01*
X0274905Y0215756D01*
X0274846Y0215881D01*
X0274847Y0215880D02*
X0274823Y0215944D01*
X0274796Y0216007D01*
X0274765Y0216068D01*
X0274730Y0216127D01*
X0274693Y0216184D01*
X0274652Y0216239D01*
X0274608Y0216291D01*
X0274561Y0216341D01*
X0274512Y0216388D01*
X0274460Y0216433D01*
X0274405Y0216474D01*
X0274348Y0216512D01*
X0274289Y0216547D01*
X0274229Y0216579D01*
X0274166Y0216607D01*
X0274103Y0216631D01*
X0274037Y0216652D01*
X0273971Y0216669D01*
X0273904Y0216683D01*
X0273837Y0216692D01*
X0273768Y0216698D01*
X0273700Y0216700D01*
X0273632Y0216698D01*
X0273563Y0216692D01*
X0273496Y0216683D01*
X0273429Y0216669D01*
X0273363Y0216652D01*
X0273297Y0216631D01*
X0273234Y0216607D01*
X0273171Y0216579D01*
X0273111Y0216547D01*
X0273052Y0216512D01*
X0272995Y0216474D01*
X0272940Y0216433D01*
X0272888Y0216388D01*
X0272839Y0216341D01*
X0272792Y0216291D01*
X0272748Y0216239D01*
X0272707Y0216184D01*
X0272670Y0216127D01*
X0272635Y0216068D01*
X0272604Y0216007D01*
X0272577Y0215944D01*
X0272553Y0215880D01*
X0269472Y0212767D02*
X0268161Y0216700D01*
X0266850Y0212767D01*
X0278215Y0216700D02*
X0281493Y0216700D01*
X0279854Y0216700D02*
X0279854Y0210800D01*
X0234250Y0298557D02*
X0234250Y0301835D01*
X0234250Y0300196D02*
X0228350Y0300196D01*
X0229661Y0301835D01*
X0231300Y0307989D02*
X0231438Y0307987D01*
X0231576Y0307981D01*
X0231713Y0307971D01*
X0231850Y0307958D01*
X0231987Y0307940D01*
X0232123Y0307919D01*
X0232259Y0307894D01*
X0232393Y0307864D01*
X0232527Y0307832D01*
X0232660Y0307795D01*
X0232792Y0307755D01*
X0232922Y0307710D01*
X0233052Y0307663D01*
X0233179Y0307611D01*
X0233306Y0307556D01*
X0233431Y0307497D01*
X0232939Y0307661D02*
X0229661Y0305039D01*
X0229170Y0305203D02*
X0229106Y0305227D01*
X0229043Y0305254D01*
X0228982Y0305285D01*
X0228923Y0305320D01*
X0228866Y0305357D01*
X0228811Y0305398D01*
X0228759Y0305442D01*
X0228709Y0305489D01*
X0228662Y0305538D01*
X0228617Y0305590D01*
X0228576Y0305645D01*
X0228538Y0305702D01*
X0228503Y0305761D01*
X0228471Y0305821D01*
X0228443Y0305884D01*
X0228419Y0305947D01*
X0228398Y0306013D01*
X0228381Y0306079D01*
X0228367Y0306146D01*
X0228358Y0306213D01*
X0228352Y0306282D01*
X0228350Y0306350D01*
X0228352Y0306418D01*
X0228358Y0306487D01*
X0228367Y0306554D01*
X0228381Y0306621D01*
X0228398Y0306687D01*
X0228419Y0306753D01*
X0228443Y0306816D01*
X0228471Y0306879D01*
X0228503Y0306939D01*
X0228538Y0306998D01*
X0228576Y0307055D01*
X0228617Y0307110D01*
X0228662Y0307162D01*
X0228709Y0307211D01*
X0228759Y0307258D01*
X0228811Y0307302D01*
X0228866Y0307343D01*
X0228923Y0307380D01*
X0228982Y0307415D01*
X0229043Y0307446D01*
X0229106Y0307473D01*
X0229170Y0307497D01*
X0229169Y0305203D02*
X0229294Y0305144D01*
X0229421Y0305089D01*
X0229548Y0305037D01*
X0229678Y0304990D01*
X0229808Y0304945D01*
X0229940Y0304905D01*
X0230073Y0304868D01*
X0230207Y0304836D01*
X0230341Y0304806D01*
X0230477Y0304781D01*
X0230613Y0304760D01*
X0230750Y0304742D01*
X0230887Y0304729D01*
X0231024Y0304719D01*
X0231162Y0304713D01*
X0231300Y0304711D01*
X0231300Y0307989D02*
X0231162Y0307987D01*
X0231024Y0307981D01*
X0230887Y0307971D01*
X0230750Y0307958D01*
X0230613Y0307940D01*
X0230477Y0307919D01*
X0230341Y0307894D01*
X0230207Y0307864D01*
X0230073Y0307832D01*
X0229940Y0307795D01*
X0229808Y0307755D01*
X0229678Y0307710D01*
X0229548Y0307663D01*
X0229421Y0307611D01*
X0229294Y0307556D01*
X0229169Y0307497D01*
X0231300Y0304712D02*
X0231438Y0304714D01*
X0231576Y0304720D01*
X0231713Y0304730D01*
X0231850Y0304743D01*
X0231987Y0304761D01*
X0232123Y0304782D01*
X0232259Y0304807D01*
X0232393Y0304837D01*
X0232527Y0304869D01*
X0232660Y0304906D01*
X0232792Y0304946D01*
X0232922Y0304991D01*
X0233052Y0305038D01*
X0233179Y0305090D01*
X0233306Y0305145D01*
X0233431Y0305204D01*
X0234250Y0306350D02*
X0234248Y0306418D01*
X0234242Y0306487D01*
X0234233Y0306554D01*
X0234219Y0306621D01*
X0234202Y0306687D01*
X0234181Y0306753D01*
X0234157Y0306816D01*
X0234129Y0306879D01*
X0234097Y0306939D01*
X0234062Y0306998D01*
X0234024Y0307055D01*
X0233983Y0307110D01*
X0233938Y0307162D01*
X0233891Y0307211D01*
X0233841Y0307258D01*
X0233789Y0307302D01*
X0233734Y0307343D01*
X0233677Y0307380D01*
X0233618Y0307415D01*
X0233557Y0307446D01*
X0233494Y0307473D01*
X0233430Y0307497D01*
X0234250Y0306350D02*
X0234248Y0306282D01*
X0234242Y0306213D01*
X0234233Y0306146D01*
X0234219Y0306079D01*
X0234202Y0306013D01*
X0234181Y0305947D01*
X0234157Y0305884D01*
X0234129Y0305821D01*
X0234097Y0305761D01*
X0234062Y0305702D01*
X0234024Y0305645D01*
X0233983Y0305590D01*
X0233938Y0305538D01*
X0233891Y0305489D01*
X0233841Y0305442D01*
X0233789Y0305398D01*
X0233734Y0305357D01*
X0233677Y0305320D01*
X0233618Y0305285D01*
X0233557Y0305254D01*
X0233494Y0305227D01*
X0233430Y0305203D01*
X0230317Y0310578D02*
X0234250Y0311889D01*
X0230317Y0313200D01*
D11*
X0310331Y0274689D02*
X0313567Y0272339D01*
X0318269Y0278811D02*
X0315033Y0281161D01*
X0318162Y0287564D02*
X0321966Y0286328D01*
X0324438Y0293936D02*
X0320634Y0295172D01*
X0321800Y0302250D02*
X0325800Y0302250D01*
X0325800Y0310250D02*
X0321800Y0310250D01*
X0320634Y0317328D02*
X0324438Y0318564D01*
X0321966Y0326172D02*
X0318162Y0324936D01*
X0369784Y0279172D02*
X0373588Y0277936D01*
X0371116Y0270328D02*
X0367312Y0271564D01*
X0371549Y0286611D02*
X0375499Y0285987D01*
X0376751Y0293889D02*
X0372801Y0294513D01*
X0373300Y0302300D02*
X0377300Y0302300D01*
X0377300Y0310300D02*
X0373300Y0310300D01*
X0372701Y0317987D02*
X0376651Y0318611D01*
X0375399Y0326513D02*
X0371449Y0325889D01*
X0516053Y0325617D02*
X0520045Y0325867D01*
X0520547Y0317883D02*
X0516555Y0317633D01*
X0516800Y0310050D02*
X0520800Y0310050D01*
X0520800Y0302050D02*
X0516800Y0302050D01*
X0516605Y0294937D02*
X0520597Y0294687D01*
X0520095Y0286703D02*
X0516103Y0286953D01*
X0515467Y0279718D02*
X0519435Y0279218D01*
X0518433Y0271282D02*
X0514465Y0271782D01*
D12*
X0515150Y0267305D03*
X0517534Y0275424D03*
X0514550Y0283250D03*
X0518963Y0290693D03*
X0514800Y0298750D03*
X0511300Y0298750D03*
X0506800Y0301250D03*
X0506550Y0294750D03*
X0519429Y0306304D03*
X0518679Y0313946D03*
X0519713Y0322057D03*
X0518050Y0329500D03*
X0515784Y0344576D03*
X0512900Y0359695D03*
X0509072Y0374603D03*
X0504316Y0389241D03*
X0498650Y0403551D03*
X0492097Y0417478D03*
X0484682Y0430965D03*
X0476435Y0443960D03*
X0467388Y0456412D03*
X0457577Y0468271D03*
X0447041Y0479491D03*
X0435821Y0490027D03*
X0423962Y0499838D03*
X0411510Y0508885D03*
X0398515Y0517132D03*
X0385028Y0524547D03*
X0371101Y0531100D03*
X0356791Y0536766D03*
X0342153Y0541522D03*
X0327245Y0545350D03*
X0312126Y0548234D03*
X0296857Y0550163D03*
X0281496Y0551129D03*
X0266104Y0551129D03*
X0250743Y0550163D03*
X0235474Y0548234D03*
X0220355Y0545350D03*
X0205447Y0541522D03*
X0190809Y0536766D03*
X0176499Y0531100D03*
X0162572Y0524547D03*
X0149085Y0517132D03*
X0136090Y0508885D03*
X0123638Y0499838D03*
X0111779Y0490027D03*
X0100559Y0479491D03*
X0090023Y0468271D03*
X0080212Y0456412D03*
X0071165Y0443960D03*
X0062918Y0430965D03*
X0055503Y0417478D03*
X0048950Y0403551D03*
X0043284Y0389241D03*
X0038528Y0374603D03*
X0034700Y0359695D03*
X0031816Y0344576D03*
X0029887Y0329307D03*
X0028921Y0313946D03*
X0028921Y0298554D03*
X0029887Y0283193D03*
X0031816Y0267924D03*
X0034700Y0252805D03*
X0038528Y0237897D03*
X0043284Y0223259D03*
X0048950Y0208949D03*
X0055503Y0195022D03*
X0062918Y0181535D03*
X0071165Y0168540D03*
X0080212Y0156088D03*
X0090023Y0144229D03*
X0100559Y0133009D03*
X0111779Y0122473D03*
X0123638Y0112662D03*
X0136090Y0103615D03*
X0149085Y0095368D03*
X0162572Y0087953D03*
X0176499Y0081400D03*
X0190809Y0075734D03*
X0205447Y0070978D03*
X0220355Y0067150D03*
X0235474Y0064266D03*
X0250743Y0062337D03*
X0266104Y0061371D03*
X0281496Y0061371D03*
X0296857Y0062337D03*
X0312126Y0064266D03*
X0327245Y0067150D03*
X0342153Y0070978D03*
X0356791Y0075734D03*
X0371101Y0081400D03*
X0385028Y0087953D03*
X0398515Y0095368D03*
X0411510Y0103615D03*
X0423962Y0112662D03*
X0435821Y0122473D03*
X0447041Y0133009D03*
X0457577Y0144229D03*
X0467388Y0156088D03*
X0476435Y0168540D03*
X0484682Y0181535D03*
X0492097Y0195022D03*
X0498650Y0208949D03*
X0504316Y0223259D03*
X0509072Y0237897D03*
X0512900Y0252805D03*
X0373373Y0281931D03*
X0364800Y0295000D03*
X0368300Y0299500D03*
X0365300Y0301750D03*
X0373550Y0298250D03*
X0376952Y0298057D03*
X0375315Y0314191D03*
X0374550Y0330250D03*
X0371011Y0329787D03*
X0367401Y0344753D03*
X0360405Y0359012D03*
X0351252Y0371712D03*
X0339974Y0383130D03*
X0327149Y0392735D03*
X0312897Y0400043D03*
X0298119Y0405073D03*
X0281993Y0407652D03*
X0266009Y0407715D03*
X0250213Y0405011D03*
X0234947Y0400601D03*
X0221088Y0393355D03*
X0208038Y0383702D03*
X0196820Y0372074D03*
X0187565Y0359099D03*
X0180507Y0345347D03*
X0175477Y0330069D03*
X0172398Y0314443D03*
X0172585Y0298559D03*
X0175039Y0282913D03*
X0180199Y0267647D03*
X0187195Y0253288D03*
X0196598Y0240488D03*
X0207976Y0229820D03*
X0220451Y0220065D03*
X0234703Y0212207D03*
X0249731Y0207677D03*
X0265357Y0204598D03*
X0281441Y0204035D03*
X0297137Y0206489D03*
X0312653Y0211399D03*
X0326762Y0219895D03*
X0340062Y0228798D03*
X0351480Y0239376D03*
X0360485Y0252351D03*
X0364800Y0256000D03*
X0368843Y0266153D03*
X0365800Y0267500D03*
X0358550Y0270750D03*
X0352300Y0258500D03*
X0320728Y0282314D03*
X0312300Y0268750D03*
X0309228Y0270064D03*
X0303550Y0276750D03*
X0295898Y0260746D03*
X0280898Y0255746D03*
X0264944Y0256025D03*
X0249857Y0261220D03*
X0237114Y0270822D03*
X0227962Y0283893D03*
X0223296Y0299152D03*
X0223575Y0315106D03*
X0228770Y0330193D03*
X0238372Y0342936D03*
X0251443Y0352088D03*
X0266702Y0356754D03*
X0282656Y0356475D03*
X0297743Y0351280D03*
X0310486Y0341678D03*
X0318888Y0329857D03*
X0311300Y0325250D03*
X0325804Y0314598D03*
X0322800Y0298500D03*
X0326025Y0297894D03*
X0319050Y0299000D03*
X0315550Y0300500D03*
X0314300Y0297250D03*
D13*
X0315050Y0288750D01*
X0320064Y0286946D01*
X0322536Y0294554D02*
X0318550Y0296000D01*
X0318300Y0296750D01*
X0319050Y0299000D01*
X0322800Y0298500D02*
X0323800Y0299500D01*
X0323800Y0302250D01*
X0323800Y0310250D02*
X0323477Y0310573D01*
X0323227Y0310573D01*
X0315550Y0302895D01*
X0315550Y0300500D01*
X0306800Y0277000D02*
X0303550Y0276750D01*
X0306800Y0277000D02*
X0311949Y0273514D01*
X0312300Y0268750D01*
D14*
X0315050Y0324000D02*
X0320064Y0325554D01*
X0315050Y0324000D02*
X0311300Y0325250D01*
X0506050Y0284500D02*
X0514550Y0283250D01*
X0517451Y0281731D01*
X0517451Y0279468D01*
X0518049Y0325742D02*
X0518049Y0329499D01*
X0518050Y0329500D01*
D15*
X0375300Y0310300D02*
X0370350Y0310300D01*
X0365300Y0305250D01*
X0365300Y0301750D01*
X0368300Y0299500D02*
X0371100Y0302300D01*
X0375300Y0302300D01*
X0373550Y0298250D02*
X0375050Y0296750D01*
X0374776Y0294201D01*
X0373524Y0286299D02*
X0367300Y0287500D01*
X0364050Y0291000D01*
X0364800Y0295000D01*
X0358550Y0270750D02*
X0365800Y0267500D01*
X0327292Y0291616D02*
X0328803Y0299692D01*
X0329065Y0303301D01*
X0329000Y0303367D01*
X0329000Y0304733D01*
X0329467Y0305200D01*
X0329000Y0305667D01*
X0329000Y0307033D01*
X0329417Y0307450D01*
X0329000Y0307867D01*
X0329000Y0309233D01*
X0329058Y0309292D01*
X0328803Y0312808D01*
X0327292Y0320884D01*
X0324590Y0328643D01*
X0320758Y0335910D01*
X0315883Y0342523D01*
X0310073Y0348333D01*
X0303460Y0353208D01*
X0296193Y0357040D01*
X0288434Y0359742D01*
X0280358Y0361253D01*
X0276268Y0361550D01*
X0275317Y0361550D01*
X0274850Y0362017D01*
X0274383Y0361550D01*
X0273017Y0361550D01*
X0272600Y0361967D01*
X0272183Y0361550D01*
X0271332Y0361550D01*
X0267242Y0361253D01*
X0259166Y0359742D01*
X0251407Y0357040D01*
X0244140Y0353208D01*
X0237527Y0348333D01*
X0231717Y0342523D01*
X0226842Y0335910D01*
X0223010Y0328643D01*
X0220308Y0320884D01*
X0218797Y0312808D01*
X0218500Y0308718D01*
X0218500Y0308253D01*
X0218483Y0308236D01*
X0218482Y0308211D01*
X0218450Y0308182D01*
X0218450Y0307817D01*
X0218033Y0307400D01*
X0218450Y0306983D01*
X0218450Y0305617D01*
X0217983Y0305150D01*
X0218450Y0304683D01*
X0218450Y0304318D01*
X0218482Y0304289D01*
X0218483Y0304264D01*
X0218500Y0304247D01*
X0218500Y0303782D01*
X0218797Y0299692D01*
X0220308Y0291616D01*
X0223010Y0283857D01*
X0226842Y0276590D01*
X0231717Y0269977D01*
X0237527Y0264167D01*
X0244140Y0259292D01*
X0251407Y0255460D01*
X0259166Y0252758D01*
X0267242Y0251247D01*
X0270851Y0250985D01*
X0270867Y0251000D01*
X0272233Y0251000D01*
X0272650Y0250583D01*
X0273067Y0251000D01*
X0274433Y0251000D01*
X0274900Y0250533D01*
X0275367Y0251000D01*
X0276733Y0251000D01*
X0276749Y0250985D01*
X0280358Y0251247D01*
X0288434Y0252758D01*
X0296193Y0255460D01*
X0303460Y0259292D01*
X0310073Y0264167D01*
X0312456Y0266550D01*
X0311389Y0266550D01*
X0310100Y0267839D01*
X0310100Y0269661D01*
X0310919Y0270480D01*
X0310880Y0271015D01*
X0308347Y0272855D01*
X0307796Y0273754D01*
X0307631Y0274796D01*
X0307658Y0274909D01*
X0306461Y0275720D01*
X0305562Y0275651D01*
X0304461Y0274550D01*
X0302639Y0274550D01*
X0301350Y0275839D01*
X0301350Y0277661D01*
X0302639Y0278950D01*
X0304461Y0278950D01*
X0305275Y0278136D01*
X0306633Y0278241D01*
X0307072Y0278325D01*
X0307139Y0278280D01*
X0307220Y0278286D01*
X0307560Y0277995D01*
X0309030Y0277000D01*
X0309396Y0277224D01*
X0310437Y0277389D01*
X0311462Y0277143D01*
X0315551Y0274172D01*
X0316102Y0273274D01*
X0316267Y0272232D01*
X0316021Y0271207D01*
X0315401Y0270354D01*
X0314502Y0269803D01*
X0314378Y0269784D01*
X0314500Y0269661D01*
X0314500Y0268594D01*
X0315883Y0269977D01*
X0320758Y0276590D01*
X0324590Y0283857D01*
X0327292Y0291616D01*
X0327323Y0291783D02*
X0326049Y0291783D01*
X0326111Y0291814D02*
X0326796Y0292616D01*
X0327121Y0293619D01*
X0327039Y0294670D01*
X0326560Y0295609D01*
X0325758Y0296294D01*
X0324208Y0296797D01*
X0325000Y0297589D01*
X0325000Y0298932D01*
X0325050Y0298982D01*
X0325050Y0299600D01*
X0326327Y0299600D01*
X0327301Y0300003D01*
X0328047Y0300749D01*
X0328450Y0301723D01*
X0328450Y0302777D01*
X0328047Y0303751D01*
X0327301Y0304497D01*
X0326327Y0304900D01*
X0321273Y0304900D01*
X0320299Y0304497D01*
X0319553Y0303751D01*
X0319150Y0302777D01*
X0319150Y0301723D01*
X0319367Y0301200D01*
X0318139Y0301200D01*
X0317750Y0300811D01*
X0317750Y0301411D01*
X0316800Y0302361D01*
X0316800Y0302377D01*
X0322023Y0307600D01*
X0326327Y0307600D01*
X0327301Y0308003D01*
X0328047Y0308749D01*
X0328450Y0309723D01*
X0328450Y0310777D01*
X0328047Y0311751D01*
X0327301Y0312497D01*
X0326327Y0312900D01*
X0321273Y0312900D01*
X0320299Y0312497D01*
X0319553Y0311751D01*
X0319150Y0310777D01*
X0319150Y0309723D01*
X0319553Y0308749D01*
X0319595Y0308708D01*
X0314300Y0303413D01*
X0314300Y0302361D01*
X0313350Y0301411D01*
X0313350Y0299589D01*
X0313489Y0299450D01*
X0313389Y0299450D01*
X0312119Y0298180D01*
X0312247Y0298602D01*
X0313000Y0306250D01*
X0312247Y0313898D01*
X0310016Y0321251D01*
X0310016Y0321251D01*
X0306394Y0328028D01*
X0306394Y0328028D01*
X0301519Y0333969D01*
X0295578Y0338844D01*
X0288801Y0342466D01*
X0281448Y0344697D01*
X0281448Y0344697D01*
X0273800Y0345450D01*
X0266152Y0344697D01*
X0258799Y0342466D01*
X0258799Y0342466D01*
X0252022Y0338844D01*
X0252022Y0338844D01*
X0246081Y0333969D01*
X0246081Y0333969D01*
X0246081Y0333969D01*
X0241206Y0328028D01*
X0237584Y0321251D01*
X0235353Y0313898D01*
X0235353Y0313898D01*
X0235272Y0313077D01*
X0234806Y0313232D01*
X0234361Y0313454D01*
X0234250Y0313417D01*
X0230205Y0314766D01*
X0229131Y0314228D01*
X0228751Y0313089D01*
X0229288Y0312014D01*
X0229665Y0311889D01*
X0229288Y0311763D01*
X0228751Y0310689D01*
X0229131Y0309549D01*
X0229594Y0309318D01*
X0228615Y0308840D01*
X0227892Y0308592D01*
X0226900Y0307204D01*
X0226900Y0305497D01*
X0227892Y0304108D01*
X0228615Y0303860D01*
X0228832Y0303754D01*
X0228904Y0303664D01*
X0229050Y0303648D01*
X0229755Y0303304D01*
X0228904Y0303210D01*
X0227268Y0301165D01*
X0226900Y0300797D01*
X0226900Y0300705D01*
X0226843Y0300633D01*
X0226900Y0300116D01*
X0226900Y0299596D01*
X0226965Y0299531D01*
X0226975Y0299439D01*
X0227382Y0299114D01*
X0227749Y0298746D01*
X0227841Y0298746D01*
X0227913Y0298689D01*
X0228430Y0298746D01*
X0232800Y0298746D01*
X0232800Y0297957D01*
X0233649Y0297107D01*
X0234851Y0297107D01*
X0235584Y0297841D01*
X0237584Y0291249D01*
X0237584Y0291249D01*
X0241206Y0284472D01*
X0241206Y0284472D01*
X0246081Y0278531D01*
X0246081Y0278531D01*
X0246081Y0278531D01*
X0252022Y0273656D01*
X0258799Y0270034D01*
X0266152Y0267803D01*
X0266152Y0267803D01*
X0273800Y0267050D01*
X0281448Y0267803D01*
X0288801Y0270034D01*
X0295578Y0273656D01*
X0301519Y0278531D01*
X0301519Y0278531D01*
X0306394Y0284472D01*
X0310016Y0291249D01*
X0312100Y0298119D01*
X0312100Y0296339D01*
X0313225Y0295214D01*
X0313781Y0288914D01*
X0313699Y0288686D01*
X0313824Y0288419D01*
X0313850Y0288124D01*
X0314036Y0287969D01*
X0314140Y0287749D01*
X0314418Y0287649D01*
X0314644Y0287459D01*
X0314886Y0287481D01*
X0315528Y0287249D01*
X0315561Y0286830D01*
X0316040Y0285891D01*
X0316842Y0285206D01*
X0321648Y0283645D01*
X0322699Y0283727D01*
X0323639Y0284206D01*
X0324323Y0285008D01*
X0324649Y0286010D01*
X0324567Y0287061D01*
X0324088Y0288000D01*
X0323286Y0288685D01*
X0318479Y0290247D01*
X0317428Y0290164D01*
X0316489Y0289686D01*
X0316407Y0289590D01*
X0316225Y0289656D01*
X0315705Y0295544D01*
X0316500Y0296339D01*
X0316500Y0298161D01*
X0316361Y0298300D01*
X0316461Y0298300D01*
X0316850Y0298689D01*
X0316850Y0298089D01*
X0317284Y0297655D01*
X0317142Y0297230D01*
X0316950Y0296846D01*
X0316982Y0296750D01*
X0316950Y0296654D01*
X0317142Y0296270D01*
X0317227Y0296017D01*
X0317198Y0295939D01*
X0317387Y0295536D01*
X0317528Y0295114D01*
X0317602Y0295076D01*
X0317637Y0295001D01*
X0318000Y0294870D01*
X0318033Y0294439D01*
X0318512Y0293499D01*
X0319314Y0292815D01*
X0324121Y0291253D01*
X0325172Y0291336D01*
X0326111Y0291814D01*
X0326595Y0292381D02*
X0327435Y0292381D01*
X0327547Y0292980D02*
X0326914Y0292980D01*
X0327108Y0293578D02*
X0327659Y0293578D01*
X0327771Y0294177D02*
X0327077Y0294177D01*
X0326985Y0294775D02*
X0327883Y0294775D01*
X0327995Y0295374D02*
X0326680Y0295374D01*
X0326134Y0295972D02*
X0328107Y0295972D01*
X0328219Y0296571D02*
X0324905Y0296571D01*
X0324581Y0297169D02*
X0328331Y0297169D01*
X0328443Y0297768D02*
X0325000Y0297768D01*
X0325000Y0298366D02*
X0328555Y0298366D01*
X0328667Y0298965D02*
X0325033Y0298965D01*
X0325050Y0299563D02*
X0328779Y0299563D01*
X0328837Y0300162D02*
X0327460Y0300162D01*
X0328051Y0300760D02*
X0328881Y0300760D01*
X0328924Y0301359D02*
X0328299Y0301359D01*
X0328450Y0301958D02*
X0328968Y0301958D01*
X0329011Y0302556D02*
X0328450Y0302556D01*
X0328294Y0303155D02*
X0329054Y0303155D01*
X0329000Y0303753D02*
X0328045Y0303753D01*
X0327446Y0304352D02*
X0329000Y0304352D01*
X0329217Y0304950D02*
X0319373Y0304950D01*
X0319971Y0305549D02*
X0329118Y0305549D01*
X0329000Y0306147D02*
X0320570Y0306147D01*
X0321168Y0306746D02*
X0329000Y0306746D01*
X0329311Y0307344D02*
X0321767Y0307344D01*
X0319428Y0308541D02*
X0312774Y0308541D01*
X0312833Y0307943D02*
X0318830Y0307943D01*
X0318231Y0307344D02*
X0312892Y0307344D01*
X0312951Y0306746D02*
X0317633Y0306746D01*
X0317034Y0306147D02*
X0312990Y0306147D01*
X0313000Y0306250D02*
X0313000Y0306250D01*
X0312931Y0305549D02*
X0316436Y0305549D01*
X0315837Y0304950D02*
X0312872Y0304950D01*
X0312813Y0304352D02*
X0315239Y0304352D01*
X0314640Y0303753D02*
X0312754Y0303753D01*
X0312695Y0303155D02*
X0314300Y0303155D01*
X0314300Y0302556D02*
X0312636Y0302556D01*
X0312577Y0301958D02*
X0313896Y0301958D01*
X0313350Y0301359D02*
X0312518Y0301359D01*
X0312459Y0300760D02*
X0313350Y0300760D01*
X0313350Y0300162D02*
X0312400Y0300162D01*
X0312341Y0299563D02*
X0313375Y0299563D01*
X0312904Y0298965D02*
X0312282Y0298965D01*
X0312305Y0298366D02*
X0312175Y0298366D01*
X0312100Y0297768D02*
X0311994Y0297768D01*
X0312100Y0297169D02*
X0311812Y0297169D01*
X0311630Y0296571D02*
X0312100Y0296571D01*
X0312466Y0295972D02*
X0311449Y0295972D01*
X0311267Y0295374D02*
X0313065Y0295374D01*
X0313263Y0294775D02*
X0311086Y0294775D01*
X0310904Y0294177D02*
X0313316Y0294177D01*
X0313369Y0293578D02*
X0310723Y0293578D01*
X0310541Y0292980D02*
X0313422Y0292980D01*
X0313475Y0292381D02*
X0310360Y0292381D01*
X0310178Y0291783D02*
X0313528Y0291783D01*
X0313580Y0291184D02*
X0309982Y0291184D01*
X0309662Y0290586D02*
X0313633Y0290586D01*
X0313686Y0289987D02*
X0309342Y0289987D01*
X0309022Y0289389D02*
X0313739Y0289389D01*
X0313736Y0288790D02*
X0308702Y0288790D01*
X0308382Y0288192D02*
X0313844Y0288192D01*
X0314484Y0287593D02*
X0308062Y0287593D01*
X0307742Y0286995D02*
X0315548Y0286995D01*
X0315783Y0286396D02*
X0307422Y0286396D01*
X0307102Y0285798D02*
X0316149Y0285798D01*
X0316864Y0285199D02*
X0306782Y0285199D01*
X0306463Y0284601D02*
X0318706Y0284601D01*
X0320548Y0284002D02*
X0316157Y0284002D01*
X0316037Y0284057D02*
X0315453Y0284197D01*
X0314853Y0284221D01*
X0314259Y0284127D01*
X0313696Y0283919D01*
X0313183Y0283605D01*
X0312742Y0283197D01*
X0312742Y0283197D01*
X0316585Y0280405D01*
X0318201Y0282630D01*
X0316583Y0283806D01*
X0316037Y0284057D01*
X0317136Y0283404D02*
X0324351Y0283404D01*
X0324640Y0284002D02*
X0323239Y0284002D01*
X0323976Y0284601D02*
X0324849Y0284601D01*
X0325057Y0285199D02*
X0324386Y0285199D01*
X0324580Y0285798D02*
X0325266Y0285798D01*
X0325474Y0286396D02*
X0324619Y0286396D01*
X0324572Y0286995D02*
X0325683Y0286995D01*
X0325891Y0287593D02*
X0324295Y0287593D01*
X0323864Y0288192D02*
X0326099Y0288192D01*
X0326308Y0288790D02*
X0322963Y0288790D01*
X0321121Y0289389D02*
X0326516Y0289389D01*
X0326725Y0289987D02*
X0319279Y0289987D01*
X0317081Y0289987D02*
X0316196Y0289987D01*
X0316143Y0290586D02*
X0326933Y0290586D01*
X0327142Y0291184D02*
X0316090Y0291184D01*
X0316037Y0291783D02*
X0322490Y0291783D01*
X0320648Y0292381D02*
X0315984Y0292381D01*
X0315932Y0292980D02*
X0319121Y0292980D01*
X0318472Y0293578D02*
X0315879Y0293578D01*
X0315826Y0294177D02*
X0318167Y0294177D01*
X0318007Y0294775D02*
X0315773Y0294775D01*
X0315720Y0295374D02*
X0317441Y0295374D01*
X0317210Y0295972D02*
X0316134Y0295972D01*
X0316500Y0296571D02*
X0316992Y0296571D01*
X0317112Y0297169D02*
X0316500Y0297169D01*
X0316500Y0297768D02*
X0317171Y0297768D01*
X0316850Y0298366D02*
X0316528Y0298366D01*
X0317750Y0301359D02*
X0319301Y0301359D01*
X0319150Y0301958D02*
X0317204Y0301958D01*
X0316979Y0302556D02*
X0319150Y0302556D01*
X0319306Y0303155D02*
X0317577Y0303155D01*
X0318176Y0303753D02*
X0319555Y0303753D01*
X0320154Y0304352D02*
X0318774Y0304352D01*
X0319392Y0309140D02*
X0312715Y0309140D01*
X0312656Y0309738D02*
X0319150Y0309738D01*
X0319150Y0310337D02*
X0312597Y0310337D01*
X0312539Y0310935D02*
X0319215Y0310935D01*
X0319463Y0311534D02*
X0312480Y0311534D01*
X0312421Y0312132D02*
X0319935Y0312132D01*
X0320864Y0312731D02*
X0312362Y0312731D01*
X0312303Y0313329D02*
X0328706Y0313329D01*
X0328809Y0312731D02*
X0326736Y0312731D01*
X0327665Y0312132D02*
X0328852Y0312132D01*
X0328896Y0311534D02*
X0328137Y0311534D01*
X0328385Y0310935D02*
X0328939Y0310935D01*
X0328983Y0310337D02*
X0328450Y0310337D01*
X0328450Y0309738D02*
X0329026Y0309738D01*
X0329000Y0309140D02*
X0328208Y0309140D01*
X0327839Y0308541D02*
X0329000Y0308541D01*
X0329000Y0307943D02*
X0327154Y0307943D01*
X0328594Y0313928D02*
X0312238Y0313928D01*
X0312247Y0313898D02*
X0312247Y0313898D01*
X0312056Y0314526D02*
X0319414Y0314526D01*
X0319517Y0314474D02*
X0320095Y0314311D01*
X0320694Y0314264D01*
X0321291Y0314334D01*
X0323193Y0314952D01*
X0322343Y0317568D01*
X0317826Y0316100D01*
X0317826Y0316100D01*
X0318120Y0315575D01*
X0318510Y0315119D01*
X0318982Y0314747D01*
X0319517Y0314474D01*
X0318504Y0315125D02*
X0311875Y0315125D01*
X0311693Y0315723D02*
X0318037Y0315723D01*
X0318509Y0316322D02*
X0311511Y0316322D01*
X0311330Y0316920D02*
X0317611Y0316920D01*
X0317640Y0316671D02*
X0317641Y0316671D01*
X0317640Y0316671D02*
X0317570Y0317268D01*
X0317617Y0317867D01*
X0317780Y0318445D01*
X0318053Y0318980D01*
X0318425Y0319452D01*
X0318882Y0319842D01*
X0319406Y0320136D01*
X0321308Y0320754D01*
X0322158Y0318138D01*
X0322343Y0317568D01*
X0322914Y0317753D01*
X0323764Y0315138D01*
X0325666Y0315756D01*
X0326191Y0316049D01*
X0326647Y0316440D01*
X0327019Y0316911D01*
X0327292Y0317447D01*
X0327455Y0318025D01*
X0327502Y0318624D01*
X0327432Y0319221D01*
X0327432Y0319221D01*
X0322914Y0317753D01*
X0322729Y0318324D01*
X0327246Y0319792D01*
X0326952Y0320316D01*
X0326562Y0320773D01*
X0326091Y0321145D01*
X0325555Y0321418D01*
X0324977Y0321581D01*
X0324378Y0321628D01*
X0323781Y0321557D01*
X0321879Y0320939D01*
X0322729Y0318324D01*
X0322158Y0318138D01*
X0317641Y0316671D01*
X0318409Y0316920D02*
X0320351Y0316920D01*
X0320251Y0317519D02*
X0322193Y0317519D01*
X0322359Y0317519D02*
X0322990Y0317519D01*
X0322796Y0318117D02*
X0324035Y0318117D01*
X0323935Y0318716D02*
X0325877Y0318716D01*
X0325777Y0319314D02*
X0327586Y0319314D01*
X0327246Y0319792D02*
X0327246Y0319792D01*
X0327178Y0319913D02*
X0327474Y0319913D01*
X0327362Y0320511D02*
X0326786Y0320511D01*
X0327213Y0321110D02*
X0326135Y0321110D01*
X0327005Y0321708D02*
X0309772Y0321708D01*
X0310059Y0321110D02*
X0322404Y0321110D01*
X0322018Y0320511D02*
X0321387Y0320511D01*
X0321582Y0319913D02*
X0322212Y0319913D01*
X0322407Y0319314D02*
X0321776Y0319314D01*
X0321970Y0318716D02*
X0322601Y0318716D01*
X0322165Y0318117D02*
X0322093Y0318117D01*
X0322554Y0316920D02*
X0323185Y0316920D01*
X0323379Y0316322D02*
X0322748Y0316322D01*
X0322943Y0315723D02*
X0323574Y0315723D01*
X0323137Y0315125D02*
X0328370Y0315125D01*
X0328258Y0315723D02*
X0325566Y0315723D01*
X0326509Y0316322D02*
X0328146Y0316322D01*
X0328034Y0316920D02*
X0327024Y0316920D01*
X0327312Y0317519D02*
X0327922Y0317519D01*
X0327810Y0318117D02*
X0327462Y0318117D01*
X0327491Y0318716D02*
X0327698Y0318716D01*
X0326796Y0322307D02*
X0318645Y0322307D01*
X0318479Y0322253D02*
X0317428Y0322336D01*
X0316925Y0322592D01*
X0315761Y0322231D01*
X0315196Y0321949D01*
X0315029Y0322004D01*
X0314861Y0321952D01*
X0314302Y0322247D01*
X0311892Y0323050D01*
X0310389Y0323050D01*
X0309100Y0324339D01*
X0309100Y0326161D01*
X0310389Y0327450D01*
X0312211Y0327450D01*
X0312963Y0326699D01*
X0315071Y0325996D01*
X0315851Y0326237D01*
X0316040Y0326609D01*
X0316842Y0327294D01*
X0321648Y0328855D01*
X0322699Y0328773D01*
X0323639Y0328294D01*
X0324323Y0327492D01*
X0324649Y0326490D01*
X0324567Y0325439D01*
X0324088Y0324499D01*
X0323286Y0323815D01*
X0318479Y0322253D01*
X0317795Y0322307D02*
X0316005Y0322307D01*
X0314121Y0322307D02*
X0309452Y0322307D01*
X0309132Y0322905D02*
X0312325Y0322905D01*
X0309935Y0323504D02*
X0308812Y0323504D01*
X0308492Y0324102D02*
X0309336Y0324102D01*
X0309100Y0324701D02*
X0308172Y0324701D01*
X0307852Y0325299D02*
X0309100Y0325299D01*
X0309100Y0325898D02*
X0307532Y0325898D01*
X0307212Y0326496D02*
X0309435Y0326496D01*
X0310034Y0327095D02*
X0306892Y0327095D01*
X0306573Y0327693D02*
X0318072Y0327693D01*
X0316609Y0327095D02*
X0312566Y0327095D01*
X0313569Y0326496D02*
X0315983Y0326496D01*
X0319914Y0328292D02*
X0306177Y0328292D01*
X0305686Y0328891D02*
X0324459Y0328891D01*
X0324712Y0328292D02*
X0323641Y0328292D01*
X0324152Y0327693D02*
X0324921Y0327693D01*
X0325129Y0327095D02*
X0324453Y0327095D01*
X0324647Y0326496D02*
X0325337Y0326496D01*
X0325546Y0325898D02*
X0324603Y0325898D01*
X0324495Y0325299D02*
X0325754Y0325299D01*
X0325963Y0324701D02*
X0324191Y0324701D01*
X0323623Y0324102D02*
X0326171Y0324102D01*
X0326380Y0323504D02*
X0322329Y0323504D01*
X0320487Y0322905D02*
X0326588Y0322905D01*
X0320562Y0320511D02*
X0310240Y0320511D01*
X0310422Y0319913D02*
X0319008Y0319913D01*
X0318316Y0319314D02*
X0310604Y0319314D01*
X0310785Y0318716D02*
X0317918Y0318716D01*
X0317688Y0318117D02*
X0310967Y0318117D01*
X0311148Y0317519D02*
X0317590Y0317519D01*
X0321882Y0314526D02*
X0328482Y0314526D01*
X0324144Y0329489D02*
X0305195Y0329489D01*
X0304704Y0330088D02*
X0323828Y0330088D01*
X0323513Y0330686D02*
X0304212Y0330686D01*
X0303721Y0331285D02*
X0323197Y0331285D01*
X0322882Y0331883D02*
X0303230Y0331883D01*
X0302739Y0332482D02*
X0322566Y0332482D01*
X0322250Y0333080D02*
X0302248Y0333080D01*
X0301757Y0333679D02*
X0321935Y0333679D01*
X0321619Y0334277D02*
X0301143Y0334277D01*
X0301519Y0333969D02*
X0301519Y0333969D01*
X0301519Y0333969D01*
X0300413Y0334876D02*
X0321304Y0334876D01*
X0320988Y0335474D02*
X0299684Y0335474D01*
X0298955Y0336073D02*
X0320639Y0336073D01*
X0320197Y0336671D02*
X0298225Y0336671D01*
X0297496Y0337270D02*
X0319756Y0337270D01*
X0319315Y0337868D02*
X0296767Y0337868D01*
X0296038Y0338467D02*
X0318873Y0338467D01*
X0318432Y0339065D02*
X0295164Y0339065D01*
X0295578Y0338844D02*
X0295578Y0338844D01*
X0294044Y0339664D02*
X0317991Y0339664D01*
X0317550Y0340262D02*
X0292924Y0340262D01*
X0291805Y0340861D02*
X0317108Y0340861D01*
X0316667Y0341459D02*
X0290685Y0341459D01*
X0289565Y0342058D02*
X0316226Y0342058D01*
X0315750Y0342656D02*
X0288174Y0342656D01*
X0288801Y0342466D02*
X0288801Y0342466D01*
X0286201Y0343255D02*
X0315151Y0343255D01*
X0314553Y0343853D02*
X0284228Y0343853D01*
X0282255Y0344452D02*
X0313954Y0344452D01*
X0313356Y0345050D02*
X0277858Y0345050D01*
X0273800Y0345450D02*
X0273800Y0345450D01*
X0269742Y0345050D02*
X0234244Y0345050D01*
X0233646Y0344452D02*
X0265345Y0344452D01*
X0266152Y0344697D02*
X0266152Y0344697D01*
X0263372Y0343853D02*
X0233047Y0343853D01*
X0232449Y0343255D02*
X0261399Y0343255D01*
X0259426Y0342656D02*
X0231850Y0342656D01*
X0231374Y0342058D02*
X0258035Y0342058D01*
X0256915Y0341459D02*
X0230933Y0341459D01*
X0230492Y0340861D02*
X0255795Y0340861D01*
X0254676Y0340262D02*
X0230050Y0340262D01*
X0229609Y0339664D02*
X0253556Y0339664D01*
X0252436Y0339065D02*
X0229168Y0339065D01*
X0228726Y0338467D02*
X0251562Y0338467D01*
X0250833Y0337868D02*
X0228285Y0337868D01*
X0227844Y0337270D02*
X0250104Y0337270D01*
X0249375Y0336671D02*
X0227403Y0336671D01*
X0226961Y0336073D02*
X0248645Y0336073D01*
X0247916Y0335474D02*
X0226612Y0335474D01*
X0226296Y0334876D02*
X0247187Y0334876D01*
X0246457Y0334277D02*
X0225981Y0334277D01*
X0225665Y0333679D02*
X0245843Y0333679D01*
X0245352Y0333080D02*
X0225350Y0333080D01*
X0225034Y0332482D02*
X0244861Y0332482D01*
X0244370Y0331883D02*
X0224718Y0331883D01*
X0224403Y0331285D02*
X0243879Y0331285D01*
X0243388Y0330686D02*
X0224087Y0330686D01*
X0223772Y0330088D02*
X0242896Y0330088D01*
X0242405Y0329489D02*
X0223456Y0329489D01*
X0223141Y0328891D02*
X0241914Y0328891D01*
X0241423Y0328292D02*
X0222888Y0328292D01*
X0222679Y0327693D02*
X0241027Y0327693D01*
X0241206Y0328028D02*
X0241206Y0328028D01*
X0240708Y0327095D02*
X0222471Y0327095D01*
X0222263Y0326496D02*
X0240388Y0326496D01*
X0240068Y0325898D02*
X0222054Y0325898D01*
X0221846Y0325299D02*
X0239748Y0325299D01*
X0239428Y0324701D02*
X0221637Y0324701D01*
X0221429Y0324102D02*
X0239108Y0324102D01*
X0238788Y0323504D02*
X0221220Y0323504D01*
X0221012Y0322905D02*
X0238468Y0322905D01*
X0238148Y0322307D02*
X0220804Y0322307D01*
X0220595Y0321708D02*
X0237828Y0321708D01*
X0237584Y0321251D02*
X0237584Y0321251D01*
X0237541Y0321110D02*
X0220387Y0321110D01*
X0220238Y0320511D02*
X0237360Y0320511D01*
X0237178Y0319913D02*
X0220126Y0319913D01*
X0220014Y0319314D02*
X0236996Y0319314D01*
X0236815Y0318716D02*
X0219902Y0318716D01*
X0219790Y0318117D02*
X0236633Y0318117D01*
X0236452Y0317519D02*
X0219678Y0317519D01*
X0219566Y0316920D02*
X0236270Y0316920D01*
X0236089Y0316322D02*
X0219454Y0316322D01*
X0219342Y0315723D02*
X0235907Y0315723D01*
X0235725Y0315125D02*
X0219230Y0315125D01*
X0219118Y0314526D02*
X0229727Y0314526D01*
X0229031Y0313928D02*
X0219006Y0313928D01*
X0218894Y0313329D02*
X0228831Y0313329D01*
X0228930Y0312731D02*
X0218791Y0312731D01*
X0218748Y0312132D02*
X0229229Y0312132D01*
X0229173Y0311534D02*
X0218704Y0311534D01*
X0218661Y0310935D02*
X0228874Y0310935D01*
X0228869Y0310337D02*
X0218617Y0310337D01*
X0218574Y0309738D02*
X0229068Y0309738D01*
X0229229Y0309140D02*
X0218531Y0309140D01*
X0218500Y0308541D02*
X0227855Y0308541D01*
X0227892Y0308592D02*
X0227892Y0308592D01*
X0227428Y0307943D02*
X0218450Y0307943D01*
X0218089Y0307344D02*
X0227000Y0307344D01*
X0226900Y0306746D02*
X0218450Y0306746D01*
X0218450Y0306147D02*
X0226900Y0306147D01*
X0226900Y0305549D02*
X0218382Y0305549D01*
X0218183Y0304950D02*
X0227291Y0304950D01*
X0227718Y0304352D02*
X0218450Y0304352D01*
X0218502Y0303753D02*
X0228833Y0303753D01*
X0228860Y0303155D02*
X0218546Y0303155D01*
X0218589Y0302556D02*
X0228381Y0302556D01*
X0227902Y0301958D02*
X0218632Y0301958D01*
X0218676Y0301359D02*
X0227423Y0301359D01*
X0226900Y0300760D02*
X0218719Y0300760D01*
X0218763Y0300162D02*
X0226895Y0300162D01*
X0226932Y0299563D02*
X0218821Y0299563D01*
X0218933Y0298965D02*
X0227531Y0298965D01*
X0227892Y0304108D02*
X0227892Y0304108D01*
X0227892Y0304108D01*
X0232800Y0298366D02*
X0219045Y0298366D01*
X0219157Y0297768D02*
X0232989Y0297768D01*
X0233587Y0297169D02*
X0219269Y0297169D01*
X0219381Y0296571D02*
X0235969Y0296571D01*
X0235788Y0297169D02*
X0234913Y0297169D01*
X0235511Y0297768D02*
X0235606Y0297768D01*
X0236151Y0295972D02*
X0219493Y0295972D01*
X0219605Y0295374D02*
X0236333Y0295374D01*
X0236514Y0294775D02*
X0219717Y0294775D01*
X0219829Y0294177D02*
X0236696Y0294177D01*
X0236877Y0293578D02*
X0219941Y0293578D01*
X0220053Y0292980D02*
X0237059Y0292980D01*
X0237240Y0292381D02*
X0220165Y0292381D01*
X0220277Y0291783D02*
X0237422Y0291783D01*
X0237618Y0291184D02*
X0220458Y0291184D01*
X0220667Y0290586D02*
X0237938Y0290586D01*
X0238258Y0289987D02*
X0220875Y0289987D01*
X0221084Y0289389D02*
X0238578Y0289389D01*
X0238898Y0288790D02*
X0221292Y0288790D01*
X0221501Y0288192D02*
X0239218Y0288192D01*
X0239538Y0287593D02*
X0221709Y0287593D01*
X0221917Y0286995D02*
X0239858Y0286995D01*
X0240178Y0286396D02*
X0222126Y0286396D01*
X0222334Y0285798D02*
X0240498Y0285798D01*
X0240818Y0285199D02*
X0222543Y0285199D01*
X0222751Y0284601D02*
X0241137Y0284601D01*
X0241592Y0284002D02*
X0222960Y0284002D01*
X0223249Y0283404D02*
X0242083Y0283404D01*
X0242574Y0282805D02*
X0223565Y0282805D01*
X0223880Y0282207D02*
X0243065Y0282207D01*
X0243556Y0281608D02*
X0224196Y0281608D01*
X0224511Y0281010D02*
X0244048Y0281010D01*
X0244539Y0280411D02*
X0224827Y0280411D01*
X0225143Y0279813D02*
X0245030Y0279813D01*
X0245521Y0279214D02*
X0225458Y0279214D01*
X0225774Y0278616D02*
X0246012Y0278616D01*
X0246708Y0278017D02*
X0226089Y0278017D01*
X0226405Y0277419D02*
X0247437Y0277419D01*
X0248167Y0276820D02*
X0226720Y0276820D01*
X0227113Y0276222D02*
X0248896Y0276222D01*
X0249625Y0275623D02*
X0227554Y0275623D01*
X0227996Y0275024D02*
X0250355Y0275024D01*
X0251084Y0274426D02*
X0228437Y0274426D01*
X0228878Y0273827D02*
X0251813Y0273827D01*
X0252022Y0273656D02*
X0252022Y0273656D01*
X0252821Y0273229D02*
X0229320Y0273229D01*
X0229761Y0272630D02*
X0253941Y0272630D01*
X0255061Y0272032D02*
X0230202Y0272032D01*
X0230643Y0271433D02*
X0256181Y0271433D01*
X0257300Y0270835D02*
X0231085Y0270835D01*
X0231526Y0270236D02*
X0258420Y0270236D01*
X0258799Y0270034D02*
X0258799Y0270034D01*
X0260104Y0269638D02*
X0232056Y0269638D01*
X0232655Y0269039D02*
X0262077Y0269039D01*
X0264050Y0268441D02*
X0233253Y0268441D01*
X0233852Y0267842D02*
X0266023Y0267842D01*
X0271832Y0267244D02*
X0234450Y0267244D01*
X0235049Y0266645D02*
X0311293Y0266645D01*
X0310695Y0267244D02*
X0275768Y0267244D01*
X0273800Y0267050D02*
X0273800Y0267050D01*
X0281448Y0267803D02*
X0281448Y0267803D01*
X0281577Y0267842D02*
X0310100Y0267842D01*
X0310100Y0268441D02*
X0283550Y0268441D01*
X0285523Y0269039D02*
X0310100Y0269039D01*
X0310100Y0269638D02*
X0287496Y0269638D01*
X0289180Y0270236D02*
X0310675Y0270236D01*
X0310893Y0270835D02*
X0290300Y0270835D01*
X0291419Y0271433D02*
X0310304Y0271433D01*
X0309480Y0272032D02*
X0292539Y0272032D01*
X0293659Y0272630D02*
X0308656Y0272630D01*
X0308118Y0273229D02*
X0294779Y0273229D01*
X0295787Y0273827D02*
X0307784Y0273827D01*
X0307690Y0274426D02*
X0296516Y0274426D01*
X0297245Y0275024D02*
X0302164Y0275024D01*
X0301566Y0275623D02*
X0297975Y0275623D01*
X0298704Y0276222D02*
X0301350Y0276222D01*
X0301350Y0276820D02*
X0299433Y0276820D01*
X0300163Y0277419D02*
X0301350Y0277419D01*
X0301706Y0278017D02*
X0300892Y0278017D01*
X0301588Y0278616D02*
X0302304Y0278616D01*
X0302079Y0279214D02*
X0312680Y0279214D01*
X0312590Y0279312D02*
X0312997Y0278871D01*
X0314616Y0277695D01*
X0316232Y0279920D01*
X0312389Y0282712D01*
X0312389Y0282711D01*
X0312138Y0282166D01*
X0311997Y0281582D01*
X0311974Y0280981D01*
X0312068Y0280388D01*
X0312276Y0279824D01*
X0312590Y0279312D01*
X0312283Y0279813D02*
X0302570Y0279813D01*
X0303061Y0280411D02*
X0312064Y0280411D01*
X0311975Y0281010D02*
X0303552Y0281010D01*
X0304044Y0281608D02*
X0312004Y0281608D01*
X0312156Y0282207D02*
X0304535Y0282207D01*
X0305026Y0282805D02*
X0313281Y0282805D01*
X0313084Y0282207D02*
X0314105Y0282207D01*
X0313908Y0281608D02*
X0314929Y0281608D01*
X0314732Y0281010D02*
X0315753Y0281010D01*
X0315556Y0280411D02*
X0316576Y0280411D01*
X0316585Y0280405D02*
X0316232Y0279920D01*
X0316717Y0279567D01*
X0315101Y0277342D01*
X0316719Y0276166D01*
X0317265Y0275915D01*
X0317849Y0275775D01*
X0318450Y0275751D01*
X0319043Y0275845D01*
X0319607Y0276053D01*
X0320119Y0276367D01*
X0320560Y0276775D01*
X0320560Y0276775D01*
X0316718Y0279567D01*
X0317070Y0280052D01*
X0320913Y0277260D01*
X0320913Y0277261D01*
X0321165Y0277806D01*
X0321305Y0278391D01*
X0321329Y0278991D01*
X0321235Y0279584D01*
X0321027Y0280148D01*
X0320713Y0280660D01*
X0320305Y0281101D01*
X0318687Y0282277D01*
X0317070Y0280052D01*
X0316585Y0280405D01*
X0316589Y0280411D02*
X0317331Y0280411D01*
X0317400Y0279813D02*
X0316896Y0279813D01*
X0316379Y0279813D02*
X0316154Y0279813D01*
X0316461Y0279214D02*
X0315719Y0279214D01*
X0316026Y0278616D02*
X0315285Y0278616D01*
X0315591Y0278017D02*
X0314850Y0278017D01*
X0315157Y0277419D02*
X0308411Y0277419D01*
X0307534Y0278017D02*
X0314172Y0278017D01*
X0313348Y0278616D02*
X0304796Y0278616D01*
X0305534Y0275623D02*
X0306604Y0275623D01*
X0307488Y0275024D02*
X0304936Y0275024D01*
X0311907Y0276820D02*
X0315820Y0276820D01*
X0316644Y0276222D02*
X0312731Y0276222D01*
X0313554Y0275623D02*
X0320046Y0275623D01*
X0319882Y0276222D02*
X0320487Y0276222D01*
X0320498Y0276820D02*
X0320880Y0276820D01*
X0320986Y0277419D02*
X0321195Y0277419D01*
X0320695Y0277419D02*
X0319675Y0277419D01*
X0319872Y0278017D02*
X0318851Y0278017D01*
X0319048Y0278616D02*
X0318027Y0278616D01*
X0318224Y0279214D02*
X0317203Y0279214D01*
X0317024Y0281010D02*
X0317766Y0281010D01*
X0317459Y0281608D02*
X0318200Y0281608D01*
X0317894Y0282207D02*
X0318635Y0282207D01*
X0318784Y0282207D02*
X0323720Y0282207D01*
X0324035Y0282805D02*
X0317960Y0282805D01*
X0319608Y0281608D02*
X0323404Y0281608D01*
X0323089Y0281010D02*
X0320390Y0281010D01*
X0320865Y0280411D02*
X0322773Y0280411D01*
X0322457Y0279813D02*
X0321150Y0279813D01*
X0321293Y0279214D02*
X0322142Y0279214D01*
X0321826Y0278616D02*
X0321314Y0278616D01*
X0321215Y0278017D02*
X0321511Y0278017D01*
X0319604Y0275024D02*
X0314378Y0275024D01*
X0315202Y0274426D02*
X0319163Y0274426D01*
X0318722Y0273827D02*
X0315762Y0273827D01*
X0316109Y0273229D02*
X0318280Y0273229D01*
X0317839Y0272630D02*
X0316204Y0272630D01*
X0316219Y0272032D02*
X0317398Y0272032D01*
X0316957Y0271433D02*
X0316075Y0271433D01*
X0315750Y0270835D02*
X0316515Y0270835D01*
X0316074Y0270236D02*
X0315209Y0270236D01*
X0315544Y0269638D02*
X0314500Y0269638D01*
X0314500Y0269039D02*
X0314945Y0269039D01*
X0311953Y0266047D02*
X0235647Y0266047D01*
X0236246Y0265448D02*
X0311354Y0265448D01*
X0310756Y0264850D02*
X0236844Y0264850D01*
X0237443Y0264251D02*
X0310157Y0264251D01*
X0309375Y0263653D02*
X0238225Y0263653D01*
X0239036Y0263054D02*
X0308564Y0263054D01*
X0307752Y0262456D02*
X0239848Y0262456D01*
X0240660Y0261857D02*
X0306940Y0261857D01*
X0306128Y0261259D02*
X0241472Y0261259D01*
X0242284Y0260660D02*
X0305316Y0260660D01*
X0304505Y0260062D02*
X0243095Y0260062D01*
X0243907Y0259463D02*
X0303693Y0259463D01*
X0302650Y0258865D02*
X0244950Y0258865D01*
X0246085Y0258266D02*
X0301515Y0258266D01*
X0300380Y0257668D02*
X0247220Y0257668D01*
X0248355Y0257069D02*
X0299245Y0257069D01*
X0298110Y0256471D02*
X0249490Y0256471D01*
X0250626Y0255872D02*
X0296974Y0255872D01*
X0295658Y0255274D02*
X0251942Y0255274D01*
X0253661Y0254675D02*
X0293939Y0254675D01*
X0292220Y0254077D02*
X0255380Y0254077D01*
X0257099Y0253478D02*
X0290501Y0253478D01*
X0288783Y0252880D02*
X0258817Y0252880D01*
X0261715Y0252281D02*
X0285885Y0252281D01*
X0282687Y0251683D02*
X0264913Y0251683D01*
X0269484Y0251084D02*
X0278116Y0251084D01*
X0305517Y0283404D02*
X0312965Y0283404D01*
X0313921Y0284002D02*
X0306008Y0284002D01*
X0312757Y0345649D02*
X0234843Y0345649D01*
X0235441Y0346247D02*
X0312159Y0346247D01*
X0311560Y0346846D02*
X0236040Y0346846D01*
X0236638Y0347444D02*
X0310962Y0347444D01*
X0310363Y0348043D02*
X0237237Y0348043D01*
X0237945Y0348641D02*
X0309655Y0348641D01*
X0308843Y0349240D02*
X0238757Y0349240D01*
X0239569Y0349838D02*
X0308031Y0349838D01*
X0307219Y0350437D02*
X0240381Y0350437D01*
X0241193Y0351035D02*
X0306407Y0351035D01*
X0305596Y0351634D02*
X0242004Y0351634D01*
X0242816Y0352232D02*
X0304784Y0352232D01*
X0303972Y0352831D02*
X0243628Y0352831D01*
X0244559Y0353429D02*
X0303041Y0353429D01*
X0301905Y0354028D02*
X0245695Y0354028D01*
X0246830Y0354627D02*
X0300770Y0354627D01*
X0299635Y0355225D02*
X0247965Y0355225D01*
X0249100Y0355824D02*
X0298500Y0355824D01*
X0297365Y0356422D02*
X0250235Y0356422D01*
X0251370Y0357021D02*
X0296230Y0357021D01*
X0294530Y0357619D02*
X0253070Y0357619D01*
X0254789Y0358218D02*
X0292811Y0358218D01*
X0291092Y0358816D02*
X0256507Y0358816D01*
X0258226Y0359415D02*
X0289374Y0359415D01*
X0286985Y0360013D02*
X0260615Y0360013D01*
X0263813Y0360612D02*
X0283787Y0360612D01*
X0280589Y0361210D02*
X0267011Y0361210D01*
X0272442Y0361809D02*
X0272758Y0361809D01*
X0274642Y0361809D02*
X0275058Y0361809D01*
X0235544Y0314526D02*
X0230923Y0314526D01*
X0232719Y0313928D02*
X0235362Y0313928D01*
X0235297Y0313329D02*
X0234612Y0313329D01*
D16*
X0352300Y0258500D02*
X0364800Y0256000D01*
X0358550Y0270750D02*
X0361800Y0278500D01*
X0365550Y0280500D01*
X0371686Y0278554D01*
D17*
X0136187Y0121243D02*
X0107554Y0121243D01*
X0106621Y0122041D02*
X0135164Y0122041D01*
X0134141Y0122840D02*
X0105688Y0122840D01*
X0104793Y0123605D02*
X0104793Y0123605D01*
X0119448Y0111067D01*
X0135031Y0099703D01*
X0151450Y0089583D01*
X0168604Y0080767D01*
X0186390Y0073308D01*
X0204701Y0067252D01*
X0223427Y0062636D01*
X0242455Y0059486D01*
X0261670Y0057821D01*
X0271310Y0057550D01*
X0272275Y0057550D01*
X0272650Y0057175D01*
X0273025Y0057550D01*
X0274475Y0057550D01*
X0274900Y0057125D01*
X0275325Y0057550D01*
X0276290Y0057550D01*
X0285930Y0057821D01*
X0305145Y0059486D01*
X0324173Y0062636D01*
X0342899Y0067252D01*
X0361210Y0073308D01*
X0378996Y0080767D01*
X0396150Y0089583D01*
X0412569Y0099703D01*
X0428152Y0111067D01*
X0442807Y0123605D01*
X0456445Y0137243D01*
X0468983Y0151898D01*
X0480347Y0167481D01*
X0490467Y0183900D01*
X0499283Y0201054D01*
X0506742Y0218840D01*
X0512798Y0237151D01*
X0517414Y0255877D01*
X0519471Y0268299D01*
X0518965Y0268161D01*
X0518346Y0268117D01*
X0516451Y0268356D01*
X0516795Y0271085D01*
X0516002Y0271185D01*
X0515657Y0268456D01*
X0513762Y0268696D01*
X0513173Y0268892D01*
X0512634Y0269200D01*
X0512166Y0269606D01*
X0511785Y0270097D01*
X0511508Y0270652D01*
X0511344Y0271250D01*
X0511307Y0271778D01*
X0516002Y0271185D01*
X0516102Y0271978D01*
X0511407Y0272572D01*
X0511575Y0273073D01*
X0511882Y0273612D01*
X0512289Y0274081D01*
X0512779Y0274461D01*
X0513334Y0274739D01*
X0513932Y0274902D01*
X0514551Y0274946D01*
X0516447Y0274707D01*
X0516102Y0271979D01*
X0516896Y0271878D01*
X0517240Y0274607D01*
X0519135Y0274367D01*
X0519724Y0274171D01*
X0520263Y0273863D01*
X0520376Y0273766D01*
X0520564Y0274905D01*
X0520723Y0276736D01*
X0520689Y0276710D01*
X0519634Y0276421D01*
X0514580Y0277059D01*
X0513629Y0277601D01*
X0512959Y0278466D01*
X0512670Y0279521D01*
X0512807Y0280606D01*
X0513219Y0281328D01*
X0513107Y0281441D01*
X0507233Y0282305D01*
X0507040Y0282111D01*
X0505060Y0282111D01*
X0503661Y0283510D01*
X0503661Y0285490D01*
X0505060Y0286889D01*
X0507040Y0286889D01*
X0507641Y0286288D01*
X0511031Y0285789D01*
X0505150Y0291670D01*
X0505150Y0292897D01*
X0504250Y0293797D01*
X0504250Y0295703D01*
X0505597Y0297050D01*
X0507503Y0297050D01*
X0508850Y0295703D01*
X0508850Y0293797D01*
X0507950Y0292897D01*
X0507950Y0292830D01*
X0512552Y0288228D01*
X0513665Y0288228D01*
X0513874Y0288655D01*
X0514695Y0289378D01*
X0515730Y0289732D01*
X0520813Y0289413D01*
X0521780Y0288939D01*
X0522073Y0292321D01*
X0522005Y0292262D01*
X0520970Y0291908D01*
X0515887Y0292227D01*
X0514904Y0292709D01*
X0514284Y0293412D01*
X0512408Y0293412D01*
X0511588Y0294232D01*
X0509900Y0295920D01*
X0509900Y0296897D01*
X0509000Y0297797D01*
X0509000Y0299703D01*
X0510347Y0301050D01*
X0512253Y0301050D01*
X0513050Y0300253D01*
X0513847Y0301050D01*
X0514238Y0301050D01*
X0514050Y0301503D01*
X0514050Y0302597D01*
X0514469Y0303608D01*
X0515242Y0304381D01*
X0516253Y0304800D01*
X0521347Y0304800D01*
X0522358Y0304381D01*
X0522500Y0304239D01*
X0522500Y0304875D01*
X0522925Y0305300D01*
X0522500Y0305725D01*
X0522500Y0307175D01*
X0522875Y0307550D01*
X0522532Y0307893D01*
X0522358Y0307719D01*
X0521347Y0307300D01*
X0516253Y0307300D01*
X0515242Y0307719D01*
X0514469Y0308492D01*
X0514403Y0308650D01*
X0513180Y0308650D01*
X0508200Y0303670D01*
X0508200Y0303103D01*
X0509100Y0302203D01*
X0509100Y0300297D01*
X0507753Y0298950D01*
X0505847Y0298950D01*
X0504500Y0300297D01*
X0504500Y0302203D01*
X0505400Y0303103D01*
X0505400Y0304830D01*
X0511200Y0310630D01*
X0512020Y0311450D01*
X0514403Y0311450D01*
X0514469Y0311608D01*
X0515242Y0312381D01*
X0516253Y0312800D01*
X0521347Y0312800D01*
X0522358Y0312381D01*
X0522399Y0312340D01*
X0522316Y0315271D01*
X0522212Y0315191D01*
X0521654Y0314918D01*
X0521055Y0314759D01*
X0519148Y0314639D01*
X0518975Y0317384D01*
X0518177Y0317334D01*
X0513454Y0317036D01*
X0513590Y0316525D01*
X0513863Y0315968D01*
X0514239Y0315475D01*
X0514705Y0315064D01*
X0515241Y0314753D01*
X0515828Y0314552D01*
X0516443Y0314469D01*
X0518350Y0314589D01*
X0518177Y0317334D01*
X0518127Y0318132D01*
X0517954Y0320877D01*
X0516048Y0320757D01*
X0515448Y0320598D01*
X0514891Y0320325D01*
X0514397Y0319948D01*
X0513987Y0319483D01*
X0513675Y0318946D01*
X0513474Y0318359D01*
X0513404Y0317835D01*
X0518127Y0318132D01*
X0518925Y0318182D01*
X0518753Y0320927D01*
X0520659Y0321047D01*
X0521274Y0320964D01*
X0521861Y0320763D01*
X0522031Y0320665D01*
X0521771Y0323667D01*
X0521746Y0323639D01*
X0520763Y0323157D01*
X0515680Y0322838D01*
X0514645Y0323192D01*
X0513824Y0323915D01*
X0513343Y0324898D01*
X0513274Y0325990D01*
X0513628Y0327025D01*
X0514352Y0327845D01*
X0515334Y0328327D01*
X0515933Y0328364D01*
X0515750Y0328547D01*
X0515750Y0330453D01*
X0502903Y0330453D01*
X0502830Y0331251D02*
X0516549Y0331251D01*
X0517097Y0331800D02*
X0515750Y0330453D01*
X0515750Y0329654D02*
X0502975Y0329654D01*
X0503048Y0328856D02*
X0515750Y0328856D01*
X0514784Y0328057D02*
X0503120Y0328057D01*
X0503192Y0327259D02*
X0513834Y0327259D01*
X0513435Y0326460D02*
X0503265Y0326460D01*
X0503337Y0325662D02*
X0513295Y0325662D01*
X0513360Y0324863D02*
X0503410Y0324863D01*
X0503482Y0324065D02*
X0513751Y0324065D01*
X0514560Y0323266D02*
X0503555Y0323266D01*
X0503627Y0322468D02*
X0521875Y0322468D01*
X0521805Y0323266D02*
X0520985Y0323266D01*
X0521944Y0321669D02*
X0503700Y0321669D01*
X0503772Y0320871D02*
X0517861Y0320871D01*
X0517955Y0320871D02*
X0518756Y0320871D01*
X0518806Y0320072D02*
X0518005Y0320072D01*
X0518055Y0319274D02*
X0518857Y0319274D01*
X0518907Y0318475D02*
X0518105Y0318475D01*
X0518155Y0317677D02*
X0504022Y0317677D01*
X0504018Y0318160D02*
X0504018Y0318160D01*
X0502319Y0336881D01*
X0499098Y0355401D01*
X0494374Y0373596D01*
X0488181Y0391344D01*
X0488181Y0391344D01*
X0480559Y0408527D01*
X0480559Y0408527D01*
X0471559Y0425031D01*
X0461241Y0440744D01*
X0461241Y0440744D01*
X0449675Y0455563D01*
X0436937Y0469387D01*
X0436937Y0469387D01*
X0436937Y0469387D01*
X0423113Y0482125D01*
X0423113Y0482125D01*
X0408294Y0493691D01*
X0392581Y0504009D01*
X0392581Y0504009D01*
X0376077Y0513009D01*
X0358894Y0520631D01*
X0341146Y0526824D01*
X0322951Y0531548D01*
X0322951Y0531548D01*
X0304431Y0534769D01*
X0285710Y0536468D01*
X0276843Y0536545D01*
X0276838Y0536550D01*
X0276305Y0536550D01*
X0275773Y0536555D01*
X0275768Y0536550D01*
X0275325Y0536550D01*
X0274900Y0536125D01*
X0274475Y0536550D01*
X0273025Y0536550D01*
X0272650Y0536175D01*
X0272275Y0536550D01*
X0271832Y0536550D01*
X0271827Y0536555D01*
X0271295Y0536550D01*
X0270762Y0536550D01*
X0270757Y0536545D01*
X0261890Y0536468D01*
X0243169Y0534769D01*
X0224649Y0531548D01*
X0206454Y0526824D01*
X0188706Y0520631D01*
X0171523Y0513009D01*
X0155019Y0504009D01*
X0139306Y0493691D01*
X0124487Y0482125D01*
X0110663Y0469387D01*
X0097925Y0455563D01*
X0097925Y0455563D01*
X0086359Y0440744D01*
X0076041Y0425031D01*
X0076041Y0425031D01*
X0067041Y0408527D01*
X0059419Y0391344D01*
X0053226Y0373596D01*
X0053226Y0373596D01*
X0048502Y0355401D01*
X0048502Y0355401D01*
X0045281Y0336881D01*
X0043582Y0318160D01*
X0043582Y0318160D01*
X0043506Y0309431D01*
X0043050Y0308975D01*
X0043050Y0307525D01*
X0043425Y0307150D01*
X0043050Y0306775D01*
X0043050Y0305325D01*
X0043475Y0304900D01*
X0043050Y0304475D01*
X0043050Y0303025D01*
X0043510Y0302565D01*
X0043582Y0294340D01*
X0045281Y0275619D01*
X0048502Y0257099D01*
X0053226Y0238904D01*
X0059419Y0221156D01*
X0059419Y0221156D01*
X0067041Y0203973D01*
X0067041Y0203973D01*
X0076041Y0187469D01*
X0086359Y0171756D01*
X0086359Y0171756D01*
X0097925Y0156937D01*
X0110663Y0143113D01*
X0110663Y0143113D01*
X0124487Y0130375D01*
X0139306Y0118809D01*
X0155019Y0108491D01*
X0171523Y0099491D01*
X0188706Y0091869D01*
X0206454Y0085676D01*
X0224649Y0080952D01*
X0243169Y0077731D01*
X0261890Y0076032D01*
X0266574Y0075991D01*
X0266488Y0075819D01*
X0266527Y0075700D01*
X0265177Y0071648D01*
X0265751Y0070499D01*
X0266969Y0070093D01*
X0268117Y0070667D01*
X0268161Y0070798D01*
X0268205Y0070667D01*
X0269353Y0070093D01*
X0270571Y0070499D01*
X0270731Y0070819D01*
X0271117Y0070026D01*
X0271373Y0069279D01*
X0272814Y0068250D01*
X0274585Y0068250D01*
X0276026Y0069279D01*
X0276026Y0069279D01*
X0276026Y0069279D01*
X0276282Y0070026D01*
X0276376Y0070218D01*
X0276480Y0070302D01*
X0276499Y0070472D01*
X0276684Y0070851D01*
X0276745Y0070302D01*
X0278818Y0068643D01*
X0279212Y0068250D01*
X0279310Y0068250D01*
X0279387Y0068189D01*
X0279940Y0068250D01*
X0280496Y0068250D01*
X0280565Y0068320D01*
X0280663Y0068330D01*
X0281010Y0068765D01*
X0281404Y0069158D01*
X0281404Y0069256D01*
X0281465Y0069333D01*
X0281404Y0069886D01*
X0281404Y0074150D01*
X0282135Y0074150D01*
X0283043Y0075058D01*
X0283043Y0076009D01*
X0285710Y0076032D01*
X0304431Y0077731D01*
X0322951Y0080952D01*
X0341146Y0085676D01*
X0358894Y0091869D01*
X0376077Y0099491D01*
X0376077Y0099491D01*
X0392581Y0108491D01*
X0408294Y0118809D01*
X0408294Y0118809D01*
X0423113Y0130375D01*
X0436937Y0143113D01*
X0449675Y0156937D01*
X0461241Y0171756D01*
X0471559Y0187469D01*
X0480559Y0203973D01*
X0488181Y0221156D01*
X0494374Y0238904D01*
X0494374Y0238904D01*
X0499098Y0257099D01*
X0502319Y0275619D01*
X0504018Y0294340D01*
X0504095Y0303207D01*
X0504100Y0303212D01*
X0504100Y0303744D01*
X0504105Y0304277D01*
X0504100Y0304282D01*
X0504100Y0304725D01*
X0503675Y0305150D01*
X0504100Y0305575D01*
X0504100Y0307025D01*
X0503725Y0307400D01*
X0504100Y0307775D01*
X0504100Y0308218D01*
X0504105Y0308223D01*
X0504100Y0308755D01*
X0504100Y0309288D01*
X0504095Y0309293D01*
X0504018Y0318160D01*
X0503989Y0318475D02*
X0513514Y0318475D01*
X0513866Y0319274D02*
X0503917Y0319274D01*
X0503844Y0320072D02*
X0514560Y0320072D01*
X0513496Y0316878D02*
X0504029Y0316878D01*
X0504036Y0316080D02*
X0513808Y0316080D01*
X0514459Y0315281D02*
X0504043Y0315281D01*
X0504050Y0314483D02*
X0516343Y0314483D01*
X0516658Y0314483D02*
X0522338Y0314483D01*
X0522361Y0313684D02*
X0504057Y0313684D01*
X0504064Y0312886D02*
X0522383Y0312886D01*
X0518679Y0313946D02*
X0518551Y0317758D01*
X0518206Y0316878D02*
X0519007Y0316878D01*
X0519058Y0316080D02*
X0518256Y0316080D01*
X0518306Y0315281D02*
X0519108Y0315281D01*
X0518800Y0310050D02*
X0513800Y0310050D01*
X0513800Y0310050D01*
X0512600Y0310050D01*
X0506800Y0304250D01*
X0506800Y0301250D01*
X0509100Y0300908D02*
X0510205Y0300908D01*
X0509407Y0300109D02*
X0508912Y0300109D01*
X0509000Y0299311D02*
X0508114Y0299311D01*
X0509000Y0298512D02*
X0504054Y0298512D01*
X0504047Y0297714D02*
X0509083Y0297714D01*
X0509882Y0296915D02*
X0507637Y0296915D01*
X0508436Y0296117D02*
X0509900Y0296117D01*
X0510502Y0295318D02*
X0508850Y0295318D01*
X0508850Y0294520D02*
X0511300Y0294520D01*
X0512099Y0293721D02*
X0508774Y0293721D01*
X0507975Y0292923D02*
X0514715Y0292923D01*
X0512988Y0294812D02*
X0518601Y0294812D01*
X0517527Y0292124D02*
X0508656Y0292124D01*
X0509454Y0291326D02*
X0521987Y0291326D01*
X0522056Y0292124D02*
X0521603Y0292124D01*
X0521917Y0290527D02*
X0510253Y0290527D01*
X0511051Y0289729D02*
X0515719Y0289729D01*
X0515788Y0289729D02*
X0521848Y0289729D01*
X0518099Y0286828D02*
X0511972Y0286828D01*
X0506550Y0292250D01*
X0506550Y0294750D01*
X0504250Y0294520D02*
X0504019Y0294520D01*
X0504018Y0294340D02*
X0504018Y0294340D01*
X0503962Y0293721D02*
X0504326Y0293721D01*
X0503889Y0292923D02*
X0505125Y0292923D01*
X0505150Y0292124D02*
X0503817Y0292124D01*
X0503744Y0291326D02*
X0505494Y0291326D01*
X0506293Y0290527D02*
X0503672Y0290527D01*
X0503600Y0289729D02*
X0507091Y0289729D01*
X0507890Y0288930D02*
X0503527Y0288930D01*
X0503455Y0288132D02*
X0508688Y0288132D01*
X0509487Y0287333D02*
X0503382Y0287333D01*
X0503310Y0286535D02*
X0504706Y0286535D01*
X0503908Y0285736D02*
X0503237Y0285736D01*
X0503165Y0284938D02*
X0503661Y0284938D01*
X0503661Y0284139D02*
X0503092Y0284139D01*
X0503020Y0283341D02*
X0503831Y0283341D01*
X0504629Y0282542D02*
X0502947Y0282542D01*
X0502875Y0281744D02*
X0511047Y0281744D01*
X0513001Y0280945D02*
X0502803Y0280945D01*
X0502730Y0280147D02*
X0512749Y0280147D01*
X0512718Y0279348D02*
X0502658Y0279348D01*
X0502585Y0278550D02*
X0512936Y0278550D01*
X0513513Y0277751D02*
X0502513Y0277751D01*
X0502440Y0276953D02*
X0515425Y0276953D01*
X0516428Y0274557D02*
X0517234Y0274557D01*
X0517633Y0274557D02*
X0520507Y0274557D01*
X0520603Y0275355D02*
X0502274Y0275355D01*
X0502319Y0275619D02*
X0502319Y0275619D01*
X0502368Y0276154D02*
X0520673Y0276154D01*
X0517133Y0273758D02*
X0516327Y0273758D01*
X0516226Y0272960D02*
X0517032Y0272960D01*
X0516931Y0272161D02*
X0516125Y0272161D01*
X0516024Y0271363D02*
X0514592Y0271363D01*
X0514654Y0272161D02*
X0501718Y0272161D01*
X0501579Y0271363D02*
X0511336Y0271363D01*
X0511552Y0270564D02*
X0501440Y0270564D01*
X0501301Y0269766D02*
X0512042Y0269766D01*
X0513042Y0268967D02*
X0501162Y0268967D01*
X0501023Y0268169D02*
X0517934Y0268169D01*
X0518995Y0268169D02*
X0519449Y0268169D01*
X0519317Y0267370D02*
X0500884Y0267370D01*
X0500746Y0266572D02*
X0519185Y0266572D01*
X0519053Y0265773D02*
X0500607Y0265773D01*
X0500468Y0264975D02*
X0518921Y0264975D01*
X0518788Y0264176D02*
X0500329Y0264176D01*
X0500190Y0263378D02*
X0518656Y0263378D01*
X0518524Y0262579D02*
X0500051Y0262579D01*
X0499912Y0261781D02*
X0518392Y0261781D01*
X0518260Y0260982D02*
X0499773Y0260982D01*
X0499634Y0260184D02*
X0518127Y0260184D01*
X0517995Y0259385D02*
X0499495Y0259385D01*
X0499356Y0258587D02*
X0517863Y0258587D01*
X0517731Y0257788D02*
X0499218Y0257788D01*
X0499098Y0257099D02*
X0499098Y0257099D01*
X0499069Y0256990D02*
X0517599Y0256990D01*
X0517466Y0256191D02*
X0498862Y0256191D01*
X0498655Y0255393D02*
X0517295Y0255393D01*
X0517098Y0254594D02*
X0498447Y0254594D01*
X0498240Y0253796D02*
X0516901Y0253796D01*
X0516704Y0252997D02*
X0498033Y0252997D01*
X0497826Y0252199D02*
X0516507Y0252199D01*
X0516311Y0251400D02*
X0497618Y0251400D01*
X0497411Y0250602D02*
X0516114Y0250602D01*
X0515917Y0249803D02*
X0497204Y0249803D01*
X0496996Y0249005D02*
X0515720Y0249005D01*
X0515523Y0248206D02*
X0496789Y0248206D01*
X0496582Y0247408D02*
X0515326Y0247408D01*
X0515129Y0246609D02*
X0496374Y0246609D01*
X0496167Y0245811D02*
X0514932Y0245811D01*
X0514736Y0245012D02*
X0495960Y0245012D01*
X0495753Y0244214D02*
X0514539Y0244214D01*
X0514342Y0243415D02*
X0495545Y0243415D01*
X0495338Y0242617D02*
X0514145Y0242617D01*
X0513948Y0241818D02*
X0495131Y0241818D01*
X0494923Y0241020D02*
X0513751Y0241020D01*
X0513554Y0240221D02*
X0494716Y0240221D01*
X0494509Y0239422D02*
X0513358Y0239422D01*
X0513161Y0238624D02*
X0494277Y0238624D01*
X0493998Y0237825D02*
X0512964Y0237825D01*
X0512756Y0237027D02*
X0493719Y0237027D01*
X0493441Y0236228D02*
X0512492Y0236228D01*
X0512228Y0235430D02*
X0493162Y0235430D01*
X0492883Y0234631D02*
X0511964Y0234631D01*
X0511700Y0233833D02*
X0492605Y0233833D01*
X0492326Y0233034D02*
X0511436Y0233034D01*
X0511172Y0232236D02*
X0492047Y0232236D01*
X0491769Y0231437D02*
X0510908Y0231437D01*
X0510644Y0230639D02*
X0491490Y0230639D01*
X0491211Y0229840D02*
X0510380Y0229840D01*
X0510116Y0229042D02*
X0490933Y0229042D01*
X0490654Y0228243D02*
X0509852Y0228243D01*
X0509587Y0227445D02*
X0490375Y0227445D01*
X0490097Y0226646D02*
X0509323Y0226646D01*
X0509059Y0225848D02*
X0489818Y0225848D01*
X0489540Y0225049D02*
X0508795Y0225049D01*
X0508531Y0224251D02*
X0489261Y0224251D01*
X0488982Y0223452D02*
X0508267Y0223452D01*
X0508003Y0222654D02*
X0488704Y0222654D01*
X0488425Y0221855D02*
X0507739Y0221855D01*
X0507475Y0221057D02*
X0488137Y0221057D01*
X0488181Y0221156D02*
X0488181Y0221156D01*
X0487783Y0220258D02*
X0507211Y0220258D01*
X0506947Y0219460D02*
X0487428Y0219460D01*
X0487074Y0218661D02*
X0506667Y0218661D01*
X0506332Y0217863D02*
X0486720Y0217863D01*
X0486366Y0217064D02*
X0505997Y0217064D01*
X0505662Y0216266D02*
X0486012Y0216266D01*
X0485657Y0215467D02*
X0505327Y0215467D01*
X0504992Y0214669D02*
X0485303Y0214669D01*
X0484949Y0213870D02*
X0504658Y0213870D01*
X0504323Y0213072D02*
X0484595Y0213072D01*
X0484241Y0212273D02*
X0503988Y0212273D01*
X0503653Y0211475D02*
X0483886Y0211475D01*
X0483532Y0210676D02*
X0503318Y0210676D01*
X0502983Y0209878D02*
X0483178Y0209878D01*
X0482824Y0209079D02*
X0502649Y0209079D01*
X0502314Y0208281D02*
X0482470Y0208281D01*
X0482115Y0207482D02*
X0501979Y0207482D01*
X0501644Y0206684D02*
X0481761Y0206684D01*
X0481407Y0205885D02*
X0501309Y0205885D01*
X0500974Y0205087D02*
X0481053Y0205087D01*
X0480699Y0204288D02*
X0500640Y0204288D01*
X0500305Y0203489D02*
X0480295Y0203489D01*
X0480559Y0203973D02*
X0480559Y0203973D01*
X0479860Y0202691D02*
X0499970Y0202691D01*
X0499635Y0201892D02*
X0479424Y0201892D01*
X0478989Y0201094D02*
X0499300Y0201094D01*
X0498894Y0200295D02*
X0478553Y0200295D01*
X0478118Y0199497D02*
X0498483Y0199497D01*
X0498073Y0198698D02*
X0477683Y0198698D01*
X0477247Y0197900D02*
X0497662Y0197900D01*
X0497252Y0197101D02*
X0476812Y0197101D01*
X0476376Y0196303D02*
X0496842Y0196303D01*
X0496431Y0195504D02*
X0475941Y0195504D01*
X0475505Y0194706D02*
X0496021Y0194706D01*
X0495611Y0193907D02*
X0475070Y0193907D01*
X0474634Y0193109D02*
X0495200Y0193109D01*
X0494790Y0192310D02*
X0474199Y0192310D01*
X0473763Y0191512D02*
X0494379Y0191512D01*
X0493969Y0190713D02*
X0473328Y0190713D01*
X0472892Y0189915D02*
X0493559Y0189915D01*
X0493148Y0189116D02*
X0472457Y0189116D01*
X0472022Y0188318D02*
X0492738Y0188318D01*
X0492327Y0187519D02*
X0471586Y0187519D01*
X0471559Y0187469D02*
X0471559Y0187469D01*
X0471067Y0186721D02*
X0491917Y0186721D01*
X0491507Y0185922D02*
X0470543Y0185922D01*
X0470019Y0185124D02*
X0491096Y0185124D01*
X0490686Y0184325D02*
X0469494Y0184325D01*
X0468970Y0183527D02*
X0490237Y0183527D01*
X0489745Y0182728D02*
X0468446Y0182728D01*
X0467922Y0181930D02*
X0489253Y0181930D01*
X0488761Y0181131D02*
X0467397Y0181131D01*
X0466873Y0180333D02*
X0488269Y0180333D01*
X0487776Y0179534D02*
X0466349Y0179534D01*
X0465824Y0178736D02*
X0487284Y0178736D01*
X0486792Y0177937D02*
X0465300Y0177937D01*
X0464776Y0177139D02*
X0486300Y0177139D01*
X0485808Y0176340D02*
X0464251Y0176340D01*
X0463727Y0175542D02*
X0485315Y0175542D01*
X0484823Y0174743D02*
X0463203Y0174743D01*
X0462678Y0173945D02*
X0484331Y0173945D01*
X0483839Y0173146D02*
X0462154Y0173146D01*
X0461630Y0172348D02*
X0483346Y0172348D01*
X0482854Y0171549D02*
X0461080Y0171549D01*
X0461241Y0171756D02*
X0461241Y0171756D01*
X0460457Y0170751D02*
X0482362Y0170751D01*
X0481870Y0169952D02*
X0459833Y0169952D01*
X0459210Y0169153D02*
X0481378Y0169153D01*
X0480885Y0168355D02*
X0458587Y0168355D01*
X0457963Y0167556D02*
X0480393Y0167556D01*
X0479819Y0166758D02*
X0457340Y0166758D01*
X0456717Y0165959D02*
X0479237Y0165959D01*
X0478655Y0165161D02*
X0456094Y0165161D01*
X0455470Y0164362D02*
X0478073Y0164362D01*
X0477490Y0163564D02*
X0454847Y0163564D01*
X0454224Y0162765D02*
X0476908Y0162765D01*
X0476326Y0161967D02*
X0453601Y0161967D01*
X0452977Y0161168D02*
X0475743Y0161168D01*
X0475161Y0160370D02*
X0452354Y0160370D01*
X0451731Y0159571D02*
X0474579Y0159571D01*
X0473997Y0158773D02*
X0451107Y0158773D01*
X0450484Y0157974D02*
X0473414Y0157974D01*
X0472832Y0157176D02*
X0449861Y0157176D01*
X0449675Y0156937D02*
X0449675Y0156937D01*
X0449159Y0156377D02*
X0472250Y0156377D01*
X0471667Y0155579D02*
X0448423Y0155579D01*
X0447687Y0154780D02*
X0471085Y0154780D01*
X0470503Y0153982D02*
X0446951Y0153982D01*
X0446216Y0153183D02*
X0469921Y0153183D01*
X0469338Y0152385D02*
X0445480Y0152385D01*
X0444744Y0151586D02*
X0468717Y0151586D01*
X0468033Y0150788D02*
X0444008Y0150788D01*
X0443273Y0149989D02*
X0467350Y0149989D01*
X0466667Y0149191D02*
X0442537Y0149191D01*
X0441801Y0148392D02*
X0465984Y0148392D01*
X0465301Y0147594D02*
X0441065Y0147594D01*
X0440330Y0146795D02*
X0464617Y0146795D01*
X0463934Y0145997D02*
X0439594Y0145997D01*
X0438858Y0145198D02*
X0463251Y0145198D01*
X0462568Y0144400D02*
X0438122Y0144400D01*
X0437387Y0143601D02*
X0461885Y0143601D01*
X0461201Y0142803D02*
X0436600Y0142803D01*
X0436937Y0143113D02*
X0436937Y0143113D01*
X0436937Y0143113D01*
X0435733Y0142004D02*
X0460518Y0142004D01*
X0459835Y0141206D02*
X0434867Y0141206D01*
X0434000Y0140407D02*
X0459152Y0140407D01*
X0458469Y0139609D02*
X0433133Y0139609D01*
X0432267Y0138810D02*
X0457785Y0138810D01*
X0457102Y0138012D02*
X0431400Y0138012D01*
X0430534Y0137213D02*
X0456415Y0137213D01*
X0455616Y0136415D02*
X0429667Y0136415D01*
X0428800Y0135616D02*
X0454818Y0135616D01*
X0454019Y0134818D02*
X0427934Y0134818D01*
X0427067Y0134019D02*
X0453221Y0134019D01*
X0452422Y0133220D02*
X0426201Y0133220D01*
X0425334Y0132422D02*
X0451624Y0132422D01*
X0450825Y0131623D02*
X0424467Y0131623D01*
X0423601Y0130825D02*
X0450027Y0130825D01*
X0449228Y0130026D02*
X0422666Y0130026D01*
X0423113Y0130375D02*
X0423113Y0130375D01*
X0421643Y0129228D02*
X0448430Y0129228D01*
X0447631Y0128429D02*
X0420620Y0128429D01*
X0419597Y0127631D02*
X0446833Y0127631D01*
X0446034Y0126832D02*
X0418574Y0126832D01*
X0417551Y0126034D02*
X0445236Y0126034D01*
X0444437Y0125235D02*
X0416528Y0125235D01*
X0415505Y0124437D02*
X0443638Y0124437D01*
X0442840Y0123638D02*
X0414482Y0123638D01*
X0413459Y0122840D02*
X0441912Y0122840D01*
X0440979Y0122041D02*
X0412436Y0122041D01*
X0411413Y0121243D02*
X0440046Y0121243D01*
X0439112Y0120444D02*
X0410390Y0120444D01*
X0409367Y0119646D02*
X0438179Y0119646D01*
X0437246Y0118847D02*
X0408344Y0118847D01*
X0407137Y0118049D02*
X0436313Y0118049D01*
X0435379Y0117250D02*
X0405921Y0117250D01*
X0404704Y0116452D02*
X0434446Y0116452D01*
X0433513Y0115653D02*
X0403488Y0115653D01*
X0402272Y0114855D02*
X0432579Y0114855D01*
X0431646Y0114056D02*
X0401056Y0114056D01*
X0399840Y0113258D02*
X0430713Y0113258D01*
X0429780Y0112459D02*
X0398624Y0112459D01*
X0397408Y0111661D02*
X0428846Y0111661D01*
X0427872Y0110862D02*
X0396192Y0110862D01*
X0394976Y0110064D02*
X0426777Y0110064D01*
X0425681Y0109265D02*
X0393760Y0109265D01*
X0392581Y0108491D02*
X0392581Y0108491D01*
X0392536Y0108467D02*
X0424586Y0108467D01*
X0423491Y0107668D02*
X0391072Y0107668D01*
X0389607Y0106870D02*
X0422396Y0106870D01*
X0421301Y0106071D02*
X0388143Y0106071D01*
X0386679Y0105273D02*
X0420206Y0105273D01*
X0419111Y0104474D02*
X0385215Y0104474D01*
X0383750Y0103676D02*
X0418016Y0103676D01*
X0416921Y0102877D02*
X0382286Y0102877D01*
X0380822Y0102079D02*
X0415826Y0102079D01*
X0414731Y0101280D02*
X0379358Y0101280D01*
X0377893Y0100482D02*
X0413636Y0100482D01*
X0412536Y0099683D02*
X0376429Y0099683D01*
X0374710Y0098884D02*
X0411241Y0098884D01*
X0409945Y0098086D02*
X0372909Y0098086D01*
X0371109Y0097287D02*
X0408650Y0097287D01*
X0407354Y0096489D02*
X0369309Y0096489D01*
X0367509Y0095690D02*
X0406059Y0095690D01*
X0404763Y0094892D02*
X0365709Y0094892D01*
X0363909Y0094093D02*
X0403468Y0094093D01*
X0402173Y0093295D02*
X0362108Y0093295D01*
X0360308Y0092496D02*
X0400877Y0092496D01*
X0399582Y0091698D02*
X0358403Y0091698D01*
X0358894Y0091869D02*
X0358894Y0091869D01*
X0356115Y0090899D02*
X0398286Y0090899D01*
X0396991Y0090101D02*
X0353827Y0090101D01*
X0351539Y0089302D02*
X0395605Y0089302D01*
X0394051Y0088504D02*
X0349250Y0088504D01*
X0346962Y0087705D02*
X0392497Y0087705D01*
X0390944Y0086907D02*
X0344674Y0086907D01*
X0342386Y0086108D02*
X0389390Y0086108D01*
X0387836Y0085310D02*
X0339736Y0085310D01*
X0341146Y0085676D02*
X0341146Y0085676D01*
X0336660Y0084511D02*
X0386282Y0084511D01*
X0384729Y0083713D02*
X0333584Y0083713D01*
X0330509Y0082914D02*
X0383175Y0082914D01*
X0381621Y0082116D02*
X0327433Y0082116D01*
X0324357Y0081317D02*
X0380067Y0081317D01*
X0378405Y0080519D02*
X0320458Y0080519D01*
X0322951Y0080952D02*
X0322951Y0080952D01*
X0315868Y0079720D02*
X0376501Y0079720D01*
X0374596Y0078922D02*
X0311278Y0078922D01*
X0306688Y0078123D02*
X0372692Y0078123D01*
X0370788Y0077325D02*
X0299957Y0077325D01*
X0304431Y0077731D02*
X0304431Y0077731D01*
X0291156Y0076526D02*
X0368884Y0076526D01*
X0366979Y0075728D02*
X0283043Y0075728D01*
X0282914Y0074929D02*
X0365075Y0074929D01*
X0363171Y0074131D02*
X0281404Y0074131D01*
X0281404Y0073332D02*
X0361267Y0073332D01*
X0358867Y0072534D02*
X0281404Y0072534D01*
X0281404Y0071735D02*
X0356453Y0071735D01*
X0354039Y0070937D02*
X0281404Y0070937D01*
X0281404Y0070138D02*
X0351624Y0070138D01*
X0349210Y0069340D02*
X0281464Y0069340D01*
X0280832Y0068541D02*
X0346795Y0068541D01*
X0344381Y0067743D02*
X0203219Y0067743D01*
X0200805Y0068541D02*
X0272407Y0068541D01*
X0271373Y0069279D02*
X0271373Y0069279D01*
X0271353Y0069340D02*
X0198390Y0069340D01*
X0195976Y0070138D02*
X0266834Y0070138D01*
X0267059Y0070138D02*
X0269263Y0070138D01*
X0269488Y0070138D02*
X0271063Y0070138D01*
X0274993Y0068541D02*
X0278921Y0068541D01*
X0277948Y0069340D02*
X0276047Y0069340D01*
X0276337Y0070138D02*
X0276950Y0070138D01*
X0285710Y0076032D02*
X0285710Y0076032D01*
X0289845Y0058160D02*
X0257755Y0058160D01*
X0248535Y0058959D02*
X0299065Y0058959D01*
X0306787Y0059757D02*
X0240813Y0059757D01*
X0235989Y0060556D02*
X0311611Y0060556D01*
X0316434Y0061354D02*
X0231166Y0061354D01*
X0226342Y0062153D02*
X0321258Y0062153D01*
X0325454Y0062951D02*
X0222146Y0062951D01*
X0218907Y0063750D02*
X0328693Y0063750D01*
X0331932Y0064549D02*
X0215668Y0064549D01*
X0212430Y0065347D02*
X0335170Y0065347D01*
X0338409Y0066146D02*
X0209191Y0066146D01*
X0205952Y0066944D02*
X0341648Y0066944D01*
X0275137Y0057362D02*
X0274663Y0057362D01*
X0272837Y0057362D02*
X0272463Y0057362D01*
X0265532Y0070937D02*
X0193561Y0070937D01*
X0191147Y0071735D02*
X0265206Y0071735D01*
X0265472Y0072534D02*
X0188733Y0072534D01*
X0186333Y0073332D02*
X0265738Y0073332D01*
X0266004Y0074131D02*
X0184429Y0074131D01*
X0182525Y0074929D02*
X0266270Y0074929D01*
X0266518Y0075728D02*
X0180621Y0075728D01*
X0178716Y0076526D02*
X0256444Y0076526D01*
X0247643Y0077325D02*
X0176812Y0077325D01*
X0174908Y0078123D02*
X0240912Y0078123D01*
X0236322Y0078922D02*
X0173004Y0078922D01*
X0171099Y0079720D02*
X0231732Y0079720D01*
X0227142Y0080519D02*
X0169195Y0080519D01*
X0167533Y0081317D02*
X0223243Y0081317D01*
X0220167Y0082116D02*
X0165979Y0082116D01*
X0164425Y0082914D02*
X0217091Y0082914D01*
X0214016Y0083713D02*
X0162871Y0083713D01*
X0161318Y0084511D02*
X0210940Y0084511D01*
X0207864Y0085310D02*
X0159764Y0085310D01*
X0158210Y0086108D02*
X0205214Y0086108D01*
X0202926Y0086907D02*
X0156656Y0086907D01*
X0155103Y0087705D02*
X0200638Y0087705D01*
X0198350Y0088504D02*
X0153549Y0088504D01*
X0151995Y0089302D02*
X0196061Y0089302D01*
X0193773Y0090101D02*
X0150609Y0090101D01*
X0149314Y0090899D02*
X0191485Y0090899D01*
X0189197Y0091698D02*
X0148018Y0091698D01*
X0146723Y0092496D02*
X0187292Y0092496D01*
X0185492Y0093295D02*
X0145427Y0093295D01*
X0144132Y0094093D02*
X0183691Y0094093D01*
X0181891Y0094892D02*
X0142836Y0094892D01*
X0141541Y0095690D02*
X0180091Y0095690D01*
X0178291Y0096489D02*
X0140246Y0096489D01*
X0138950Y0097287D02*
X0176491Y0097287D01*
X0174691Y0098086D02*
X0137655Y0098086D01*
X0136359Y0098884D02*
X0172890Y0098884D01*
X0171171Y0099683D02*
X0135064Y0099683D01*
X0133964Y0100482D02*
X0169707Y0100482D01*
X0168242Y0101280D02*
X0132869Y0101280D01*
X0131774Y0102079D02*
X0166778Y0102079D01*
X0165314Y0102877D02*
X0130679Y0102877D01*
X0129584Y0103676D02*
X0163850Y0103676D01*
X0162385Y0104474D02*
X0128489Y0104474D01*
X0127394Y0105273D02*
X0160921Y0105273D01*
X0159457Y0106071D02*
X0126299Y0106071D01*
X0125204Y0106870D02*
X0157993Y0106870D01*
X0156528Y0107668D02*
X0124109Y0107668D01*
X0123014Y0108467D02*
X0155064Y0108467D01*
X0153840Y0109265D02*
X0121919Y0109265D01*
X0120823Y0110064D02*
X0152624Y0110064D01*
X0151408Y0110862D02*
X0119728Y0110862D01*
X0118754Y0111661D02*
X0150192Y0111661D01*
X0148976Y0112459D02*
X0117820Y0112459D01*
X0116887Y0113258D02*
X0147760Y0113258D01*
X0146544Y0114056D02*
X0115954Y0114056D01*
X0115021Y0114855D02*
X0145328Y0114855D01*
X0144112Y0115653D02*
X0114087Y0115653D01*
X0113154Y0116452D02*
X0142895Y0116452D01*
X0141679Y0117250D02*
X0112221Y0117250D01*
X0111287Y0118049D02*
X0140463Y0118049D01*
X0139306Y0118809D02*
X0139306Y0118809D01*
X0139256Y0118847D02*
X0110354Y0118847D01*
X0109421Y0119646D02*
X0138233Y0119646D01*
X0137210Y0120444D02*
X0108488Y0120444D01*
X0104793Y0123605D02*
X0091155Y0137243D01*
X0078617Y0151898D01*
X0067253Y0167481D01*
X0057133Y0183900D01*
X0048317Y0201054D01*
X0040858Y0218840D01*
X0034802Y0237151D01*
X0030186Y0255877D01*
X0027036Y0274905D01*
X0025371Y0294120D01*
X0025123Y0302948D01*
X0025500Y0303325D01*
X0025500Y0304775D01*
X0025075Y0305200D01*
X0025500Y0305625D01*
X0025500Y0307075D01*
X0025125Y0307450D01*
X0025500Y0307825D01*
X0025500Y0309275D01*
X0025126Y0309649D01*
X0025371Y0318380D01*
X0027036Y0337595D01*
X0030186Y0356623D01*
X0034802Y0375349D01*
X0040858Y0393660D01*
X0048317Y0411446D01*
X0057133Y0428600D01*
X0067253Y0445019D01*
X0078617Y0460602D01*
X0091155Y0475257D01*
X0104793Y0488895D01*
X0119448Y0501433D01*
X0135031Y0512797D01*
X0151450Y0522917D01*
X0168604Y0531733D01*
X0186390Y0539192D01*
X0204701Y0545248D01*
X0223427Y0549864D01*
X0242455Y0553014D01*
X0261670Y0554679D01*
X0271310Y0554950D01*
X0272275Y0554950D01*
X0272650Y0555325D01*
X0273025Y0554950D01*
X0274475Y0554950D01*
X0274900Y0555375D01*
X0275325Y0554950D01*
X0276290Y0554950D01*
X0285930Y0554679D01*
X0305145Y0553014D01*
X0324173Y0549864D01*
X0342899Y0545248D01*
X0361210Y0539192D01*
X0378996Y0531733D01*
X0396150Y0522917D01*
X0412569Y0512797D01*
X0428152Y0501433D01*
X0442807Y0488895D01*
X0456445Y0475257D01*
X0468983Y0460602D01*
X0480347Y0445019D01*
X0490467Y0428600D01*
X0499283Y0411446D01*
X0506742Y0393660D01*
X0512798Y0375349D01*
X0517414Y0356623D01*
X0520564Y0337595D01*
X0521368Y0328322D01*
X0520418Y0328647D01*
X0520350Y0328642D01*
X0520350Y0330453D01*
X0521183Y0330453D01*
X0521114Y0331251D02*
X0519551Y0331251D01*
X0519003Y0331800D02*
X0517097Y0331800D01*
X0519003Y0331800D02*
X0520350Y0330453D01*
X0520350Y0329654D02*
X0521252Y0329654D01*
X0521321Y0328856D02*
X0520350Y0328856D01*
X0521045Y0332050D02*
X0502758Y0332050D01*
X0502685Y0332848D02*
X0520976Y0332848D01*
X0520906Y0333647D02*
X0502613Y0333647D01*
X0502540Y0334445D02*
X0520837Y0334445D01*
X0520768Y0335244D02*
X0502468Y0335244D01*
X0502395Y0336042D02*
X0520699Y0336042D01*
X0520630Y0336841D02*
X0502323Y0336841D01*
X0502319Y0336881D02*
X0502319Y0336881D01*
X0502187Y0337639D02*
X0520557Y0337639D01*
X0520425Y0338438D02*
X0502049Y0338438D01*
X0501910Y0339236D02*
X0520293Y0339236D01*
X0520161Y0340035D02*
X0501771Y0340035D01*
X0501632Y0340833D02*
X0520028Y0340833D01*
X0519896Y0341632D02*
X0501493Y0341632D01*
X0501354Y0342430D02*
X0519764Y0342430D01*
X0519632Y0343229D02*
X0501215Y0343229D01*
X0501076Y0344027D02*
X0519500Y0344027D01*
X0519367Y0344826D02*
X0500937Y0344826D01*
X0500798Y0345624D02*
X0519235Y0345624D01*
X0519103Y0346423D02*
X0500659Y0346423D01*
X0500521Y0347222D02*
X0518971Y0347222D01*
X0518839Y0348020D02*
X0500382Y0348020D01*
X0500243Y0348819D02*
X0518706Y0348819D01*
X0518574Y0349617D02*
X0500104Y0349617D01*
X0499965Y0350416D02*
X0518442Y0350416D01*
X0518310Y0351214D02*
X0499826Y0351214D01*
X0499687Y0352013D02*
X0518178Y0352013D01*
X0518045Y0352811D02*
X0499548Y0352811D01*
X0499409Y0353610D02*
X0517913Y0353610D01*
X0517781Y0354408D02*
X0499270Y0354408D01*
X0499131Y0355207D02*
X0517649Y0355207D01*
X0517517Y0356005D02*
X0498941Y0356005D01*
X0499098Y0355401D02*
X0499098Y0355401D01*
X0498734Y0356804D02*
X0517370Y0356804D01*
X0517173Y0357602D02*
X0498526Y0357602D01*
X0498319Y0358401D02*
X0516976Y0358401D01*
X0516779Y0359199D02*
X0498112Y0359199D01*
X0497904Y0359998D02*
X0516582Y0359998D01*
X0516385Y0360796D02*
X0497697Y0360796D01*
X0497490Y0361595D02*
X0516189Y0361595D01*
X0515992Y0362393D02*
X0497282Y0362393D01*
X0497075Y0363192D02*
X0515795Y0363192D01*
X0515598Y0363990D02*
X0496868Y0363990D01*
X0496661Y0364789D02*
X0515401Y0364789D01*
X0515204Y0365587D02*
X0496453Y0365587D01*
X0496246Y0366386D02*
X0515007Y0366386D01*
X0514810Y0367184D02*
X0496039Y0367184D01*
X0495831Y0367983D02*
X0514614Y0367983D01*
X0514417Y0368781D02*
X0495624Y0368781D01*
X0495417Y0369580D02*
X0514220Y0369580D01*
X0514023Y0370378D02*
X0495210Y0370378D01*
X0495002Y0371177D02*
X0513826Y0371177D01*
X0513629Y0371975D02*
X0494795Y0371975D01*
X0494588Y0372774D02*
X0513432Y0372774D01*
X0513235Y0373572D02*
X0494380Y0373572D01*
X0494374Y0373596D02*
X0494374Y0373596D01*
X0494104Y0374371D02*
X0513039Y0374371D01*
X0512842Y0375169D02*
X0493825Y0375169D01*
X0493547Y0375968D02*
X0512593Y0375968D01*
X0512329Y0376766D02*
X0493268Y0376766D01*
X0492989Y0377565D02*
X0512065Y0377565D01*
X0511800Y0378363D02*
X0492711Y0378363D01*
X0492432Y0379162D02*
X0511536Y0379162D01*
X0511272Y0379960D02*
X0492153Y0379960D01*
X0491875Y0380759D02*
X0511008Y0380759D01*
X0510744Y0381558D02*
X0491596Y0381558D01*
X0491317Y0382356D02*
X0510480Y0382356D01*
X0510216Y0383155D02*
X0491039Y0383155D01*
X0490760Y0383953D02*
X0509952Y0383953D01*
X0509688Y0384752D02*
X0490481Y0384752D01*
X0490203Y0385550D02*
X0509424Y0385550D01*
X0509160Y0386349D02*
X0489924Y0386349D01*
X0489645Y0387147D02*
X0508896Y0387147D01*
X0508631Y0387946D02*
X0489367Y0387946D01*
X0489088Y0388744D02*
X0508367Y0388744D01*
X0508103Y0389543D02*
X0488810Y0389543D01*
X0488531Y0390341D02*
X0507839Y0390341D01*
X0507575Y0391140D02*
X0488252Y0391140D01*
X0487917Y0391938D02*
X0507311Y0391938D01*
X0507047Y0392737D02*
X0487563Y0392737D01*
X0487209Y0393535D02*
X0506783Y0393535D01*
X0506459Y0394334D02*
X0486855Y0394334D01*
X0486501Y0395132D02*
X0506124Y0395132D01*
X0505789Y0395931D02*
X0486146Y0395931D01*
X0485792Y0396729D02*
X0505455Y0396729D01*
X0505120Y0397528D02*
X0485438Y0397528D01*
X0485084Y0398326D02*
X0504785Y0398326D01*
X0504450Y0399125D02*
X0484730Y0399125D01*
X0484375Y0399923D02*
X0504115Y0399923D01*
X0503780Y0400722D02*
X0484021Y0400722D01*
X0483667Y0401520D02*
X0503446Y0401520D01*
X0503111Y0402319D02*
X0483313Y0402319D01*
X0482959Y0403117D02*
X0502776Y0403117D01*
X0502441Y0403916D02*
X0482604Y0403916D01*
X0482250Y0404714D02*
X0502106Y0404714D01*
X0501771Y0405513D02*
X0481896Y0405513D01*
X0481542Y0406311D02*
X0501436Y0406311D01*
X0501102Y0407110D02*
X0481188Y0407110D01*
X0480833Y0407908D02*
X0500767Y0407908D01*
X0500432Y0408707D02*
X0480461Y0408707D01*
X0480025Y0409505D02*
X0500097Y0409505D01*
X0499762Y0410304D02*
X0479590Y0410304D01*
X0479154Y0411102D02*
X0499427Y0411102D01*
X0499050Y0411901D02*
X0478719Y0411901D01*
X0478284Y0412699D02*
X0498639Y0412699D01*
X0498229Y0413498D02*
X0477848Y0413498D01*
X0477413Y0414296D02*
X0497818Y0414296D01*
X0497408Y0415095D02*
X0476977Y0415095D01*
X0476542Y0415893D02*
X0496998Y0415893D01*
X0496587Y0416692D02*
X0476106Y0416692D01*
X0475671Y0417491D02*
X0496177Y0417491D01*
X0495767Y0418289D02*
X0475235Y0418289D01*
X0474800Y0419088D02*
X0495356Y0419088D01*
X0494946Y0419886D02*
X0474364Y0419886D01*
X0473929Y0420685D02*
X0494535Y0420685D01*
X0494125Y0421483D02*
X0473494Y0421483D01*
X0473058Y0422282D02*
X0493715Y0422282D01*
X0493304Y0423080D02*
X0472623Y0423080D01*
X0472187Y0423879D02*
X0492894Y0423879D01*
X0492484Y0424677D02*
X0471752Y0424677D01*
X0471559Y0425031D02*
X0471559Y0425031D01*
X0471267Y0425476D02*
X0492073Y0425476D01*
X0491663Y0426274D02*
X0470742Y0426274D01*
X0470218Y0427073D02*
X0491252Y0427073D01*
X0490842Y0427871D02*
X0469694Y0427871D01*
X0469170Y0428670D02*
X0490425Y0428670D01*
X0489932Y0429468D02*
X0468645Y0429468D01*
X0468121Y0430267D02*
X0489440Y0430267D01*
X0488948Y0431065D02*
X0467597Y0431065D01*
X0467072Y0431864D02*
X0488456Y0431864D01*
X0487963Y0432662D02*
X0466548Y0432662D01*
X0466024Y0433461D02*
X0487471Y0433461D01*
X0486979Y0434259D02*
X0465499Y0434259D01*
X0464975Y0435058D02*
X0486487Y0435058D01*
X0485995Y0435856D02*
X0464451Y0435856D01*
X0463926Y0436655D02*
X0485502Y0436655D01*
X0485010Y0437453D02*
X0463402Y0437453D01*
X0462878Y0438252D02*
X0484518Y0438252D01*
X0484026Y0439050D02*
X0462353Y0439050D01*
X0461829Y0439849D02*
X0483534Y0439849D01*
X0483041Y0440647D02*
X0461305Y0440647D01*
X0460694Y0441446D02*
X0482549Y0441446D01*
X0482057Y0442244D02*
X0460070Y0442244D01*
X0459447Y0443043D02*
X0481565Y0443043D01*
X0481073Y0443841D02*
X0458824Y0443841D01*
X0458200Y0444640D02*
X0480580Y0444640D01*
X0480041Y0445438D02*
X0457577Y0445438D01*
X0456954Y0446237D02*
X0479458Y0446237D01*
X0478876Y0447035D02*
X0456331Y0447035D01*
X0455707Y0447834D02*
X0478294Y0447834D01*
X0477712Y0448632D02*
X0455084Y0448632D01*
X0454461Y0449431D02*
X0477129Y0449431D01*
X0476547Y0450229D02*
X0453838Y0450229D01*
X0453214Y0451028D02*
X0475965Y0451028D01*
X0475382Y0451827D02*
X0452591Y0451827D01*
X0451968Y0452625D02*
X0474800Y0452625D01*
X0474218Y0453424D02*
X0451344Y0453424D01*
X0450721Y0454222D02*
X0473636Y0454222D01*
X0473053Y0455021D02*
X0450098Y0455021D01*
X0449675Y0455563D02*
X0449675Y0455563D01*
X0449438Y0455819D02*
X0472471Y0455819D01*
X0471889Y0456618D02*
X0448703Y0456618D01*
X0447967Y0457416D02*
X0471306Y0457416D01*
X0470724Y0458215D02*
X0447231Y0458215D01*
X0446495Y0459013D02*
X0470142Y0459013D01*
X0469560Y0459812D02*
X0445760Y0459812D01*
X0445024Y0460610D02*
X0468976Y0460610D01*
X0468293Y0461409D02*
X0444288Y0461409D01*
X0443552Y0462207D02*
X0467610Y0462207D01*
X0466927Y0463006D02*
X0442817Y0463006D01*
X0442081Y0463804D02*
X0466244Y0463804D01*
X0465560Y0464603D02*
X0441345Y0464603D01*
X0440609Y0465401D02*
X0464877Y0465401D01*
X0464194Y0466200D02*
X0439874Y0466200D01*
X0439138Y0466998D02*
X0463511Y0466998D01*
X0462828Y0467797D02*
X0438402Y0467797D01*
X0437666Y0468595D02*
X0462144Y0468595D01*
X0461461Y0469394D02*
X0436929Y0469394D01*
X0436063Y0470192D02*
X0460778Y0470192D01*
X0460095Y0470991D02*
X0435196Y0470991D01*
X0434330Y0471789D02*
X0459412Y0471789D01*
X0458728Y0472588D02*
X0433463Y0472588D01*
X0432596Y0473386D02*
X0458045Y0473386D01*
X0457362Y0474185D02*
X0431730Y0474185D01*
X0430863Y0474983D02*
X0456679Y0474983D01*
X0455920Y0475782D02*
X0429997Y0475782D01*
X0429130Y0476580D02*
X0455121Y0476580D01*
X0454323Y0477379D02*
X0428263Y0477379D01*
X0427397Y0478177D02*
X0453524Y0478177D01*
X0452726Y0478976D02*
X0426530Y0478976D01*
X0425663Y0479774D02*
X0451927Y0479774D01*
X0451129Y0480573D02*
X0424797Y0480573D01*
X0423930Y0481371D02*
X0450330Y0481371D01*
X0449532Y0482170D02*
X0423055Y0482170D01*
X0422032Y0482968D02*
X0448733Y0482968D01*
X0447935Y0483767D02*
X0421009Y0483767D01*
X0419986Y0484565D02*
X0447136Y0484565D01*
X0446338Y0485364D02*
X0418963Y0485364D01*
X0417940Y0486162D02*
X0445539Y0486162D01*
X0444741Y0486961D02*
X0416917Y0486961D01*
X0415894Y0487760D02*
X0443942Y0487760D01*
X0443144Y0488558D02*
X0414871Y0488558D01*
X0413848Y0489357D02*
X0442267Y0489357D01*
X0441334Y0490155D02*
X0412825Y0490155D01*
X0411802Y0490954D02*
X0440401Y0490954D01*
X0439467Y0491752D02*
X0410779Y0491752D01*
X0409756Y0492551D02*
X0438534Y0492551D01*
X0437601Y0493349D02*
X0408733Y0493349D01*
X0408294Y0493691D02*
X0408294Y0493691D01*
X0407599Y0494148D02*
X0436667Y0494148D01*
X0435734Y0494946D02*
X0406383Y0494946D01*
X0405167Y0495745D02*
X0434801Y0495745D01*
X0433868Y0496543D02*
X0403951Y0496543D01*
X0402735Y0497342D02*
X0432934Y0497342D01*
X0432001Y0498140D02*
X0401519Y0498140D01*
X0400302Y0498939D02*
X0431068Y0498939D01*
X0430134Y0499737D02*
X0399086Y0499737D01*
X0397870Y0500536D02*
X0429201Y0500536D01*
X0428268Y0501334D02*
X0396654Y0501334D01*
X0395438Y0502133D02*
X0427193Y0502133D01*
X0426098Y0502931D02*
X0394222Y0502931D01*
X0393006Y0503730D02*
X0425003Y0503730D01*
X0423908Y0504528D02*
X0391628Y0504528D01*
X0390164Y0505327D02*
X0422813Y0505327D01*
X0421718Y0506125D02*
X0388700Y0506125D01*
X0387236Y0506924D02*
X0420623Y0506924D01*
X0419528Y0507722D02*
X0385771Y0507722D01*
X0384307Y0508521D02*
X0418433Y0508521D01*
X0417338Y0509319D02*
X0382843Y0509319D01*
X0381379Y0510118D02*
X0416243Y0510118D01*
X0415147Y0510916D02*
X0379914Y0510916D01*
X0378450Y0511715D02*
X0414052Y0511715D01*
X0412957Y0512513D02*
X0376986Y0512513D01*
X0376077Y0513009D02*
X0376077Y0513009D01*
X0375394Y0513312D02*
X0411733Y0513312D01*
X0410438Y0514110D02*
X0373594Y0514110D01*
X0371794Y0514909D02*
X0409142Y0514909D01*
X0407847Y0515707D02*
X0369994Y0515707D01*
X0368193Y0516506D02*
X0406551Y0516506D01*
X0405256Y0517304D02*
X0366393Y0517304D01*
X0364593Y0518103D02*
X0403961Y0518103D01*
X0402665Y0518901D02*
X0362793Y0518901D01*
X0360993Y0519700D02*
X0401370Y0519700D01*
X0400074Y0520498D02*
X0359193Y0520498D01*
X0358894Y0520631D02*
X0358894Y0520631D01*
X0356985Y0521297D02*
X0398779Y0521297D01*
X0397483Y0522095D02*
X0354697Y0522095D01*
X0352409Y0522894D02*
X0396188Y0522894D01*
X0394642Y0523693D02*
X0350120Y0523693D01*
X0347832Y0524491D02*
X0393088Y0524491D01*
X0391534Y0525290D02*
X0345544Y0525290D01*
X0343256Y0526088D02*
X0389981Y0526088D01*
X0388427Y0526887D02*
X0340906Y0526887D01*
X0341146Y0526824D02*
X0341146Y0526824D01*
X0337830Y0527685D02*
X0386873Y0527685D01*
X0385319Y0528484D02*
X0334754Y0528484D01*
X0331678Y0529282D02*
X0383766Y0529282D01*
X0382212Y0530081D02*
X0328602Y0530081D01*
X0325526Y0530879D02*
X0380658Y0530879D01*
X0379105Y0531678D02*
X0322204Y0531678D01*
X0317614Y0532476D02*
X0377225Y0532476D01*
X0375320Y0533275D02*
X0313023Y0533275D01*
X0308433Y0534073D02*
X0373416Y0534073D01*
X0371512Y0534872D02*
X0303303Y0534872D01*
X0294502Y0535670D02*
X0369608Y0535670D01*
X0367704Y0536469D02*
X0285620Y0536469D01*
X0275244Y0536469D02*
X0274556Y0536469D01*
X0272944Y0536469D02*
X0272356Y0536469D01*
X0261980Y0536469D02*
X0179896Y0536469D01*
X0177992Y0535670D02*
X0253098Y0535670D01*
X0244297Y0534872D02*
X0176088Y0534872D01*
X0174184Y0534073D02*
X0239167Y0534073D01*
X0234577Y0533275D02*
X0172280Y0533275D01*
X0170375Y0532476D02*
X0229986Y0532476D01*
X0225396Y0531678D02*
X0168495Y0531678D01*
X0166942Y0530879D02*
X0222074Y0530879D01*
X0218998Y0530081D02*
X0165388Y0530081D01*
X0163834Y0529282D02*
X0215922Y0529282D01*
X0212846Y0528484D02*
X0162281Y0528484D01*
X0160727Y0527685D02*
X0209770Y0527685D01*
X0206694Y0526887D02*
X0159173Y0526887D01*
X0157619Y0526088D02*
X0204344Y0526088D01*
X0202056Y0525290D02*
X0156066Y0525290D01*
X0154512Y0524491D02*
X0199768Y0524491D01*
X0197480Y0523693D02*
X0152958Y0523693D01*
X0151412Y0522894D02*
X0195191Y0522894D01*
X0192903Y0522095D02*
X0150116Y0522095D01*
X0148821Y0521297D02*
X0190615Y0521297D01*
X0188407Y0520498D02*
X0147526Y0520498D01*
X0146230Y0519700D02*
X0186607Y0519700D01*
X0184807Y0518901D02*
X0144935Y0518901D01*
X0143639Y0518103D02*
X0183007Y0518103D01*
X0181207Y0517304D02*
X0142344Y0517304D01*
X0141049Y0516506D02*
X0179407Y0516506D01*
X0177606Y0515707D02*
X0139753Y0515707D01*
X0138458Y0514909D02*
X0175806Y0514909D01*
X0174006Y0514110D02*
X0137162Y0514110D01*
X0135867Y0513312D02*
X0172206Y0513312D01*
X0170614Y0512513D02*
X0134643Y0512513D01*
X0133548Y0511715D02*
X0169150Y0511715D01*
X0167686Y0510916D02*
X0132452Y0510916D01*
X0131357Y0510118D02*
X0166221Y0510118D01*
X0164757Y0509319D02*
X0130262Y0509319D01*
X0129167Y0508521D02*
X0163293Y0508521D01*
X0161829Y0507722D02*
X0128072Y0507722D01*
X0126977Y0506924D02*
X0160364Y0506924D01*
X0158900Y0506125D02*
X0125882Y0506125D01*
X0124787Y0505327D02*
X0157436Y0505327D01*
X0155972Y0504528D02*
X0123692Y0504528D01*
X0122597Y0503730D02*
X0154594Y0503730D01*
X0153378Y0502931D02*
X0121502Y0502931D01*
X0120407Y0502133D02*
X0152162Y0502133D01*
X0150946Y0501334D02*
X0119332Y0501334D01*
X0118399Y0500536D02*
X0149730Y0500536D01*
X0148514Y0499737D02*
X0117466Y0499737D01*
X0116532Y0498939D02*
X0147298Y0498939D01*
X0146081Y0498140D02*
X0115599Y0498140D01*
X0114666Y0497342D02*
X0144865Y0497342D01*
X0143649Y0496543D02*
X0113732Y0496543D01*
X0112799Y0495745D02*
X0142433Y0495745D01*
X0141217Y0494946D02*
X0111866Y0494946D01*
X0110933Y0494148D02*
X0140001Y0494148D01*
X0138867Y0493349D02*
X0109999Y0493349D01*
X0109066Y0492551D02*
X0137844Y0492551D01*
X0136821Y0491752D02*
X0108133Y0491752D01*
X0107199Y0490954D02*
X0135798Y0490954D01*
X0134775Y0490155D02*
X0106266Y0490155D01*
X0105333Y0489357D02*
X0133752Y0489357D01*
X0132729Y0488558D02*
X0104456Y0488558D01*
X0103658Y0487760D02*
X0131706Y0487760D01*
X0130683Y0486961D02*
X0102859Y0486961D01*
X0102061Y0486162D02*
X0129660Y0486162D01*
X0128637Y0485364D02*
X0101262Y0485364D01*
X0100464Y0484565D02*
X0127614Y0484565D01*
X0126591Y0483767D02*
X0099665Y0483767D01*
X0098867Y0482968D02*
X0125568Y0482968D01*
X0124545Y0482170D02*
X0098068Y0482170D01*
X0097270Y0481371D02*
X0123670Y0481371D01*
X0124487Y0482125D02*
X0124487Y0482125D01*
X0122803Y0480573D02*
X0096471Y0480573D01*
X0095673Y0479774D02*
X0121937Y0479774D01*
X0121070Y0478976D02*
X0094874Y0478976D01*
X0094076Y0478177D02*
X0120203Y0478177D01*
X0119337Y0477379D02*
X0093277Y0477379D01*
X0092479Y0476580D02*
X0118470Y0476580D01*
X0117603Y0475782D02*
X0091680Y0475782D01*
X0090921Y0474983D02*
X0116737Y0474983D01*
X0115870Y0474185D02*
X0090238Y0474185D01*
X0089555Y0473386D02*
X0115004Y0473386D01*
X0114137Y0472588D02*
X0088872Y0472588D01*
X0088188Y0471789D02*
X0113270Y0471789D01*
X0112404Y0470991D02*
X0087505Y0470991D01*
X0086822Y0470192D02*
X0111537Y0470192D01*
X0110671Y0469394D02*
X0086139Y0469394D01*
X0085456Y0468595D02*
X0109934Y0468595D01*
X0110663Y0469387D02*
X0110663Y0469387D01*
X0109198Y0467797D02*
X0084772Y0467797D01*
X0084089Y0466998D02*
X0108462Y0466998D01*
X0107726Y0466200D02*
X0083406Y0466200D01*
X0082723Y0465401D02*
X0106991Y0465401D01*
X0106255Y0464603D02*
X0082040Y0464603D01*
X0081356Y0463804D02*
X0105519Y0463804D01*
X0104783Y0463006D02*
X0080673Y0463006D01*
X0079990Y0462207D02*
X0104048Y0462207D01*
X0103312Y0461409D02*
X0079307Y0461409D01*
X0078624Y0460610D02*
X0102576Y0460610D01*
X0101840Y0459812D02*
X0078040Y0459812D01*
X0077458Y0459013D02*
X0101105Y0459013D01*
X0100369Y0458215D02*
X0076876Y0458215D01*
X0076293Y0457416D02*
X0099633Y0457416D01*
X0098897Y0456618D02*
X0075711Y0456618D01*
X0075129Y0455819D02*
X0098162Y0455819D01*
X0097502Y0455021D02*
X0074547Y0455021D01*
X0073964Y0454222D02*
X0096879Y0454222D01*
X0096256Y0453424D02*
X0073382Y0453424D01*
X0072800Y0452625D02*
X0095632Y0452625D01*
X0095009Y0451827D02*
X0072217Y0451827D01*
X0071635Y0451028D02*
X0094386Y0451028D01*
X0093762Y0450229D02*
X0071053Y0450229D01*
X0070471Y0449431D02*
X0093139Y0449431D01*
X0092516Y0448632D02*
X0069888Y0448632D01*
X0069306Y0447834D02*
X0091893Y0447834D01*
X0091269Y0447035D02*
X0068724Y0447035D01*
X0068141Y0446237D02*
X0090646Y0446237D01*
X0090023Y0445438D02*
X0067559Y0445438D01*
X0067020Y0444640D02*
X0089400Y0444640D01*
X0088776Y0443841D02*
X0066527Y0443841D01*
X0066035Y0443043D02*
X0088153Y0443043D01*
X0087530Y0442244D02*
X0065543Y0442244D01*
X0065051Y0441446D02*
X0086906Y0441446D01*
X0086359Y0440744D02*
X0086359Y0440744D01*
X0086295Y0440647D02*
X0064559Y0440647D01*
X0064066Y0439849D02*
X0085771Y0439849D01*
X0085247Y0439050D02*
X0063574Y0439050D01*
X0063082Y0438252D02*
X0084722Y0438252D01*
X0084198Y0437453D02*
X0062590Y0437453D01*
X0062098Y0436655D02*
X0083674Y0436655D01*
X0083149Y0435856D02*
X0061605Y0435856D01*
X0061113Y0435058D02*
X0082625Y0435058D01*
X0082101Y0434259D02*
X0060621Y0434259D01*
X0060129Y0433461D02*
X0081576Y0433461D01*
X0081052Y0432662D02*
X0059636Y0432662D01*
X0059144Y0431864D02*
X0080528Y0431864D01*
X0080003Y0431065D02*
X0058652Y0431065D01*
X0058160Y0430267D02*
X0079479Y0430267D01*
X0078955Y0429468D02*
X0057668Y0429468D01*
X0057175Y0428670D02*
X0078430Y0428670D01*
X0077906Y0427871D02*
X0056758Y0427871D01*
X0056348Y0427073D02*
X0077382Y0427073D01*
X0076858Y0426274D02*
X0055937Y0426274D01*
X0055527Y0425476D02*
X0076333Y0425476D01*
X0075848Y0424677D02*
X0055116Y0424677D01*
X0054706Y0423879D02*
X0075413Y0423879D01*
X0074977Y0423080D02*
X0054296Y0423080D01*
X0053885Y0422282D02*
X0074542Y0422282D01*
X0074106Y0421483D02*
X0053475Y0421483D01*
X0053065Y0420685D02*
X0073671Y0420685D01*
X0073236Y0419886D02*
X0052654Y0419886D01*
X0052244Y0419088D02*
X0072800Y0419088D01*
X0072365Y0418289D02*
X0051833Y0418289D01*
X0051423Y0417491D02*
X0071929Y0417491D01*
X0071494Y0416692D02*
X0051013Y0416692D01*
X0050602Y0415893D02*
X0071058Y0415893D01*
X0070623Y0415095D02*
X0050192Y0415095D01*
X0049782Y0414296D02*
X0070187Y0414296D01*
X0069752Y0413498D02*
X0049371Y0413498D01*
X0048961Y0412699D02*
X0069316Y0412699D01*
X0068881Y0411901D02*
X0048550Y0411901D01*
X0048173Y0411102D02*
X0068446Y0411102D01*
X0068010Y0410304D02*
X0047838Y0410304D01*
X0047503Y0409505D02*
X0067575Y0409505D01*
X0067139Y0408707D02*
X0047168Y0408707D01*
X0046833Y0407908D02*
X0066767Y0407908D01*
X0067041Y0408527D02*
X0067041Y0408527D01*
X0066412Y0407110D02*
X0046498Y0407110D01*
X0046163Y0406311D02*
X0066058Y0406311D01*
X0065704Y0405513D02*
X0045829Y0405513D01*
X0045494Y0404714D02*
X0065350Y0404714D01*
X0064996Y0403916D02*
X0045159Y0403916D01*
X0044824Y0403117D02*
X0064641Y0403117D01*
X0064287Y0402319D02*
X0044489Y0402319D01*
X0044154Y0401520D02*
X0063933Y0401520D01*
X0063579Y0400722D02*
X0043820Y0400722D01*
X0043485Y0399923D02*
X0063225Y0399923D01*
X0062870Y0399125D02*
X0043150Y0399125D01*
X0042815Y0398326D02*
X0062516Y0398326D01*
X0062162Y0397528D02*
X0042480Y0397528D01*
X0042145Y0396729D02*
X0061808Y0396729D01*
X0061454Y0395931D02*
X0041811Y0395931D01*
X0041476Y0395132D02*
X0061099Y0395132D01*
X0060745Y0394334D02*
X0041141Y0394334D01*
X0040817Y0393535D02*
X0060391Y0393535D01*
X0060037Y0392737D02*
X0040553Y0392737D01*
X0040289Y0391938D02*
X0059683Y0391938D01*
X0059419Y0391344D02*
X0059419Y0391344D01*
X0059348Y0391140D02*
X0040025Y0391140D01*
X0039761Y0390341D02*
X0059069Y0390341D01*
X0058790Y0389543D02*
X0039497Y0389543D01*
X0039233Y0388744D02*
X0058512Y0388744D01*
X0058233Y0387946D02*
X0038968Y0387946D01*
X0038704Y0387147D02*
X0057955Y0387147D01*
X0057676Y0386349D02*
X0038440Y0386349D01*
X0038176Y0385550D02*
X0057397Y0385550D01*
X0057119Y0384752D02*
X0037912Y0384752D01*
X0037648Y0383953D02*
X0056840Y0383953D01*
X0056561Y0383155D02*
X0037384Y0383155D01*
X0037120Y0382356D02*
X0056283Y0382356D01*
X0056004Y0381558D02*
X0036856Y0381558D01*
X0036592Y0380759D02*
X0055725Y0380759D01*
X0055447Y0379960D02*
X0036328Y0379960D01*
X0036064Y0379162D02*
X0055168Y0379162D01*
X0054889Y0378363D02*
X0035799Y0378363D01*
X0035535Y0377565D02*
X0054611Y0377565D01*
X0054332Y0376766D02*
X0035271Y0376766D01*
X0035007Y0375968D02*
X0054053Y0375968D01*
X0053775Y0375169D02*
X0034758Y0375169D01*
X0034561Y0374371D02*
X0053496Y0374371D01*
X0053220Y0373572D02*
X0034364Y0373572D01*
X0034168Y0372774D02*
X0053012Y0372774D01*
X0052805Y0371975D02*
X0033971Y0371975D01*
X0033774Y0371177D02*
X0052598Y0371177D01*
X0052390Y0370378D02*
X0033577Y0370378D01*
X0033380Y0369580D02*
X0052183Y0369580D01*
X0051976Y0368781D02*
X0033183Y0368781D01*
X0032986Y0367983D02*
X0051769Y0367983D01*
X0051561Y0367184D02*
X0032790Y0367184D01*
X0032593Y0366386D02*
X0051354Y0366386D01*
X0051147Y0365587D02*
X0032396Y0365587D01*
X0032199Y0364789D02*
X0050939Y0364789D01*
X0050732Y0363990D02*
X0032002Y0363990D01*
X0031805Y0363192D02*
X0050525Y0363192D01*
X0050318Y0362393D02*
X0031608Y0362393D01*
X0031411Y0361595D02*
X0050110Y0361595D01*
X0049903Y0360796D02*
X0031215Y0360796D01*
X0031018Y0359998D02*
X0049696Y0359998D01*
X0049488Y0359199D02*
X0030821Y0359199D01*
X0030624Y0358401D02*
X0049281Y0358401D01*
X0049074Y0357602D02*
X0030427Y0357602D01*
X0030230Y0356804D02*
X0048866Y0356804D01*
X0048659Y0356005D02*
X0030083Y0356005D01*
X0029951Y0355207D02*
X0048469Y0355207D01*
X0048330Y0354408D02*
X0029819Y0354408D01*
X0029687Y0353610D02*
X0048191Y0353610D01*
X0048052Y0352811D02*
X0029555Y0352811D01*
X0029422Y0352013D02*
X0047913Y0352013D01*
X0047774Y0351214D02*
X0029290Y0351214D01*
X0029158Y0350416D02*
X0047635Y0350416D01*
X0047496Y0349617D02*
X0029026Y0349617D01*
X0028894Y0348819D02*
X0047357Y0348819D01*
X0047218Y0348020D02*
X0028761Y0348020D01*
X0028629Y0347222D02*
X0047079Y0347222D01*
X0046941Y0346423D02*
X0028497Y0346423D01*
X0028365Y0345624D02*
X0046802Y0345624D01*
X0046663Y0344826D02*
X0028233Y0344826D01*
X0028100Y0344027D02*
X0046524Y0344027D01*
X0046385Y0343229D02*
X0027968Y0343229D01*
X0027836Y0342430D02*
X0046246Y0342430D01*
X0046107Y0341632D02*
X0027704Y0341632D01*
X0027572Y0340833D02*
X0045968Y0340833D01*
X0045829Y0340035D02*
X0027439Y0340035D01*
X0027307Y0339236D02*
X0045690Y0339236D01*
X0045551Y0338438D02*
X0027175Y0338438D01*
X0027043Y0337639D02*
X0045413Y0337639D01*
X0045281Y0336881D02*
X0045281Y0336881D01*
X0045277Y0336841D02*
X0026970Y0336841D01*
X0026901Y0336042D02*
X0045205Y0336042D01*
X0045132Y0335244D02*
X0026832Y0335244D01*
X0026763Y0334445D02*
X0045060Y0334445D01*
X0044987Y0333647D02*
X0026694Y0333647D01*
X0026624Y0332848D02*
X0044915Y0332848D01*
X0044842Y0332050D02*
X0026555Y0332050D01*
X0026486Y0331251D02*
X0044770Y0331251D01*
X0044697Y0330453D02*
X0026417Y0330453D01*
X0026348Y0329654D02*
X0044625Y0329654D01*
X0044552Y0328856D02*
X0026279Y0328856D01*
X0026209Y0328057D02*
X0044480Y0328057D01*
X0044408Y0327259D02*
X0026140Y0327259D01*
X0026071Y0326460D02*
X0044335Y0326460D01*
X0044263Y0325662D02*
X0026002Y0325662D01*
X0025933Y0324863D02*
X0044190Y0324863D01*
X0044118Y0324065D02*
X0025864Y0324065D01*
X0025795Y0323266D02*
X0044045Y0323266D01*
X0043973Y0322468D02*
X0025725Y0322468D01*
X0025656Y0321669D02*
X0043900Y0321669D01*
X0043828Y0320871D02*
X0025587Y0320871D01*
X0025518Y0320072D02*
X0043756Y0320072D01*
X0043683Y0319274D02*
X0025449Y0319274D01*
X0025380Y0318475D02*
X0043611Y0318475D01*
X0043578Y0317677D02*
X0025352Y0317677D01*
X0025329Y0316878D02*
X0043571Y0316878D01*
X0043564Y0316080D02*
X0025307Y0316080D01*
X0025284Y0315281D02*
X0043557Y0315281D01*
X0043550Y0314483D02*
X0025262Y0314483D01*
X0025239Y0313684D02*
X0043543Y0313684D01*
X0043536Y0312886D02*
X0025217Y0312886D01*
X0025194Y0312087D02*
X0043529Y0312087D01*
X0043522Y0311289D02*
X0025172Y0311289D01*
X0025149Y0310490D02*
X0043515Y0310490D01*
X0043508Y0309691D02*
X0025127Y0309691D01*
X0025500Y0308893D02*
X0043050Y0308893D01*
X0043050Y0308094D02*
X0025500Y0308094D01*
X0025279Y0307296D02*
X0043279Y0307296D01*
X0043050Y0306497D02*
X0025500Y0306497D01*
X0025500Y0305699D02*
X0043050Y0305699D01*
X0043475Y0304900D02*
X0025374Y0304900D01*
X0025500Y0304102D02*
X0043050Y0304102D01*
X0043050Y0303303D02*
X0025478Y0303303D01*
X0025135Y0302505D02*
X0043511Y0302505D01*
X0043518Y0301706D02*
X0025158Y0301706D01*
X0025180Y0300908D02*
X0043525Y0300908D01*
X0043532Y0300109D02*
X0025203Y0300109D01*
X0025225Y0299311D02*
X0043539Y0299311D01*
X0043546Y0298512D02*
X0025248Y0298512D01*
X0025270Y0297714D02*
X0043553Y0297714D01*
X0043560Y0296915D02*
X0025293Y0296915D01*
X0025315Y0296117D02*
X0043567Y0296117D01*
X0043574Y0295318D02*
X0025338Y0295318D01*
X0025360Y0294520D02*
X0043580Y0294520D01*
X0043582Y0294340D02*
X0043582Y0294340D01*
X0043638Y0293721D02*
X0025406Y0293721D01*
X0025475Y0292923D02*
X0043711Y0292923D01*
X0043783Y0292124D02*
X0025544Y0292124D01*
X0025613Y0291326D02*
X0043856Y0291326D01*
X0043928Y0290527D02*
X0025683Y0290527D01*
X0025752Y0289729D02*
X0044000Y0289729D01*
X0044073Y0288930D02*
X0025821Y0288930D01*
X0025890Y0288132D02*
X0044145Y0288132D01*
X0044218Y0287333D02*
X0025959Y0287333D01*
X0026028Y0286535D02*
X0044290Y0286535D01*
X0044363Y0285736D02*
X0026097Y0285736D01*
X0026167Y0284938D02*
X0044435Y0284938D01*
X0044508Y0284139D02*
X0026236Y0284139D01*
X0026305Y0283341D02*
X0044580Y0283341D01*
X0044652Y0282542D02*
X0026374Y0282542D01*
X0026443Y0281744D02*
X0044725Y0281744D01*
X0044797Y0280945D02*
X0026512Y0280945D01*
X0026582Y0280147D02*
X0044870Y0280147D01*
X0044942Y0279348D02*
X0026651Y0279348D01*
X0026720Y0278550D02*
X0045015Y0278550D01*
X0045087Y0277751D02*
X0026789Y0277751D01*
X0026858Y0276953D02*
X0045160Y0276953D01*
X0045232Y0276154D02*
X0026927Y0276154D01*
X0026997Y0275355D02*
X0045326Y0275355D01*
X0045281Y0275619D02*
X0045281Y0275619D01*
X0045465Y0274557D02*
X0027093Y0274557D01*
X0027225Y0273758D02*
X0045604Y0273758D01*
X0045743Y0272960D02*
X0027358Y0272960D01*
X0027490Y0272161D02*
X0045882Y0272161D01*
X0046021Y0271363D02*
X0027622Y0271363D01*
X0027754Y0270564D02*
X0046160Y0270564D01*
X0046299Y0269766D02*
X0027886Y0269766D01*
X0028019Y0268967D02*
X0046438Y0268967D01*
X0046577Y0268169D02*
X0028151Y0268169D01*
X0028283Y0267370D02*
X0046716Y0267370D01*
X0046854Y0266572D02*
X0028415Y0266572D01*
X0028547Y0265773D02*
X0046993Y0265773D01*
X0047132Y0264975D02*
X0028679Y0264975D01*
X0028812Y0264176D02*
X0047271Y0264176D01*
X0047410Y0263378D02*
X0028944Y0263378D01*
X0029076Y0262579D02*
X0047549Y0262579D01*
X0047688Y0261781D02*
X0029208Y0261781D01*
X0029340Y0260982D02*
X0047827Y0260982D01*
X0047966Y0260184D02*
X0029473Y0260184D01*
X0029605Y0259385D02*
X0048105Y0259385D01*
X0048244Y0258587D02*
X0029737Y0258587D01*
X0029869Y0257788D02*
X0048382Y0257788D01*
X0048502Y0257099D02*
X0048502Y0257099D01*
X0048531Y0256990D02*
X0030001Y0256990D01*
X0030134Y0256191D02*
X0048738Y0256191D01*
X0048945Y0255393D02*
X0030305Y0255393D01*
X0030502Y0254594D02*
X0049153Y0254594D01*
X0049360Y0253796D02*
X0030699Y0253796D01*
X0030896Y0252997D02*
X0049567Y0252997D01*
X0049774Y0252199D02*
X0031093Y0252199D01*
X0031289Y0251400D02*
X0049982Y0251400D01*
X0050189Y0250602D02*
X0031486Y0250602D01*
X0031683Y0249803D02*
X0050396Y0249803D01*
X0050604Y0249005D02*
X0031880Y0249005D01*
X0032077Y0248206D02*
X0050811Y0248206D01*
X0051018Y0247408D02*
X0032274Y0247408D01*
X0032471Y0246609D02*
X0051226Y0246609D01*
X0051433Y0245811D02*
X0032668Y0245811D01*
X0032864Y0245012D02*
X0051640Y0245012D01*
X0051847Y0244214D02*
X0033061Y0244214D01*
X0033258Y0243415D02*
X0052055Y0243415D01*
X0052262Y0242617D02*
X0033455Y0242617D01*
X0033652Y0241818D02*
X0052469Y0241818D01*
X0052677Y0241020D02*
X0033849Y0241020D01*
X0034046Y0240221D02*
X0052884Y0240221D01*
X0053091Y0239422D02*
X0034242Y0239422D01*
X0034439Y0238624D02*
X0053323Y0238624D01*
X0053226Y0238904D02*
X0053226Y0238904D01*
X0053602Y0237825D02*
X0034636Y0237825D01*
X0034844Y0237027D02*
X0053881Y0237027D01*
X0054159Y0236228D02*
X0035108Y0236228D01*
X0035372Y0235430D02*
X0054438Y0235430D01*
X0054717Y0234631D02*
X0035636Y0234631D01*
X0035900Y0233833D02*
X0054995Y0233833D01*
X0055274Y0233034D02*
X0036164Y0233034D01*
X0036428Y0232236D02*
X0055553Y0232236D01*
X0055831Y0231437D02*
X0036692Y0231437D01*
X0036956Y0230639D02*
X0056110Y0230639D01*
X0056389Y0229840D02*
X0037220Y0229840D01*
X0037484Y0229042D02*
X0056667Y0229042D01*
X0056946Y0228243D02*
X0037748Y0228243D01*
X0038013Y0227445D02*
X0057225Y0227445D01*
X0057503Y0226646D02*
X0038277Y0226646D01*
X0038541Y0225848D02*
X0057782Y0225848D01*
X0058060Y0225049D02*
X0038805Y0225049D01*
X0039069Y0224251D02*
X0058339Y0224251D01*
X0058618Y0223452D02*
X0039333Y0223452D01*
X0039597Y0222654D02*
X0058896Y0222654D01*
X0059175Y0221855D02*
X0039861Y0221855D01*
X0040125Y0221057D02*
X0059463Y0221057D01*
X0059817Y0220258D02*
X0040389Y0220258D01*
X0040653Y0219460D02*
X0060171Y0219460D01*
X0060526Y0218661D02*
X0040933Y0218661D01*
X0041268Y0217863D02*
X0060880Y0217863D01*
X0061234Y0217064D02*
X0041603Y0217064D01*
X0041938Y0216266D02*
X0061588Y0216266D01*
X0061943Y0215467D02*
X0042273Y0215467D01*
X0042608Y0214669D02*
X0062297Y0214669D01*
X0062651Y0213870D02*
X0042942Y0213870D01*
X0043277Y0213072D02*
X0063005Y0213072D01*
X0063359Y0212273D02*
X0043612Y0212273D01*
X0043947Y0211475D02*
X0063714Y0211475D01*
X0064068Y0210676D02*
X0044282Y0210676D01*
X0044617Y0209878D02*
X0064422Y0209878D01*
X0064776Y0209079D02*
X0044951Y0209079D01*
X0045286Y0208281D02*
X0065130Y0208281D01*
X0065485Y0207482D02*
X0045621Y0207482D01*
X0045956Y0206684D02*
X0065839Y0206684D01*
X0066193Y0205885D02*
X0046291Y0205885D01*
X0046626Y0205087D02*
X0066547Y0205087D01*
X0066901Y0204288D02*
X0046960Y0204288D01*
X0047295Y0203489D02*
X0067305Y0203489D01*
X0067740Y0202691D02*
X0047630Y0202691D01*
X0047965Y0201892D02*
X0068176Y0201892D01*
X0068611Y0201094D02*
X0048300Y0201094D01*
X0048706Y0200295D02*
X0069047Y0200295D01*
X0069482Y0199497D02*
X0049117Y0199497D01*
X0049527Y0198698D02*
X0069917Y0198698D01*
X0070353Y0197900D02*
X0049938Y0197900D01*
X0050348Y0197101D02*
X0070788Y0197101D01*
X0071224Y0196303D02*
X0050758Y0196303D01*
X0051169Y0195504D02*
X0071659Y0195504D01*
X0072095Y0194706D02*
X0051579Y0194706D01*
X0051989Y0193907D02*
X0072530Y0193907D01*
X0072966Y0193109D02*
X0052400Y0193109D01*
X0052810Y0192310D02*
X0073401Y0192310D01*
X0073837Y0191512D02*
X0053221Y0191512D01*
X0053631Y0190713D02*
X0074272Y0190713D01*
X0074707Y0189915D02*
X0054041Y0189915D01*
X0054452Y0189116D02*
X0075143Y0189116D01*
X0075578Y0188318D02*
X0054862Y0188318D01*
X0055273Y0187519D02*
X0076014Y0187519D01*
X0076041Y0187469D02*
X0076041Y0187469D01*
X0076533Y0186721D02*
X0055683Y0186721D01*
X0056093Y0185922D02*
X0077057Y0185922D01*
X0077581Y0185124D02*
X0056504Y0185124D01*
X0056914Y0184325D02*
X0078106Y0184325D01*
X0078630Y0183527D02*
X0057363Y0183527D01*
X0057855Y0182728D02*
X0079154Y0182728D01*
X0079678Y0181930D02*
X0058347Y0181930D01*
X0058839Y0181131D02*
X0080203Y0181131D01*
X0080727Y0180333D02*
X0059331Y0180333D01*
X0059824Y0179534D02*
X0081251Y0179534D01*
X0081776Y0178736D02*
X0060316Y0178736D01*
X0060808Y0177937D02*
X0082300Y0177937D01*
X0082824Y0177139D02*
X0061300Y0177139D01*
X0061793Y0176340D02*
X0083349Y0176340D01*
X0083873Y0175542D02*
X0062285Y0175542D01*
X0062777Y0174743D02*
X0084397Y0174743D01*
X0084922Y0173945D02*
X0063269Y0173945D01*
X0063761Y0173146D02*
X0085446Y0173146D01*
X0085970Y0172348D02*
X0064254Y0172348D01*
X0064746Y0171549D02*
X0086520Y0171549D01*
X0087143Y0170751D02*
X0065238Y0170751D01*
X0065730Y0169952D02*
X0087767Y0169952D01*
X0088390Y0169153D02*
X0066222Y0169153D01*
X0066715Y0168355D02*
X0089013Y0168355D01*
X0089637Y0167556D02*
X0067207Y0167556D01*
X0067781Y0166758D02*
X0090260Y0166758D01*
X0090883Y0165959D02*
X0068363Y0165959D01*
X0068945Y0165161D02*
X0091506Y0165161D01*
X0092130Y0164362D02*
X0069527Y0164362D01*
X0070110Y0163564D02*
X0092753Y0163564D01*
X0093376Y0162765D02*
X0070692Y0162765D01*
X0071274Y0161967D02*
X0093999Y0161967D01*
X0094623Y0161168D02*
X0071857Y0161168D01*
X0072439Y0160370D02*
X0095246Y0160370D01*
X0095869Y0159571D02*
X0073021Y0159571D01*
X0073603Y0158773D02*
X0096493Y0158773D01*
X0097116Y0157974D02*
X0074186Y0157974D01*
X0074768Y0157176D02*
X0097739Y0157176D01*
X0097925Y0156937D02*
X0097925Y0156937D01*
X0098441Y0156377D02*
X0075350Y0156377D01*
X0075933Y0155579D02*
X0099177Y0155579D01*
X0099913Y0154780D02*
X0076515Y0154780D01*
X0077097Y0153982D02*
X0100649Y0153982D01*
X0101384Y0153183D02*
X0077679Y0153183D01*
X0078262Y0152385D02*
X0102120Y0152385D01*
X0102856Y0151586D02*
X0078883Y0151586D01*
X0079567Y0150788D02*
X0103592Y0150788D01*
X0104327Y0149989D02*
X0080250Y0149989D01*
X0080933Y0149191D02*
X0105063Y0149191D01*
X0105799Y0148392D02*
X0081616Y0148392D01*
X0082299Y0147594D02*
X0106535Y0147594D01*
X0107270Y0146795D02*
X0082983Y0146795D01*
X0083666Y0145997D02*
X0108006Y0145997D01*
X0108742Y0145198D02*
X0084349Y0145198D01*
X0085032Y0144400D02*
X0109478Y0144400D01*
X0110213Y0143601D02*
X0085715Y0143601D01*
X0086399Y0142803D02*
X0111000Y0142803D01*
X0111867Y0142004D02*
X0087082Y0142004D01*
X0087765Y0141206D02*
X0112733Y0141206D01*
X0113600Y0140407D02*
X0088448Y0140407D01*
X0089131Y0139609D02*
X0114467Y0139609D01*
X0115333Y0138810D02*
X0089815Y0138810D01*
X0090498Y0138012D02*
X0116200Y0138012D01*
X0117066Y0137213D02*
X0091185Y0137213D01*
X0091984Y0136415D02*
X0117933Y0136415D01*
X0118800Y0135616D02*
X0092782Y0135616D01*
X0093581Y0134818D02*
X0119666Y0134818D01*
X0120533Y0134019D02*
X0094379Y0134019D01*
X0095178Y0133220D02*
X0121399Y0133220D01*
X0122266Y0132422D02*
X0095976Y0132422D01*
X0096775Y0131623D02*
X0123133Y0131623D01*
X0123999Y0130825D02*
X0097573Y0130825D01*
X0098372Y0130026D02*
X0124934Y0130026D01*
X0124487Y0130375D02*
X0124487Y0130375D01*
X0125957Y0129228D02*
X0099170Y0129228D01*
X0099969Y0128429D02*
X0126980Y0128429D01*
X0128003Y0127631D02*
X0100767Y0127631D01*
X0101566Y0126832D02*
X0129026Y0126832D01*
X0130049Y0126034D02*
X0102364Y0126034D01*
X0103163Y0125235D02*
X0131072Y0125235D01*
X0132095Y0124437D02*
X0103962Y0124437D01*
X0104760Y0123638D02*
X0133118Y0123638D01*
X0208440Y0223460D02*
X0218573Y0216406D01*
X0229467Y0210595D01*
X0240969Y0206108D01*
X0252920Y0203009D01*
X0265154Y0201340D01*
X0271318Y0201050D01*
X0272275Y0201050D01*
X0272650Y0200675D01*
X0273025Y0201050D01*
X0274475Y0201050D01*
X0274900Y0200625D01*
X0275325Y0201050D01*
X0276282Y0201050D01*
X0282446Y0201340D01*
X0294680Y0203009D01*
X0306631Y0206108D01*
X0318133Y0210595D01*
X0329027Y0216406D01*
X0339160Y0223460D01*
X0348390Y0231660D01*
X0356590Y0240890D01*
X0363644Y0251023D01*
X0365072Y0253700D01*
X0363847Y0253700D01*
X0363029Y0254519D01*
X0353481Y0256428D01*
X0353253Y0256200D01*
X0351347Y0256200D01*
X0350000Y0257547D01*
X0350000Y0259453D01*
X0351347Y0260800D01*
X0353253Y0260800D01*
X0354071Y0259981D01*
X0363619Y0258072D01*
X0363847Y0258300D01*
X0365753Y0258300D01*
X0366909Y0257144D01*
X0369455Y0261917D01*
X0371516Y0267199D01*
X0371054Y0267163D01*
X0370438Y0267236D01*
X0368621Y0267826D01*
X0369471Y0270442D01*
X0368710Y0270689D01*
X0368012Y0268541D01*
X0368100Y0268453D01*
X0368100Y0266547D01*
X0366753Y0265200D01*
X0364847Y0265200D01*
X0363500Y0266547D01*
X0363500Y0267106D01*
X0359812Y0268760D01*
X0359503Y0268450D01*
X0357597Y0268450D01*
X0356250Y0269797D01*
X0356250Y0271699D01*
X0353663Y0265678D01*
X0353663Y0265678D01*
X0347931Y0255947D01*
X0347931Y0255947D01*
X0341017Y0247018D01*
X0341017Y0247018D01*
X0333032Y0239033D01*
X0333032Y0239033D01*
X0324103Y0232119D01*
X0324103Y0232119D01*
X0314372Y0226387D01*
X0314372Y0226387D01*
X0303996Y0221929D01*
X0303996Y0221929D01*
X0293140Y0218816D01*
X0283043Y0217262D01*
X0283043Y0216058D01*
X0282135Y0215150D01*
X0281404Y0215150D01*
X0281404Y0210886D01*
X0281465Y0210333D01*
X0281404Y0210256D01*
X0281404Y0210158D01*
X0281010Y0209765D01*
X0280663Y0209330D01*
X0280565Y0209320D01*
X0280496Y0209250D01*
X0279940Y0209250D01*
X0279387Y0209189D01*
X0279310Y0209250D01*
X0279212Y0209250D01*
X0278818Y0209643D01*
X0276745Y0211302D01*
X0276684Y0211851D01*
X0276499Y0211472D01*
X0276480Y0211302D01*
X0276376Y0211218D01*
X0276282Y0211026D01*
X0276026Y0210279D01*
X0276026Y0210279D01*
X0276026Y0210279D01*
X0274585Y0209250D01*
X0272814Y0209250D01*
X0271373Y0210279D01*
X0271373Y0210279D01*
X0271117Y0211026D01*
X0270731Y0211819D01*
X0270571Y0211499D01*
X0269353Y0211093D01*
X0268205Y0211667D01*
X0268161Y0211798D01*
X0268117Y0211667D01*
X0266969Y0211093D01*
X0265751Y0211499D01*
X0265177Y0212648D01*
X0266527Y0216700D01*
X0266488Y0216819D01*
X0266614Y0217072D01*
X0265621Y0217098D01*
X0254460Y0218816D01*
X0243604Y0221929D01*
X0233228Y0226387D01*
X0223497Y0232119D01*
X0223497Y0232119D01*
X0214568Y0239033D01*
X0214568Y0239033D01*
X0206583Y0247018D01*
X0206583Y0247018D01*
X0199669Y0255947D01*
X0199669Y0255947D01*
X0193937Y0265678D01*
X0193937Y0265678D01*
X0189479Y0276054D01*
X0189479Y0276054D01*
X0186366Y0286910D01*
X0186366Y0286910D01*
X0184648Y0298071D01*
X0184648Y0298071D01*
X0184515Y0303160D01*
X0184400Y0303275D01*
X0184400Y0304725D01*
X0184825Y0305150D01*
X0184400Y0305575D01*
X0184400Y0307025D01*
X0184775Y0307400D01*
X0184400Y0307775D01*
X0184400Y0309225D01*
X0184515Y0309340D01*
X0184648Y0314429D01*
X0184648Y0314429D01*
X0186366Y0325590D01*
X0186366Y0325590D01*
X0189479Y0336446D01*
X0189479Y0336446D01*
X0193937Y0346822D01*
X0193937Y0346822D01*
X0199669Y0356553D01*
X0199669Y0356553D01*
X0206583Y0365482D01*
X0206583Y0365482D01*
X0214568Y0373467D01*
X0214568Y0373467D01*
X0223497Y0380381D01*
X0223497Y0380381D01*
X0233228Y0386113D01*
X0233228Y0386113D01*
X0243604Y0390571D01*
X0243604Y0390571D01*
X0254460Y0393684D01*
X0254460Y0393684D01*
X0265621Y0395402D01*
X0265621Y0395402D01*
X0270748Y0395536D01*
X0270762Y0395550D01*
X0270775Y0395550D01*
X0270825Y0395600D01*
X0272275Y0395600D01*
X0272650Y0395225D01*
X0273025Y0395600D01*
X0274475Y0395600D01*
X0274900Y0395175D01*
X0275325Y0395600D01*
X0276775Y0395600D01*
X0276825Y0395550D01*
X0276838Y0395550D01*
X0276852Y0395536D01*
X0281979Y0395402D01*
X0281979Y0395402D01*
X0293140Y0393684D01*
X0293140Y0393684D01*
X0303996Y0390571D01*
X0314372Y0386113D01*
X0324103Y0380381D01*
X0333032Y0373467D01*
X0333032Y0373467D01*
X0341017Y0365482D01*
X0347931Y0356553D01*
X0353663Y0346822D01*
X0358121Y0336446D01*
X0358121Y0336446D01*
X0361234Y0325590D01*
X0361234Y0325590D01*
X0362952Y0314429D01*
X0362952Y0314429D01*
X0363085Y0309340D01*
X0363150Y0309275D01*
X0363150Y0307825D01*
X0362775Y0307450D01*
X0363150Y0307075D01*
X0363150Y0305625D01*
X0362725Y0305200D01*
X0363150Y0304775D01*
X0363150Y0303325D01*
X0363100Y0303275D01*
X0363100Y0303212D01*
X0363086Y0303198D01*
X0363075Y0302778D01*
X0364000Y0303703D01*
X0364000Y0305788D01*
X0369812Y0311600D01*
X0370862Y0311600D01*
X0370969Y0311858D01*
X0371742Y0312631D01*
X0372753Y0313050D01*
X0377847Y0313050D01*
X0378816Y0312649D01*
X0378710Y0314896D01*
X0378549Y0316080D01*
X0378547Y0316080D01*
X0378549Y0316080D02*
X0378032Y0315764D01*
X0377450Y0315549D01*
X0375564Y0315251D01*
X0375133Y0317967D01*
X0374343Y0317842D01*
X0369669Y0317101D01*
X0369852Y0316605D01*
X0370177Y0316076D01*
X0370598Y0315620D01*
X0371100Y0315256D01*
X0371663Y0314996D01*
X0372267Y0314851D01*
X0372887Y0314827D01*
X0374773Y0315125D01*
X0374343Y0317842D01*
X0374218Y0318632D01*
X0373788Y0321348D01*
X0371901Y0321049D01*
X0371319Y0320834D01*
X0370790Y0320510D01*
X0370334Y0320089D01*
X0369970Y0319587D01*
X0369710Y0319023D01*
X0369565Y0318420D01*
X0369544Y0317891D01*
X0374218Y0318632D01*
X0375008Y0318757D01*
X0374578Y0321473D01*
X0376465Y0321772D01*
X0377085Y0321747D01*
X0377688Y0321603D01*
X0377802Y0321550D01*
X0377390Y0324574D01*
X0377303Y0324455D01*
X0376370Y0323883D01*
X0371339Y0323086D01*
X0370275Y0323342D01*
X0369390Y0323985D01*
X0368818Y0324917D01*
X0368647Y0325998D01*
X0368903Y0327062D01*
X0369546Y0327947D01*
X0370478Y0328518D01*
X0372680Y0328867D01*
X0372250Y0329297D01*
X0372250Y0331203D01*
X0373597Y0332550D01*
X0375503Y0332550D01*
X0375682Y0332371D01*
X0373942Y0339081D01*
X0369455Y0350583D01*
X0363644Y0361477D01*
X0356590Y0371610D01*
X0348390Y0380840D01*
X0339160Y0389040D01*
X0329027Y0396094D01*
X0318133Y0401905D01*
X0306631Y0406392D01*
X0294680Y0409491D01*
X0282446Y0411160D01*
X0276282Y0411450D01*
X0275762Y0411450D01*
X0275752Y0411459D01*
X0275739Y0411460D01*
X0275700Y0411500D01*
X0275325Y0411500D01*
X0274900Y0411925D01*
X0274475Y0411500D01*
X0273025Y0411500D01*
X0272650Y0411875D01*
X0272275Y0411500D01*
X0271900Y0411500D01*
X0271861Y0411460D01*
X0271848Y0411459D01*
X0271838Y0411450D01*
X0271318Y0411450D01*
X0265154Y0411160D01*
X0252920Y0409491D01*
X0240969Y0406392D01*
X0229467Y0401905D01*
X0218573Y0396094D01*
X0208440Y0389040D01*
X0199210Y0380840D01*
X0191010Y0371610D01*
X0183956Y0361477D01*
X0178145Y0350583D01*
X0173658Y0339081D01*
X0170559Y0327130D01*
X0168890Y0314896D01*
X0168600Y0308731D01*
X0168600Y0308212D01*
X0168591Y0308202D01*
X0168590Y0308189D01*
X0168550Y0308150D01*
X0168550Y0307825D01*
X0168175Y0307450D01*
X0168550Y0307075D01*
X0168550Y0305625D01*
X0168125Y0305200D01*
X0168550Y0304775D01*
X0168550Y0304350D01*
X0168590Y0304311D01*
X0168591Y0304298D01*
X0168600Y0304288D01*
X0168600Y0303768D01*
X0168890Y0297604D01*
X0170559Y0285370D01*
X0173658Y0273419D01*
X0178145Y0261917D01*
X0183956Y0251023D01*
X0191010Y0240890D01*
X0199210Y0231660D01*
X0208440Y0223460D01*
X0208452Y0223452D02*
X0240058Y0223452D01*
X0238200Y0224251D02*
X0207550Y0224251D01*
X0206652Y0225049D02*
X0236341Y0225049D01*
X0234483Y0225848D02*
X0205753Y0225848D01*
X0204854Y0226646D02*
X0232788Y0226646D01*
X0231432Y0227445D02*
X0203955Y0227445D01*
X0203056Y0228243D02*
X0230076Y0228243D01*
X0228721Y0229042D02*
X0202157Y0229042D01*
X0201258Y0229840D02*
X0227365Y0229840D01*
X0226010Y0230639D02*
X0200359Y0230639D01*
X0199460Y0231437D02*
X0224654Y0231437D01*
X0223346Y0232236D02*
X0198698Y0232236D01*
X0197989Y0233034D02*
X0222315Y0233034D01*
X0221283Y0233833D02*
X0197280Y0233833D01*
X0196570Y0234631D02*
X0220252Y0234631D01*
X0219221Y0235430D02*
X0195861Y0235430D01*
X0195152Y0236228D02*
X0218189Y0236228D01*
X0217158Y0237027D02*
X0194442Y0237027D01*
X0193733Y0237825D02*
X0216127Y0237825D01*
X0215096Y0238624D02*
X0193023Y0238624D01*
X0192314Y0239422D02*
X0214178Y0239422D01*
X0213379Y0240221D02*
X0191605Y0240221D01*
X0190920Y0241020D02*
X0212581Y0241020D01*
X0211782Y0241818D02*
X0190364Y0241818D01*
X0189808Y0242617D02*
X0210984Y0242617D01*
X0210185Y0243415D02*
X0189252Y0243415D01*
X0188697Y0244214D02*
X0209387Y0244214D01*
X0208588Y0245012D02*
X0188141Y0245012D01*
X0187585Y0245811D02*
X0207790Y0245811D01*
X0206991Y0246609D02*
X0187029Y0246609D01*
X0186473Y0247408D02*
X0206281Y0247408D01*
X0205663Y0248206D02*
X0185917Y0248206D01*
X0185361Y0249005D02*
X0205044Y0249005D01*
X0204426Y0249803D02*
X0184805Y0249803D01*
X0184249Y0250602D02*
X0203808Y0250602D01*
X0203189Y0251400D02*
X0183755Y0251400D01*
X0183329Y0252199D02*
X0202571Y0252199D01*
X0201953Y0252997D02*
X0182903Y0252997D01*
X0182477Y0253796D02*
X0201335Y0253796D01*
X0200716Y0254594D02*
X0182051Y0254594D01*
X0181625Y0255393D02*
X0200098Y0255393D01*
X0199525Y0256191D02*
X0181199Y0256191D01*
X0180773Y0256990D02*
X0199055Y0256990D01*
X0198584Y0257788D02*
X0180347Y0257788D01*
X0179921Y0258587D02*
X0198114Y0258587D01*
X0197644Y0259385D02*
X0179495Y0259385D01*
X0179069Y0260184D02*
X0197173Y0260184D01*
X0196703Y0260982D02*
X0178643Y0260982D01*
X0178217Y0261781D02*
X0196232Y0261781D01*
X0195762Y0262579D02*
X0177886Y0262579D01*
X0177575Y0263378D02*
X0195292Y0263378D01*
X0194821Y0264176D02*
X0177263Y0264176D01*
X0176952Y0264975D02*
X0194351Y0264975D01*
X0193896Y0265773D02*
X0176640Y0265773D01*
X0176329Y0266572D02*
X0193553Y0266572D01*
X0193210Y0267370D02*
X0176018Y0267370D01*
X0175706Y0268169D02*
X0192867Y0268169D01*
X0192524Y0268967D02*
X0175395Y0268967D01*
X0175083Y0269766D02*
X0192181Y0269766D01*
X0191837Y0270564D02*
X0174772Y0270564D01*
X0174460Y0271363D02*
X0191494Y0271363D01*
X0191151Y0272161D02*
X0174149Y0272161D01*
X0173837Y0272960D02*
X0190808Y0272960D01*
X0190465Y0273758D02*
X0173570Y0273758D01*
X0173363Y0274557D02*
X0190122Y0274557D01*
X0189779Y0275355D02*
X0173156Y0275355D01*
X0172949Y0276154D02*
X0189450Y0276154D01*
X0189221Y0276953D02*
X0172742Y0276953D01*
X0172535Y0277751D02*
X0188992Y0277751D01*
X0188763Y0278550D02*
X0172328Y0278550D01*
X0172121Y0279348D02*
X0188534Y0279348D01*
X0188305Y0280147D02*
X0171914Y0280147D01*
X0171707Y0280945D02*
X0188077Y0280945D01*
X0187848Y0281744D02*
X0171499Y0281744D01*
X0171292Y0282542D02*
X0187619Y0282542D01*
X0187390Y0283341D02*
X0171085Y0283341D01*
X0170878Y0284139D02*
X0187161Y0284139D01*
X0186932Y0284938D02*
X0170671Y0284938D01*
X0170509Y0285736D02*
X0186703Y0285736D01*
X0186474Y0286535D02*
X0170400Y0286535D01*
X0170291Y0287333D02*
X0186301Y0287333D01*
X0186178Y0288132D02*
X0170182Y0288132D01*
X0170073Y0288930D02*
X0186055Y0288930D01*
X0185932Y0289729D02*
X0169964Y0289729D01*
X0169855Y0290527D02*
X0185809Y0290527D01*
X0185686Y0291326D02*
X0169746Y0291326D01*
X0169637Y0292124D02*
X0185564Y0292124D01*
X0185441Y0292923D02*
X0169529Y0292923D01*
X0169420Y0293721D02*
X0185318Y0293721D01*
X0185195Y0294520D02*
X0169311Y0294520D01*
X0169202Y0295318D02*
X0185072Y0295318D01*
X0184949Y0296117D02*
X0169093Y0296117D01*
X0168984Y0296915D02*
X0184826Y0296915D01*
X0184703Y0297714D02*
X0168885Y0297714D01*
X0168847Y0298512D02*
X0184637Y0298512D01*
X0184616Y0299311D02*
X0168810Y0299311D01*
X0168772Y0300109D02*
X0184595Y0300109D01*
X0184574Y0300908D02*
X0168735Y0300908D01*
X0168697Y0301706D02*
X0184553Y0301706D01*
X0184532Y0302505D02*
X0168659Y0302505D01*
X0168622Y0303303D02*
X0184400Y0303303D01*
X0184400Y0304102D02*
X0168600Y0304102D01*
X0168424Y0304900D02*
X0184576Y0304900D01*
X0184400Y0305699D02*
X0168550Y0305699D01*
X0168550Y0306497D02*
X0184400Y0306497D01*
X0184671Y0307296D02*
X0168329Y0307296D01*
X0168550Y0308094D02*
X0184400Y0308094D01*
X0184400Y0308893D02*
X0168608Y0308893D01*
X0168645Y0309691D02*
X0184524Y0309691D01*
X0184545Y0310490D02*
X0168683Y0310490D01*
X0168720Y0311289D02*
X0184566Y0311289D01*
X0184587Y0312087D02*
X0168758Y0312087D01*
X0168795Y0312886D02*
X0184608Y0312886D01*
X0184629Y0313684D02*
X0168833Y0313684D01*
X0168870Y0314483D02*
X0184657Y0314483D01*
X0184779Y0315281D02*
X0168942Y0315281D01*
X0169051Y0316080D02*
X0184902Y0316080D01*
X0185025Y0316878D02*
X0169160Y0316878D01*
X0169269Y0317677D02*
X0185148Y0317677D01*
X0185271Y0318475D02*
X0169378Y0318475D01*
X0169487Y0319274D02*
X0185394Y0319274D01*
X0185517Y0320072D02*
X0169596Y0320072D01*
X0169705Y0320871D02*
X0185640Y0320871D01*
X0185763Y0321669D02*
X0169814Y0321669D01*
X0169923Y0322468D02*
X0185886Y0322468D01*
X0186008Y0323266D02*
X0170032Y0323266D01*
X0170141Y0324065D02*
X0186131Y0324065D01*
X0186254Y0324863D02*
X0170250Y0324863D01*
X0170359Y0325662D02*
X0186387Y0325662D01*
X0186616Y0326460D02*
X0170468Y0326460D01*
X0170592Y0327259D02*
X0186845Y0327259D01*
X0187074Y0328057D02*
X0170799Y0328057D01*
X0171007Y0328856D02*
X0187303Y0328856D01*
X0187532Y0329654D02*
X0171214Y0329654D01*
X0171421Y0330453D02*
X0187760Y0330453D01*
X0187989Y0331251D02*
X0171628Y0331251D01*
X0171835Y0332050D02*
X0188218Y0332050D01*
X0188447Y0332848D02*
X0172042Y0332848D01*
X0172249Y0333647D02*
X0188676Y0333647D01*
X0188905Y0334445D02*
X0172456Y0334445D01*
X0172663Y0335244D02*
X0189134Y0335244D01*
X0189363Y0336042D02*
X0172870Y0336042D01*
X0173077Y0336841D02*
X0189649Y0336841D01*
X0189992Y0337639D02*
X0173284Y0337639D01*
X0173492Y0338438D02*
X0190335Y0338438D01*
X0190678Y0339236D02*
X0173719Y0339236D01*
X0174030Y0340035D02*
X0191021Y0340035D01*
X0191364Y0340833D02*
X0174342Y0340833D01*
X0174653Y0341632D02*
X0191707Y0341632D01*
X0192050Y0342430D02*
X0174965Y0342430D01*
X0175276Y0343229D02*
X0192393Y0343229D01*
X0192736Y0344027D02*
X0175588Y0344027D01*
X0175899Y0344826D02*
X0193079Y0344826D01*
X0193422Y0345624D02*
X0176211Y0345624D01*
X0176522Y0346423D02*
X0193765Y0346423D01*
X0194172Y0347222D02*
X0176833Y0347222D01*
X0177145Y0348020D02*
X0194643Y0348020D01*
X0195113Y0348819D02*
X0177456Y0348819D01*
X0177768Y0349617D02*
X0195583Y0349617D01*
X0196054Y0350416D02*
X0178079Y0350416D01*
X0178481Y0351214D02*
X0196524Y0351214D01*
X0196994Y0352013D02*
X0178907Y0352013D01*
X0179333Y0352811D02*
X0197465Y0352811D01*
X0197935Y0353610D02*
X0179759Y0353610D01*
X0180185Y0354408D02*
X0198405Y0354408D01*
X0198876Y0355207D02*
X0180611Y0355207D01*
X0181037Y0356005D02*
X0199346Y0356005D01*
X0199863Y0356804D02*
X0181463Y0356804D01*
X0181889Y0357602D02*
X0200481Y0357602D01*
X0201100Y0358401D02*
X0182315Y0358401D01*
X0182741Y0359199D02*
X0201718Y0359199D01*
X0202336Y0359998D02*
X0183167Y0359998D01*
X0183593Y0360796D02*
X0202954Y0360796D01*
X0203573Y0361595D02*
X0184038Y0361595D01*
X0184594Y0362393D02*
X0204191Y0362393D01*
X0204809Y0363192D02*
X0185150Y0363192D01*
X0185705Y0363990D02*
X0205427Y0363990D01*
X0206046Y0364789D02*
X0186261Y0364789D01*
X0186817Y0365587D02*
X0206688Y0365587D01*
X0207486Y0366386D02*
X0187373Y0366386D01*
X0187929Y0367184D02*
X0208285Y0367184D01*
X0209083Y0367983D02*
X0188485Y0367983D01*
X0189041Y0368781D02*
X0209882Y0368781D01*
X0210680Y0369580D02*
X0189597Y0369580D01*
X0190153Y0370378D02*
X0211479Y0370378D01*
X0212277Y0371177D02*
X0190709Y0371177D01*
X0191335Y0371975D02*
X0213076Y0371975D01*
X0213874Y0372774D02*
X0192044Y0372774D01*
X0192754Y0373572D02*
X0214703Y0373572D01*
X0215735Y0374371D02*
X0193463Y0374371D01*
X0194172Y0375169D02*
X0216766Y0375169D01*
X0217797Y0375968D02*
X0194882Y0375968D01*
X0195591Y0376766D02*
X0218829Y0376766D01*
X0219860Y0377565D02*
X0196300Y0377565D01*
X0197010Y0378363D02*
X0220891Y0378363D01*
X0221923Y0379162D02*
X0197719Y0379162D01*
X0198428Y0379960D02*
X0222954Y0379960D01*
X0224138Y0380759D02*
X0199138Y0380759D01*
X0200017Y0381558D02*
X0225494Y0381558D01*
X0226850Y0382356D02*
X0200916Y0382356D01*
X0201815Y0383155D02*
X0228205Y0383155D01*
X0229561Y0383953D02*
X0202714Y0383953D01*
X0203613Y0384752D02*
X0230916Y0384752D01*
X0232272Y0385550D02*
X0204512Y0385550D01*
X0205411Y0386349D02*
X0233776Y0386349D01*
X0235635Y0387147D02*
X0206310Y0387147D01*
X0207209Y0387946D02*
X0237493Y0387946D01*
X0239352Y0388744D02*
X0208108Y0388744D01*
X0209163Y0389543D02*
X0241210Y0389543D01*
X0243069Y0390341D02*
X0210310Y0390341D01*
X0211456Y0391140D02*
X0245587Y0391140D01*
X0248372Y0391938D02*
X0212603Y0391938D01*
X0213750Y0392737D02*
X0251157Y0392737D01*
X0253941Y0393535D02*
X0214897Y0393535D01*
X0216044Y0394334D02*
X0258682Y0394334D01*
X0263870Y0395132D02*
X0217191Y0395132D01*
X0218338Y0395931D02*
X0329262Y0395931D01*
X0330409Y0395132D02*
X0283730Y0395132D01*
X0288918Y0394334D02*
X0331556Y0394334D01*
X0332703Y0393535D02*
X0293659Y0393535D01*
X0296443Y0392737D02*
X0333850Y0392737D01*
X0334997Y0391938D02*
X0299228Y0391938D01*
X0302013Y0391140D02*
X0336144Y0391140D01*
X0337290Y0390341D02*
X0304531Y0390341D01*
X0306390Y0389543D02*
X0338437Y0389543D01*
X0339492Y0388744D02*
X0308248Y0388744D01*
X0310107Y0387946D02*
X0340391Y0387946D01*
X0341290Y0387147D02*
X0311965Y0387147D01*
X0313824Y0386349D02*
X0342189Y0386349D01*
X0343088Y0385550D02*
X0315328Y0385550D01*
X0316684Y0384752D02*
X0343987Y0384752D01*
X0344886Y0383953D02*
X0318039Y0383953D01*
X0319395Y0383155D02*
X0345785Y0383155D01*
X0346684Y0382356D02*
X0320750Y0382356D01*
X0322106Y0381558D02*
X0347583Y0381558D01*
X0348462Y0380759D02*
X0323462Y0380759D01*
X0324646Y0379960D02*
X0349172Y0379960D01*
X0349881Y0379162D02*
X0325677Y0379162D01*
X0326709Y0378363D02*
X0350590Y0378363D01*
X0351300Y0377565D02*
X0327740Y0377565D01*
X0328771Y0376766D02*
X0352009Y0376766D01*
X0352718Y0375968D02*
X0329803Y0375968D01*
X0330834Y0375169D02*
X0353428Y0375169D01*
X0354137Y0374371D02*
X0331865Y0374371D01*
X0332897Y0373572D02*
X0354846Y0373572D01*
X0355556Y0372774D02*
X0333726Y0372774D01*
X0334524Y0371975D02*
X0356265Y0371975D01*
X0356891Y0371177D02*
X0335323Y0371177D01*
X0336121Y0370378D02*
X0357447Y0370378D01*
X0358003Y0369580D02*
X0336920Y0369580D01*
X0337718Y0368781D02*
X0358559Y0368781D01*
X0359115Y0367983D02*
X0338517Y0367983D01*
X0339315Y0367184D02*
X0359671Y0367184D01*
X0360227Y0366386D02*
X0340114Y0366386D01*
X0340912Y0365587D02*
X0360783Y0365587D01*
X0361339Y0364789D02*
X0341554Y0364789D01*
X0342173Y0363990D02*
X0361894Y0363990D01*
X0362450Y0363192D02*
X0342791Y0363192D01*
X0343409Y0362393D02*
X0363006Y0362393D01*
X0363562Y0361595D02*
X0344027Y0361595D01*
X0344646Y0360796D02*
X0364007Y0360796D01*
X0364433Y0359998D02*
X0345264Y0359998D01*
X0345882Y0359199D02*
X0364859Y0359199D01*
X0365285Y0358401D02*
X0346500Y0358401D01*
X0347119Y0357602D02*
X0365711Y0357602D01*
X0366137Y0356804D02*
X0347737Y0356804D01*
X0348254Y0356005D02*
X0366563Y0356005D01*
X0366989Y0355207D02*
X0348724Y0355207D01*
X0349195Y0354408D02*
X0367415Y0354408D01*
X0367841Y0353610D02*
X0349665Y0353610D01*
X0350135Y0352811D02*
X0368267Y0352811D01*
X0368693Y0352013D02*
X0350606Y0352013D01*
X0351076Y0351214D02*
X0369119Y0351214D01*
X0369521Y0350416D02*
X0351546Y0350416D01*
X0352017Y0349617D02*
X0369832Y0349617D01*
X0370144Y0348819D02*
X0352487Y0348819D01*
X0352957Y0348020D02*
X0370455Y0348020D01*
X0370767Y0347222D02*
X0353428Y0347222D01*
X0353835Y0346423D02*
X0371078Y0346423D01*
X0371389Y0345624D02*
X0354178Y0345624D01*
X0354521Y0344826D02*
X0371701Y0344826D01*
X0372012Y0344027D02*
X0354864Y0344027D01*
X0355207Y0343229D02*
X0372324Y0343229D01*
X0372635Y0342430D02*
X0355550Y0342430D01*
X0355893Y0341632D02*
X0372947Y0341632D01*
X0373258Y0340833D02*
X0356236Y0340833D01*
X0356579Y0340035D02*
X0373570Y0340035D01*
X0373881Y0339236D02*
X0356922Y0339236D01*
X0357265Y0338438D02*
X0374108Y0338438D01*
X0374316Y0337639D02*
X0357608Y0337639D01*
X0357951Y0336841D02*
X0374523Y0336841D01*
X0374730Y0336042D02*
X0358237Y0336042D01*
X0358466Y0335244D02*
X0374937Y0335244D01*
X0375144Y0334445D02*
X0358695Y0334445D01*
X0358924Y0333647D02*
X0375351Y0333647D01*
X0375558Y0332848D02*
X0359153Y0332848D01*
X0359382Y0332050D02*
X0373097Y0332050D01*
X0372299Y0331251D02*
X0359611Y0331251D01*
X0359840Y0330453D02*
X0372250Y0330453D01*
X0372250Y0329654D02*
X0360068Y0329654D01*
X0360297Y0328856D02*
X0372608Y0328856D01*
X0374550Y0330250D02*
X0373424Y0326201D01*
X0372475Y0323266D02*
X0377568Y0323266D01*
X0377677Y0322468D02*
X0361714Y0322468D01*
X0361592Y0323266D02*
X0370589Y0323266D01*
X0369341Y0324065D02*
X0361469Y0324065D01*
X0361346Y0324863D02*
X0368852Y0324863D01*
X0368700Y0325662D02*
X0361213Y0325662D01*
X0360984Y0326460D02*
X0368758Y0326460D01*
X0369046Y0327259D02*
X0360755Y0327259D01*
X0360526Y0328057D02*
X0369726Y0328057D01*
X0371418Y0320871D02*
X0361960Y0320871D01*
X0361837Y0321669D02*
X0375816Y0321669D01*
X0374673Y0320871D02*
X0373864Y0320871D01*
X0373990Y0320072D02*
X0374800Y0320072D01*
X0374926Y0319274D02*
X0374116Y0319274D01*
X0374243Y0318475D02*
X0373229Y0318475D01*
X0373301Y0317677D02*
X0362452Y0317677D01*
X0362329Y0318475D02*
X0369578Y0318475D01*
X0369825Y0319274D02*
X0362206Y0319274D01*
X0362083Y0320072D02*
X0370322Y0320072D01*
X0369752Y0316878D02*
X0362575Y0316878D01*
X0362698Y0316080D02*
X0370174Y0316080D01*
X0371065Y0315281D02*
X0362821Y0315281D01*
X0362943Y0314483D02*
X0378730Y0314483D01*
X0378767Y0313684D02*
X0362971Y0313684D01*
X0362992Y0312886D02*
X0372356Y0312886D01*
X0371198Y0312087D02*
X0363013Y0312087D01*
X0363034Y0311289D02*
X0369500Y0311289D01*
X0368702Y0310490D02*
X0363055Y0310490D01*
X0363076Y0309691D02*
X0367903Y0309691D01*
X0367105Y0308893D02*
X0363150Y0308893D01*
X0363150Y0308094D02*
X0366306Y0308094D01*
X0365507Y0307296D02*
X0362929Y0307296D01*
X0363150Y0306497D02*
X0364709Y0306497D01*
X0364000Y0305699D02*
X0363150Y0305699D01*
X0363024Y0304900D02*
X0364000Y0304900D01*
X0364000Y0304102D02*
X0363150Y0304102D01*
X0363128Y0303303D02*
X0363601Y0303303D01*
X0362500Y0295136D02*
X0362500Y0294047D01*
X0363173Y0293375D01*
X0362851Y0291661D01*
X0362771Y0291586D01*
X0362754Y0291145D01*
X0362673Y0290710D01*
X0362735Y0290620D01*
X0362731Y0290510D01*
X0363032Y0290186D01*
X0363281Y0289822D01*
X0363389Y0289801D01*
X0366279Y0286689D01*
X0366525Y0286326D01*
X0366637Y0286304D01*
X0366714Y0286221D01*
X0367152Y0286205D01*
X0368900Y0285867D01*
X0369003Y0285438D01*
X0369646Y0284553D01*
X0370578Y0283982D01*
X0375610Y0283185D01*
X0376532Y0283406D01*
X0375604Y0279831D01*
X0374958Y0280383D01*
X0370114Y0281957D01*
X0369023Y0281871D01*
X0368317Y0281511D01*
X0366793Y0281994D01*
X0366787Y0282005D01*
X0366084Y0282219D01*
X0365383Y0282441D01*
X0365373Y0282436D01*
X0365361Y0282439D01*
X0364712Y0282093D01*
X0364060Y0281755D01*
X0364056Y0281743D01*
X0361034Y0280131D01*
X0360428Y0279884D01*
X0360388Y0279787D01*
X0360295Y0279737D01*
X0360105Y0279112D01*
X0357538Y0272990D01*
X0356253Y0271705D01*
X0358121Y0276054D01*
X0361234Y0286910D01*
X0362500Y0295136D01*
X0362500Y0294520D02*
X0362405Y0294520D01*
X0362282Y0293721D02*
X0362826Y0293721D01*
X0363088Y0292923D02*
X0362159Y0292923D01*
X0362036Y0292124D02*
X0362938Y0292124D01*
X0362761Y0291326D02*
X0361913Y0291326D01*
X0361791Y0290527D02*
X0362732Y0290527D01*
X0363456Y0289729D02*
X0361668Y0289729D01*
X0361545Y0288930D02*
X0364198Y0288930D01*
X0364939Y0288132D02*
X0361422Y0288132D01*
X0361299Y0287333D02*
X0365681Y0287333D01*
X0366384Y0286535D02*
X0361126Y0286535D01*
X0361234Y0286910D02*
X0361234Y0286910D01*
X0360897Y0285736D02*
X0368931Y0285736D01*
X0369366Y0284938D02*
X0360668Y0284938D01*
X0360439Y0284139D02*
X0370321Y0284139D01*
X0370769Y0281744D02*
X0376101Y0281744D01*
X0376308Y0282542D02*
X0359981Y0282542D01*
X0359752Y0281744D02*
X0364056Y0281744D01*
X0362560Y0280945D02*
X0359523Y0280945D01*
X0359295Y0280147D02*
X0361062Y0280147D01*
X0360177Y0279348D02*
X0359066Y0279348D01*
X0358837Y0278550D02*
X0359869Y0278550D01*
X0359534Y0277751D02*
X0358608Y0277751D01*
X0358379Y0276953D02*
X0359199Y0276953D01*
X0358864Y0276154D02*
X0358150Y0276154D01*
X0358121Y0276054D02*
X0358121Y0276054D01*
X0357821Y0275355D02*
X0358529Y0275355D01*
X0358195Y0274557D02*
X0357478Y0274557D01*
X0357135Y0273758D02*
X0357860Y0273758D01*
X0357507Y0272960D02*
X0356792Y0272960D01*
X0356709Y0272161D02*
X0356449Y0272161D01*
X0356250Y0271363D02*
X0356106Y0271363D01*
X0356250Y0270564D02*
X0355762Y0270564D01*
X0355419Y0269766D02*
X0356281Y0269766D01*
X0357080Y0268967D02*
X0355076Y0268967D01*
X0354733Y0268169D02*
X0361130Y0268169D01*
X0362911Y0267370D02*
X0354390Y0267370D01*
X0354047Y0266572D02*
X0363500Y0266572D01*
X0364274Y0265773D02*
X0353704Y0265773D01*
X0353249Y0264975D02*
X0370648Y0264975D01*
X0370960Y0265773D02*
X0367326Y0265773D01*
X0368100Y0266572D02*
X0371271Y0266572D01*
X0370024Y0267370D02*
X0368100Y0267370D01*
X0368100Y0268169D02*
X0368732Y0268169D01*
X0368992Y0268967D02*
X0368151Y0268967D01*
X0368410Y0269766D02*
X0369251Y0269766D01*
X0369093Y0270564D02*
X0368669Y0270564D01*
X0368710Y0270689D02*
X0364209Y0272151D01*
X0364147Y0271626D01*
X0364196Y0271007D01*
X0364364Y0270410D01*
X0364646Y0269857D01*
X0364760Y0269713D01*
X0364538Y0269490D01*
X0360850Y0271144D01*
X0360850Y0271580D01*
X0363212Y0277213D01*
X0365728Y0278555D01*
X0367259Y0278070D01*
X0367582Y0277436D01*
X0368414Y0276726D01*
X0373259Y0275152D01*
X0374349Y0275238D01*
X0374423Y0275275D01*
X0373942Y0273419D01*
X0373942Y0273419D01*
X0373527Y0272357D01*
X0373398Y0272522D01*
X0372926Y0272925D01*
X0372385Y0273228D01*
X0370568Y0273818D01*
X0369718Y0271203D01*
X0368957Y0271450D01*
X0369807Y0274065D01*
X0367990Y0274655D01*
X0367374Y0274728D01*
X0366755Y0274680D01*
X0366158Y0274511D01*
X0365605Y0274230D01*
X0365118Y0273845D01*
X0364715Y0273374D01*
X0364457Y0272912D01*
X0368957Y0271450D01*
X0368710Y0270689D01*
X0368929Y0271363D02*
X0366636Y0271363D01*
X0366767Y0272161D02*
X0361094Y0272161D01*
X0360850Y0271363D02*
X0364168Y0271363D01*
X0364321Y0270564D02*
X0362142Y0270564D01*
X0363923Y0269766D02*
X0364718Y0269766D01*
X0364483Y0272960D02*
X0361429Y0272960D01*
X0361763Y0273758D02*
X0365044Y0273758D01*
X0366320Y0274557D02*
X0362098Y0274557D01*
X0362433Y0275355D02*
X0372632Y0275355D01*
X0374237Y0274557D02*
X0368293Y0274557D01*
X0369707Y0273758D02*
X0370548Y0273758D01*
X0370751Y0273758D02*
X0374030Y0273758D01*
X0373763Y0272960D02*
X0372863Y0272960D01*
X0370289Y0272960D02*
X0369448Y0272960D01*
X0369188Y0272161D02*
X0370029Y0272161D01*
X0369770Y0271363D02*
X0369225Y0271363D01*
X0370174Y0276154D02*
X0362768Y0276154D01*
X0363103Y0276953D02*
X0368149Y0276953D01*
X0367422Y0277751D02*
X0364221Y0277751D01*
X0365718Y0278550D02*
X0365746Y0278550D01*
X0367583Y0281744D02*
X0368773Y0281744D01*
X0373227Y0280945D02*
X0375893Y0280945D01*
X0375686Y0280147D02*
X0375235Y0280147D01*
X0374625Y0283341D02*
X0360210Y0283341D01*
X0376259Y0283341D02*
X0376515Y0283341D01*
X0378497Y0296043D02*
X0377722Y0296518D01*
X0376356Y0296735D01*
X0376400Y0297146D01*
X0376350Y0297209D01*
X0376350Y0297288D01*
X0376018Y0297620D01*
X0375850Y0297829D01*
X0375850Y0299203D01*
X0375503Y0299550D01*
X0377847Y0299550D01*
X0378821Y0299953D01*
X0378710Y0297604D01*
X0378497Y0296043D01*
X0378507Y0296117D02*
X0378377Y0296117D01*
X0378616Y0296915D02*
X0376375Y0296915D01*
X0375943Y0297714D02*
X0378715Y0297714D01*
X0378753Y0298512D02*
X0375850Y0298512D01*
X0375742Y0299311D02*
X0378790Y0299311D01*
X0378805Y0312886D02*
X0378244Y0312886D01*
X0378658Y0315281D02*
X0375756Y0315281D01*
X0375559Y0315281D02*
X0374749Y0315281D01*
X0374622Y0316080D02*
X0375432Y0316080D01*
X0375306Y0316878D02*
X0374496Y0316878D01*
X0374369Y0317677D02*
X0375179Y0317677D01*
X0377411Y0321669D02*
X0377786Y0321669D01*
X0377459Y0324065D02*
X0376667Y0324065D01*
X0370337Y0264176D02*
X0352779Y0264176D01*
X0352308Y0263378D02*
X0370025Y0263378D01*
X0369714Y0262579D02*
X0351838Y0262579D01*
X0351368Y0261781D02*
X0369383Y0261781D01*
X0368957Y0260982D02*
X0350897Y0260982D01*
X0350731Y0260184D02*
X0350427Y0260184D01*
X0350000Y0259385D02*
X0349956Y0259385D01*
X0350000Y0258587D02*
X0349486Y0258587D01*
X0349016Y0257788D02*
X0350000Y0257788D01*
X0350558Y0256990D02*
X0348545Y0256990D01*
X0348075Y0256191D02*
X0354666Y0256191D01*
X0357052Y0259385D02*
X0368105Y0259385D01*
X0367679Y0258587D02*
X0361044Y0258587D01*
X0358658Y0255393D02*
X0347502Y0255393D01*
X0346884Y0254594D02*
X0362651Y0254594D01*
X0363752Y0253796D02*
X0346265Y0253796D01*
X0345647Y0252997D02*
X0364697Y0252997D01*
X0364271Y0252199D02*
X0345029Y0252199D01*
X0344411Y0251400D02*
X0363845Y0251400D01*
X0363351Y0250602D02*
X0343792Y0250602D01*
X0343174Y0249803D02*
X0362795Y0249803D01*
X0362239Y0249005D02*
X0342556Y0249005D01*
X0341937Y0248206D02*
X0361683Y0248206D01*
X0361127Y0247408D02*
X0341319Y0247408D01*
X0341017Y0247018D02*
X0341017Y0247018D01*
X0340609Y0246609D02*
X0360571Y0246609D01*
X0360015Y0245811D02*
X0339810Y0245811D01*
X0339012Y0245012D02*
X0359459Y0245012D01*
X0358903Y0244214D02*
X0338213Y0244214D01*
X0337415Y0243415D02*
X0358348Y0243415D01*
X0357792Y0242617D02*
X0336616Y0242617D01*
X0335818Y0241818D02*
X0357236Y0241818D01*
X0356680Y0241020D02*
X0335019Y0241020D01*
X0334220Y0240221D02*
X0355995Y0240221D01*
X0355286Y0239422D02*
X0333422Y0239422D01*
X0332504Y0238624D02*
X0354577Y0238624D01*
X0353867Y0237825D02*
X0331473Y0237825D01*
X0330442Y0237027D02*
X0353158Y0237027D01*
X0352448Y0236228D02*
X0329411Y0236228D01*
X0328379Y0235430D02*
X0351739Y0235430D01*
X0351030Y0234631D02*
X0327348Y0234631D01*
X0326317Y0233833D02*
X0350320Y0233833D01*
X0349611Y0233034D02*
X0325285Y0233034D01*
X0324254Y0232236D02*
X0348902Y0232236D01*
X0348140Y0231437D02*
X0322946Y0231437D01*
X0321590Y0230639D02*
X0347241Y0230639D01*
X0346342Y0229840D02*
X0320235Y0229840D01*
X0318879Y0229042D02*
X0345443Y0229042D01*
X0344544Y0228243D02*
X0317524Y0228243D01*
X0316168Y0227445D02*
X0343645Y0227445D01*
X0342746Y0226646D02*
X0314812Y0226646D01*
X0313117Y0225848D02*
X0341847Y0225848D01*
X0340948Y0225049D02*
X0311259Y0225049D01*
X0309400Y0224251D02*
X0340050Y0224251D01*
X0339148Y0223452D02*
X0307541Y0223452D01*
X0305683Y0222654D02*
X0338001Y0222654D01*
X0336854Y0221855D02*
X0303739Y0221855D01*
X0300954Y0221057D02*
X0335707Y0221057D01*
X0334560Y0220258D02*
X0298169Y0220258D01*
X0295385Y0219460D02*
X0333414Y0219460D01*
X0332267Y0218661D02*
X0292133Y0218661D01*
X0286945Y0217863D02*
X0331120Y0217863D01*
X0329973Y0217064D02*
X0283043Y0217064D01*
X0283043Y0216266D02*
X0328764Y0216266D01*
X0327268Y0215467D02*
X0282452Y0215467D01*
X0281404Y0214669D02*
X0325771Y0214669D01*
X0324274Y0213870D02*
X0281404Y0213870D01*
X0281404Y0213072D02*
X0322777Y0213072D01*
X0321280Y0212273D02*
X0281404Y0212273D01*
X0281404Y0211475D02*
X0319783Y0211475D01*
X0318286Y0210676D02*
X0281427Y0210676D01*
X0281123Y0209878D02*
X0316295Y0209878D01*
X0314247Y0209079D02*
X0233353Y0209079D01*
X0235400Y0208281D02*
X0312200Y0208281D01*
X0310153Y0207482D02*
X0237447Y0207482D01*
X0239494Y0206684D02*
X0308106Y0206684D01*
X0305770Y0205885D02*
X0241830Y0205885D01*
X0244909Y0205087D02*
X0302691Y0205087D01*
X0299612Y0204288D02*
X0247988Y0204288D01*
X0251067Y0203489D02*
X0296533Y0203489D01*
X0292349Y0202691D02*
X0255251Y0202691D01*
X0261103Y0201892D02*
X0286496Y0201892D01*
X0277216Y0201094D02*
X0270384Y0201094D01*
X0271936Y0209878D02*
X0231305Y0209878D01*
X0229314Y0210676D02*
X0271237Y0210676D01*
X0270899Y0211475D02*
X0270498Y0211475D01*
X0268590Y0211475D02*
X0267732Y0211475D01*
X0265825Y0211475D02*
X0227817Y0211475D01*
X0226320Y0212273D02*
X0265364Y0212273D01*
X0265318Y0213072D02*
X0224823Y0213072D01*
X0223326Y0213870D02*
X0265584Y0213870D01*
X0265850Y0214669D02*
X0221829Y0214669D01*
X0220332Y0215467D02*
X0266116Y0215467D01*
X0266383Y0216266D02*
X0218836Y0216266D01*
X0217627Y0217064D02*
X0266610Y0217064D01*
X0260655Y0217863D02*
X0216480Y0217863D01*
X0215333Y0218661D02*
X0255467Y0218661D01*
X0252215Y0219460D02*
X0214186Y0219460D01*
X0213040Y0220258D02*
X0249431Y0220258D01*
X0246646Y0221057D02*
X0211893Y0221057D01*
X0210746Y0221855D02*
X0243861Y0221855D01*
X0241917Y0222654D02*
X0209599Y0222654D01*
X0275464Y0209878D02*
X0278526Y0209878D01*
X0277527Y0210676D02*
X0276162Y0210676D01*
X0276501Y0211475D02*
X0276726Y0211475D01*
X0353869Y0260184D02*
X0368531Y0260184D01*
X0367253Y0257788D02*
X0366264Y0257788D01*
X0327837Y0396729D02*
X0219763Y0396729D01*
X0221260Y0397528D02*
X0326340Y0397528D01*
X0324843Y0398326D02*
X0222757Y0398326D01*
X0224254Y0399125D02*
X0323346Y0399125D01*
X0321849Y0399923D02*
X0225751Y0399923D01*
X0227248Y0400722D02*
X0320352Y0400722D01*
X0318855Y0401520D02*
X0228745Y0401520D01*
X0230527Y0402319D02*
X0317073Y0402319D01*
X0315026Y0403117D02*
X0232574Y0403117D01*
X0234621Y0403916D02*
X0312979Y0403916D01*
X0310931Y0404714D02*
X0236669Y0404714D01*
X0238716Y0405513D02*
X0308884Y0405513D01*
X0306837Y0406311D02*
X0240763Y0406311D01*
X0243738Y0407110D02*
X0303862Y0407110D01*
X0300783Y0407908D02*
X0246817Y0407908D01*
X0249897Y0408707D02*
X0297703Y0408707D01*
X0294574Y0409505D02*
X0253025Y0409505D01*
X0258878Y0410304D02*
X0288722Y0410304D01*
X0282869Y0411102D02*
X0264731Y0411102D01*
X0274876Y0411901D02*
X0274924Y0411901D01*
X0361991Y0538864D02*
X0185609Y0538864D01*
X0183705Y0538066D02*
X0363895Y0538066D01*
X0365799Y0537267D02*
X0181801Y0537267D01*
X0187814Y0539663D02*
X0359786Y0539663D01*
X0357371Y0540461D02*
X0190229Y0540461D01*
X0192643Y0541260D02*
X0354957Y0541260D01*
X0352542Y0542058D02*
X0195058Y0542058D01*
X0197472Y0542857D02*
X0350128Y0542857D01*
X0347713Y0543655D02*
X0199887Y0543655D01*
X0202301Y0544454D02*
X0345299Y0544454D01*
X0342879Y0545252D02*
X0204721Y0545252D01*
X0207959Y0546051D02*
X0339641Y0546051D01*
X0336402Y0546849D02*
X0211198Y0546849D01*
X0214437Y0547648D02*
X0333163Y0547648D01*
X0329924Y0548446D02*
X0217676Y0548446D01*
X0220914Y0549245D02*
X0326686Y0549245D01*
X0323092Y0550043D02*
X0224508Y0550043D01*
X0229332Y0550842D02*
X0318268Y0550842D01*
X0313445Y0551640D02*
X0234155Y0551640D01*
X0238979Y0552439D02*
X0308621Y0552439D01*
X0302570Y0553237D02*
X0245030Y0553237D01*
X0254249Y0554036D02*
X0293351Y0554036D01*
X0280395Y0554834D02*
X0267205Y0554834D01*
X0504071Y0312087D02*
X0514948Y0312087D01*
X0511859Y0311289D02*
X0504078Y0311289D01*
X0504085Y0310490D02*
X0511060Y0310490D01*
X0510262Y0309691D02*
X0504092Y0309691D01*
X0504100Y0308893D02*
X0509463Y0308893D01*
X0508665Y0308094D02*
X0504100Y0308094D01*
X0503829Y0307296D02*
X0507866Y0307296D01*
X0507068Y0306497D02*
X0504100Y0306497D01*
X0504100Y0305699D02*
X0506269Y0305699D01*
X0505471Y0304900D02*
X0503924Y0304900D01*
X0504103Y0304102D02*
X0505400Y0304102D01*
X0505400Y0303303D02*
X0504100Y0303303D01*
X0504089Y0302505D02*
X0504802Y0302505D01*
X0504500Y0301706D02*
X0504082Y0301706D01*
X0504075Y0300908D02*
X0504500Y0300908D01*
X0504688Y0300109D02*
X0504068Y0300109D01*
X0504061Y0299311D02*
X0505486Y0299311D01*
X0505463Y0296915D02*
X0504040Y0296915D01*
X0504033Y0296117D02*
X0504664Y0296117D01*
X0504250Y0295318D02*
X0504026Y0295318D01*
X0511300Y0296500D02*
X0512988Y0294812D01*
X0511300Y0296500D02*
X0511300Y0298750D01*
X0512395Y0300908D02*
X0513705Y0300908D01*
X0514050Y0301706D02*
X0509100Y0301706D01*
X0508798Y0302505D02*
X0514050Y0302505D01*
X0514343Y0303303D02*
X0508200Y0303303D01*
X0508632Y0304102D02*
X0514963Y0304102D01*
X0514866Y0308094D02*
X0512624Y0308094D01*
X0511826Y0307296D02*
X0522621Y0307296D01*
X0522500Y0306497D02*
X0511027Y0306497D01*
X0510229Y0305699D02*
X0522526Y0305699D01*
X0522526Y0304900D02*
X0509430Y0304900D01*
X0514800Y0298750D02*
X0518050Y0298750D01*
X0518800Y0299500D01*
X0518800Y0302050D01*
X0514187Y0288930D02*
X0511850Y0288930D01*
X0510285Y0286535D02*
X0507394Y0286535D01*
X0502135Y0274557D02*
X0512970Y0274557D01*
X0512009Y0273758D02*
X0501996Y0273758D01*
X0501857Y0272960D02*
X0511537Y0272960D01*
X0515923Y0270564D02*
X0516730Y0270564D01*
X0516629Y0269766D02*
X0515822Y0269766D01*
X0515722Y0268967D02*
X0516528Y0268967D01*
X0521547Y0320871D02*
X0522013Y0320871D01*
D18*
X0506050Y0284500D03*
M02*
